<?xml version="1.0" encoding="UTF-8" standalone="no"?>
<!-- Created with Inkscape (http://www.inkscape.org/) -->

<svg
   version="1.1"
   id="svg1"
   width="259.99332"
   height="342.25601"
   viewBox="0 0 259.99332 342.25601"
   sodipodi:docname="02_ported_enclosure.svg"
   inkscape:version="1.4 (e7c3feb100, 2024-10-09)"
   xmlns:inkscape="http://www.inkscape.org/namespaces/inkscape"
   xmlns:sodipodi="http://sodipodi.sourceforge.net/DTD/sodipodi-0.dtd"
   xmlns="http://www.w3.org/2000/svg"
   xmlns:svg="http://www.w3.org/2000/svg">
  <defs
     id="defs1" />
  <sodipodi:namedview
     id="namedview1"
     pagecolor="#ffffff"
     bordercolor="#000000"
     borderopacity="0.25"
     inkscape:showpageshadow="2"
     inkscape:pageopacity="0.0"
     inkscape:pagecheckerboard="0"
     inkscape:deskcolor="#d1d1d1"
     inkscape:zoom="1.6128278"
     inkscape:cx="130.20609"
     inkscape:cy="171.12801"
     inkscape:window-width="1366"
     inkscape:window-height="761"
     inkscape:window-x="0"
     inkscape:window-y="0"
     inkscape:window-maximized="1"
     inkscape:current-layer="g1">
    <inkscape:page
       x="0"
       y="0"
       inkscape:label="1"
       id="page1"
       width="259.99332"
       height="342.25601"
       margin="0"
       bleed="0" />
  </sodipodi:namedview>
  <g
     id="g1"
     inkscape:groupmode="layer"
     inkscape:label="1">
    <path
       id="path1"
       d="m 0,56.69362 h 28.3468 m 0,0 H 56.69362 V 44.221 m 0,-31.74839 V 0 m 8.50412,22.67752 c 1.13951,3.13069 1.13951,6.56461 0,9.6953 m 2.83443,-13.94759 c 2.27902,6.2614 2.27902,13.12926 0,19.39067 M 70.867,14.17339 c 3.41857,9.39211 3.41857,19.69389 0,29.08601 M 0,-56.69362 h 28.3468 m 0,0 h 28.34682 v -12.47261 m 0,-31.74838 v -12.47263 m -28.34682,56.69362 -1e-5,-12.47261 m 0,-31.74838 1e-5,-12.47263 -1e-5,-24.37832 m 0,-7.93695 1e-5,-24.37835 M 56.69362,-56.69362 H 73.1347 m 23.81144,0 h 16.4411 12.47261 m 31.74838,0 h 12.47263 v -12.47261 m 0,-31.74838 v -12.47263 m 8.50412,22.67754 c 1.13951,3.1307 1.13951,6.56462 0,9.69531 m 2.83442,-13.94759 c 2.27904,6.2614 2.27904,13.12926 0,19.39068 m 2.83484,-23.64252 c 3.41856,9.39212 3.41856,19.69389 0,29.08602"
       style="fill:none;stroke:#000000;stroke-width:0.3985;stroke-linecap:butt;stroke-linejoin:miter;stroke-miterlimit:10;stroke-dasharray:none;stroke-opacity:1"
       transform="matrix(1.3333333,0,0,-1.3333333,9.5013333,93.788)" />
    <path
       id="path2"
       d="m 0.56184375,-3.4102266 c 0,2.0625 1.60546875,3.63281254 3.45703125,3.63281254 1.6289063,0 2.6015625,-1.38281254 2.6015625,-2.54296874 0,-0.1054688 0,-0.1757813 -0.1289062,-0.1757813 -0.1054688,0 -0.1054688,0.070312 -0.1171875,0.1640625 -0.082031,1.42968754 -1.1484375,2.23828129 -2.2265625,2.23828129 -0.609375,0 -2.5664063,-0.33984375 -2.5664063,-3.30468749 0,-2.9765625 1.9453125,-3.3164063 2.5546875,-3.3164063 1.078125,0 1.96875,0.9023438 2.1679688,2.3671875 0.023437,0.1289063 0.023437,0.1640625 0.1640625,0.1640625 0.1523437,0 0.1523437,-0.035156 0.1523437,-0.234375 v -2.3671875 c 0,-0.1640625 0,-0.234375 -0.1054687,-0.234375 -0.035156,0 -0.082031,0 -0.1640625,0.1171875 l -0.4921875,0.7382813 c -0.375,-0.3632813 -0.8789063,-0.8554688 -1.8398438,-0.8554688 -1.8632812,0 -3.45703125,1.5820313 -3.45703125,3.609375 z m 0,0"
       style="fill:#000000;fill-opacity:1;fill-rule:nonzero;stroke:none"
       aria-label="C"
       transform="matrix(1.3333333,0,0,1.3333333,4.704,13.504)" />
    <path
       id="path3"
       d="m 1.58714,56.69362 c 0,0.87656 -0.71058,1.58714 -1.58714,1.58714 -0.87656,0 -1.58714,-0.71058 -1.58714,-1.58714 0,-0.87657 0.71058,-1.58716 1.58714,-1.58716 0.87656,0 1.58714,0.71059 1.58714,1.58716 z"
       style="fill:#ffffff;fill-opacity:1;fill-rule:nonzero;stroke:#000000;stroke-width:0.3985;stroke-linecap:butt;stroke-linejoin:miter;stroke-miterlimit:10;stroke-dasharray:none;stroke-opacity:1"
       transform="matrix(1.3333333,0,0,-1.3333333,9.5013333,93.788)" />
    <path
       id="path4"
       d="M 50.74075,12.47261 V 44.221 H 62.64647 V 12.47261 Z"
       style="fill:none;stroke:#000000;stroke-width:0.797;stroke-linecap:butt;stroke-linejoin:miter;stroke-miterlimit:10;stroke-dasharray:none;stroke-opacity:1"
       transform="matrix(1.3333333,0,0,-1.3333333,9.5013333,93.788)" />
    <g
       id="g4"
       aria-label="Z&#10;rad"
       transform="matrix(1.3333333,0,0,1.3333333,48.924,58.852)">
      <path
         id="path5"
         d="m 5.4505547,-6.4573594 c 0.070312,-0.1054687 0.070312,-0.1171875 0.070312,-0.1875 0,-0.1640625 -0.058594,-0.1640625 -0.2578125,-0.1640625 H 0.79821094 l -0.10546875,2.25 h 0.24609375 c 0.0703125,-1.125 0.36328126,-1.9335937 2.00390626,-1.9335937 h 1.5585937 l -3.86718746,6.12890623 c -0.0703125,0.10546875 -0.0703125,0.1171875 -0.0703125,0.19921875 0,0.164062495 0.046875,0.164062495 0.2578125,0.164062495 H 5.4153984 L 5.5794609,-2.6604844 H 5.3333672 c -0.082031,1.3828125 -0.2695313,2.32031253 -2.109375,2.32031253 h -1.640625 z m 0,0"
         style="fill:#000000;fill-opacity:1;fill-rule:nonzero;stroke:none" />
      <path
         id="path6"
         d="m 7.7298516,0.0875625 c 0,-0.046875 0.1640625,-0.66796875 0.1757812,-0.703125 0.011719,-0.0585938 0.2226563,-0.4101562 0.4453125,-0.5742187 0.070312,-0.058594 0.2578125,-0.1992188 0.5625,-0.1992188 0.070312,0 0.2460938,0.011719 0.3867188,0.1054688 -0.2226563,0.058594 -0.3046875,0.2578125 -0.3046875,0.37499995 0,0.15234375 0.1171875,0.2578125 0.2695312,0.2578125 0.1640625,0 0.3984375,-0.12890625 0.3984375,-0.42187495 0,-0.3632813 -0.3867187,-0.5039063 -0.7382812,-0.5039063 -0.3632813,0 -0.6796875,0.140625 -0.984375,0.4921875 C 7.8118828,-1.5061875 7.3900078,-1.5765 7.2142266,-1.5765 c -0.2578125,0 -0.421875,0.1523438 -0.5390625,0.3515625 -0.1640625,0.26953125 -0.2578125,0.6796875 -0.2578125,0.71484375 0,0.0820313 0.09375,0.0820313 0.1171875,0.0820313 0.09375,0 0.1054687,-0.0117188 0.1523437,-0.19921875 C 6.7923516,-1.060875 6.9212578,-1.389 7.2025078,-1.389 c 0.1757813,0 0.2226563,0.1523438 0.2226563,0.3398438 0,0.14062495 -0.058594,0.39843745 -0.1054688,0.58593745 -0.046875,0.1875 -0.1171875,0.46875 -0.1523437,0.62109375 L 6.9446953,1.0602188 c -0.035156,0.082031 -0.070312,0.2578125 -0.070312,0.28125 0,0.1523437 0.1171875,0.2226562 0.234375,0.2226562 0.1054688,0 0.2460938,-0.058594 0.2929688,-0.1992187 0.023437,-0.046875 0.09375,-0.3515625 0.140625,-0.5273438 z M 12.944695,-1.1663437 C 12.80407,-1.4007187 12.557977,-1.5765 12.229852,-1.5765 c -0.890625,0 -1.804688,0.97265625 -1.804688,1.98046875 0,0.67968755 0.457031,1.16015625 1.054688,1.16015625 0.375,0 0.714843,-0.2109375 0.996093,-0.4921875 0.128907,0.421875 0.527344,0.4921875 0.714844,0.4921875 0.246094,0 0.421875,-0.1523437 0.550781,-0.375 0.152344,-0.26953125 0.246094,-0.66796875 0.246094,-0.69140625 0,-0.09375 -0.09375,-0.09375 -0.117187,-0.09375 -0.09375,0 -0.105469,0.0351563 -0.152344,0.22265625 -0.08203,0.328125 -0.210938,0.7382813 -0.503906,0.7382813 -0.1875,0 -0.234375,-0.1523438 -0.234375,-0.3398438 0,-0.1171875 0.05859,-0.36328125 0.105468,-0.55078125 0.04687,-0.1875 0.117188,-0.46875 0.152344,-0.62109375 l 0.140625,-0.5390625 c 0.04687,-0.17578125 0.128906,-0.5039062 0.128906,-0.5390625 0,-0.1523437 -0.128906,-0.2226562 -0.246093,-0.2226562 -0.117188,0 -0.269532,0.082031 -0.316407,0.28125 z M 12.499383,0.626625 c -0.04687,0.1875 -0.199219,0.328125 -0.351563,0.4570313 -0.07031,0.058594 -0.339843,0.28125 -0.644531,0.28125 -0.257812,0 -0.515625,-0.1757813 -0.515625,-0.6679688 0,-0.375 0.210938,-1.13671875 0.363281,-1.41796875 C 11.67907,-1.2835312 12.030633,-1.389 12.229852,-1.389 c 0.480468,0 0.621093,0.52734375 0.621093,0.609375 0,0.0234375 -0.01172,0.0820313 -0.02344,0.09375 z m 5.80957,-3.7617187 c 0,-0.011719 0.02344,-0.1054688 0.02344,-0.1171875 0,-0.035156 -0.02344,-0.09375 -0.105469,-0.09375 -0.140625,0 -0.726563,0.058594 -0.902344,0.070312 -0.04687,0.011719 -0.152344,0.011719 -0.152344,0.1640625 0,0.09375 0.105469,0.09375 0.1875,0.09375 0.328125,0 0.328125,0.046875 0.328125,0.1054687 0,0.046875 -0.01172,0.09375 -0.02344,0.1523438 l -0.398438,1.59375 C 17.125359,-1.4007187 16.879266,-1.5765 16.551141,-1.5765 c -0.890625,0 -1.804688,0.97265625 -1.804688,1.98046875 0,0.67968755 0.457031,1.16015625 1.054688,1.16015625 0.375,0 0.714843,-0.2109375 0.996093,-0.4921875 0.128907,0.421875 0.527344,0.4921875 0.714844,0.4921875 0.246094,0 0.421875,-0.1523437 0.550781,-0.375 0.152344,-0.26953125 0.246094,-0.66796875 0.246094,-0.69140625 0,-0.09375 -0.09375,-0.09375 -0.117187,-0.09375 -0.09375,0 -0.105469,0.0351563 -0.152344,0.22265625 -0.08203,0.328125 -0.210938,0.7382813 -0.503906,0.7382813 -0.1875,0 -0.234375,-0.1523438 -0.234375,-0.3398438 0,-0.12890625 0.01172,-0.19921875 0.03516,-0.28125 z M 16.820672,0.626625 c -0.04687,0.1875 -0.199219,0.328125 -0.351563,0.4570313 -0.07031,0.058594 -0.339843,0.28125 -0.644531,0.28125 -0.257812,0 -0.515625,-0.1757813 -0.515625,-0.6679688 0,-0.375 0.210938,-1.13671875 0.363281,-1.41796875 C 16.000359,-1.2835312 16.351922,-1.389 16.551141,-1.389 c 0.480468,0 0.621093,0.52734375 0.621093,0.609375 0,0.0234375 -0.01172,0.0820313 -0.02344,0.09375 z m 0,0"
         style="fill:#000000;fill-opacity:1;fill-rule:nonzero;stroke:none" />
    </g>
    <path
       id="path7"
       d="M 56.69362,0 V -11.90558"
       style="fill:none;stroke:#000000;stroke-width:0.3985;stroke-linecap:butt;stroke-linejoin:miter;stroke-miterlimit:10;stroke-dasharray:none;stroke-opacity:1"
       transform="matrix(1.3333333,0,0,-1.3333333,9.5013333,93.788)" />
    <path
       id="path8"
       d="m 50.74075,-11.90558 h 11.90572 m -9.92134,-1.98424 h 7.93697 m -6.44881,-1.98437 h 4.96064"
       style="fill:none;stroke:#000000;stroke-width:0.797;stroke-linecap:butt;stroke-linejoin:miter;stroke-miterlimit:10;stroke-dasharray:none;stroke-opacity:1"
       transform="matrix(1.3333333,0,0,-1.3333333,9.5013333,93.788)" />
    <path
       id="path9"
       d="m 0.35282813,-6.8098984 v 0.3164062 h 0.234375 c 0.77343747,0 0.78515627,0.1054688 0.78515627,0.46875 v 5.25000001 c 0,0.3515625 -0.011719,0.46875 -0.78515627,0.46875 h -0.234375 v 0.3046875 H 3.9973594 c 1.6757812,0 3.046875,-1.47656251 3.046875,-3.35156251 0,-1.8867187 -1.3476563,-3.4570312 -3.046875,-3.4570312 z m 2.36718747,6.50390621 c -0.46875,0 -0.4921875,-0.0703125 -0.4921875,-0.3984375 V -6.0950547 c 0,-0.328125 0.023437,-0.3984375 0.4921875,-0.3984375 h 0.9960938 c 0.6210937,0 1.3007812,0.2109375 1.8164062,0.9257813 0.421875,0.5859375 0.515625,1.4414062 0.515625,2.2148437 0,1.1132813 -0.1875,1.7109375 -0.5507812,2.1914063 -0.1992188,0.26953121 -0.7617188,0.85546871 -1.7695313,0.85546871 z m 0,0"
       style="fill:#000000;fill-opacity:1;fill-rule:nonzero;stroke:none"
       aria-label="D"
       transform="matrix(1.3333333,0,0,1.3333333,4.428,164.68533)" />
    <path
       id="path10"
       d="m 1.58714,-56.69362 c 0,0.87657 -0.71058,1.58716 -1.58714,1.58716 -0.87656,0 -1.58714,-0.71059 -1.58714,-1.58716 0,-0.87656 0.71058,-1.58714 1.58714,-1.58714 0.87656,0 1.58714,0.71058 1.58714,1.58714 z"
       style="fill:#ffffff;fill-opacity:1;fill-rule:nonzero;stroke:#000000;stroke-width:0.3985;stroke-linecap:butt;stroke-linejoin:miter;stroke-miterlimit:10;stroke-dasharray:none;stroke-opacity:1"
       transform="matrix(1.3333333,0,0,-1.3333333,9.5013333,93.788)" />
    <path
       id="path11"
       d="m 56.69362,-68.76772 5.95285,-3.07742 -11.90572,-5.35782 11.90572,-5.3578 -11.90572,-5.35782 11.90572,-5.35782 -11.90572,-5.35782 5.95287,-2.67891"
       style="fill:none;stroke:#000000;stroke-width:0.797;stroke-linecap:butt;stroke-linejoin:bevel;stroke-miterlimit:10;stroke-dasharray:none;stroke-opacity:1"
       transform="matrix(1.3333333,0,0,-1.3333333,9.5013333,93.788)" />
    <g
       id="g11"
       aria-label="R&#10;al"
       transform="matrix(1.3333333,0,0,1.3333333,95.966667,210.03333)">
      <path
         id="path12"
         d="m 2.2251953,-3.5142578 v -2.578125 c 0,-0.234375 0,-0.3515625 0.2226563,-0.3867188 0.1054687,-0.011719 0.3867187,-0.011719 0.5859375,-0.011719 0.9023437,0 2.015625,0.035156 2.015625,1.4765625 0,0.6914062 -0.234375,1.5 -1.7109375,1.5 z m 2.109375,0.1289062 c 0.9609375,-0.234375 1.7460938,-0.84375 1.7460938,-1.6289062 0,-0.9492188 -1.1367188,-1.7929688 -2.6015625,-1.7929688 H 0.35019531 v 0.3164063 h 0.234375 c 0.77343749,0 0.78515629,0.1054687 0.78515629,0.46875 v 5.24999999 c 0,0.3515625 -0.011719,0.46875 -0.78515629,0.46875 h -0.234375 v 0.3046875 c 0.3515625,-0.03515625 1.06640629,-0.03515625 1.45312499,-0.03515625 0.3867188,0 1.0898438,0 1.453125,0.03515625 v -0.3046875 h -0.234375 c -0.7734375,0 -0.796875,-0.1171875 -0.796875,-0.46875 V -3.2916016 h 1.1484375 c 0.1640625,0 0.5742188,0 0.9257813,0.3398438 0.3867187,0.3515625 0.3867187,0.65625 0.3867187,1.3242187 0,0.65625004 0,1.05468754 0.3984375,1.42968754 0.4101563,0.36328125 0.9609375,0.421875 1.2539063,0.421875 0.7851562,0 0.9492187,-0.8203125 0.9492187,-1.1015625 0,-0.0585938 0,-0.16406254 -0.1289062,-0.16406254 -0.1054688,0 -0.1054688,0.0820313 -0.1171875,0.15234379 -0.058594,0.71484375 -0.4101563,0.890625 -0.65625,0.890625 -0.4921875,0 -0.5742188,-0.50390625 -0.703125,-1.42968749 l -0.140625,-0.796875 C 5.3658203,-2.8697266 4.8853516,-3.1978516 4.3345703,-3.3853516 Z m 0,0"
         style="fill:#000000;fill-opacity:1;fill-rule:nonzero;stroke:none" />
      <path
         id="path13"
         d="m 10.275977,-1.1675781 c -0.140625,-0.234375 -0.3867192,-0.4101563 -0.7148442,-0.4101563 -0.890625,0 -1.8046875,0.97265628 -1.8046875,1.98046878 0,0.67968752 0.4570313,1.16015622 1.0546875,1.16015622 0.375,0 0.7148438,-0.2109375 0.9960938,-0.4921875 0.1289062,0.421875 0.5273434,0.4921875 0.7148434,0.4921875 0.246094,0 0.421875,-0.1523437 0.550782,-0.375 0.152343,-0.26953122 0.246093,-0.66796872 0.246093,-0.69140622 0,-0.09375 -0.09375,-0.09375 -0.117187,-0.09375 -0.09375,0 -0.105469,0.0351563 -0.152344,0.22265625 -0.08203,0.328125 -0.210937,0.73828127 -0.503906,0.73828127 -0.1875,0 -0.234375,-0.1523438 -0.234375,-0.3398438 0,-0.11718747 0.05859,-0.36328122 0.105469,-0.55078122 0.04687,-0.1875 0.117187,-0.46875 0.152343,-0.62109375 l 0.140625,-0.5390625 c 0.04687,-0.17578125 0.128907,-0.50390623 0.128907,-0.53906253 0,-0.1523437 -0.128907,-0.2226562 -0.246094,-0.2226562 -0.117188,0 -0.269531,0.082031 -0.316406,0.28125 z M 9.8306641,0.62539063 c -0.046875,0.1875 -0.1992188,0.328125 -0.3515625,0.45703127 -0.070312,0.058594 -0.3398438,0.28125 -0.6445313,0.28125 -0.2578125,0 -0.515625,-0.1757813 -0.515625,-0.66796877 0,-0.375 0.2109375,-1.13671875 0.3632813,-1.41796875 0.328125,-0.56249998 0.6796875,-0.66796878 0.8789062,-0.66796878 0.4804692,0 0.6210942,0.52734378 0.6210942,0.60937503 0,0.0234375 -0.01172,0.0820313 -0.02344,0.09375 z M 13.624609,-3.1363281 c 0,-0.011719 0.02344,-0.1054688 0.02344,-0.1171875 0,-0.035156 -0.02344,-0.09375 -0.105469,-0.09375 -0.140625,0 -0.726562,0.058594 -0.902344,0.070312 -0.04687,0.011719 -0.140625,0.011719 -0.140625,0.1640625 0,0.09375 0.09375,0.09375 0.175782,0.09375 0.328125,0 0.328125,0.046875 0.328125,0.1054687 0,0.046875 -0.01172,0.09375 -0.02344,0.1523438 l -0.867187,3.44531248 c -0.02344,0.0703125 -0.02344,0.140625 -0.02344,0.2109375 0,0.45703122 0.398438,0.66796872 0.726563,0.66796872 0.175781,0 0.375,-0.058594 0.5625,-0.375 0.140625,-0.25781247 0.246093,-0.66796872 0.246093,-0.69140622 0,-0.09375 -0.09375,-0.09375 -0.117187,-0.09375 -0.09375,0 -0.105469,0.046875 -0.140625,0.1640625 -0.08203,0.3515625 -0.222656,0.79687502 -0.515625,0.79687502 -0.1875,0 -0.234375,-0.1757813 -0.234375,-0.3398438 0,-0.0703125 0.01172,-0.21093747 0.03516,-0.28124997 z m 0,0"
         style="fill:#000000;fill-opacity:1;fill-rule:nonzero;stroke:none" />
    </g>
    <path
       id="path14"
       d="m 56.69362,-113.38724 v -11.90558"
       style="fill:none;stroke:#000000;stroke-width:0.3985;stroke-linecap:butt;stroke-linejoin:miter;stroke-miterlimit:10;stroke-dasharray:none;stroke-opacity:1"
       transform="matrix(1.3333333,0,0,-1.3333333,9.5013333,93.788)" />
    <path
       id="path15"
       d="m 50.74075,-125.29282 h 11.90572 m -9.92134,-1.98423 h 7.93697 m -6.44881,-1.98438 h 4.96064"
       style="fill:none;stroke:#000000;stroke-width:0.797;stroke-linecap:butt;stroke-linejoin:miter;stroke-miterlimit:10;stroke-dasharray:none;stroke-opacity:1"
       transform="matrix(1.3333333,0,0,-1.3333333,9.5013333,93.788)" />
    <path
       id="path16"
       d="m 28.34679,-68.76772 5.95285,-3.07742 -11.9057,-5.35782 11.9057,-5.3578 -11.9057,-5.35782 11.9057,-5.35782 -11.9057,-5.35782 5.95285,-2.67891"
       style="fill:none;stroke:#000000;stroke-width:0.797;stroke-linecap:butt;stroke-linejoin:bevel;stroke-miterlimit:10;stroke-dasharray:none;stroke-opacity:1"
       transform="matrix(1.3333333,0,0,-1.3333333,9.5013333,93.788)" />
    <path
       id="path17"
       d="m 29.93394,-56.69362 c 0,0.87657 -0.71058,1.58716 -1.58714,1.58716 -0.87655,0 -1.58714,-0.71059 -1.58714,-1.58716 0,-0.87656 0.71059,-1.58714 1.58714,-1.58714 0.87656,0 1.58714,0.71058 1.58714,1.58714 z"
       style="fill:#000000;fill-opacity:1;fill-rule:nonzero;stroke:#000000;stroke-width:0.3985;stroke-linecap:butt;stroke-linejoin:miter;stroke-miterlimit:10;stroke-dasharray:none;stroke-opacity:1"
       transform="matrix(1.3333333,0,0,-1.3333333,9.5013333,93.788)" />
    <path
       id="path18"
       d="m 29.93394,-113.38724 c 0,0.87657 -0.71058,1.58716 -1.58714,1.58716 -0.87655,0 -1.58714,-0.71059 -1.58714,-1.58716 0,-0.87656 0.71059,-1.58714 1.58714,-1.58714 0.87656,0 1.58714,0.71058 1.58714,1.58714 z"
       style="fill:#000000;fill-opacity:1;fill-rule:nonzero;stroke:#000000;stroke-width:0.3985;stroke-linecap:butt;stroke-linejoin:miter;stroke-miterlimit:10;stroke-dasharray:none;stroke-opacity:1"
       transform="matrix(1.3333333,0,0,-1.3333333,9.5013333,93.788)" />
    <g
       id="g18"
       aria-label="R&#10;ab"
       transform="matrix(1.3333333,0,0,1.3333333,15.545333,210.03333)">
      <path
         id="path19"
         d="m 2.2277188,-3.5142578 v -2.578125 c 0,-0.234375 0,-0.3515625 0.2226562,-0.3867188 0.1054688,-0.011719 0.3867188,-0.011719 0.5859375,-0.011719 0.9023438,0 2.015625,0.035156 2.015625,1.4765625 0,0.6914062 -0.234375,1.5 -1.7109375,1.5 z m 2.109375,0.1289062 c 0.9609375,-0.234375 1.7460937,-0.84375 1.7460937,-1.6289062 0,-0.9492188 -1.1367187,-1.7929688 -2.6015625,-1.7929688 H 0.35271875 v 0.3164063 h 0.234375 c 0.77343755,0 0.78515625,0.1054687 0.78515625,0.46875 v 5.24999999 c 0,0.3515625 -0.011719,0.46875 -0.78515625,0.46875 h -0.234375 v 0.3046875 c 0.3515625,-0.03515625 1.06640625,-0.03515625 1.45312505,-0.03515625 0.3867187,0 1.0898437,0 1.453125,0.03515625 v -0.3046875 h -0.234375 c -0.7734375,0 -0.796875,-0.1171875 -0.796875,-0.46875 V -3.2916016 h 1.1484375 c 0.1640625,0 0.5742187,0 0.9257812,0.3398438 0.3867188,0.3515625 0.3867188,0.65625 0.3867188,1.3242187 0,0.65625004 0,1.05468754 0.3984375,1.42968754 0.4101562,0.36328125 0.9609375,0.421875 1.2539062,0.421875 0.7851563,0 0.9492188,-0.8203125 0.9492188,-1.1015625 0,-0.0585938 0,-0.16406254 -0.1289063,-0.16406254 -0.1054687,0 -0.1054687,0.0820313 -0.1171875,0.15234379 -0.058594,0.71484375 -0.4101562,0.890625 -0.65625,0.890625 -0.4921875,0 -0.5742187,-0.50390625 -0.703125,-1.42968749 L 5.544125,-2.2251953 C 5.3683438,-2.8697266 4.887875,-3.1978516 4.3370938,-3.3853516 Z m 0,0"
         style="fill:#000000;fill-opacity:1;fill-rule:nonzero;stroke:none" />
      <path
         id="path20"
         d="m 10.27557,-1.1675781 c -0.140625,-0.234375 -0.3867184,-0.4101563 -0.7148434,-0.4101563 -0.890625,0 -1.8046875,0.97265628 -1.8046875,1.98046878 0,0.67968752 0.4570312,1.16015622 1.0546875,1.16015622 0.375,0 0.7148437,-0.2109375 0.9960937,-0.4921875 0.1289063,0.421875 0.5273437,0.4921875 0.7148437,0.4921875 0.246094,0 0.421875,-0.1523437 0.550781,-0.375 0.152344,-0.26953122 0.246094,-0.66796872 0.246094,-0.69140622 0,-0.09375 -0.09375,-0.09375 -0.117187,-0.09375 -0.09375,0 -0.105469,0.0351563 -0.152344,0.22265625 -0.08203,0.328125 -0.210938,0.73828127 -0.503906,0.73828127 -0.1875,0 -0.234375,-0.1523438 -0.234375,-0.3398438 0,-0.11718747 0.05859,-0.36328122 0.105468,-0.55078122 0.04687,-0.1875 0.117188,-0.46875 0.152344,-0.62109375 l 0.140625,-0.5390625 c 0.04687,-0.17578125 0.128906,-0.50390623 0.128906,-0.53906253 0,-0.1523437 -0.128906,-0.2226562 -0.246093,-0.2226562 -0.117188,0 -0.269532,0.082031 -0.316407,0.28125 z M 9.8302578,0.62539063 c -0.046875,0.1875 -0.1992187,0.328125 -0.3515625,0.45703127 -0.070312,0.058594 -0.3398437,0.28125 -0.6445312,0.28125 -0.2578125,0 -0.515625,-0.1757813 -0.515625,-0.66796877 0,-0.375 0.2109375,-1.13671875 0.3632812,-1.41796875 0.328125,-0.56249998 0.6796875,-0.66796878 0.8789063,-0.66796878 0.4804684,0 0.6210934,0.52734378 0.6210934,0.60937503 0,0.0234375 -0.01172,0.0820313 -0.02344,0.09375 z M 13.495297,-3.1363281 c 0.01172,-0.011719 0.02344,-0.1054688 0.02344,-0.1171875 0,-0.035156 -0.02344,-0.09375 -0.105468,-0.09375 -0.140625,0 -0.714844,0.058594 -0.890625,0.070312 -0.05859,0.011719 -0.152344,0.011719 -0.152344,0.1640625 0,0.09375 0.09375,0.09375 0.175781,0.09375 0.339844,0 0.339844,0.046875 0.339844,0.1054687 0,0.046875 -0.07031,0.328125 -0.117188,0.4921875 l -0.152343,0.6328125 c -0.07031,0.2460938 -0.457032,1.76953128 -0.46875,1.86328128 -0.03516,0.1640625 -0.03516,0.2578125 -0.03516,0.33984375 0,0.70312497 0.445313,1.14843747 1.03125,1.14843747 0.867188,0 1.792969,-0.94921872 1.792969,-1.98046872 0,-0.82031248 -0.5625,-1.16015628 -1.042969,-1.16015628 -0.363281,0 -0.667968,0.1992188 -0.878906,0.375 z m -0.351563,4.5 c -0.339843,0 -0.527343,-0.2929688 -0.527343,-0.70312502 0,-0.2578125 0.05859,-0.50390625 0.257812,-1.2890625 0.03516,-0.12890625 0.03516,-0.140625 0.164063,-0.29296875 0.269531,-0.31640623 0.585937,-0.46875003 0.832031,-0.46875003 0.269531,0 0.515625,0.2109375 0.515625,0.67968753 0,0.28125 -0.152344,0.99609375 -0.363281,1.40625 C 13.846859,1.0355469 13.507016,1.3636719 13.143734,1.3636719 Z m 0,0"
         style="fill:#000000;fill-opacity:1;fill-rule:nonzero;stroke:none" />
    </g>
    <path
       id="path21"
       d="M 40.2525,-137.76556 H 16.44107 m 23.81143,-7.93695 H 16.44107"
       style="fill:none;stroke:#000000;stroke-width:0.797;stroke-linecap:butt;stroke-linejoin:miter;stroke-miterlimit:10;stroke-dasharray:none;stroke-opacity:1"
       transform="matrix(1.3333333,0,0,-1.3333333,9.5013333,93.788)" />
    <g
       id="g21"
       aria-label="C&#10;ab"
       transform="matrix(1.3333333,0,0,1.3333333,6.9986667,285.624)">
      <path
         id="path22"
         d="m 0.5635,-3.4094062 c 0,2.0625 1.6054688,3.63281245 3.4570313,3.63281245 1.6289062,0 2.6015625,-1.38281245 2.6015625,-2.54296875 0,-0.1054687 0,-0.1757812 -0.1289063,-0.1757812 -0.1054687,0 -0.1054687,0.070312 -0.1171875,0.1640625 C 6.2939688,-0.90159375 5.2275625,-0.093 4.1494375,-0.093 c -0.609375,0 -2.5664062,-0.33984375 -2.5664062,-3.3046875 0,-2.9765625 1.9453125,-3.3164062 2.5546875,-3.3164062 1.078125,0 1.96875,0.9023437 2.1679687,2.3671875 0.023437,0.1289062 0.023437,0.1640625 0.1640625,0.1640625 0.1523438,0 0.1523438,-0.035156 0.1523438,-0.234375 v -2.3671875 c 0,-0.1640625 0,-0.234375 -0.1054688,-0.234375 -0.035156,0 -0.082031,0 -0.1640625,0.1171875 L 5.860375,-6.1633125 C 5.485375,-6.5265937 4.9814688,-7.0187812 4.0205313,-7.0187812 2.15725,-7.0187812 0.5635,-5.43675 0.5635,-3.4094062 Z m 0,0"
         style="fill:#000000;fill-opacity:1;fill-rule:nonzero;stroke:none" />
      <path
         id="path23"
         d="M 10.137719,-1.1652656 C 9.9970938,-1.3996406 9.751,-1.5754219 9.422875,-1.5754219 c -0.890625,0 -1.8046875,0.97265628 -1.8046875,1.98046878 0,0.67968752 0.4570313,1.16015622 1.0546875,1.16015622 0.375,0 0.7148438,-0.2109375 0.9960938,-0.4921875 0.1289062,0.421875 0.5273442,0.4921875 0.7148442,0.4921875 0.246093,0 0.421875,-0.1523437 0.550781,-0.375 0.152344,-0.26953122 0.246094,-0.66796872 0.246094,-0.69140622 0,-0.09375 -0.09375,-0.09375 -0.117188,-0.09375 -0.09375,0 -0.105469,0.0351563 -0.152344,0.22265625 -0.08203,0.328125 -0.210937,0.73828127 -0.503906,0.73828127 -0.1875,0 -0.234375,-0.1523438 -0.234375,-0.3398438 0,-0.11718747 0.05859,-0.36328122 0.105469,-0.55078122 0.04687,-0.1875 0.117187,-0.46875 0.152344,-0.62109375 l 0.140625,-0.5390625 c 0.04687,-0.17578125 0.128906,-0.50390623 0.128906,-0.53906253 0,-0.1523437 -0.128906,-0.2226562 -0.246094,-0.2226562 -0.117187,0 -0.269531,0.082031 -0.316406,0.28125 z M 9.6924063,0.62770313 c -0.046875,0.1875 -0.1992188,0.328125 -0.3515625,0.45703127 -0.070312,0.058594 -0.3398438,0.28125 -0.6445313,0.28125 -0.2578125,0 -0.515625,-0.1757813 -0.515625,-0.66796877 0,-0.375 0.2109375,-1.13671875 0.3632813,-1.41796875 0.328125,-0.56249998 0.6796875,-0.66796878 0.8789062,-0.66796878 0.4804688,0 0.621094,0.52734378 0.621094,0.60937503 0,0.0234375 -0.01172,0.0820313 -0.02344,0.09375 z M 13.357445,-3.1340156 c 0.01172,-0.011719 0.02344,-0.1054688 0.02344,-0.1171875 0,-0.035156 -0.02344,-0.09375 -0.105469,-0.09375 -0.140625,0 -0.714844,0.058594 -0.890625,0.070312 -0.05859,0.011719 -0.152344,0.011719 -0.152344,0.1640625 0,0.09375 0.09375,0.09375 0.175782,0.09375 0.339843,0 0.339843,0.046875 0.339843,0.1054687 0,0.046875 -0.07031,0.328125 -0.117187,0.4921875 l -0.152344,0.6328125 c -0.07031,0.2460938 -0.457031,1.76953128 -0.46875,1.86328128 -0.03516,0.1640625 -0.03516,0.2578125 -0.03516,0.33984375 0,0.70312497 0.445312,1.14843747 1.03125,1.14843747 0.867187,0 1.792969,-0.94921872 1.792969,-1.98046872 0,-0.82031248 -0.5625,-1.16015628 -1.042969,-1.16015628 -0.363281,0 -0.667969,0.1992188 -0.878906,0.375 z m -0.351562,4.5 c -0.339844,0 -0.527344,-0.2929688 -0.527344,-0.70312502 0,-0.2578125 0.05859,-0.50390625 0.257813,-1.2890625 0.03516,-0.12890625 0.03516,-0.140625 0.164062,-0.29296875 0.269531,-0.31640623 0.585938,-0.46875003 0.832031,-0.46875003 0.269532,0 0.515625,0.2109375 0.515625,0.67968753 0,0.28125 -0.152343,0.99609375 -0.363281,1.40625 C 13.709008,1.0378594 13.369164,1.3659844 13.005883,1.3659844 Z m 0,0"
         style="fill:#000000;fill-opacity:1;fill-rule:nonzero;stroke:none" />
    </g>
    <path
       id="path24"
       d="m 28.3468,-170.08086 v -11.90557"
       style="fill:none;stroke:#000000;stroke-width:0.3985;stroke-linecap:butt;stroke-linejoin:miter;stroke-miterlimit:10;stroke-dasharray:none;stroke-opacity:1"
       transform="matrix(1.3333333,0,0,-1.3333333,9.5013333,93.788)" />
    <path
       id="path25"
       d="m 22.39395,-181.98643 h 11.9057 m -9.92132,-1.98424 h 7.93695 m -6.44881,-1.98438 h 4.96066"
       style="fill:none;stroke:#000000;stroke-width:0.797;stroke-linecap:butt;stroke-linejoin:miter;stroke-miterlimit:10;stroke-dasharray:none;stroke-opacity:1"
       transform="matrix(1.3333333,0,0,-1.3333333,9.5013333,93.788)" />
    <path
       id="path26"
       d="m 72.7362,-56.85301 c 0,3.28771 1.63474,5.95286 3.65134,5.95286 2.0166,0 3.65136,-2.66515 3.65136,-5.95286 0,-1.64376 -0.66627,-2.97627 -1.48815,-2.97627 -0.82187,0 -1.48813,1.33251 -1.48813,2.97627 0,3.28771 1.63475,5.95286 3.65135,5.95286 2.01661,0 3.65134,-2.66515 3.65134,-5.95286 0,-1.64376 -0.66624,-2.97627 -1.48813,-2.97627 -0.82188,0 -1.48814,1.33251 -1.48814,2.97627 0,3.28771 1.63475,5.95286 3.65135,5.95286 2.0166,0 3.65135,-2.66515 3.65135,-5.95286 0,-1.64376 -0.66626,-2.97627 -1.48814,-2.97627 -0.82187,0 -1.48813,1.33251 -1.48813,2.97627 0,3.28771 1.63473,5.95286 3.65135,5.95286 2.0166,0 3.65134,-2.66515 3.65134,-5.95286 0,-1.64376 -0.66626,-2.97627 -1.48813,-2.97627 -0.82188,0 -1.48814,1.33251 -1.48814,2.97627 0,3.28771 1.63475,5.95286 3.65135,5.95286 2.0166,0 3.65135,-2.66515 3.65135,-5.95286"
       style="fill:none;stroke:#000000;stroke-width:0.797;stroke-linecap:butt;stroke-linejoin:bevel;stroke-miterlimit:10;stroke-dasharray:none;stroke-opacity:1"
       transform="matrix(1.3333333,0,0,-1.3333333,9.5013333,93.788)" />
    <path
       id="path27"
       d="m 58.28076,-56.69362 c 0,0.87657 -0.71058,1.58716 -1.58714,1.58716 -0.87657,0 -1.58716,-0.71059 -1.58716,-1.58716 0,-0.87656 0.71059,-1.58714 1.58716,-1.58714 0.87656,0 1.58714,0.71058 1.58714,1.58714 z"
       style="fill:#000000;fill-opacity:1;fill-rule:nonzero;stroke:#000000;stroke-width:0.3985;stroke-linecap:butt;stroke-linejoin:miter;stroke-miterlimit:10;stroke-dasharray:none;stroke-opacity:1"
       transform="matrix(1.3333333,0,0,-1.3333333,9.5013333,93.788)" />
    <path
       id="path28"
       d="M 2.403375,-6.5854062 C 2.309625,-6.8080625 2.2861875,-6.8080625 2.0518125,-6.8080625 h -1.6875 v 0.3164063 h 0.24609375 c 0.76171875,0 0.78515625,0.1054687 0.78515625,0.46875 v 4.9804687 c 0,0.26953125 0,0.73828125 -1.03125,0.73828125 V 5.3125e-4 C 0.715875,-0.0111875 1.2080625,-0.034625 1.5361875,-0.034625 c 0.328125,0 0.8203125,0.0234375 1.1601563,0.03515625 v -0.3046875 c -1.0195313,0 -1.0195313,-0.46875 -1.0195313,-0.73828125 V -6.409625 h 0.011719 l 2.4023437,6.1875 c 0.046875,0.12890625 0.09375,0.22265625 0.1992188,0.22265625 0.1054687,0 0.1289062,-0.08203125 0.1757812,-0.1875 L 6.9150938,-6.4916562 h 0.011719 v 5.71874995 c 0,0.3515625 -0.023437,0.46875 -0.7851562,0.46875 H 5.8955625 v 0.3046875 c 0.375,-0.03515625 1.0429688,-0.03515625 1.4414063,-0.03515625 0.3867187,0 1.0546875,0 1.4179687,0.03515625 v -0.3046875 h -0.234375 c -0.7734375,0 -0.7851562,-0.1171875 -0.7851562,-0.46875 V -6.0229062 c 0,-0.3632813 0.011719,-0.46875 0.7851562,-0.46875 h 0.234375 V -6.8080625 H 7.0791563 c -0.2695313,0 -0.2695313,0.011719 -0.3398438,0.1992188 L 4.559625,-1.0072812 Z m 8.44043,2.8359375 v -0.65625 l -1.4296878,0.1171875 v 0.3046875 c 0.7031248,0 0.7734378,0.058594 0.7734378,0.4921875 v 4.6640625 c 0,0.4570312 -0.105469,0.4570312 -0.7734378,0.4570312 V 1.934125 C 9.7539609,1.922406 10.269586,1.898969 10.527398,1.898969 c 0.269532,0 0.773438,0.023437 1.125,0.035156 V 1.6294375 c -0.667968,0 -0.773437,0 -0.773437,-0.4570312 V -0.58540625 C 10.925836,-0.4330625 11.347711,0.106 12.097711,0.106 c 1.183594,0 2.226562,-0.97265625 2.226562,-2.2617187 0,-1.265625 -0.972656,-2.25 -2.085937,-2.25 -0.773438,0 -1.195313,0.4453125 -1.394531,0.65625 z m 0.03516,2.6132812 v -2.2148437 c 0.28125,-0.515625 0.773437,-0.796875 1.277344,-0.796875 0.726562,0 1.335937,0.8671875 1.335937,1.9921875 0,1.2070312 -0.691406,2.0507812 -1.429687,2.0507812 -0.398438,0 -0.773438,-0.19921875 -1.042969,-0.609375 -0.140625,-0.2109375 -0.140625,-0.22265625 -0.140625,-0.421875 z m 0,0"
       style="fill:#000000;fill-opacity:1;fill-rule:nonzero;stroke:none"
       aria-label="Mp"
       transform="matrix(1.3333333,0,0,1.3333333,113.108,156.35867)" />
    <path
       id="path29"
       d="m 125.46135,-56.69362 3.07741,5.95287 5.35782,-11.90572 5.3578,11.90572 5.35782,-11.90572 5.35782,11.90572 5.35782,-11.90572 2.6789,5.95285"
       style="fill:none;stroke:#000000;stroke-width:0.797;stroke-linecap:butt;stroke-linejoin:bevel;stroke-miterlimit:10;stroke-dasharray:none;stroke-opacity:1"
       transform="matrix(1.3333333,0,0,-1.3333333,9.5013333,93.788)" />
    <path
       id="path30"
       d="m 171.668,-56.69362 c 0,0.87657 -0.71059,1.58716 -1.58714,1.58716 -0.87658,0 -1.58716,-0.71059 -1.58716,-1.58716 0,-0.87656 0.71058,-1.58714 1.58716,-1.58714 0.87655,0 1.58714,0.71058 1.58714,1.58714 z"
       style="fill:#000000;fill-opacity:1;fill-rule:nonzero;stroke:#000000;stroke-width:0.3985;stroke-linecap:butt;stroke-linejoin:miter;stroke-miterlimit:10;stroke-dasharray:none;stroke-opacity:1"
       transform="matrix(1.3333333,0,0,-1.3333333,9.5013333,93.788)" />
    <path
       id="path31"
       d="m 2.2263906,-3.5150937 v -2.578125 c 0,-0.234375 0,-0.3515625 0.2226563,-0.3867188 0.1054687,-0.011719 0.3867187,-0.011719 0.5859375,-0.011719 0.9023437,0 2.015625,0.035156 2.015625,1.4765625 0,0.6914062 -0.234375,1.5 -1.7109375,1.5 z m 2.109375,0.1289062 c 0.9609375,-0.234375 1.7460938,-0.84375 1.7460938,-1.6289062 0,-0.9492188 -1.1367188,-1.7929688 -2.6015625,-1.7929688 H 0.35139063 v 0.3164063 h 0.234375 c 0.77343747,0 0.78515627,0.1054687 0.78515627,0.46875 v 5.24999995 c 0,0.3515625 -0.011719,0.46875 -0.78515627,0.46875 h -0.234375 V 5.3125e-4 C 0.70295313,-0.034625 1.4177969,-0.034625 1.8045156,-0.034625 c 0.3867188,0 1.0898438,0 1.453125,0.03515625 v -0.3046875 h -0.234375 c -0.7734375,0 -0.796875,-0.1171875 -0.796875,-0.46875 V -3.2924375 h 1.1484375 c 0.1640625,0 0.5742188,0 0.9257813,0.3398438 0.3867187,0.3515625 0.3867187,0.65625 0.3867187,1.3242187 0,0.65625 0,1.0546875 0.3984375,1.4296875 0.4101563,0.36328125 0.9609375,0.421875 1.2539063,0.421875 0.7851562,0 0.9492187,-0.8203125 0.9492187,-1.1015625 0,-0.0585938 0,-0.1640625 -0.1289062,-0.1640625 -0.1054688,0 -0.1054688,0.0820312 -0.1171875,0.15234375 -0.058594,0.71484375 -0.4101563,0.890625 -0.65625,0.890625 -0.4921875,0 -0.5742188,-0.50390625 -0.703125,-1.42968745 l -0.140625,-0.796875 C 5.3670156,-2.8705625 4.8865469,-3.1986875 4.3357656,-3.3861875 Z m 4.7080078,-0.3632812 v -0.65625 l -1.4296875,0.1171875 v 0.3046875 c 0.703125,0 0.7734375,0.058594 0.7734375,0.4921875 v 4.6640625 c 0,0.4570312 -0.1054687,0.4570312 -0.7734375,0.4570312 V 1.934125 C 7.9539297,1.922406 8.4695547,1.898969 8.7273672,1.898969 c 0.2695312,0 0.7734375,0.023437 1.125,0.035156 V 1.6294375 c -0.6679688,0 -0.7734375,0 -0.7734375,-0.4570312 V -0.58540625 C 9.1258047,-0.4330625 9.5476797,0.106 10.29768,0.106 c 1.183593,0 2.226562,-0.97265625 2.226562,-2.2617187 0,-1.265625 -0.972656,-2.25 -2.085937,-2.25 -0.7734378,0 -1.1953128,0.4453125 -1.3945316,0.65625 z m 0.035156,2.6132812 v -2.2148437 c 0.28125,-0.515625 0.7734375,-0.796875 1.2773436,-0.796875 0.726563,0 1.335938,0.8671875 1.335938,1.9921875 0,1.2070312 -0.691406,2.0507812 -1.429688,2.0507812 -0.3984374,0 -0.7734374,-0.19921875 -1.0429686,-0.609375 -0.140625,-0.2109375 -0.140625,-0.22265625 -0.140625,-0.421875 z m 0,0"
       style="fill:#000000;fill-opacity:1;fill-rule:nonzero;stroke:none"
       aria-label="Rp"
       transform="matrix(1.3333333,0,0,1.3333333,189.89867,156.35867)" />
    <path
       id="path32"
       d="m 164.128,-100.91461 v 31.74838 h 11.9057 v -31.74838 z"
       style="fill:none;stroke:#000000;stroke-width:0.797;stroke-linecap:butt;stroke-linejoin:miter;stroke-miterlimit:10;stroke-dasharray:none;stroke-opacity:1"
       transform="matrix(1.3333333,0,0,-1.3333333,9.5013333,93.788)" />
    <g
       id="g32"
       aria-label="Z&#10;radp"
       transform="matrix(1.3333333,0,0,1.3333333,194.62933,210.03333)">
      <path
         id="path33"
         d="m 5.4488984,-6.4556641 c 0.070312,-0.1054687 0.070312,-0.1171875 0.070312,-0.1875 0,-0.1640625 -0.058594,-0.1640625 -0.2578125,-0.1640625 H 0.79655469 l -0.10546875,2.25 h 0.24609375 c 0.0703125,-1.125 0.36328121,-1.9335937 2.00390621,-1.9335937 h 1.5585938 l -3.86718751,6.12890624 c -0.0703125,0.10546875 -0.0703125,0.1171875 -0.0703125,0.19921875 0,0.1640625 0.046875,0.1640625 0.2578125,0.1640625 H 5.4137422 L 5.5778047,-2.6587891 H 5.3317109 c -0.082031,1.3828125 -0.2695312,2.32031254 -2.109375,2.32031254 h -1.640625 z m 0,0"
         style="fill:#000000;fill-opacity:1;fill-rule:nonzero;stroke:none" />
      <path
         id="path34"
         d="m 7.7281953,0.08632813 c 0,-0.046875 0.1640625,-0.66796875 0.1757813,-0.703125 0.011719,-0.0585938 0.2226562,-0.41015623 0.4453125,-0.57421873 0.070312,-0.058594 0.2578125,-0.1992188 0.5625,-0.1992188 0.070312,0 0.2460937,0.011719 0.3867187,0.1054688 -0.2226562,0.058594 -0.3046875,0.2578125 -0.3046875,0.37499998 0,0.15234375 0.1171875,0.2578125 0.2695313,0.2578125 0.1640625,0 0.3984375,-0.12890625 0.3984375,-0.42187498 0,-0.3632813 -0.3867188,-0.5039063 -0.7382813,-0.5039063 -0.3632812,0 -0.6796875,0.140625 -0.984375,0.4921875 -0.1289062,-0.421875 -0.5507812,-0.4921875 -0.7265625,-0.4921875 -0.2578125,0 -0.421875,0.1523438 -0.5390625,0.3515625 -0.1640625,0.26953128 -0.2578125,0.67968753 -0.2578125,0.71484378 0,0.0820313 0.09375,0.0820313 0.1171875,0.0820313 0.09375,0 0.1054688,-0.0117188 0.1523438,-0.19921875 0.1054687,-0.43359373 0.234375,-0.76171873 0.515625,-0.76171873 0.1757812,0 0.2226562,0.1523437 0.2226562,0.3398437 0,0.14062503 -0.058594,0.39843753 -0.1054687,0.58593753 -0.046875,0.1875 -0.1171875,0.46875 -0.1523438,0.62109375 L 6.9430391,1.0589844 c -0.035156,0.082031 -0.070312,0.2578125 -0.070312,0.28125 0,0.1523437 0.1171875,0.2226562 0.234375,0.2226562 0.1054687,0 0.2460937,-0.058594 0.2929687,-0.1992187 0.023437,-0.046875 0.09375,-0.3515625 0.140625,-0.52734377 z M 12.943039,-1.1675781 c -0.140625,-0.234375 -0.386719,-0.4101563 -0.714844,-0.4101563 -0.890625,0 -1.804687,0.97265628 -1.804687,1.98046878 0,0.67968752 0.457031,1.16015622 1.054687,1.16015622 0.375,0 0.714844,-0.2109375 0.996094,-0.4921875 0.128906,0.421875 0.527344,0.4921875 0.714844,0.4921875 0.246094,0 0.421875,-0.1523437 0.550781,-0.375 0.152344,-0.26953122 0.246094,-0.66796872 0.246094,-0.69140622 0,-0.09375 -0.09375,-0.09375 -0.117188,-0.09375 -0.09375,0 -0.105468,0.0351563 -0.152343,0.22265625 -0.08203,0.328125 -0.210938,0.73828127 -0.503907,0.73828127 -0.1875,0 -0.234375,-0.1523438 -0.234375,-0.3398438 0,-0.11718747 0.05859,-0.36328122 0.105469,-0.55078122 0.04687,-0.1875 0.117188,-0.46875 0.152344,-0.62109375 l 0.140625,-0.5390625 c 0.04687,-0.17578125 0.128906,-0.50390623 0.128906,-0.53906253 0,-0.1523437 -0.128906,-0.2226562 -0.246094,-0.2226562 -0.117187,0 -0.269531,0.082031 -0.316406,0.28125 z m -0.445312,1.79296873 c -0.04687,0.1875 -0.199219,0.328125 -0.351563,0.45703127 -0.07031,0.058594 -0.339844,0.28125 -0.644531,0.28125 -0.257813,0 -0.515625,-0.1757813 -0.515625,-0.66796877 0,-0.375 0.210937,-1.13671875 0.363281,-1.41796875 0.328125,-0.56249998 0.679688,-0.66796878 0.878906,-0.66796878 0.480469,0 0.621094,0.52734378 0.621094,0.60937503 0,0.0234375 -0.01172,0.0820313 -0.02344,0.09375 z m 5.8125,-3.76171873 c 0,-0.011719 0.02344,-0.1054688 0.02344,-0.1171875 0,-0.035156 -0.02344,-0.09375 -0.105469,-0.09375 -0.140625,0 -0.726562,0.058594 -0.902343,0.070312 -0.04687,0.011719 -0.152344,0.011719 -0.152344,0.1640625 0,0.09375 0.105469,0.09375 0.1875,0.09375 0.328125,0 0.328125,0.046875 0.328125,0.1054687 0,0.046875 -0.01172,0.09375 -0.02344,0.1523438 l -0.398437,1.59375 c -0.140625,-0.234375 -0.386719,-0.4101563 -0.714844,-0.4101563 -0.890625,0 -1.804687,0.97265628 -1.804687,1.98046878 0,0.67968752 0.457031,1.16015622 1.054687,1.16015622 0.375,0 0.714844,-0.2109375 0.996094,-0.4921875 0.128906,0.421875 0.527344,0.4921875 0.714844,0.4921875 0.246093,0 0.421875,-0.1523437 0.550781,-0.375 0.152344,-0.26953122 0.246094,-0.66796872 0.246094,-0.69140622 0,-0.09375 -0.09375,-0.09375 -0.117188,-0.09375 -0.09375,0 -0.105469,0.0351563 -0.152344,0.22265625 -0.08203,0.328125 -0.210937,0.73828127 -0.503906,0.73828127 -0.1875,0 -0.234375,-0.1523438 -0.234375,-0.3398438 0,-0.12890622 0.01172,-0.19921872 0.03516,-0.28124997 z m -1.488282,3.76171873 c -0.04687,0.1875 -0.199218,0.328125 -0.351562,0.45703127 -0.07031,0.058594 -0.339844,0.28125 -0.644531,0.28125 -0.257813,0 -0.515625,-0.1757813 -0.515625,-0.66796877 0,-0.375 0.210937,-1.13671875 0.363281,-1.41796875 0.328125,-0.56249998 0.679687,-0.66796878 0.878906,-0.66796878 0.480469,0 0.621094,0.52734378 0.621094,0.60937503 0,0.0234375 -0.01172,0.0820313 -0.02344,0.09375 z m 2.176758,1.72265627 c -0.05859,0.1875 -0.07031,0.2460937 -0.351562,0.2460937 -0.08203,0 -0.1875,0 -0.1875,0.1523438 0,0.070312 0.07031,0.09375 0.105468,0.09375 0.175782,0 0.410157,-0.023437 0.597657,-0.023437 0.234375,0 0.503906,0.023437 0.726562,0.023437 0.07031,0 0.140625,-0.011719 0.140625,-0.1523438 0,-0.09375 -0.09375,-0.09375 -0.175781,-0.09375 -0.152344,0 -0.339844,0 -0.339844,-0.082031 0,-0.035156 0.04687,-0.2226563 0.07031,-0.3164063 0.08203,-0.375 0.1875,-0.75 0.257812,-1.0429687 0.08203,0.140625 0.304688,0.4101562 0.726563,0.4101562 0.84375,0 1.78125,-0.93749997 1.78125,-1.98046872 0,-0.82031248 -0.5625,-1.16015628 -1.042969,-1.16015628 -0.433594,0 -0.796875,0.2929688 -0.984375,0.4804688 -0.117188,-0.3984375 -0.515625,-0.4804688 -0.726563,-0.4804688 -0.269531,0 -0.433593,0.1757813 -0.550781,0.3632813 -0.140625,0.23437498 -0.246094,0.65624998 -0.246094,0.70312498 0,0.0820313 0.09375,0.0820313 0.117188,0.0820313 0.09375,0 0.105469,-0.0117188 0.152344,-0.19921875 0.105468,-0.41015633 0.234375,-0.76171883 0.515625,-0.76171883 0.175781,0 0.222656,0.1523438 0.222656,0.3398438 0,0.0820313 -0.01172,0.17578128 -0.02344,0.21093753 z m 1.3125,-3.09375002 c 0.410156,-0.53906248 0.75,-0.64453128 0.972656,-0.64453128 0.28125,0 0.515625,0.2109375 0.515625,0.67968753 0,0.28125 -0.152343,0.99609375 -0.363281,1.40625 -0.175781,0.33984377 -0.515625,0.66796877 -0.867187,0.66796877 -0.503907,0 -0.621094,-0.53906252 -0.621094,-0.59765627 0,-0.0351563 0.01172,-0.0820313 0.01172,-0.10546875 z m 0,0"
         style="fill:#000000;fill-opacity:1;fill-rule:nonzero;stroke:none" />
    </g>
    <path
       id="path35"
       d="m 170.08086,-113.38724 v -11.90558"
       style="fill:none;stroke:#000000;stroke-width:0.3985;stroke-linecap:butt;stroke-linejoin:miter;stroke-miterlimit:10;stroke-dasharray:none;stroke-opacity:1"
       transform="matrix(1.3333333,0,0,-1.3333333,9.5013333,93.788)" />
    <path
       id="path36"
       d="m 164.128,-125.29282 h 11.9057 m -9.92132,-1.98423 h 7.93695 m -6.44881,-1.98438 h 4.96065"
       style="fill:none;stroke:#000000;stroke-width:0.797;stroke-linecap:butt;stroke-linejoin:miter;stroke-miterlimit:10;stroke-dasharray:none;stroke-opacity:1"
       transform="matrix(1.3333333,0,0,-1.3333333,9.5013333,93.788)" />
  </g>
</svg>
