<?xml version="1.0" encoding="UTF-8" standalone="no"?>
<!-- Created with Inkscape (http://www.inkscape.org/) -->

<svg
   version="1.1"
   id="svg1"
   width="261.36133"
   height="388.17734"
   viewBox="0 0 261.36133 388.17734"
   sodipodi:docname="04_bandpass_port.svg"
   inkscape:version="1.4 (e7c3feb100, 2024-10-09)"
   xmlns:inkscape="http://www.inkscape.org/namespaces/inkscape"
   xmlns:sodipodi="http://sodipodi.sourceforge.net/DTD/sodipodi-0.dtd"
   xmlns="http://www.w3.org/2000/svg"
   xmlns:svg="http://www.w3.org/2000/svg">
  <defs
     id="defs1" />
  <sodipodi:namedview
     id="namedview1"
     pagecolor="#ffffff"
     bordercolor="#000000"
     borderopacity="0.25"
     inkscape:showpageshadow="2"
     inkscape:pageopacity="0.0"
     inkscape:pagecheckerboard="0"
     inkscape:deskcolor="#d1d1d1"
     inkscape:zoom="1.8058757"
     inkscape:cx="130.68452"
     inkscape:cy="194.08867"
     inkscape:window-width="1280"
     inkscape:window-height="952"
     inkscape:window-x="0"
     inkscape:window-y="0"
     inkscape:window-maximized="1"
     inkscape:current-layer="g1">
    <inkscape:page
       x="0"
       y="0"
       inkscape:label="1"
       id="page1"
       width="261.36133"
       height="388.17734"
       margin="0"
       bleed="0" />
  </sodipodi:namedview>
  <g
     id="g1"
     inkscape:groupmode="layer"
     inkscape:label="1">
    <path
       id="path1"
       d="m 0,56.69362 h 28.3468 m 0,0 H 56.69362 V 44.221 m 0,-31.74839 V 0 M 28.3468,56.69362 28.34679,44.221 m 0,-31.74839 L 28.3468,0 l -1e-5,-24.37833 m 0,-7.93695 1e-5,-24.37834 M 56.69362,56.69362 H 73.1347 m 23.81144,0 h 16.4411 12.47261 m 31.74838,0 h 12.47263 V 44.221 m 0,-31.74839 V 0 m 8.50412,22.67752 c 1.13951,3.13069 1.13951,6.56461 0,9.6953 m 2.83442,-13.94759 c 2.27904,6.2614 2.27904,13.12926 0,19.39067 m 2.83484,-23.64251 c 3.41856,9.39211 3.41856,19.69389 0,29.08601 M 0,-85.04042 l 28.3468,2e-5 m 0,0 28.34682,-2e-5 v -12.4726 m 0,-31.74839 v -12.47263 m -28.34682,56.69362 -1e-5,-12.4726 m 0,-31.74839 1e-5,-12.47263 -1e-5,-24.37833 m 0,-7.93695 1e-5,-24.37834"
       style="fill:none;stroke:#000000;stroke-width:0.3985;stroke-linecap:butt;stroke-linejoin:miter;stroke-miterlimit:10;stroke-dasharray:none;stroke-opacity:1"
       transform="matrix(1.3333333,0,0,-1.3333333,10.869333,101.91333)" />
    <path
       id="path2"
       d="m 0.56123437,-3.4114766 c 0,2.0625 1.60546873,3.63281254 3.45703123,3.63281254 1.6289063,0 2.6015625,-1.38281254 2.6015625,-2.54296874 0,-0.1054688 0,-0.1757813 -0.1289062,-0.1757813 -0.1054688,0 -0.1054688,0.070312 -0.1171875,0.1640625 -0.082031,1.42968754 -1.1484375,2.23828129 -2.2265625,2.23828129 -0.609375,0 -2.5664063,-0.33984375 -2.5664063,-3.30468749 0,-2.9765625 1.9453125,-3.3164063 2.5546875,-3.3164063 1.078125,0 1.96875,0.9023438 2.1679688,2.3671875 0.023437,0.1289063 0.023437,0.1640625 0.1640625,0.1640625 0.1523437,0 0.1523437,-0.035156 0.1523437,-0.234375 v -2.3671875 c 0,-0.1640625 0,-0.234375 -0.1054687,-0.234375 -0.035156,0 -0.082031,0 -0.1640625,0.1171875 l -0.4921875,0.7382813 c -0.375,-0.3632813 -0.8789063,-0.8554688 -1.8398438,-0.8554688 -1.8632812,0 -3.45703123,1.5820313 -3.45703123,3.609375 z m 0,0"
       style="fill:#000000;fill-opacity:1;fill-rule:nonzero;stroke:none"
       aria-label="C"
       transform="matrix(1.3333333,0,0,1.3333333,6.072,21.630667)" />
    <path
       id="path3"
       d="m 1.58714,56.69362 c 0,0.87656 -0.71058,1.58714 -1.58714,1.58714 -0.87656,0 -1.58714,-0.71058 -1.58714,-1.58714 0,-0.87657 0.71058,-1.58716 1.58714,-1.58716 0.87656,0 1.58714,0.71059 1.58714,1.58716 z"
       style="fill:#ffffff;fill-opacity:1;fill-rule:nonzero;stroke:#000000;stroke-width:0.3985;stroke-linecap:butt;stroke-linejoin:miter;stroke-miterlimit:10;stroke-dasharray:none;stroke-opacity:1"
       transform="matrix(1.3333333,0,0,-1.3333333,10.869333,101.91333)" />
    <path
       id="path4"
       d="M 56.69362,44.6195 62.64647,41.54208 50.74075,36.18428 62.64647,30.82646 50.74075,25.46864 62.64647,20.11082 50.74075,14.753 56.69362,12.0741"
       style="fill:none;stroke:#000000;stroke-width:0.797;stroke-linecap:butt;stroke-linejoin:bevel;stroke-miterlimit:10;stroke-dasharray:none;stroke-opacity:1"
       transform="matrix(1.3333333,0,0,-1.3333333,10.869333,101.91333)" />
    <g
       id="g4"
       aria-label="R&#10;alf"
       transform="matrix(1.3333333,0,0,1.3333333,97.334667,66.978667)">
      <path
         id="path5"
         d="m 2.2275156,-3.5142734 v -2.578125 c 0,-0.234375 0,-0.3515625 0.2226563,-0.3867188 0.1054687,-0.011719 0.3867187,-0.011719 0.5859375,-0.011719 0.9023437,0 2.015625,0.035156 2.015625,1.4765625 0,0.6914062 -0.234375,1.5 -1.7109375,1.5 z m 2.109375,0.1289062 c 0.9609375,-0.234375 1.7460938,-0.84375 1.7460938,-1.6289062 0,-0.9492188 -1.1367188,-1.7929688 -2.6015625,-1.7929688 H 0.35251562 v 0.3164063 h 0.234375 c 0.77343748,0 0.78515628,0.1054687 0.78515628,0.46875 v 5.24999996 c 0,0.3515625 -0.011719,0.46875 -0.78515628,0.46875 h -0.234375 v 0.3046875 c 0.3515625,-0.03515625 1.06640628,-0.03515625 1.45312498,-0.03515625 0.3867188,0 1.0898438,0 1.453125,0.03515625 v -0.3046875 h -0.234375 c -0.7734375,0 -0.796875,-0.1171875 -0.796875,-0.46875 V -3.2916172 h 1.1484375 c 0.1640625,0 0.5742188,0 0.9257813,0.3398438 0.3867187,0.3515625 0.3867187,0.65625 0.3867187,1.3242187 0,0.65625001 0,1.05468751 0.3984375,1.42968751 0.4101563,0.36328125 0.9609375,0.421875 1.2539063,0.421875 0.7851562,0 0.9492187,-0.8203125 0.9492187,-1.1015625 0,-0.0585938 0,-0.16406251 -0.1289062,-0.16406251 -0.1054688,0 -0.1054688,0.0820313 -0.1171875,0.15234376 -0.058594,0.71484375 -0.4101563,0.890625 -0.65625,0.890625 -0.4921875,0 -0.5742188,-0.50390625 -0.703125,-1.42968746 l -0.140625,-0.796875 C 5.3681406,-2.8697422 4.8876719,-3.1978672 4.3368906,-3.3853672 Z m 0,0"
         style="fill:#000000;fill-opacity:1;fill-rule:nonzero;stroke:none" />
      <path
         id="path6"
         d="M 10.275367,-1.1675937 C 10.134742,-1.4019687 9.8886484,-1.57775 9.5605234,-1.57775 c -0.890625,0 -1.8046875,0.97265625 -1.8046875,1.98046875 0,0.67968755 0.4570313,1.16015625 1.0546875,1.16015625 0.375,0 0.7148438,-0.2109375 0.9960938,-0.4921875 0.1289062,0.421875 0.5273438,0.4921875 0.7148438,0.4921875 0.246094,0 0.421875,-0.1523437 0.550781,-0.375 0.152344,-0.26953125 0.246094,-0.66796875 0.246094,-0.69140625 0,-0.09375 -0.09375,-0.09375 -0.117188,-0.09375 -0.09375,0 -0.105468,0.0351563 -0.152343,0.22265625 -0.08203,0.328125 -0.210938,0.7382813 -0.503907,0.7382813 -0.1875,0 -0.234375,-0.1523438 -0.234375,-0.3398438 0,-0.1171875 0.05859,-0.36328125 0.105469,-0.55078125 0.04687,-0.1875 0.117188,-0.46875 0.152344,-0.62109375 l 0.140625,-0.5390625 c 0.04687,-0.17578125 0.128906,-0.5039062 0.128906,-0.5390625 0,-0.1523437 -0.128906,-0.2226562 -0.246094,-0.2226562 -0.117187,0 -0.269531,0.082031 -0.316406,0.28125 z M 9.8300547,0.625375 C 9.7831797,0.812875 9.6308359,0.9535 9.4784922,1.0824063 9.4081797,1.141 9.1386484,1.3636563 8.8339609,1.3636563 c -0.2578125,0 -0.515625,-0.1757813 -0.515625,-0.6679688 0,-0.375 0.2109375,-1.13671875 0.3632813,-1.41796875 C 9.0097422,-1.2847812 9.3613047,-1.39025 9.5605234,-1.39025 c 0.4804686,0 0.6210936,0.52734375 0.6210936,0.609375 0,0.0234375 -0.01172,0.0820313 -0.02344,0.09375 z M 13.624,-3.1363437 c 0,-0.011719 0.02344,-0.1054688 0.02344,-0.1171875 0,-0.035156 -0.02344,-0.09375 -0.105468,-0.09375 -0.140625,0 -0.726563,0.058594 -0.902344,0.070312 -0.04688,0.011719 -0.140628,0.011719 -0.140628,0.164063 0,0.09375 0.09375,0.09375 0.175781,0.09375 0.328125,0 0.328125,0.046875 0.328125,0.1054687 0,0.046875 -0.01172,0.09375 -0.02344,0.1523438 l -0.867188,3.44531245 c -0.02344,0.0703125 -0.02344,0.140625 -0.02344,0.2109375 0,0.45703125 0.398437,0.66796875 0.726562,0.66796875 0.175781,0 0.375,-0.058594 0.5625,-0.375 0.140631,-0.2578125 0.2461,-0.66796875 0.2461,-0.69140625 0,-0.09375 -0.09375,-0.09375 -0.117188,-0.09375 -0.09375,0 -0.105468,0.046875 -0.140625,0.1640625 -0.08203,0.3515625 -0.222656,0.79687505 -0.515625,0.79687505 -0.1875,0 -0.234375,-0.1757813 -0.234375,-0.3398438 0,-0.0703125 0.01172,-0.2109375 0.03516,-0.28125 z m 3.427734,1.875 h 0.679688 c 0.140625,0 0.234375,0 0.234375,-0.1523438 0,-0.09375 -0.09375,-0.09375 -0.210938,-0.09375 h -0.65625 c 0.164063,-0.890625 0.222657,-1.2070312 0.28125,-1.4179687 0.03516,-0.1523438 0.1875,-0.2929688 0.351563,-0.2929688 0,0 0.199219,0 0.328125,0.082031 -0.292969,0.09375 -0.304688,0.3398437 -0.304688,0.3867187 0,0.1523438 0.117188,0.2578125 0.269532,0.2578125 0.199218,0 0.398437,-0.1640625 0.398437,-0.4335937 0,-0.3164063 -0.339844,-0.4921875 -0.691406,-0.4921875 -0.304688,0 -0.644531,0.1757812 -0.84375,0.5273437 -0.128906,0.2578125 -0.1875,0.5742188 -0.339844,1.3828125 h -0.550781 c -0.140625,0 -0.222656,0 -0.222656,0.1523438 0,0.09375 0.08203,0.09375 0.210937,0.09375 h 0.515625 c 0,0.046875 -0.445312,2.5546875 -0.609375,3.2929687 -0.03516,0.1640625 -0.152344,0.6914063 -0.492187,0.6914063 0,0 -0.175782,0 -0.304688,-0.082031 0.28125,-0.09375 0.304688,-0.3515625 0.304688,-0.3867187 0,-0.1523438 -0.117188,-0.2578125 -0.28125,-0.2578125 -0.1875,0 -0.398438,0.1640625 -0.398438,0.421875 0,0.3164062 0.328125,0.4921875 0.679688,0.4921875 0.445312,0 0.75,-0.4570313 0.84375,-0.609375 0.246093,-0.46875 0.410156,-1.3242188 0.421875,-1.40625005 z m 0,0"
         style="fill:#000000;fill-opacity:1;fill-rule:nonzero;stroke:none" />
    </g>
    <path
       id="path7"
       d="M 56.69362,0 V -11.90558"
       style="fill:none;stroke:#000000;stroke-width:0.3985;stroke-linecap:butt;stroke-linejoin:miter;stroke-miterlimit:10;stroke-dasharray:none;stroke-opacity:1"
       transform="matrix(1.3333333,0,0,-1.3333333,10.869333,101.91333)" />
    <path
       id="path8"
       d="m 50.74075,-11.90558 h 11.90572 m -9.92134,-1.98424 h 7.93697 m -6.44881,-1.98437 h 4.96064"
       style="fill:none;stroke:#000000;stroke-width:0.797;stroke-linecap:butt;stroke-linejoin:miter;stroke-miterlimit:10;stroke-dasharray:none;stroke-opacity:1"
       transform="matrix(1.3333333,0,0,-1.3333333,10.869333,101.91333)" />
    <path
       id="path9"
       d="m 28.34679,44.6195 5.95285,-3.07742 -11.9057,-5.3578 11.9057,-5.35782 -11.9057,-5.35782 11.9057,-5.35782 -11.9057,-5.35782 5.95285,-2.6789"
       style="fill:none;stroke:#000000;stroke-width:0.797;stroke-linecap:butt;stroke-linejoin:bevel;stroke-miterlimit:10;stroke-dasharray:none;stroke-opacity:1"
       transform="matrix(1.3333333,0,0,-1.3333333,10.869333,101.91333)" />
    <path
       id="path10"
       d="m 29.93394,56.69362 c 0,0.87656 -0.71058,1.58714 -1.58714,1.58714 -0.87655,0 -1.58714,-0.71058 -1.58714,-1.58714 0,-0.87657 0.71059,-1.58716 1.58714,-1.58716 0.87656,0 1.58714,0.71059 1.58714,1.58716 z"
       style="fill:#000000;fill-opacity:1;fill-rule:nonzero;stroke:#000000;stroke-width:0.3985;stroke-linecap:butt;stroke-linejoin:miter;stroke-miterlimit:10;stroke-dasharray:none;stroke-opacity:1"
       transform="matrix(1.3333333,0,0,-1.3333333,10.869333,101.91333)" />
    <path
       id="path11"
       d="m 29.93394,0 c 0,0.87656 -0.71058,1.58714 -1.58714,1.58714 -0.87655,0 -1.58714,-0.71058 -1.58714,-1.58714 0,-0.87656 0.71059,-1.58714 1.58714,-1.58714 0.87656,0 1.58714,0.71058 1.58714,1.58714 z"
       style="fill:#000000;fill-opacity:1;fill-rule:nonzero;stroke:#000000;stroke-width:0.3985;stroke-linecap:butt;stroke-linejoin:miter;stroke-miterlimit:10;stroke-dasharray:none;stroke-opacity:1"
       transform="matrix(1.3333333,0,0,-1.3333333,10.869333,101.91333)" />
    <g
       id="g11"
       aria-label="R&#10;abf"
       transform="matrix(1.3333333,0,0,1.3333333,10.690667,66.978667)">
      <path
         id="path12"
         d="m 2.2271172,-3.5142734 v -2.578125 c 0,-0.234375 0,-0.3515625 0.2226562,-0.3867188 0.1054688,-0.011719 0.3867188,-0.011719 0.5859375,-0.011719 0.9023438,0 2.015625,0.035156 2.015625,1.4765625 0,0.6914062 -0.234375,1.5 -1.7109375,1.5 z m 2.109375,0.1289062 c 0.9609375,-0.234375 1.7460937,-0.84375 1.7460937,-1.6289062 0,-0.9492188 -1.1367187,-1.7929688 -2.6015625,-1.7929688 H 0.35211719 v 0.3164063 h 0.234375 c 0.77343751,0 0.78515621,0.1054687 0.78515621,0.46875 v 5.24999996 c 0,0.3515625 -0.011719,0.46875 -0.78515621,0.46875 h -0.234375 v 0.3046875 c 0.3515625,-0.03515625 1.06640621,-0.03515625 1.45312501,-0.03515625 0.3867187,0 1.0898437,0 1.453125,0.03515625 v -0.3046875 h -0.234375 c -0.7734375,0 -0.796875,-0.1171875 -0.796875,-0.46875 V -3.2916172 h 1.1484375 c 0.1640625,0 0.5742187,0 0.9257812,0.3398438 0.3867188,0.3515625 0.3867188,0.65625 0.3867188,1.3242187 0,0.65625001 0,1.05468751 0.3984375,1.42968751 0.4101562,0.36328125 0.9609375,0.421875 1.2539062,0.421875 0.7851563,0 0.9492188,-0.8203125 0.9492188,-1.1015625 0,-0.0585938 0,-0.16406251 -0.1289063,-0.16406251 -0.1054687,0 -0.1054687,0.0820313 -0.1171875,0.15234376 -0.058594,0.71484375 -0.4101562,0.890625 -0.65625,0.890625 -0.4921875,0 -0.5742187,-0.50390625 -0.703125,-1.42968746 l -0.140625,-0.796875 C 5.3677422,-2.8697422 4.8872734,-3.1978672 4.3364922,-3.3853672 Z m 0,0"
         style="fill:#000000;fill-opacity:1;fill-rule:nonzero;stroke:none" />
      <path
         id="path13"
         d="M 10.274969,-1.1675937 C 10.134344,-1.4019687 9.88825,-1.57775 9.560125,-1.57775 c -0.890625,0 -1.8046875,0.97265625 -1.8046875,1.98046875 0,0.67968755 0.4570312,1.16015625 1.0546875,1.16015625 0.375,0 0.7148437,-0.2109375 0.9960937,-0.4921875 0.1289063,0.421875 0.5273433,0.4921875 0.7148433,0.4921875 0.246094,0 0.421875,-0.1523437 0.550782,-0.375 0.152343,-0.26953125 0.246093,-0.66796875 0.246093,-0.69140625 0,-0.09375 -0.09375,-0.09375 -0.117187,-0.09375 -0.09375,0 -0.105469,0.0351563 -0.152344,0.22265625 -0.08203,0.328125 -0.210937,0.7382813 -0.503906,0.7382813 -0.1875,0 -0.234375,-0.1523438 -0.234375,-0.3398438 0,-0.1171875 0.05859,-0.36328125 0.105469,-0.55078125 0.04687,-0.1875 0.117187,-0.46875 0.152343,-0.62109375 l 0.140625,-0.5390625 c 0.04687,-0.17578125 0.128907,-0.5039062 0.128907,-0.5390625 0,-0.1523437 -0.128907,-0.2226562 -0.246094,-0.2226562 -0.117188,0 -0.269531,0.082031 -0.316406,0.28125 z M 9.8296562,0.625375 C 9.7827812,0.812875 9.6304375,0.9535 9.4780937,1.0824063 9.4077812,1.141 9.13825,1.3636563 8.8335625,1.3636563 c -0.2578125,0 -0.515625,-0.1757813 -0.515625,-0.6679688 0,-0.375 0.2109375,-1.13671875 0.3632812,-1.41796875 C 9.0093437,-1.2847812 9.3609062,-1.39025 9.560125,-1.39025 c 0.480469,0 0.621094,0.52734375 0.621094,0.609375 0,0.0234375 -0.01172,0.0820313 -0.02344,0.09375 z m 3.6650388,-3.7617187 c 0.01172,-0.011719 0.02344,-0.1054688 0.02344,-0.1171875 0,-0.035156 -0.02344,-0.09375 -0.105469,-0.09375 -0.140625,0 -0.714844,0.058594 -0.890625,0.070312 -0.05859,0.011719 -0.152344,0.011719 -0.152344,0.1640625 0,0.09375 0.09375,0.09375 0.175782,0.09375 0.339843,0 0.339843,0.046875 0.339843,0.1054687 0,0.046875 -0.07031,0.328125 -0.117187,0.4921875 l -0.152344,0.6328125 c -0.07031,0.2460938 -0.457031,1.76953125 -0.46875,1.86328125 -0.03516,0.1640625 -0.03516,0.2578125 -0.03516,0.33984375 0,0.703125 0.445312,1.1484375 1.03125,1.1484375 0.867187,0 1.792969,-0.94921875 1.792969,-1.98046875 0,-0.82031245 -0.5625,-1.16015625 -1.042969,-1.16015625 -0.363281,0 -0.667969,0.1992188 -0.878906,0.375 z m -0.351562,4.5 c -0.339844,0 -0.527344,-0.2929688 -0.527344,-0.70312505 0,-0.2578125 0.05859,-0.50390625 0.257813,-1.2890625 0.03516,-0.12890625 0.03516,-0.140625 0.164062,-0.29296875 0.269531,-0.3164062 0.585938,-0.46875 0.832031,-0.46875 0.269532,0 0.515625,0.2109375 0.515625,0.6796875 0,0.28125 -0.152343,0.99609375 -0.363281,1.40625 -0.175781,0.3398438 -0.515625,0.6679688 -0.878906,0.6679688 z m 4.851562,-2.625 h 0.679688 c 0.140625,0 0.234375,0 0.234375,-0.1523438 0,-0.09375 -0.09375,-0.09375 -0.210938,-0.09375 h -0.65625 c 0.164063,-0.890625 0.222657,-1.2070312 0.28125,-1.4179687 0.03516,-0.1523438 0.1875,-0.2929688 0.351563,-0.2929688 0,0 0.199219,0 0.328125,0.082031 -0.292969,0.09375 -0.304688,0.3398437 -0.304688,0.3867187 0,0.1523438 0.117188,0.2578125 0.269532,0.2578125 0.199218,0 0.398437,-0.1640625 0.398437,-0.4335937 0,-0.3164063 -0.339844,-0.4921875 -0.691406,-0.4921875 -0.304688,0 -0.644531,0.1757812 -0.84375,0.5273437 -0.128906,0.2578125 -0.1875,0.5742188 -0.339844,1.3828125 h -0.550781 c -0.140625,0 -0.222656,0 -0.222656,0.1523438 0,0.09375 0.08203,0.09375 0.210937,0.09375 h 0.515625 c 0,0.046875 -0.445312,2.5546875 -0.609375,3.2929687 -0.03516,0.1640625 -0.152344,0.6914063 -0.492187,0.6914063 0,0 -0.175782,0 -0.304688,-0.082031 0.28125,-0.09375 0.304688,-0.3515625 0.304688,-0.3867187 0,-0.1523438 -0.117188,-0.2578125 -0.28125,-0.2578125 -0.1875,0 -0.398438,0.1640625 -0.398438,0.421875 0,0.3164062 0.328125,0.4921875 0.679688,0.4921875 0.445312,0 0.75,-0.4570313 0.84375,-0.609375 0.246093,-0.46875 0.410156,-1.3242188 0.421875,-1.40625005 z m 0,0"
         style="fill:#000000;fill-opacity:1;fill-rule:nonzero;stroke:none" />
    </g>
    <path
       id="path14"
       d="M 40.2525,-24.37833 H 16.44107 M 40.2525,-32.31528 H 16.44107"
       style="fill:none;stroke:#000000;stroke-width:0.797;stroke-linecap:butt;stroke-linejoin:miter;stroke-miterlimit:10;stroke-dasharray:none;stroke-opacity:1"
       transform="matrix(1.3333333,0,0,-1.3333333,10.869333,101.91333)" />
    <g
       id="g14"
       aria-label="C&#10;abf"
       transform="matrix(1.3333333,0,0,1.3333333,2.1453333,142.56933)">
      <path
         id="path15"
         d="m 0.56189844,-3.4094219 c 0,2.0625 1.60546876,3.63281253 3.45703126,3.63281253 1.6289062,0 2.6015625,-1.38281253 2.6015625,-2.54296873 0,-0.1054688 0,-0.1757813 -0.1289063,-0.1757813 -0.1054687,0 -0.1054687,0.070312 -0.1171875,0.1640625 -0.082031,1.42968753 -1.1484375,2.23828128 -2.2265625,2.23828128 -0.609375,0 -2.5664062,-0.33984375 -2.5664062,-3.30468748 0,-2.9765625 1.9453125,-3.3164063 2.5546875,-3.3164063 1.078125,0 1.96875,0.9023438 2.1679687,2.3671875 0.023437,0.1289063 0.023437,0.1640625 0.1640625,0.1640625 0.1523438,0 0.1523438,-0.035156 0.1523438,-0.234375 v -2.3671875 c 0,-0.1640625 0,-0.234375 -0.1054688,-0.234375 -0.035156,0 -0.082031,0 -0.1640625,0.1171875 l -0.4921875,0.7382813 c -0.375,-0.3632813 -0.8789062,-0.8554688 -1.8398437,-0.8554688 -1.8632813,0 -3.45703126,1.5820313 -3.45703126,3.609375 z m 0,0"
         style="fill:#000000;fill-opacity:1;fill-rule:nonzero;stroke:none" />
      <path
         id="path16"
         d="m 10.136117,-1.1652812 c -0.1406248,-0.234375 -0.3867186,-0.4101563 -0.7148436,-0.4101563 -0.890625,0 -1.8046875,0.97265625 -1.8046875,1.98046875 0,0.67968755 0.4570313,1.16015625 1.0546875,1.16015625 0.375,0 0.7148438,-0.2109375 0.9960938,-0.4921875 0.1289062,0.421875 0.5273438,0.4921875 0.7148438,0.4921875 0.246094,0 0.421875,-0.1523437 0.550781,-0.375 0.152344,-0.26953125 0.246094,-0.66796875 0.246094,-0.69140625 0,-0.09375 -0.09375,-0.09375 -0.117188,-0.09375 -0.09375,0 -0.105468,0.0351563 -0.152343,0.22265625 -0.08203,0.328125 -0.210938,0.7382813 -0.503907,0.7382813 -0.1875,0 -0.234375,-0.1523438 -0.234375,-0.3398438 0,-0.1171875 0.05859,-0.36328125 0.105469,-0.55078125 0.04687,-0.1875 0.117188,-0.46875 0.152344,-0.62109375 l 0.140625,-0.5390625 c 0.04687,-0.17578125 0.128906,-0.5039062 0.128906,-0.5390625 0,-0.1523437 -0.128906,-0.2226562 -0.246094,-0.2226562 -0.117187,0 -0.269531,0.082031 -0.316406,0.28125 z M 9.6908047,0.6276875 c -0.046875,0.1875 -0.1992188,0.328125 -0.3515625,0.4570313 -0.070312,0.058594 -0.3398438,0.28125 -0.6445313,0.28125 -0.2578125,0 -0.515625,-0.1757813 -0.515625,-0.6679688 0,-0.375 0.2109375,-1.13671875 0.3632813,-1.41796875 0.328125,-0.56249995 0.6796875,-0.66796875 0.8789062,-0.66796875 0.4804688,0 0.6210936,0.52734375 0.6210936,0.609375 0,0.0234375 -0.01172,0.0820313 -0.02344,0.09375 z m 3.6650393,-3.7617187 c 0.01172,-0.011719 0.02344,-0.1054688 0.02344,-0.1171875 0,-0.035156 -0.02344,-0.09375 -0.105468,-0.09375 -0.140625,0 -0.714844,0.058594 -0.890625,0.070312 -0.05859,0.011719 -0.152344,0.011719 -0.152344,0.1640625 0,0.09375 0.09375,0.09375 0.175781,0.09375 0.339844,0 0.339844,0.046875 0.339844,0.1054687 0,0.046875 -0.07031,0.328125 -0.117188,0.4921875 l -0.152343,0.6328125 c -0.07031,0.2460938 -0.457032,1.76953125 -0.46875,1.86328125 -0.03516,0.1640625 -0.03516,0.2578125 -0.03516,0.33984375 0,0.703125 0.445313,1.1484375 1.03125,1.1484375 0.867188,0 1.792969,-0.94921875 1.792969,-1.98046875 0,-0.82031245 -0.5625,-1.16015625 -1.042969,-1.16015625 -0.363281,0 -0.667968,0.1992188 -0.878906,0.375 z m -0.351563,4.5 c -0.339843,0 -0.527343,-0.2929688 -0.527343,-0.70312505 0,-0.2578125 0.05859,-0.50390625 0.257812,-1.2890625 0.03516,-0.12890625 0.03516,-0.140625 0.164063,-0.29296875 0.269531,-0.3164062 0.585937,-0.46875 0.832031,-0.46875 0.269531,0 0.515625,0.2109375 0.515625,0.6796875 0,0.28125 -0.152344,0.99609375 -0.363281,1.40625 -0.175782,0.3398438 -0.515625,0.6679688 -0.878907,0.6679688 z m 4.851563,-2.625 h 0.679687 c 0.140625,0 0.234375,0 0.234375,-0.1523438 0,-0.09375 -0.09375,-0.09375 -0.210937,-0.09375 h -0.65625 c 0.164062,-0.890625 0.222656,-1.2070312 0.28125,-1.4179687 0.03516,-0.1523438 0.1875,-0.2929688 0.351562,-0.2929688 0,0 0.199219,0 0.328125,0.082031 -0.292969,0.09375 -0.304687,0.3398437 -0.304687,0.3867187 0,0.1523438 0.117187,0.2578125 0.269531,0.2578125 0.199219,0 0.398437,-0.1640625 0.398437,-0.4335937 0,-0.3164063 -0.339843,-0.4921875 -0.691406,-0.4921875 -0.304687,0 -0.644531,0.1757812 -0.84375,0.5273437 -0.128906,0.2578125 -0.1875,0.5742188 -0.339844,1.3828125 h -0.550781 c -0.140625,0 -0.222656,0 -0.222656,0.1523438 0,0.09375 0.08203,0.09375 0.210937,0.09375 h 0.515625 c 0,0.046875 -0.445312,2.5546875 -0.609375,3.2929687 C 16.660531,2.198 16.543344,2.7253438 16.2035,2.7253438 c 0,0 -0.175781,0 -0.304687,-0.082031 0.281249,-0.09375 0.304687,-0.3515625 0.304687,-0.3867187 0,-0.1523438 -0.117188,-0.2578125 -0.28125,-0.2578125 -0.1875,0 -0.398437,0.1640625 -0.398437,0.421875 0,0.3164062 0.328125,0.4921875 0.679687,0.4921875 0.445312,0 0.75,-0.4570313 0.84375,-0.609375 0.246094,-0.46875 0.410156,-1.3242188 0.421875,-1.40625005 z m 0,0"
         style="fill:#000000;fill-opacity:1;fill-rule:nonzero;stroke:none" />
    </g>
    <path
       id="path17"
       d="M 28.3468,-56.69362 V -68.5992"
       style="fill:none;stroke:#000000;stroke-width:0.3985;stroke-linecap:butt;stroke-linejoin:miter;stroke-miterlimit:10;stroke-dasharray:none;stroke-opacity:1"
       transform="matrix(1.3333333,0,0,-1.3333333,10.869333,101.91333)" />
    <path
       id="path18"
       d="m 22.39395,-68.5992 h 11.9057 m -9.92132,-1.98424 h 7.93695 m -6.44881,-1.98437 h 4.96066"
       style="fill:none;stroke:#000000;stroke-width:0.797;stroke-linecap:butt;stroke-linejoin:miter;stroke-miterlimit:10;stroke-dasharray:none;stroke-opacity:1"
       transform="matrix(1.3333333,0,0,-1.3333333,10.869333,101.91333)" />
    <path
       id="path19"
       d="m 72.7362,56.53423 c 0,3.28768 1.63474,5.95285 3.65134,5.95285 2.0166,0 3.65136,-2.66517 3.65136,-5.95285 0,-1.64377 -0.66627,-2.97628 -1.48815,-2.97628 -0.82187,0 -1.48813,1.33251 -1.48813,2.97628 0,3.28768 1.63475,5.95285 3.65135,5.95285 2.01661,0 3.65134,-2.66517 3.65134,-5.95285 0,-1.64377 -0.66624,-2.97628 -1.48813,-2.97628 -0.82188,0 -1.48814,1.33251 -1.48814,2.97628 0,3.28768 1.63475,5.95285 3.65135,5.95285 2.0166,0 3.65135,-2.66517 3.65135,-5.95285 0,-1.64377 -0.66626,-2.97628 -1.48814,-2.97628 -0.82187,0 -1.48813,1.33251 -1.48813,2.97628 0,3.28768 1.63473,5.95285 3.65135,5.95285 2.0166,0 3.65134,-2.66517 3.65134,-5.95285 0,-1.64377 -0.66626,-2.97628 -1.48813,-2.97628 -0.82188,0 -1.48814,1.33251 -1.48814,2.97628 0,3.28768 1.63475,5.95285 3.65135,5.95285 2.0166,0 3.65135,-2.66517 3.65135,-5.95285"
       style="fill:none;stroke:#000000;stroke-width:0.797;stroke-linecap:butt;stroke-linejoin:bevel;stroke-miterlimit:10;stroke-dasharray:none;stroke-opacity:1"
       transform="matrix(1.3333333,0,0,-1.3333333,10.869333,101.91333)" />
    <path
       id="path20"
       d="m 58.28076,56.69362 c 0,0.87656 -0.71058,1.58714 -1.58714,1.58714 -0.87657,0 -1.58716,-0.71058 -1.58716,-1.58714 0,-0.87657 0.71059,-1.58716 1.58716,-1.58716 0.87656,0 1.58714,0.71059 1.58714,1.58716 z"
       style="fill:#000000;fill-opacity:1;fill-rule:nonzero;stroke:#000000;stroke-width:0.3985;stroke-linecap:butt;stroke-linejoin:miter;stroke-miterlimit:10;stroke-dasharray:none;stroke-opacity:1"
       transform="matrix(1.3333333,0,0,-1.3333333,10.869333,101.91333)" />
    <path
       id="path21"
       d="M 2.4027656,-6.5873516 C 2.3090156,-6.8100078 2.2855781,-6.8100078 2.0512031,-6.8100078 H 0.36370313 v 0.3164062 h 0.24609375 c 0.76171872,0 0.78515622,0.1054688 0.78515622,0.46875 v 4.9804688 c 0,0.26953124 0,0.73828124 -1.03124997,0.73828124 v 0.3046875 c 0.3515625,-0.01171875 0.84374997,-0.03515625 1.17187497,-0.03515625 0.328125,0 0.8203125,0.0234375 1.1601563,0.03515625 v -0.3046875 c -1.0195313,0 -1.0195313,-0.46875 -1.0195313,-0.73828124 v -5.3671875 h 0.011719 l 2.4023437,6.18749999 c 0.046875,0.12890625 0.09375,0.22265625 0.1992188,0.22265625 0.1054687,0 0.1289062,-0.08203125 0.1757812,-0.1875 L 6.9144844,-6.4936016 h 0.011719 v 5.71875004 c 0,0.3515625 -0.023437,0.46875 -0.7851562,0.46875 H 5.8949531 v 0.3046875 c 0.375,-0.03515625 1.0429688,-0.03515625 1.4414063,-0.03515625 0.3867187,0 1.0546875,0 1.4179687,0.03515625 v -0.3046875 h -0.234375 c -0.7734375,0 -0.7851562,-0.1171875 -0.7851562,-0.46875 V -6.0248516 c 0,-0.3632812 0.011719,-0.46875 0.7851562,-0.46875 h 0.234375 V -6.8100078 H 7.0785469 c -0.2695313,0 -0.2695313,0.011719 -0.3398438,0.1992187 l -2.1796875,5.6015625 z m 8.4404294,2.8359375 v -0.65625 l -1.4296872,0.1171875 v 0.3046875 c 0.7031252,0 0.7734372,0.058594 0.7734372,0.4921875 v 4.6640625 c 0,0.4570313 -0.105468,0.4570313 -0.7734372,0.4570313 v 0.3046875 c 0.3398438,-0.011719 0.8554692,-0.035156 1.1132812,-0.035156 0.269531,0 0.773438,0.023437 1.125,0.035156 V 1.6274922 c -0.667969,0 -0.773437,0 -0.773437,-0.4570313 v -1.75781246 c 0.04687,0.15234375 0.46875,0.69140625 1.21875,0.69140625 1.183593,0 2.226562,-0.97265625 2.226562,-2.26171879 0,-1.265625 -0.972656,-2.25 -2.085937,-2.25 -0.773438,0 -1.195313,0.4453125 -1.394532,0.65625 z m 0.03516,2.6132813 v -2.2148438 c 0.28125,-0.515625 0.773437,-0.796875 1.277343,-0.796875 0.726563,0 1.335938,0.8671875 1.335938,1.9921875 0,1.20703129 -0.691406,2.05078129 -1.429688,2.05078129 -0.398437,0 -0.773437,-0.19921875 -1.042968,-0.609375 -0.140625,-0.2109375 -0.140625,-0.22265625 -0.140625,-0.42187499 z m 0,0"
       style="fill:#000000;fill-opacity:1;fill-rule:nonzero;stroke:none"
       aria-label="Mp"
       transform="matrix(1.3333333,0,0,1.3333333,114.476,13.302667)" />
    <path
       id="path22"
       d="m 125.46135,56.69362 3.07741,5.95285 5.35782,-11.90572 5.3578,11.90572 5.35782,-11.90572 5.35782,11.90572 5.35782,-11.90572 2.6789,5.95287"
       style="fill:none;stroke:#000000;stroke-width:0.797;stroke-linecap:butt;stroke-linejoin:bevel;stroke-miterlimit:10;stroke-dasharray:none;stroke-opacity:1"
       transform="matrix(1.3333333,0,0,-1.3333333,10.869333,101.91333)" />
    <path
       id="path23"
       d="m 171.668,56.69362 c 0,0.87656 -0.71059,1.58714 -1.58714,1.58714 -0.87658,0 -1.58716,-0.71058 -1.58716,-1.58714 0,-0.87657 0.71058,-1.58716 1.58716,-1.58716 0.87655,0 1.58714,0.71059 1.58714,1.58716 z"
       style="fill:#000000;fill-opacity:1;fill-rule:nonzero;stroke:#000000;stroke-width:0.3985;stroke-linecap:butt;stroke-linejoin:miter;stroke-miterlimit:10;stroke-dasharray:none;stroke-opacity:1"
       transform="matrix(1.3333333,0,0,-1.3333333,10.869333,101.91333)" />
    <path
       id="path24"
       d="m 2.2257812,-3.5170391 v -2.578125 c 0,-0.234375 0,-0.3515625 0.2226563,-0.3867187 0.1054687,-0.011719 0.3867187,-0.011719 0.5859375,-0.011719 0.9023437,0 2.015625,0.035156 2.015625,1.4765625 0,0.6914063 -0.234375,1.5 -1.7109375,1.5 z m 2.109375,0.1289063 c 0.9609375,-0.234375 1.7460938,-0.84375 1.7460938,-1.6289063 0,-0.9492187 -1.1367188,-1.7929687 -2.6015625,-1.7929687 H 0.35078125 v 0.3164062 h 0.234375 c 0.77343745,0 0.78515625,0.1054688 0.78515625,0.46875 v 5.25000004 c 0,0.3515625 -0.011719,0.46875 -0.78515625,0.46875 h -0.234375 v 0.3046875 c 0.3515625,-0.03515625 1.06640625,-0.03515625 1.45312495,-0.03515625 0.3867188,0 1.0898438,0 1.453125,0.03515625 v -0.3046875 h -0.234375 c -0.7734375,0 -0.796875,-0.1171875 -0.796875,-0.46875 V -3.2943828 h 1.1484375 c 0.1640625,0 0.5742188,0 0.9257813,0.3398437 0.3867187,0.3515625 0.3867187,0.65625 0.3867187,1.3242188 0,0.65624999 0,1.05468749 0.3984375,1.42968749 0.4101563,0.36328125 0.9609375,0.421875 1.2539063,0.421875 0.7851562,0 0.9492187,-0.8203125 0.9492187,-1.1015625 0,-0.0585938 0,-0.16406249 -0.1289062,-0.16406249 -0.1054688,0 -0.1054688,0.0820312 -0.1171875,0.15234374 -0.058594,0.71484375 -0.4101563,0.890625 -0.65625,0.890625 -0.4921875,0 -0.5742188,-0.50390625 -0.703125,-1.42968754 l -0.140625,-0.796875 C 5.3664062,-2.8725078 4.8859375,-3.2006328 4.3351562,-3.3881328 Z m 4.7080079,-0.3632813 v -0.65625 l -1.4296875,0.1171875 v 0.3046875 c 0.703125,0 0.7734375,0.058594 0.7734375,0.4921875 v 4.6640625 c 0,0.4570313 -0.1054688,0.4570313 -0.7734375,0.4570313 v 0.3046875 c 0.3398437,-0.011719 0.8554687,-0.035156 1.1132812,-0.035156 0.2695313,0 0.7734375,0.023437 1.125,0.035156 V 1.6274922 c -0.6679687,0 -0.7734375,0 -0.7734375,-0.4570313 v -1.75781246 c 0.046875,0.15234375 0.46875,0.69140625 1.2187497,0.69140625 1.183594,0 2.226563,-0.97265625 2.226563,-2.26171879 0,-1.265625 -0.972656,-2.25 -2.085938,-2.25 -0.7734372,0 -1.1953122,0.4453125 -1.3945309,0.65625 z m 0.035156,2.6132813 v -2.2148438 c 0.28125,-0.515625 0.7734375,-0.796875 1.2773439,-0.796875 0.726563,0 1.335938,0.8671875 1.335938,1.9921875 0,1.20703129 -0.691407,2.05078129 -1.429688,2.05078129 -0.3984376,0 -0.7734376,-0.19921875 -1.0429689,-0.609375 -0.140625,-0.2109375 -0.140625,-0.22265625 -0.140625,-0.42187499 z m 0,0"
       style="fill:#000000;fill-opacity:1;fill-rule:nonzero;stroke:none"
       aria-label="Rp"
       transform="matrix(1.3333333,0,0,1.3333333,191.26667,13.302667)" />
    <path
       id="path25"
       d="M 164.128,12.47261 V 44.221 h 11.9057 V 12.47261 Z"
       style="fill:none;stroke:#000000;stroke-width:0.797;stroke-linecap:butt;stroke-linejoin:miter;stroke-miterlimit:10;stroke-dasharray:none;stroke-opacity:1"
       transform="matrix(1.3333333,0,0,-1.3333333,10.869333,101.91333)" />
    <g
       id="g25"
       aria-label="Z&#10;radp"
       transform="matrix(1.3333333,0,0,1.3333333,195.99733,66.978667)">
      <path
         id="path26"
         d="m 5.4482891,-6.4556797 c 0.070312,-0.1054687 0.070312,-0.1171875 0.070312,-0.1875 0,-0.1640625 -0.058594,-0.1640625 -0.2578125,-0.1640625 H 0.79594531 l -0.10546875,2.25 h 0.24609375 c 0.0703125,-1.125 0.36328129,-1.9335937 2.00390629,-1.9335937 h 1.5585937 l -3.86718749,6.12890621 c -0.0703125,0.10546875 -0.0703125,0.1171875 -0.0703125,0.19921875 0,0.1640625 0.046875,0.1640625 0.2578125,0.1640625 H 5.4131328 L 5.5771953,-2.6588047 H 5.3311016 c -0.082031,1.3828125 -0.2695313,2.32031251 -2.109375,2.32031251 h -1.640625 z m 0,0"
         style="fill:#000000;fill-opacity:1;fill-rule:nonzero;stroke:none" />
      <path
         id="path27"
         d="m 7.7275859,0.0863125 c 0,-0.046875 0.1640625,-0.66796875 0.1757813,-0.703125 0.011719,-0.0585938 0.2226562,-0.4101562 0.4453125,-0.5742187 0.070312,-0.058594 0.2578125,-0.1992188 0.5625,-0.1992188 0.070312,0 0.2460937,0.011719 0.3867187,0.1054688 -0.2226562,0.058594 -0.3046875,0.2578125 -0.3046875,0.37499995 0,0.15234375 0.1171875,0.2578125 0.2695313,0.2578125 0.1640625,0 0.3984375,-0.12890625 0.3984375,-0.42187495 0,-0.3632813 -0.3867188,-0.5039063 -0.7382813,-0.5039063 -0.3632812,0 -0.6796875,0.140625 -0.984375,0.4921875 C 7.8096172,-1.5074375 7.3877422,-1.57775 7.2119609,-1.57775 c -0.2578125,0 -0.421875,0.1523438 -0.5390625,0.3515625 -0.1640625,0.26953125 -0.2578125,0.6796875 -0.2578125,0.71484375 0,0.0820313 0.09375,0.0820313 0.1171875,0.0820313 0.09375,0 0.1054688,-0.0117188 0.1523438,-0.19921875 0.1054687,-0.4335938 0.234375,-0.7617188 0.515625,-0.7617188 0.1757812,0 0.2226562,0.1523438 0.2226562,0.3398438 0,0.14062495 -0.058594,0.39843745 -0.1054687,0.58593745 -0.046875,0.1875 -0.1171875,0.46875 -0.1523438,0.62109375 L 6.9424297,1.0589688 c -0.035156,0.082031 -0.070312,0.2578125 -0.070312,0.28125 0,0.1523437 0.1171875,0.2226562 0.234375,0.2226562 0.1054687,0 0.2460937,-0.058594 0.2929687,-0.1992187 0.023437,-0.046875 0.09375,-0.3515625 0.140625,-0.5273438 z M 12.945359,-1.1675937 C 12.804734,-1.4019687 12.558641,-1.57775 12.230516,-1.57775 c -0.890625,0 -1.804688,0.97265625 -1.804688,1.98046875 0,0.67968755 0.457031,1.16015625 1.054688,1.16015625 0.375,0 0.714843,-0.2109375 0.996093,-0.4921875 0.128907,0.421875 0.527344,0.4921875 0.714844,0.4921875 0.246094,0 0.421875,-0.1523437 0.550781,-0.375 0.152344,-0.26953125 0.246094,-0.66796875 0.246094,-0.69140625 0,-0.09375 -0.09375,-0.09375 -0.117187,-0.09375 -0.09375,0 -0.105469,0.0351563 -0.152344,0.22265625 -0.08203,0.328125 -0.210938,0.7382813 -0.503906,0.7382813 -0.1875,0 -0.234375,-0.1523438 -0.234375,-0.3398438 0,-0.1171875 0.05859,-0.36328125 0.105468,-0.55078125 0.04687,-0.1875 0.117188,-0.46875 0.152344,-0.62109375 l 0.140625,-0.5390625 c 0.04687,-0.17578125 0.128906,-0.5039062 0.128906,-0.5390625 0,-0.1523437 -0.128906,-0.2226562 -0.246093,-0.2226562 -0.117188,0 -0.269532,0.082031 -0.316407,0.28125 z M 12.500047,0.625375 c -0.04687,0.1875 -0.199219,0.328125 -0.351563,0.4570313 -0.07031,0.058594 -0.339843,0.28125 -0.644531,0.28125 -0.257812,0 -0.515625,-0.1757813 -0.515625,-0.6679688 0,-0.375 0.210938,-1.13671875 0.363281,-1.41796875 0.328125,-0.56249995 0.679688,-0.66796875 0.878907,-0.66796875 0.480468,0 0.621093,0.52734375 0.621093,0.609375 0,0.0234375 -0.01172,0.0820313 -0.02344,0.09375 z m 5.80957,-3.7617187 c 0,-0.011719 0.02344,-0.1054688 0.02344,-0.1171875 0,-0.035156 -0.02344,-0.09375 -0.105469,-0.09375 -0.140625,0 -0.726563,0.058594 -0.902344,0.070312 -0.04687,0.011719 -0.152344,0.011719 -0.152344,0.1640625 0,0.09375 0.105469,0.09375 0.1875,0.09375 0.328125,0 0.328125,0.046875 0.328125,0.1054687 0,0.046875 -0.01172,0.09375 -0.02344,0.1523438 l -0.398438,1.59375 C 17.126023,-1.4019687 16.87993,-1.57775 16.551805,-1.57775 c -0.890625,0 -1.804688,0.97265625 -1.804688,1.98046875 0,0.67968755 0.457031,1.16015625 1.054688,1.16015625 0.375,0 0.714843,-0.2109375 0.996093,-0.4921875 0.128907,0.421875 0.527344,0.4921875 0.714844,0.4921875 0.246094,0 0.421875,-0.1523437 0.550781,-0.375 0.152344,-0.26953125 0.246094,-0.66796875 0.246094,-0.69140625 0,-0.09375 -0.09375,-0.09375 -0.117187,-0.09375 -0.09375,0 -0.105469,0.0351563 -0.152344,0.22265625 -0.08203,0.328125 -0.210938,0.7382813 -0.503906,0.7382813 -0.1875,0 -0.234375,-0.1523438 -0.234375,-0.3398438 0,-0.12890625 0.01172,-0.19921875 0.03516,-0.28125 z M 16.821336,0.625375 c -0.04687,0.1875 -0.199219,0.328125 -0.351563,0.4570313 -0.07031,0.058594 -0.339843,0.28125 -0.644531,0.28125 -0.257812,0 -0.515625,-0.1757813 -0.515625,-0.6679688 0,-0.375 0.210938,-1.13671875 0.363281,-1.41796875 0.328125,-0.56249995 0.679688,-0.66796875 0.878907,-0.66796875 0.480468,0 0.621093,0.52734375 0.621093,0.609375 0,0.0234375 -0.01172,0.0820313 -0.02344,0.09375 z m 2.176758,1.7226563 c -0.05859,0.1875 -0.07031,0.2460937 -0.351563,0.2460937 -0.08203,0 -0.1875,0 -0.1875,0.1523438 0,0.070312 0.07031,0.09375 0.105469,0.09375 0.175781,0 0.410156,-0.023437 0.597656,-0.023437 0.234375,0 0.503907,0.023437 0.726563,0.023437 0.07031,0 0.140625,-0.011719 0.140625,-0.1523438 0,-0.09375 -0.09375,-0.09375 -0.175781,-0.09375 -0.152344,0 -0.339844,0 -0.339844,-0.082031 0,-0.035156 0.04687,-0.2226563 0.07031,-0.3164063 0.08203,-0.375 0.1875,-0.75 0.257813,-1.0429687 0.08203,0.140625 0.304687,0.4101562 0.726562,0.4101562 0.84375,0 1.78125,-0.9375 1.78125,-1.98046875 0,-0.82031245 -0.5625,-1.16015625 -1.042968,-1.16015625 -0.433594,0 -0.796875,0.2929688 -0.984375,0.4804688 -0.117186,-0.3984377 -0.515623,-0.480469 -0.726561,-0.480469 -0.269531,0 -0.433594,0.1757813 -0.550781,0.3632813 -0.140625,0.23437495 -0.246094,0.65624995 -0.246094,0.70312495 0,0.0820313 0.09375,0.0820313 0.117188,0.0820313 0.09375,0 0.105468,-0.0117188 0.152343,-0.19921875 0.105469,-0.4101562 0.234375,-0.7617187 0.515625,-0.7617187 0.175782,0 0.222657,0.1523437 0.222657,0.3398437 0,0.0820313 -0.01172,0.17578125 -0.02344,0.2109375 z m 1.3125,-3.09375005 c 0.410156,-0.53906245 0.75,-0.64453125 0.972656,-0.64453125 0.28125,0 0.515625,0.2109375 0.515625,0.6796875 0,0.28125 -0.152344,0.99609375 -0.363281,1.40625 -0.175781,0.3398438 -0.515625,0.6679688 -0.867188,0.6679688 -0.503906,0 -0.621093,-0.53906255 -0.621093,-0.5976563 0,-0.0351563 0.01172,-0.0820313 0.01172,-0.10546875 z m 0,0"
         style="fill:#000000;fill-opacity:1;fill-rule:nonzero;stroke:none" />
    </g>
    <path
       id="path28"
       d="M 170.08086,0 V -11.90558"
       style="fill:none;stroke:#000000;stroke-width:0.3985;stroke-linecap:butt;stroke-linejoin:miter;stroke-miterlimit:10;stroke-dasharray:none;stroke-opacity:1"
       transform="matrix(1.3333333,0,0,-1.3333333,10.869333,101.91333)" />
    <path
       id="path29"
       d="m 164.128,-11.90558 h 11.9057 m -9.92132,-1.98424 h 7.93695 m -6.44881,-1.98437 h 4.96065"
       style="fill:none;stroke:#000000;stroke-width:0.797;stroke-linecap:butt;stroke-linejoin:miter;stroke-miterlimit:10;stroke-dasharray:none;stroke-opacity:1"
       transform="matrix(1.3333333,0,0,-1.3333333,10.869333,101.91333)" />
    <path
       id="path30"
       d="m 0.35221875,-6.8094922 v 0.3164063 h 0.234375 c 0.77343745,0 0.78515625,0.1054687 0.78515625,0.46875 v 5.24999996 c 0,0.3515625 -0.011719,0.46875 -0.78515625,0.46875 h -0.234375 V -8.984375e-4 H 3.99675 c 1.6757812,0 3.046875,-1.4765624625 3.046875,-3.3515624625 0,-1.8867188 -1.3476563,-3.4570313 -3.046875,-3.4570313 z m 2.36718745,6.50390626 c -0.46875,0 -0.4921875,-0.0703125 -0.4921875,-0.3984375 V -6.0946484 c 0,-0.328125 0.023437,-0.3984375 0.4921875,-0.3984375 H 3.7155 c 0.6210937,0 1.3007812,0.2109375 1.8164062,0.9257812 0.421875,0.5859375 0.515625,1.4414063 0.515625,2.2148438 0,1.1132812 -0.1875,1.7109375 -0.5507812,2.1914062 -0.1992188,0.26953126 -0.7617188,0.85546876 -1.7695313,0.85546876 z m 0,0"
       style="fill:#000000;fill-opacity:1;fill-rule:nonzero;stroke:none"
       aria-label="D"
       transform="matrix(1.3333333,0,0,1.3333333,5.796,210.60667)" />
    <path
       id="path31"
       d="m 1.58714,-85.04042 c 0,0.87656 -0.71058,1.58714 -1.58714,1.58714 -0.87656,0 -1.58714,-0.71058 -1.58714,-1.58714 0,-0.87656 0.71058,-1.58714 1.58714,-1.58714 0.87656,0 1.58714,0.71058 1.58714,1.58714 z"
       style="fill:#ffffff;fill-opacity:1;fill-rule:nonzero;stroke:#000000;stroke-width:0.3985;stroke-linecap:butt;stroke-linejoin:miter;stroke-miterlimit:10;stroke-dasharray:none;stroke-opacity:1"
       transform="matrix(1.3333333,0,0,-1.3333333,10.869333,101.91333)" />
    <path
       id="path32"
       d="m 56.69362,-97.11452 5.95285,-3.07741 -11.90572,-5.35781 11.90572,-5.35782 -11.90572,-5.35782 11.90572,-5.35782 -11.90572,-5.3578 5.95287,-2.67891"
       style="fill:none;stroke:#000000;stroke-width:0.797;stroke-linecap:butt;stroke-linejoin:bevel;stroke-miterlimit:10;stroke-dasharray:none;stroke-opacity:1"
       transform="matrix(1.3333333,0,0,-1.3333333,10.869333,101.91333)" />
    <g
       id="g32"
       aria-label="R&#10;al"
       transform="matrix(1.3333333,0,0,1.3333333,97.334667,255.95467)">
      <path
         id="path33"
         d="m 2.2275156,-3.5167812 v -2.578125 c 0,-0.234375 0,-0.3515625 0.2226563,-0.3867188 0.1054687,-0.011719 0.3867187,-0.011719 0.5859375,-0.011719 0.9023437,0 2.015625,0.035156 2.015625,1.4765625 0,0.6914062 -0.234375,1.5 -1.7109375,1.5 z m 2.109375,0.1289062 C 5.2978281,-3.62225 6.0829844,-4.231625 6.0829844,-5.0167812 6.0829844,-5.966 4.9462656,-6.80975 3.4814219,-6.80975 H 0.35251562 v 0.3164063 h 0.234375 c 0.77343748,0 0.78515628,0.1054687 0.78515628,0.46875 v 5.24999995 c 0,0.3515625 -0.011719,0.46875 -0.78515628,0.46875 h -0.234375 v 0.3046875 C 0.70407812,-0.0363125 1.4189219,-0.0363125 1.8056406,-0.0363125 c 0.3867188,0 1.0898438,0 1.453125,0.03515625 v -0.3046875 h -0.234375 c -0.7734375,0 -0.796875,-0.1171875 -0.796875,-0.46875 V -3.294125 h 1.1484375 c 0.1640625,0 0.5742188,0 0.9257813,0.3398438 0.3867187,0.3515625 0.3867187,0.65625 0.3867187,1.3242187 0,0.65625 0,1.0546875 0.3984375,1.4296875 0.4101563,0.36328125 0.9609375,0.421875 1.2539063,0.421875 0.7851562,0 0.9492187,-0.8203125 0.9492187,-1.1015625 0,-0.0585938 0,-0.1640625 -0.1289062,-0.1640625 -0.1054688,0 -0.1054688,0.0820313 -0.1171875,0.15234375 -0.058594,0.71484375 -0.4101563,0.890625 -0.65625,0.890625 -0.4921875,0 -0.5742188,-0.50390625 -0.703125,-1.42968745 l -0.140625,-0.796875 C 5.3681406,-2.87225 4.8876719,-3.200375 4.3368906,-3.387875 Z m 0,0"
         style="fill:#000000;fill-opacity:1;fill-rule:nonzero;stroke:none" />
      <path
         id="path34"
         d="m 10.275367,-1.1671719 c -0.140625,-0.234375 -0.3867186,-0.4101562 -0.7148436,-0.4101562 -0.890625,0 -1.8046875,0.97265623 -1.8046875,1.98046873 0,0.67968747 0.4570313,1.16015627 1.0546875,1.16015627 0.375,0 0.7148438,-0.2109375 0.9960938,-0.4921875 0.1289062,0.421875 0.5273438,0.4921875 0.7148438,0.4921875 0.246094,0 0.421875,-0.1523438 0.550781,-0.375 0.152344,-0.26953127 0.246094,-0.66796877 0.246094,-0.69140627 0,-0.09375 -0.09375,-0.09375 -0.117188,-0.09375 -0.09375,0 -0.105468,0.0351563 -0.152343,0.22265625 -0.08203,0.328125 -0.210938,0.73828122 -0.503907,0.73828122 -0.1875,0 -0.234375,-0.1523437 -0.234375,-0.3398437 0,-0.11718752 0.05859,-0.36328127 0.105469,-0.55078127 0.04687,-0.1875 0.117188,-0.46875 0.152344,-0.62109375 l 0.140625,-0.5390625 c 0.04687,-0.17578125 0.128906,-0.50390628 0.128906,-0.53906248 0,-0.1523438 -0.128906,-0.2226563 -0.246094,-0.2226563 -0.117187,0 -0.269531,0.082031 -0.316406,0.28125 z M 9.8300547,0.62579688 c -0.046875,0.1875 -0.1992188,0.328125 -0.3515625,0.45703122 -0.070312,0.058594 -0.3398438,0.28125 -0.6445313,0.28125 -0.2578125,0 -0.515625,-0.1757812 -0.515625,-0.66796872 0,-0.375 0.2109375,-1.13671875 0.3632813,-1.41796875 0.328125,-0.56250003 0.6796875,-0.66796873 0.8789062,-0.66796873 0.4804686,0 0.6210936,0.52734373 0.6210936,0.60937498 0,0.0234375 -0.01172,0.0820313 -0.02344,0.09375 z M 13.624,-3.1359219 c 0,-0.011719 0.02344,-0.1054687 0.02344,-0.1171875 0,-0.035156 -0.02344,-0.09375 -0.105468,-0.09375 -0.140625,0 -0.726563,0.058594 -0.902344,0.070312 -0.04687,0.011719 -0.140625,0.011719 -0.140625,0.1640625 0,0.09375 0.09375,0.09375 0.175781,0.09375 0.328125,0 0.328125,0.046875 0.328125,0.1054688 0,0.046875 -0.01172,0.09375 -0.02344,0.1523437 l -0.867188,3.44531253 c -0.02344,0.0703125 -0.02344,0.140625 -0.02344,0.2109375 0,0.45703127 0.398437,0.66796877 0.726562,0.66796877 0.175781,0 0.375,-0.058594 0.5625,-0.375 C 13.518531,0.93048438 13.624,0.52032813 13.624,0.49689063 c 0,-0.09375 -0.09375,-0.09375 -0.117188,-0.09375 -0.09375,0 -0.105468,0.046875 -0.140625,0.1640625 -0.08203,0.3515625 -0.222656,0.79687497 -0.515625,0.79687497 -0.1875,0 -0.234375,-0.1757812 -0.234375,-0.3398437 0,-0.0703125 0.01172,-0.21093752 0.03516,-0.28125002 z m 0,0"
         style="fill:#000000;fill-opacity:1;fill-rule:nonzero;stroke:none" />
    </g>
    <path
       id="path35"
       d="m 56.69362,-141.73404 v -11.90558"
       style="fill:none;stroke:#000000;stroke-width:0.3985;stroke-linecap:butt;stroke-linejoin:miter;stroke-miterlimit:10;stroke-dasharray:none;stroke-opacity:1"
       transform="matrix(1.3333333,0,0,-1.3333333,10.869333,101.91333)" />
    <path
       id="path36"
       d="m 50.74075,-153.63962 h 11.90572 m -9.92134,-1.98424 h 7.93697 m -6.44881,-1.98437 h 4.96064"
       style="fill:none;stroke:#000000;stroke-width:0.797;stroke-linecap:butt;stroke-linejoin:miter;stroke-miterlimit:10;stroke-dasharray:none;stroke-opacity:1"
       transform="matrix(1.3333333,0,0,-1.3333333,10.869333,101.91333)" />
    <path
       id="path37"
       d="m 28.34679,-97.11452 5.95285,-3.07741 -11.9057,-5.35781 11.9057,-5.35782 -11.9057,-5.35782 11.9057,-5.35782 -11.9057,-5.3578 5.95285,-2.67891"
       style="fill:none;stroke:#000000;stroke-width:0.797;stroke-linecap:butt;stroke-linejoin:bevel;stroke-miterlimit:10;stroke-dasharray:none;stroke-opacity:1"
       transform="matrix(1.3333333,0,0,-1.3333333,10.869333,101.91333)" />
    <path
       id="path38"
       d="m 29.93394,-85.04042 c 0,0.87656 -0.71058,1.58714 -1.58714,1.58714 -0.87655,0 -1.58714,-0.71058 -1.58714,-1.58714 0,-0.87656 0.71059,-1.58714 1.58714,-1.58714 0.87656,0 1.58714,0.71058 1.58714,1.58714 z"
       style="fill:#000000;fill-opacity:1;fill-rule:nonzero;stroke:#000000;stroke-width:0.3985;stroke-linecap:butt;stroke-linejoin:miter;stroke-miterlimit:10;stroke-dasharray:none;stroke-opacity:1"
       transform="matrix(1.3333333,0,0,-1.3333333,10.869333,101.91333)" />
    <path
       id="path39"
       d="m 29.93394,-141.73404 c 0,0.87656 -0.71058,1.58714 -1.58714,1.58714 -0.87655,0 -1.58714,-0.71058 -1.58714,-1.58714 0,-0.87656 0.71059,-1.58714 1.58714,-1.58714 0.87656,0 1.58714,0.71058 1.58714,1.58714 z"
       style="fill:#000000;fill-opacity:1;fill-rule:nonzero;stroke:#000000;stroke-width:0.3985;stroke-linecap:butt;stroke-linejoin:miter;stroke-miterlimit:10;stroke-dasharray:none;stroke-opacity:1"
       transform="matrix(1.3333333,0,0,-1.3333333,10.869333,101.91333)" />
    <g
       id="g39"
       aria-label="R&#10;ab"
       transform="matrix(1.3333333,0,0,1.3333333,16.913333,255.95467)">
      <path
         id="path40"
         d="m 2.2271094,-3.5167812 v -2.578125 c 0,-0.234375 0,-0.3515625 0.2226562,-0.3867188 0.1054688,-0.011719 0.3867188,-0.011719 0.5859375,-0.011719 0.9023438,0 2.015625,0.035156 2.015625,1.4765625 0,0.6914062 -0.234375,1.5 -1.7109375,1.5 z m 2.109375,0.1289062 C 5.2974219,-3.62225 6.0825781,-4.231625 6.0825781,-5.0167812 6.0825781,-5.966 4.9458594,-6.80975 3.4810156,-6.80975 H 0.35210937 v 0.3164063 h 0.234375 c 0.77343753,0 0.78515623,0.1054687 0.78515623,0.46875 v 5.24999995 c 0,0.3515625 -0.011719,0.46875 -0.78515623,0.46875 h -0.234375 v 0.3046875 C 0.70367187,-0.0363125 1.4185156,-0.0363125 1.8052344,-0.0363125 c 0.3867187,0 1.0898437,0 1.453125,0.03515625 v -0.3046875 h -0.234375 c -0.7734375,0 -0.796875,-0.1171875 -0.796875,-0.46875 V -3.294125 h 1.1484375 c 0.1640625,0 0.5742187,0 0.9257812,0.3398438 0.3867188,0.3515625 0.3867188,0.65625 0.3867188,1.3242187 0,0.65625 0,1.0546875 0.3984375,1.4296875 0.4101562,0.36328125 0.9609375,0.421875 1.2539062,0.421875 0.7851563,0 0.9492188,-0.8203125 0.9492188,-1.1015625 0,-0.0585938 0,-0.1640625 -0.1289063,-0.1640625 -0.1054687,0 -0.1054687,0.0820313 -0.1171875,0.15234375 -0.058594,0.71484375 -0.4101562,0.890625 -0.65625,0.890625 -0.4921875,0 -0.5742187,-0.50390625 -0.703125,-1.42968745 l -0.140625,-0.796875 C 5.3677344,-2.87225 4.8872656,-3.200375 4.3364844,-3.387875 Z m 0,0"
         style="fill:#000000;fill-opacity:1;fill-rule:nonzero;stroke:none" />
      <path
         id="path41"
         d="m 10.274961,-1.1671719 c -0.140625,-0.234375 -0.3867188,-0.4101562 -0.7148438,-0.4101562 -0.890625,0 -1.8046875,0.97265623 -1.8046875,1.98046873 0,0.67968747 0.4570312,1.16015627 1.0546875,1.16015627 0.375,0 0.7148437,-0.2109375 0.9960937,-0.4921875 0.1289063,0.421875 0.5273441,0.4921875 0.7148441,0.4921875 0.246093,0 0.421875,-0.1523438 0.550781,-0.375 0.152344,-0.26953127 0.246094,-0.66796877 0.246094,-0.69140627 0,-0.09375 -0.09375,-0.09375 -0.117188,-0.09375 -0.09375,0 -0.105469,0.0351563 -0.152344,0.22265625 -0.08203,0.328125 -0.210937,0.73828122 -0.503906,0.73828122 -0.1875,0 -0.234375,-0.1523437 -0.234375,-0.3398437 0,-0.11718752 0.05859,-0.36328127 0.105469,-0.55078127 0.04687,-0.1875 0.117187,-0.46875 0.152344,-0.62109375 l 0.140625,-0.5390625 c 0.04687,-0.17578125 0.128906,-0.50390628 0.128906,-0.53906248 0,-0.1523438 -0.128906,-0.2226563 -0.246094,-0.2226563 -0.117187,0 -0.269531,0.082031 -0.316406,0.28125 z M 9.8296484,0.62579688 c -0.046875,0.1875 -0.1992187,0.328125 -0.3515625,0.45703122 -0.070312,0.058594 -0.3398437,0.28125 -0.6445312,0.28125 -0.2578125,0 -0.515625,-0.1757812 -0.515625,-0.66796872 0,-0.375 0.2109375,-1.13671875 0.3632812,-1.41796875 0.328125,-0.56250003 0.6796875,-0.66796873 0.8789063,-0.66796873 0.4804688,0 0.6210938,0.52734373 0.6210938,0.60937498 0,0.0234375 -0.01172,0.0820313 -0.02344,0.09375 z M 13.494688,-3.1359219 c 0.01172,-0.011719 0.02344,-0.1054687 0.02344,-0.1171875 0,-0.035156 -0.02344,-0.09375 -0.105469,-0.09375 -0.140625,0 -0.714843,0.058594 -0.890625,0.070312 -0.05859,0.011719 -0.152343,0.011719 -0.152343,0.1640625 0,0.09375 0.09375,0.09375 0.175781,0.09375 0.339844,0 0.339844,0.046875 0.339844,0.1054688 0,0.046875 -0.07031,0.328125 -0.117188,0.4921875 l -0.152344,0.6328125 c -0.07031,0.2460937 -0.457031,1.76953123 -0.46875,1.86328123 -0.03516,0.1640625 -0.03516,0.2578125 -0.03516,0.33984375 0,0.70312502 0.445313,1.14843752 1.03125,1.14843752 0.867188,0 1.792969,-0.94921877 1.792969,-1.98046877 0,-0.82031253 -0.5625,-1.16015623 -1.042969,-1.16015623 -0.363281,0 -0.667969,0.1992187 -0.878906,0.375 z m -0.351563,4.5 c -0.339844,0 -0.527344,-0.2929687 -0.527344,-0.70312497 0,-0.2578125 0.05859,-0.50390625 0.257813,-1.2890625 0.03516,-0.12890625 0.03516,-0.140625 0.164062,-0.29296875 0.269532,-0.31640628 0.585938,-0.46874998 0.832032,-0.46874998 0.269531,0 0.515625,0.2109375 0.515625,0.67968748 0,0.28125 -0.152344,0.99609375 -0.363282,1.40625 C 13.84625,1.0359531 13.506406,1.3640781 13.143125,1.3640781 Z m 0,0"
         style="fill:#000000;fill-opacity:1;fill-rule:nonzero;stroke:none" />
    </g>
    <path
       id="path42"
       d="M 40.2525,-166.11237 H 16.44107 m 23.81143,-7.93695 H 16.44107"
       style="fill:none;stroke:#000000;stroke-width:0.797;stroke-linecap:butt;stroke-linejoin:miter;stroke-miterlimit:10;stroke-dasharray:none;stroke-opacity:1"
       transform="matrix(1.3333333,0,0,-1.3333333,10.869333,101.91333)" />
    <g
       id="g42"
       aria-label="C&#10;ab"
       transform="matrix(1.3333333,0,0,1.3333333,8.3666667,331.54533)">
      <path
         id="path43"
         d="m 0.56289062,-3.409 c 0,2.0625 1.60546878,3.6328125 3.45703128,3.6328125 1.6289062,0 2.6015625,-1.3828125 2.6015625,-2.5429687 0,-0.1054688 0,-0.1757813 -0.1289063,-0.1757813 -0.1054687,0 -0.1054687,0.070312 -0.1171875,0.1640625 -0.082031,1.4296875 -1.1484375,2.23828125 -2.2265625,2.23828125 -0.609375,0 -2.5664062,-0.33984375 -2.5664062,-3.30468745 0,-2.9765625 1.9453125,-3.3164063 2.5546875,-3.3164063 1.078125,0 1.96875,0.9023438 2.1679687,2.3671875 0.023437,0.1289063 0.023437,0.1640625 0.1640625,0.1640625 0.1523438,0 0.1523438,-0.035156 0.1523438,-0.234375 V -6.784 c 0,-0.1640625 0,-0.234375 -0.1054688,-0.234375 -0.035156,0 -0.082031,0 -0.1640625,0.1171875 l -0.4921875,0.7382813 c -0.375,-0.3632813 -0.8789062,-0.8554688 -1.8398437,-0.8554688 -1.8632813,0 -3.45703128,1.5820313 -3.45703128,3.609375 z m 0,0"
         style="fill:#000000;fill-opacity:1;fill-rule:nonzero;stroke:none" />
      <path
         id="path44"
         d="m 10.137109,-1.1648594 c -0.1406246,-0.234375 -0.3867184,-0.4101562 -0.7148434,-0.4101562 -0.890625,0 -1.8046875,0.97265623 -1.8046875,1.98046873 0,0.67968747 0.4570313,1.16015627 1.0546875,1.16015627 0.375,0 0.7148438,-0.2109375 0.9960938,-0.4921875 0.1289062,0.421875 0.5273436,0.4921875 0.7148436,0.4921875 0.246094,0 0.421875,-0.1523438 0.550781,-0.375 0.152344,-0.26953127 0.246094,-0.66796877 0.246094,-0.69140627 0,-0.09375 -0.09375,-0.09375 -0.117187,-0.09375 -0.09375,0 -0.105469,0.0351563 -0.152344,0.22265625 -0.08203,0.328125 -0.210938,0.73828122 -0.503906,0.73828122 -0.1875,0 -0.234375,-0.1523437 -0.234375,-0.3398437 0,-0.11718752 0.05859,-0.36328127 0.105468,-0.55078127 0.04687,-0.1875 0.117188,-0.46875 0.152344,-0.62109375 l 0.140625,-0.5390625 c 0.04687,-0.17578125 0.128906,-0.50390628 0.128906,-0.53906248 0,-0.1523438 -0.128906,-0.2226563 -0.246093,-0.2226563 -0.117188,0 -0.269532,0.082031 -0.316407,0.28125 z M 9.6917969,0.62810938 c -0.046875,0.1875 -0.1992188,0.328125 -0.3515625,0.45703122 -0.070312,0.058594 -0.3398438,0.28125 -0.6445313,0.28125 -0.2578125,0 -0.515625,-0.1757812 -0.515625,-0.66796872 0,-0.375 0.2109375,-1.13671875 0.3632813,-1.41796875 0.328125,-0.56250003 0.6796875,-0.66796873 0.8789062,-0.66796873 0.4804688,0 0.6210934,0.52734373 0.6210934,0.60937498 0,0.0234375 -0.01172,0.0820313 -0.02344,0.09375 z M 13.356836,-3.1336094 c 0.01172,-0.011719 0.02344,-0.1054687 0.02344,-0.1171875 0,-0.035156 -0.02344,-0.09375 -0.105468,-0.09375 -0.140625,0 -0.714844,0.058594 -0.890625,0.070312 -0.05859,0.011719 -0.152344,0.011719 -0.152344,0.1640625 0,0.09375 0.09375,0.09375 0.175781,0.09375 0.339844,0 0.339844,0.046875 0.339844,0.1054688 0,0.046875 -0.07031,0.328125 -0.117188,0.4921875 l -0.152343,0.6328125 c -0.07031,0.2460937 -0.457032,1.76953123 -0.46875,1.86328123 -0.03516,0.1640625 -0.03516,0.2578125 -0.03516,0.33984375 0,0.70312502 0.445313,1.14843752 1.03125,1.14843752 0.867188,0 1.792969,-0.94921877 1.792969,-1.98046877 0,-0.82031253 -0.5625,-1.16015623 -1.042969,-1.16015623 -0.363281,0 -0.667968,0.1992187 -0.878906,0.375 z m -0.351563,4.5 c -0.339843,0 -0.527343,-0.2929687 -0.527343,-0.70312497 0,-0.2578125 0.05859,-0.50390625 0.257812,-1.2890625 0.03516,-0.12890625 0.03516,-0.140625 0.164063,-0.29296875 0.269531,-0.31640628 0.585937,-0.46874998 0.832031,-0.46874998 0.269531,0 0.515625,0.2109375 0.515625,0.67968748 0,0.28125 -0.152344,0.99609375 -0.363281,1.40625 C 13.708398,1.0382656 13.368555,1.3663906 13.005273,1.3663906 Z m 0,0"
         style="fill:#000000;fill-opacity:1;fill-rule:nonzero;stroke:none" />
    </g>
    <path
       id="path45"
       d="m 28.3468,-198.42766 v -11.90558"
       style="fill:none;stroke:#000000;stroke-width:0.3985;stroke-linecap:butt;stroke-linejoin:miter;stroke-miterlimit:10;stroke-dasharray:none;stroke-opacity:1"
       transform="matrix(1.3333333,0,0,-1.3333333,10.869333,101.91333)" />
    <path
       id="path46"
       d="m 22.39395,-210.33324 h 11.9057 m -9.92132,-1.98423 h 7.93695 m -6.44881,-1.98438 h 4.96066"
       style="fill:none;stroke:#000000;stroke-width:0.797;stroke-linecap:butt;stroke-linejoin:miter;stroke-miterlimit:10;stroke-dasharray:none;stroke-opacity:1"
       transform="matrix(1.3333333,0,0,-1.3333333,10.869333,101.91333)" />
  </g>
</svg>
