solid Created by Gmsh
facet normal -1 0 0
  outer loop
    vertex -0.095 0.15 0
    vertex -0.095 -0.15 0
    vertex -0.095 -0.15 0.345
  endloop
endfacet
facet normal -1 0 0
  outer loop
    vertex -0.095 0.15 0
    vertex -0.095 -0.15 0.345
    vertex -0.095 0.15 0.345
  endloop
endfacet
facet normal 0 -1 0
  outer loop
    vertex 0.007967799871858625 -0.15 0.3096314155346974
    vertex 0.009112107842767642 -0.15 0.3085568388241086
    vertex 0.095 -0.15 0.345
  endloop
endfacet
facet normal 0 -1 0
  outer loop
    vertex 0.01011271242968684 -0.15 0.3073473156536559
    vertex 0.095 -0.15 0.345
    vertex 0.009112107842767642 -0.15 0.3085568388241086
  endloop
endfacet
facet normal 0 -1 0
  outer loop
    vertex 0.006697834937237454 -0.15 0.3105540990687752
    vertex 0.007967799871858625 -0.15 0.3096314155346974
    vertex 0.095 -0.15 0.345
  endloop
endfacet
facet normal 0 -1 0
  outer loop
    vertex 0.01095383350054829 -0.15 0.3060219209262715
    vertex 0.095 -0.15 0.345
    vertex 0.01011271242968684 -0.15 0.3073473156536559
  endloop
endfacet
facet normal 0 -1 0
  outer loop
    vertex 0.005322241144563408 -0.15 0.3113103381558252
    vertex 0.006697834937237454 -0.15 0.3105540990687752
    vertex 0.095 -0.15 0.345
  endloop
endfacet
facet normal 0 -1 0
  outer loop
    vertex 0.01162220607360315 -0.15 0.3046015569085584
    vertex 0.095 -0.15 0.345
    vertex 0.01095383350054829 -0.15 0.3060219209262715
  endloop
endfacet
facet normal 0 -1 0
  outer loop
    vertex 0.003862712429686846 -0.15 0.3118882064536894
    vertex 0.005322241144563408 -0.15 0.3113103381558252
    vertex 0.095 -0.15 0.345
  endloop
endfacet
facet normal 0 -1 0
  outer loop
    vertex 0.01210728951410789 -0.15 0.3031086235895607
    vertex 0.095 -0.15 0.345
    vertex 0.01162220607360315 -0.15 0.3046015569085584
  endloop
endfacet
facet normal 0 -1 0
  outer loop
    vertex 0.002342266432321563 -0.15 0.3122785906341086
    vertex 0.003862712429686846 -0.15 0.3118882064536894
    vertex 0.095 -0.15 0.345
  endloop
endfacet
facet normal 0 -1 0
  outer loop
    vertex 0.01240143376643098 -0.15 0.3015666654195538
    vertex 0.095 -0.15 0.345
    vertex 0.01210728951410789 -0.15 0.3031086235895607
  endloop
endfacet
facet normal 0 -1 0
  outer loop
    vertex 0.0007848814941164156 -0.15 0.3124753341053534
    vertex 0.002342266432321563 -0.15 0.3122785906341086
    vertex 0.095 -0.15 0.345
  endloop
endfacet
facet normal 0 -1 0
  outer loop
    vertex 0.0125 -0.15 0.3
    vertex 0.095 -0.15 0.345
    vertex 0.01240143376643098 -0.15 0.3015666654195538
  endloop
endfacet
facet normal 0 -1 0
  outer loop
    vertex 0.01240143376643098 -0.15 0.2984333345804462
    vertex 0.095 -0.15 0.345
    vertex 0.0125 -0.15 0.3
  endloop
endfacet
facet normal 0 -1 0
  outer loop
    vertex 0.0121072895141079 -0.15 0.2968913764104394
    vertex 0.095 -0.15 0.345
    vertex 0.01240143376643098 -0.15 0.2984333345804462
  endloop
endfacet
facet normal 0 -1 0
  outer loop
    vertex 0.04882357550658381 -0.15 0.22290988784363
    vertex 0.095 -0.15 0.345
    vertex 0.04415276702832407 -0.15 0.2277025488180929
  endloop
endfacet
facet normal 0 -1 0
  outer loop
    vertex 0.03901392823564396 -0.15 0.2319895509080817
    vertex 0.095 -0.15 0.345
    vertex 0.0121072895141079 -0.15 0.2968913764104394
  endloop
endfacet
facet normal 0 -1 0
  outer loop
    vertex 0.03901392823564396 -0.15 0.2319895509080817
    vertex 0.04415276702832407 -0.15 0.2277025488180929
    vertex 0.095 -0.15 0.345
  endloop
endfacet
facet normal 0 -1 0
  outer loop
    vertex 0.05297684193859275 -0.15 0.2176623713832966
    vertex 0.095 -0.15 0.345
    vertex 0.04882357550658381 -0.15 0.22290988784363
  endloop
endfacet
facet normal 0 -1 0
  outer loop
    vertex 0.03346153209813902 -0.15 0.2357254508249616
    vertex 0.03901392823564396 -0.15 0.2319895509080817
    vertex 0.0121072895141079 -0.15 0.2968913764104394
  endloop
endfacet
facet normal 0 -1 0
  outer loop
    vertex 0.03346153209813902 -0.15 0.2357254508249616
    vertex 0.0121072895141079 -0.15 0.2968913764104394
    vertex 0.01162220607360316 -0.15 0.2953984430914416
  endloop
endfacet
facet normal 0 -1 0
  outer loop
    vertex 0.05656854066696009 -0.15 0.2120156244170012
    vertex 0.095 -0.15 0.345
    vertex 0.05297684193859275 -0.15 0.2176623713832966
  endloop
endfacet
facet normal 0 -1 0
  outer loop
    vertex 0.02755443539614097 -0.15 0.2388706471002306
    vertex 0.01095383350054832 -0.15 0.2939780790737286
    vertex 0.01011271242968688 -0.15 0.2926526843463441
  endloop
endfacet
facet normal 0 -1 0
  outer loop
    vertex 0.02755443539614097 -0.15 0.2388706471002306
    vertex 0.01162220607360316 -0.15 0.2953984430914416
    vertex 0.01095383350054832 -0.15 0.2939780790737286
  endloop
endfacet
facet normal 0 -1 0
  outer loop
    vertex 0.02755443539614097 -0.15 0.2388706471002306
    vertex 0.03346153209813902 -0.15 0.2357254508249616
    vertex 0.01162220607360316 -0.15 0.2953984430914416
  endloop
endfacet
facet normal 0 -1 0
  outer loop
    vertex 0.05956059879165531 -0.15 0.2060295038673323
    vertex 0.095 -0.15 0.345
    vertex 0.05656854066696009 -0.15 0.2120156244170012
  endloop
endfacet
facet normal 0 -1 0
  outer loop
    vertex 0.02135525482420429 -0.15 0.241391799870938
    vertex 0.009112107842767683 -0.15 0.2914431611758914
    vertex 0.007967799871858666 -0.15 0.2903685844653027
  endloop
endfacet
facet normal 0 -1 0
  outer loop
    vertex 0.02135525482420429 -0.15 0.241391799870938
    vertex 0.01011271242968688 -0.15 0.2926526843463441
    vertex 0.009112107842767683 -0.15 0.2914431611758914
  endloop
endfacet
facet normal 0 -1 0
  outer loop
    vertex 0.02135525482420429 -0.15 0.241391799870938
    vertex 0.02755443539614097 -0.15 0.2388706471002306
    vertex 0.01011271242968688 -0.15 0.2926526843463441
  endloop
endfacet
facet normal 0 -1 0
  outer loop
    vertex 0.06192129975221986 -0.15 0.1997674641012886
    vertex 0.095 -0.15 0.345
    vertex 0.05956059879165531 -0.15 0.2060295038673323
  endloop
endfacet
facet normal 0 -1 0
  outer loop
    vertex 0.01492970323856675 -0.15 0.2432621842905248
    vertex 0.006697834937237496 -0.15 0.2894459009312248
    vertex 0.00532224114456345 -0.15 0.2886896618441748
  endloop
endfacet
facet normal 0 -1 0
  outer loop
    vertex 0.01492970323856675 -0.15 0.2432621842905248
    vertex 0.007967799871858666 -0.15 0.2903685844653027
    vertex 0.006697834937237496 -0.15 0.2894459009312248
  endloop
endfacet
facet normal 0 -1 0
  outer loop
    vertex 0.01492970323856675 -0.15 0.2432621842905248
    vertex 0.02135525482420429 -0.15 0.241391799870938
    vertex 0.007967799871858666 -0.15 0.2903685844653027
  endloop
endfacet
facet normal 0 -1 0
  outer loop
    vertex 0.06362561953119826 -0.15 0.193295884298203
    vertex 0.095 -0.15 0.345
    vertex 0.06192129975221986 -0.15 0.1997674641012886
  endloop
endfacet
facet normal 0 -1 0
  outer loop
    vertex 0.008345893084525852 -0.15 0.2444619738188466
    vertex 0.01492970323856675 -0.15 0.2432621842905248
    vertex 0.00532224114456345 -0.15 0.2886896618441748
  endloop
endfacet
facet normal 0 -1 0
  outer loop
    vertex 0.008345893084525852 -0.15 0.2444619738188466
    vertex 0.003862712429686888 -0.15 0.2881117935463106
    vertex 0.002342266432321591 -0.15 0.2877214093658914
  endloop
endfacet
facet normal 0 -1 0
  outer loop
    vertex 0.008345893084525852 -0.15 0.2444619738188466
    vertex 0.00532224114456345 -0.15 0.2886896618441748
    vertex 0.003862712429686888 -0.15 0.2881117935463106
  endloop
endfacet
facet normal 0 -1 0
  outer loop
    vertex 0.06465549191494829 -0.15 0.1866833648139284
    vertex 0.095 -0.15 0.345
    vertex 0.06362561953119826 -0.15 0.193295884298203
  endloop
endfacet
facet normal 0 -1 0
  outer loop
    vertex -0.095 -0.15 0.345
    vertex -0.0007848814941164156 -0.15 0.3124753341053534
    vertex 0.0007848814941164156 -0.15 0.3124753341053534
  endloop
endfacet
facet normal 0 -1 0
  outer loop
    vertex -0.095 -0.15 0.345
    vertex -0.002342266432321549 -0.15 0.3122785906341086
    vertex -0.0007848814941164156 -0.15 0.3124753341053534
  endloop
endfacet
facet normal 0 -1 0
  outer loop
    vertex -0.095 -0.15 0.345
    vertex -0.003862712429686832 -0.15 0.3118882064536894
    vertex -0.002342266432321549 -0.15 0.3122785906341086
  endloop
endfacet
facet normal 0 -1 0
  outer loop
    vertex -0.095 -0.15 0.345
    vertex -0.005322241144563408 -0.15 0.3113103381558253
    vertex -0.003862712429686832 -0.15 0.3118882064536894
  endloop
endfacet
facet normal 0 -1 0
  outer loop
    vertex -0.095 -0.15 0.345
    vertex -0.006697834937237454 -0.15 0.3105540990687752
    vertex -0.005322241144563408 -0.15 0.3113103381558253
  endloop
endfacet
facet normal 0 -1 0
  outer loop
    vertex -0.095 -0.15 0.345
    vertex -0.007967799871858625 -0.15 0.3096314155346974
    vertex -0.006697834937237454 -0.15 0.3105540990687752
  endloop
endfacet
facet normal 0 -1 0
  outer loop
    vertex -0.095 -0.15 0.345
    vertex -0.009112107842767642 -0.15 0.3085568388241086
    vertex -0.007967799871858625 -0.15 0.3096314155346974
  endloop
endfacet
facet normal 0 -1 0
  outer loop
    vertex -0.095 -0.15 0.345
    vertex -0.01011271242968685 -0.15 0.3073473156536559
    vertex -0.009112107842767642 -0.15 0.3085568388241086
  endloop
endfacet
facet normal 0 -1 0
  outer loop
    vertex -0.095 -0.15 0.345
    vertex -0.01095383350054829 -0.15 0.3060219209262715
    vertex -0.01011271242968685 -0.15 0.3073473156536559
  endloop
endfacet
facet normal 0 -1 0
  outer loop
    vertex -0.095 -0.15 0.345
    vertex -0.01162220607360315 -0.15 0.3046015569085584
    vertex -0.01095383350054829 -0.15 0.3060219209262715
  endloop
endfacet
facet normal 0 -1 0
  outer loop
    vertex -0.095 -0.15 0.345
    vertex -0.01210728951410789 -0.15 0.3031086235895606
    vertex -0.01162220607360315 -0.15 0.3046015569085584
  endloop
endfacet
facet normal 0 -1 0
  outer loop
    vertex -0.095 -0.15 0.345
    vertex -0.01240143376643098 -0.15 0.3015666654195538
    vertex -0.01210728951410789 -0.15 0.3031086235895606
  endloop
endfacet
facet normal 0 -1 0
  outer loop
    vertex -0.095 -0.15 0.345
    vertex -0.0125 -0.15 0.3
    vertex -0.01240143376643098 -0.15 0.3015666654195538
  endloop
endfacet
facet normal 0 -1 0
  outer loop
    vertex -0.095 -0.15 0.345
    vertex -0.01240143376643096 -0.15 0.2984333345804462
    vertex -0.0125 -0.15 0.3
  endloop
endfacet
facet normal 0 -1 0
  outer loop
    vertex -0.095 -0.15 0.345
    vertex -0.01210728951410789 -0.15 0.2968913764104393
    vertex -0.01240143376643096 -0.15 0.2984333345804462
  endloop
endfacet
facet normal 0 -1 0
  outer loop
    vertex -0.095 -0.15 0.345
    vertex 0.0007848814941164156 -0.15 0.3124753341053534
    vertex 0.095 -0.15 0.345
  endloop
endfacet
facet normal 0 -1 0
  outer loop
    vertex 0.00167361438757431 -0.15 0.2449784503884304
    vertex 0.008345893084525852 -0.15 0.2444619738188466
    vertex 0.002342266432321591 -0.15 0.2877214093658914
  endloop
endfacet
facet normal 0 -1 0
  outer loop
    vertex 0.00167361438757431 -0.15 0.2449784503884304
    vertex 0.0007848814941164572 -0.15 0.2875246658946466
    vertex -0.0007848814941163879 -0.15 0.2875246658946466
  endloop
endfacet
facet normal 0 -1 0
  outer loop
    vertex 0.00167361438757431 -0.15 0.2449784503884304
    vertex 0.002342266432321591 -0.15 0.2877214093658914
    vertex 0.0007848814941164572 -0.15 0.2875246658946466
  endloop
endfacet
facet normal 0 -1 0
  outer loop
    vertex 0.065 -0.15 0.18
    vertex 0.095 -0.15 0.345
    vertex 0.06465549191494829 -0.15 0.1866833648139284
  endloop
endfacet
facet normal 0 -1 0
  outer loop
    vertex -0.005016405038231961 -0.15 0.2448061392191542
    vertex -0.002342266432321521 -0.15 0.2877214093658914
    vertex -0.003862712429686818 -0.15 0.2881117935463106
  endloop
endfacet
facet normal 0 -1 0
  outer loop
    vertex -0.005016405038231961 -0.15 0.2448061392191542
    vertex -0.0007848814941163879 -0.15 0.2875246658946466
    vertex -0.002342266432321521 -0.15 0.2877214093658914
  endloop
endfacet
facet normal 0 -1 0
  outer loop
    vertex -0.005016405038231961 -0.15 0.2448061392191542
    vertex 0.00167361438757431 -0.15 0.2449784503884304
    vertex -0.0007848814941163879 -0.15 0.2875246658946466
  endloop
endfacet
facet normal 0 -1 0
  outer loop
    vertex -0.01165324932269776 -0.15 0.2439468668522786
    vertex -0.005016405038231961 -0.15 0.2448061392191542
    vertex -0.003862712429686818 -0.15 0.2881117935463106
  endloop
endfacet
facet normal 0 -1 0
  outer loop
    vertex -0.01165324932269776 -0.15 0.2439468668522786
    vertex -0.00532224114456338 -0.15 0.2886896618441747
    vertex -0.00669783493723744 -0.15 0.2894459009312248
  endloop
endfacet
facet normal 0 -1 0
  outer loop
    vertex -0.01165324932269776 -0.15 0.2439468668522786
    vertex -0.003862712429686818 -0.15 0.2881117935463106
    vertex -0.00532224114456338 -0.15 0.2886896618441747
  endloop
endfacet
facet normal 0 -1 0
  outer loop
    vertex -0.01816656626535455 -0.15 0.2424097417886541
    vertex -0.007967799871858597 -0.15 0.2903685844653026
    vertex -0.009112107842767628 -0.15 0.2914431611758914
  endloop
endfacet
facet normal 0 -1 0
  outer loop
    vertex -0.01816656626535455 -0.15 0.2424097417886541
    vertex -0.00669783493723744 -0.15 0.2894459009312248
    vertex -0.007967799871858597 -0.15 0.2903685844653026
  endloop
endfacet
facet normal 0 -1 0
  outer loop
    vertex -0.01816656626535455 -0.15 0.2424097417886541
    vertex -0.01165324932269776 -0.15 0.2439468668522786
    vertex -0.00669783493723744 -0.15 0.2894459009312248
  endloop
endfacet
facet normal 0 -1 0
  outer loop
    vertex -0.02448731308628697 -0.15 0.2402110579363472
    vertex -0.01011271242968682 -0.15 0.2926526843463441
    vertex -0.01095383350054828 -0.15 0.2939780790737285
  endloop
endfacet
facet normal 0 -1 0
  outer loop
    vertex -0.02448731308628697 -0.15 0.2402110579363472
    vertex -0.009112107842767628 -0.15 0.2914431611758914
    vertex -0.01011271242968682 -0.15 0.2926526843463441
  endloop
endfacet
facet normal 0 -1 0
  outer loop
    vertex -0.02448731308628697 -0.15 0.2402110579363472
    vertex -0.01816656626535455 -0.15 0.2424097417886541
    vertex -0.009112107842767628 -0.15 0.2914431611758914
  endloop
endfacet
facet normal 0 -1 0
  outer loop
    vertex -0.03054848829677576 -0.15 0.2373741218911606
    vertex -0.01095383350054828 -0.15 0.2939780790737285
    vertex -0.01162220607360313 -0.15 0.2953984430914415
  endloop
endfacet
facet normal 0 -1 0
  outer loop
    vertex -0.03054848829677576 -0.15 0.2373741218911606
    vertex -0.02448731308628697 -0.15 0.2402110579363472
    vertex -0.01095383350054828 -0.15 0.2939780790737285
  endloop
endfacet
facet normal 0 -1 0
  outer loop
    vertex -0.03628584193174617 -0.15 0.2339290058809202
    vertex -0.01162220607360313 -0.15 0.2953984430914415
    vertex -0.01210728951410789 -0.15 0.2968913764104393
  endloop
endfacet
facet normal 0 -1 0
  outer loop
    vertex -0.03628584193174617 -0.15 0.2339290058809202
    vertex -0.01210728951410789 -0.15 0.2968913764104393
    vertex -0.095 -0.15 0.345
  endloop
endfacet
facet normal 0 -1 0
  outer loop
    vertex -0.03628584193174617 -0.15 0.2339290058809202
    vertex -0.03054848829677576 -0.15 0.2373741218911606
    vertex -0.01162220607360313 -0.15 0.2953984430914415
  endloop
endfacet
facet normal 0 -1 0
  outer loop
    vertex -0.04163855661538135 -0.15 0.229912228992379
    vertex -0.03628584193174617 -0.15 0.2339290058809202
    vertex -0.095 -0.15 0.345
  endloop
endfacet
facet normal 0 -1 0
  outer loop
    vertex -0.04654989224043557 -0.15 0.2253663700598124
    vertex -0.04163855661538135 -0.15 0.229912228992379
    vertex -0.095 -0.15 0.345
  endloop
endfacet
facet normal 0 -1 0
  outer loop
    vertex -0.05096778742748617 -0.15 0.2203396163187825
    vertex -0.04654989224043557 -0.15 0.2253663700598124
    vertex -0.095 -0.15 0.345
  endloop
endfacet
facet normal 0 -1 0
  outer loop
    vertex -0.05484541138850707 -0.15 0.214885252609454
    vertex -0.05096778742748617 -0.15 0.2203396163187825
    vertex -0.095 -0.15 0.345
  endloop
endfacet
facet normal 0 -1 0
  outer loop
    vertex -0.0581416603448717 -0.15 0.2090610965440324
    vertex -0.05484541138850707 -0.15 0.214885252609454
    vertex -0.095 -0.15 0.345
  endloop
endfacet
facet normal 0 -1 0
  outer loop
    vertex -0.06082159323763209 -0.15 0.2029288856256911
    vertex -0.0581416603448717 -0.15 0.2090610965440324
    vertex -0.095 -0.15 0.345
  endloop
endfacet
facet normal 0 -1 0
  outer loop
    vertex -0.06285680211143582 -0.15 0.1965536228156798
    vertex -0.06082159323763209 -0.15 0.2029288856256911
    vertex -0.095 -0.15 0.345
  endloop
endfacet
facet normal 0 -1 0
  outer loop
    vertex -0.06422571324592002 -0.15 0.190002887485764
    vertex -0.06285680211143582 -0.15 0.1965536228156798
    vertex -0.095 -0.15 0.345
  endloop
endfacet
facet normal 0 -1 0
  outer loop
    vertex -0.06491381584251399 -0.15 0.1833461190600725
    vertex -0.06422571324592002 -0.15 0.190002887485764
    vertex -0.095 -0.15 0.345
  endloop
endfacet
facet normal 0 -1 0
  outer loop
    vertex 0.095 -0.15 0
    vertex 0.008345893084526004 -0.15 0.1155380261811534
    vertex 0.001673614387574435 -0.15 0.1150215496115696
  endloop
endfacet
facet normal 0 -1 0
  outer loop
    vertex 0.095 -0.15 0
    vertex 0.0149297032385669 -0.15 0.1167378157094752
    vertex 0.008345893084526004 -0.15 0.1155380261811534
  endloop
endfacet
facet normal 0 -1 0
  outer loop
    vertex 0.095 -0.15 0
    vertex 0.02135525482420446 -0.15 0.1186082001290621
    vertex 0.0149297032385669 -0.15 0.1167378157094752
  endloop
endfacet
facet normal 0 -1 0
  outer loop
    vertex 0.095 -0.15 0
    vertex 0.02755443539614115 -0.15 0.1211293528997694
    vertex 0.02135525482420446 -0.15 0.1186082001290621
  endloop
endfacet
facet normal 0 -1 0
  outer loop
    vertex 0.095 -0.15 0
    vertex 0.03346153209813919 -0.15 0.1242745491750385
    vertex 0.02755443539614115 -0.15 0.1211293528997694
  endloop
endfacet
facet normal 0 -1 0
  outer loop
    vertex 0.095 -0.15 0
    vertex 0.03901392823564413 -0.15 0.1280104490919184
    vertex 0.03346153209813919 -0.15 0.1242745491750385
  endloop
endfacet
facet normal 0 -1 0
  outer loop
    vertex 0.095 -0.15 0
    vertex 0.04415276702832423 -0.15 0.1322974511819072
    vertex 0.03901392823564413 -0.15 0.1280104490919184
  endloop
endfacet
facet normal 0 -1 0
  outer loop
    vertex 0.095 -0.15 0
    vertex 0.04882357550658397 -0.15 0.1370901121563701
    vertex 0.04415276702832423 -0.15 0.1322974511819072
  endloop
endfacet
facet normal 0 -1 0
  outer loop
    vertex 0.095 -0.15 0
    vertex 0.0529768419385929 -0.15 0.1423376286167036
    vertex 0.04882357550658397 -0.15 0.1370901121563701
  endloop
endfacet
facet normal 0 -1 0
  outer loop
    vertex 0.095 -0.15 0
    vertex 0.05656854066696023 -0.15 0.147984375582999
    vertex 0.0529768419385929 -0.15 0.1423376286167036
  endloop
endfacet
facet normal 0 -1 0
  outer loop
    vertex 0.095 -0.15 0
    vertex 0.05956059879165543 -0.15 0.1539704961326679
    vertex 0.05656854066696023 -0.15 0.147984375582999
  endloop
endfacet
facet normal 0 -1 0
  outer loop
    vertex 0.095 -0.15 0
    vertex 0.06192129975221996 -0.15 0.1602325358987116
    vertex 0.05956059879165543 -0.15 0.1539704961326679
  endloop
endfacet
facet normal 0 -1 0
  outer loop
    vertex 0.095 -0.15 0
    vertex 0.06362561953119833 -0.15 0.1667041157017972
    vertex 0.06192129975221996 -0.15 0.1602325358987116
  endloop
endfacet
facet normal 0 -1 0
  outer loop
    vertex 0.095 -0.15 0
    vertex 0.06465549191494832 -0.15 0.1733166351860719
    vertex 0.06362561953119833 -0.15 0.1667041157017972
  endloop
endfacet
facet normal 0 -1 0
  outer loop
    vertex 0.095 -0.15 0
    vertex 0.065 -0.15 0.18
    vertex 0.06465549191494832 -0.15 0.1733166351860719
  endloop
endfacet
facet normal 0 -1 0
  outer loop
    vertex -0.095 -0.15 0
    vertex 0.095 -0.15 0
    vertex 0.001673614387574435 -0.15 0.1150215496115696
  endloop
endfacet
facet normal 0 -1 0
  outer loop
    vertex -0.095 -0.15 0
    vertex -0.06422571324592 -0.15 0.1699971125142359
    vertex -0.06491381584251396 -0.15 0.1766538809399274
  endloop
endfacet
facet normal 0 -1 0
  outer loop
    vertex -0.095 -0.15 0
    vertex -0.06285680211143582 -0.15 0.1634463771843201
    vertex -0.06422571324592 -0.15 0.1699971125142359
  endloop
endfacet
facet normal 0 -1 0
  outer loop
    vertex -0.095 -0.15 0
    vertex -0.06082159323763206 -0.15 0.1570711143743088
    vertex -0.06285680211143582 -0.15 0.1634463771843201
  endloop
endfacet
facet normal 0 -1 0
  outer loop
    vertex -0.095 -0.15 0
    vertex -0.05814166034487167 -0.15 0.1509389034559675
    vertex -0.06082159323763206 -0.15 0.1570711143743088
  endloop
endfacet
facet normal 0 -1 0
  outer loop
    vertex -0.095 -0.15 0
    vertex -0.05484541138850701 -0.15 0.1451147473905459
    vertex -0.05814166034487167 -0.15 0.1509389034559675
  endloop
endfacet
facet normal 0 -1 0
  outer loop
    vertex -0.095 -0.15 0
    vertex -0.05096778742748612 -0.15 0.1396603836812174
    vertex -0.05484541138850701 -0.15 0.1451147473905459
  endloop
endfacet
facet normal 0 -1 0
  outer loop
    vertex -0.095 -0.15 0
    vertex -0.04654989224043549 -0.15 0.1346336299401876
    vertex -0.05096778742748612 -0.15 0.1396603836812174
  endloop
endfacet
facet normal 0 -1 0
  outer loop
    vertex -0.095 -0.15 0
    vertex -0.04163855661538129 -0.15 0.1300877710076209
    vertex -0.04654989224043549 -0.15 0.1346336299401876
  endloop
endfacet
facet normal 0 -1 0
  outer loop
    vertex -0.095 -0.15 0
    vertex -0.03628584193174611 -0.15 0.1260709941190797
    vertex -0.04163855661538129 -0.15 0.1300877710076209
  endloop
endfacet
facet normal 0 -1 0
  outer loop
    vertex -0.095 -0.15 0
    vertex -0.0305484882967757 -0.15 0.1226258781088393
    vertex -0.03628584193174611 -0.15 0.1260709941190797
  endloop
endfacet
facet normal 0 -1 0
  outer loop
    vertex -0.095 -0.15 0
    vertex -0.0244873130862869 -0.15 0.1197889420636528
    vertex -0.0305484882967757 -0.15 0.1226258781088393
  endloop
endfacet
facet normal 0 -1 0
  outer loop
    vertex -0.095 -0.15 0
    vertex -0.01816656626535447 -0.15 0.1175902582113458
    vertex -0.0244873130862869 -0.15 0.1197889420636528
  endloop
endfacet
facet normal 0 -1 0
  outer loop
    vertex -0.095 -0.15 0
    vertex -0.01165324932269766 -0.15 0.1160531331477214
    vertex -0.01816656626535447 -0.15 0.1175902582113458
  endloop
endfacet
facet normal 0 -1 0
  outer loop
    vertex -0.095 -0.15 0
    vertex -0.00501640503823185 -0.15 0.1151938607808458
    vertex -0.01165324932269766 -0.15 0.1160531331477214
  endloop
endfacet
facet normal 0 -1 0
  outer loop
    vertex -0.095 -0.15 0
    vertex 0.001673614387574435 -0.15 0.1150215496115696
    vertex -0.00501640503823185 -0.15 0.1151938607808458
  endloop
endfacet
facet normal 0 -1 0
  outer loop
    vertex 0.095 -0.15 0
    vertex 0.095 -0.15 0.345
    vertex 0.065 -0.15 0.18
  endloop
endfacet
facet normal 0 -1 0
  outer loop
    vertex -0.095 -0.15 0.345
    vertex -0.095 -0.15 0
    vertex -0.06491381584251399 -0.15 0.1833461190600725
  endloop
endfacet
facet normal 0 -1 -0
  outer loop
    vertex -0.06491381584251399 -0.15 0.1833461190600725
    vertex -0.095 -0.15 0
    vertex -0.06491381584251396 -0.15 0.1766538809399274
  endloop
endfacet
facet normal 0 1 0
  outer loop
    vertex -0.02390339961557587 0.15 0.2738942466040921
    vertex -0.02733632352830292 0.15 0.2706705164723258
    vertex -0.095 0.15 0.345
  endloop
endfacet
facet normal 0 1 -0
  outer loop
    vertex -0.03033813728906053 0.15 0.2670419469609677
    vertex -0.095 0.15 0.345
    vertex -0.02733632352830292 0.15 0.2706705164723258
  endloop
endfacet
facet normal 0 1 0
  outer loop
    vertex -0.02009350481171238 0.15 0.2766622972063256
    vertex -0.02390339961557587 0.15 0.2738942466040921
    vertex -0.095 0.15 0.345
  endloop
endfacet
facet normal 0 1 -0
  outer loop
    vertex -0.03286150050164488 0.15 0.2630657627788143
    vertex -0.095 0.15 0.345
    vertex -0.03033813728906053 0.15 0.2670419469609677
  endloop
endfacet
facet normal 0 1 0
  outer loop
    vertex -0.01596672343369024 0.15 0.2789310144674757
    vertex -0.02009350481171238 0.15 0.2766622972063256
    vertex -0.095 0.15 0.345
  endloop
endfacet
facet normal 0 1 -0
  outer loop
    vertex -0.03486661822080942 0.15 0.2588046707256754
    vertex -0.095 0.15 0.345
    vertex -0.03286150050164488 0.15 0.2630657627788143
  endloop
endfacet
facet normal 0 1 0
  outer loop
    vertex -0.01158813728906054 0.15 0.2806646193610682
    vertex -0.01596672343369024 0.15 0.2789310144674757
    vertex -0.095 0.15 0.345
  endloop
endfacet
facet normal 0 1 -0
  outer loop
    vertex -0.03632186854232367 0.15 0.2543258707686821
    vertex -0.095 0.15 0.345
    vertex -0.03486661822080942 0.15 0.2588046707256754
  endloop
endfacet
facet normal 0 1 0
  outer loop
    vertex -0.007026799296964689 0.15 0.2818357719023258
    vertex -0.01158813728906054 0.15 0.2806646193610682
    vertex -0.095 0.15 0.345
  endloop
endfacet
facet normal 0 1 -0
  outer loop
    vertex -0.03720430129929292 0.15 0.2496999962586614
    vertex -0.095 0.15 0.345
    vertex -0.03632186854232367 0.15 0.2543258707686821
  endloop
endfacet
facet normal 0 1 0
  outer loop
    vertex -0.002354644482349261 0.15 0.2824260023160602
    vertex -0.007026799296964689 0.15 0.2818357719023258
    vertex -0.095 0.15 0.345
  endloop
endfacet
facet normal 0 1 -0
  outer loop
    vertex -0.0375 0.15 0.245
    vertex -0.095 0.15 0.345
    vertex -0.03720430129929292 0.15 0.2496999962586614
  endloop
endfacet
facet normal 0 1 0
  outer loop
    vertex -0.03720430129929294 0.15 0.2403000037413388
    vertex -0.095 0.15 0.345
    vertex -0.0375 0.15 0.245
  endloop
endfacet
facet normal 0 1 0
  outer loop
    vertex -0.03632186854232371 0.15 0.2356741292313181
    vertex -0.095 0.15 0.345
    vertex -0.03720430129929294 0.15 0.2403000037413388
  endloop
endfacet
facet normal 0 1 0
  outer loop
    vertex 0.095 0.15 0.345
    vertex 0.002354644482349233 0.15 0.2824260023160602
    vertex -0.002354644482349261 0.15 0.2824260023160602
  endloop
endfacet
facet normal 0 1 0
  outer loop
    vertex 0.095 0.15 0.345
    vertex 0.007026799296964661 0.15 0.2818357719023258
    vertex 0.002354644482349233 0.15 0.2824260023160602
  endloop
endfacet
facet normal 0 1 0
  outer loop
    vertex 0.095 0.15 0.345
    vertex 0.01158813728906051 0.15 0.2806646193610682
    vertex 0.007026799296964661 0.15 0.2818357719023258
  endloop
endfacet
facet normal 0 1 0
  outer loop
    vertex 0.095 0.15 0.345
    vertex 0.01596672343369021 0.15 0.2789310144674757
    vertex 0.01158813728906051 0.15 0.2806646193610682
  endloop
endfacet
facet normal 0 1 0
  outer loop
    vertex 0.095 0.15 0.345
    vertex 0.02009350481171236 0.15 0.2766622972063256
    vertex 0.01596672343369021 0.15 0.2789310144674757
  endloop
endfacet
facet normal 0 1 0
  outer loop
    vertex 0.095 0.15 0.345
    vertex -0.002354644482349261 0.15 0.2824260023160602
    vertex -0.095 0.15 0.345
  endloop
endfacet
facet normal 0 1 -0
  outer loop
    vertex 0.02390339961557586 0.15 0.2738942466040921
    vertex 0.02009350481171236 0.15 0.2766622972063256
    vertex 0.095 0.15 0.345
  endloop
endfacet
facet normal 0 1 -0
  outer loop
    vertex 0.02733632352830294 0.15 0.2706705164723258
    vertex 0.02390339961557586 0.15 0.2738942466040921
    vertex 0.095 0.15 0.345
  endloop
endfacet
facet normal 0 1 -0
  outer loop
    vertex 0.03033813728906054 0.15 0.2670419469609677
    vertex 0.02733632352830294 0.15 0.2706705164723258
    vertex 0.095 0.15 0.345
  endloop
endfacet
facet normal 0 1 -0
  outer loop
    vertex 0.03286150050164491 0.15 0.2630657627788143
    vertex 0.03033813728906054 0.15 0.2670419469609677
    vertex 0.095 0.15 0.345
  endloop
endfacet
facet normal 0 1 -0
  outer loop
    vertex 0.03486661822080944 0.15 0.2588046707256754
    vertex 0.03286150050164491 0.15 0.2630657627788143
    vertex 0.095 0.15 0.345
  endloop
endfacet
facet normal 0 1 -0
  outer loop
    vertex 0.03632186854232367 0.15 0.254325870768682
    vertex 0.03486661822080944 0.15 0.2588046707256754
    vertex 0.095 0.15 0.345
  endloop
endfacet
facet normal 0 1 -0
  outer loop
    vertex 0.03720430129929292 0.15 0.2496999962586614
    vertex 0.03632186854232367 0.15 0.254325870768682
    vertex 0.095 0.15 0.345
  endloop
endfacet
facet normal 0 1 -0
  outer loop
    vertex 0.03750000000000001 0.15 0.2449999999999999
    vertex 0.03720430129929292 0.15 0.2496999962586614
    vertex 0.095 0.15 0.345
  endloop
endfacet
facet normal 0 1 0
  outer loop
    vertex 0.03720430129929292 0.15 0.2403000037413385
    vertex 0.03750000000000001 0.15 0.2449999999999999
    vertex 0.095 0.15 0.345
  endloop
endfacet
facet normal 0 1 0
  outer loop
    vertex 0.03632186854232364 0.15 0.2356741292313179
    vertex 0.03720430129929292 0.15 0.2403000037413385
    vertex 0.095 0.15 0.345
  endloop
endfacet
facet normal 0 1 0
  outer loop
    vertex -0.095 0.15 0
    vertex -0.002354644482349358 0.15 0.2075739976839398
    vertex 0.00235464448234915 0.15 0.2075739976839398
  endloop
endfacet
facet normal 0 1 0
  outer loop
    vertex -0.095 0.15 0
    vertex -0.007026799296964786 0.15 0.2081642280976742
    vertex -0.002354644482349358 0.15 0.2075739976839398
  endloop
endfacet
facet normal 0 1 0
  outer loop
    vertex -0.095 0.15 0
    vertex -0.01158813728906065 0.15 0.2093353806389318
    vertex -0.007026799296964786 0.15 0.2081642280976742
  endloop
endfacet
facet normal 0 1 0
  outer loop
    vertex -0.095 0.15 0
    vertex -0.01596672343369035 0.15 0.2110689855325243
    vertex -0.01158813728906065 0.15 0.2093353806389318
  endloop
endfacet
facet normal 0 1 0
  outer loop
    vertex -0.095 0.15 0
    vertex -0.02009350481171249 0.15 0.2133377027936745
    vertex -0.01596672343369035 0.15 0.2110689855325243
  endloop
endfacet
facet normal 0 1 0
  outer loop
    vertex -0.095 0.15 0
    vertex -0.02390339961557597 0.15 0.216105753395908
    vertex -0.02009350481171249 0.15 0.2133377027936745
  endloop
endfacet
facet normal 0 1 0
  outer loop
    vertex -0.095 0.15 0
    vertex -0.02733632352830304 0.15 0.2193294835276743
    vertex -0.02390339961557597 0.15 0.216105753395908
  endloop
endfacet
facet normal 0 1 0
  outer loop
    vertex -0.095 0.15 0
    vertex -0.03033813728906062 0.15 0.2229580530390324
    vertex -0.02733632352830304 0.15 0.2193294835276743
  endloop
endfacet
facet normal 0 1 0
  outer loop
    vertex -0.095 0.15 0
    vertex -0.03286150050164496 0.15 0.2269342372211858
    vertex -0.03033813728906062 0.15 0.2229580530390324
  endloop
endfacet
facet normal 0 1 0
  outer loop
    vertex -0.095 0.15 0
    vertex -0.03486661822080949 0.15 0.2311953292743247
    vertex -0.03286150050164496 0.15 0.2269342372211858
  endloop
endfacet
facet normal 0 1 0
  outer loop
    vertex -0.095 0.15 0
    vertex -0.03632186854232371 0.15 0.2356741292313181
    vertex -0.03486661822080949 0.15 0.2311953292743247
  endloop
endfacet
facet normal 0 1 0
  outer loop
    vertex -0.095 0.15 0
    vertex -0.095 0.15 0.345
    vertex -0.03632186854232371 0.15 0.2356741292313181
  endloop
endfacet
facet normal 0 1 0
  outer loop
    vertex 0.095 0.15 0
    vertex -0.095 0.15 0
    vertex 0.00235464448234915 0.15 0.2075739976839398
  endloop
endfacet
facet normal 0 1 0
  outer loop
    vertex 0.095 0.15 0
    vertex 0.03486661822080941 0.15 0.2311953292743245
    vertex 0.03632186854232364 0.15 0.2356741292313179
  endloop
endfacet
facet normal 0 1 0
  outer loop
    vertex 0.095 0.15 0
    vertex 0.03286150050164485 0.15 0.2269342372211856
    vertex 0.03486661822080941 0.15 0.2311953292743245
  endloop
endfacet
facet normal 0 1 0
  outer loop
    vertex 0.095 0.15 0
    vertex 0.03033813728906049 0.15 0.2229580530390322
    vertex 0.03286150050164485 0.15 0.2269342372211856
  endloop
endfacet
facet normal 0 1 0
  outer loop
    vertex 0.095 0.15 0
    vertex 0.02733632352830287 0.15 0.2193294835276741
    vertex 0.03033813728906049 0.15 0.2229580530390322
  endloop
endfacet
facet normal 0 1 0
  outer loop
    vertex 0.095 0.15 0
    vertex 0.0239033996155758 0.15 0.2161057533959078
    vertex 0.02733632352830287 0.15 0.2193294835276741
  endloop
endfacet
facet normal 0 1 -0
  outer loop
    vertex 0.095 0.15 0
    vertex 0.03632186854232364 0.15 0.2356741292313179
    vertex 0.095 0.15 0.345
  endloop
endfacet
facet normal 0 1 0
  outer loop
    vertex 0.095 0.15 0
    vertex 0.02009350481171231 0.15 0.2133377027936744
    vertex 0.0239033996155758 0.15 0.2161057533959078
  endloop
endfacet
facet normal 0 1 0
  outer loop
    vertex 0.095 0.15 0
    vertex 0.01596672343369014 0.15 0.2110689855325242
    vertex 0.02009350481171231 0.15 0.2133377027936744
  endloop
endfacet
facet normal 0 1 0
  outer loop
    vertex 0.095 0.15 0
    vertex 0.01158813728906044 0.15 0.2093353806389317
    vertex 0.01596672343369014 0.15 0.2110689855325242
  endloop
endfacet
facet normal 0 1 0
  outer loop
    vertex 0.095 0.15 0
    vertex 0.007026799296964578 0.15 0.2081642280976742
    vertex 0.01158813728906044 0.15 0.2093353806389317
  endloop
endfacet
facet normal 0 1 0
  outer loop
    vertex 0.095 0.15 0
    vertex 0.00235464448234915 0.15 0.2075739976839398
    vertex 0.007026799296964578 0.15 0.2081642280976742
  endloop
endfacet
facet normal 0 -0 -1
  outer loop
    vertex 0.095 0.15 0
    vertex 0.095 -0.15 0
    vertex -0.095 -0.15 0
  endloop
endfacet
facet normal -0 0 -1
  outer loop
    vertex 0.095 0.15 0
    vertex -0.095 -0.15 0
    vertex -0.095 0.15 0
  endloop
endfacet
facet normal 0 0 1
  outer loop
    vertex 0.095 0.15 0.345
    vertex -0.095 -0.15 0.345
    vertex 0.095 -0.15 0.345
  endloop
endfacet
facet normal 0 0 1
  outer loop
    vertex 0.095 0.15 0.345
    vertex -0.095 0.15 0.345
    vertex -0.095 -0.15 0.345
  endloop
endfacet
facet normal 1 0 0
  outer loop
    vertex 0.095 -0.15 0
    vertex 0.095 0.15 0
    vertex 0.095 0.15 0.345
  endloop
endfacet
facet normal 1 0 0
  outer loop
    vertex 0.095 -0.15 0
    vertex 0.095 0.15 0.345
    vertex 0.095 -0.15 0.345
  endloop
endfacet
facet normal 0 -1 0
  outer loop
    vertex 0.009112107842767645 -0.15 0.3085568388241086
    vertex 0.0125 -0.15 0.3
    vertex 0.01247533410535339 -0.15 0.3007848814941164
  endloop
endfacet
facet normal 0 -1 0
  outer loop
    vertex 0.009112107842767645 -0.15 0.3085568388241086
    vertex 0.01247533410535339 -0.15 0.3007848814941164
    vertex 0.01240143376643097 -0.15 0.3015666654195538
  endloop
endfacet
facet normal 0 -1 0
  outer loop
    vertex 0.009112107842767645 -0.15 0.3085568388241086
    vertex 0.01240143376643097 -0.15 0.3015666654195538
    vertex 0.01227859063410861 -0.15 0.3023422664323215
  endloop
endfacet
facet normal 0 -1 0
  outer loop
    vertex 0.009112107842767645 -0.15 0.3085568388241086
    vertex 0.01227859063410861 -0.15 0.3023422664323215
    vertex 0.01210728951410789 -0.15 0.3031086235895607
  endloop
endfacet
facet normal 0 -1 0
  outer loop
    vertex 0.009112107842767645 -0.15 0.3085568388241086
    vertex 0.01210728951410789 -0.15 0.3031086235895607
    vertex 0.01188820645368942 -0.15 0.3038627124296868
  endloop
endfacet
facet normal 0 -1 0
  outer loop
    vertex 0.009112107842767645 -0.15 0.3085568388241086
    vertex 0.01188820645368942 -0.15 0.3038627124296868
    vertex 0.01162220607360314 -0.15 0.3046015569085584
  endloop
endfacet
facet normal 0 -1 0
  outer loop
    vertex 0.009112107842767645 -0.15 0.3085568388241086
    vertex 0.01162220607360314 -0.15 0.3046015569085584
    vertex 0.01131033815582524 -0.15 0.3053222411445634
  endloop
endfacet
facet normal 0 -1 0
  outer loop
    vertex 0.009112107842767645 -0.15 0.3085568388241086
    vertex 0.01131033815582524 -0.15 0.3053222411445634
    vertex 0.0109538335005483 -0.15 0.3060219209262715
  endloop
endfacet
facet normal 0 -1 0
  outer loop
    vertex 0.009112107842767645 -0.15 0.3085568388241086
    vertex 0.0109538335005483 -0.15 0.3060219209262715
    vertex 0.01055409906877519 -0.15 0.3066978349372375
  endloop
endfacet
facet normal 0 -1 0
  outer loop
    vertex 0.009112107842767645 -0.15 0.3085568388241086
    vertex 0.01055409906877519 -0.15 0.3066978349372375
    vertex 0.01011271242968684 -0.15 0.3073473156536559
  endloop
endfacet
facet normal 0 -1 0
  outer loop
    vertex 0.009112107842767645 -0.15 0.3085568388241086
    vertex 0.01011271242968684 -0.15 0.3073473156536559
    vertex 0.009631415534697367 -0.15 0.3079677998718586
  endloop
endfacet
facet normal 0 -1 0
  outer loop
    vertex 0.009112107842767645 -0.15 0.3085568388241086
    vertex 0.008556838824108608 -0.15 0.3091121078427677
    vertex 0.007967799871858621 -0.15 0.3096314155346974
  endloop
endfacet
facet normal 0 -1 0
  outer loop
    vertex 0.009112107842767645 -0.15 0.3085568388241086
    vertex 0.007967799871858621 -0.15 0.3096314155346974
    vertex 0.007347315653655917 -0.15 0.3101127124296869
  endloop
endfacet
facet normal 0 -1 0
  outer loop
    vertex 0.009112107842767645 -0.15 0.3085568388241086
    vertex 0.007347315653655917 -0.15 0.3101127124296869
    vertex 0.00669783493723746 -0.15 0.3105540990687752
  endloop
endfacet
facet normal 0 -1 0
  outer loop
    vertex 0.009112107842767645 -0.15 0.3085568388241086
    vertex 0.00669783493723746 -0.15 0.3105540990687752
    vertex 0.006021920926271441 -0.15 0.3109538335005483
  endloop
endfacet
facet normal 0 -1 0
  outer loop
    vertex 0.009112107842767645 -0.15 0.3085568388241086
    vertex 0.006021920926271441 -0.15 0.3109538335005483
    vertex 0.005322241144563407 -0.15 0.3113103381558252
  endloop
endfacet
facet normal 0 -1 0
  outer loop
    vertex 0.009112107842767645 -0.15 0.3085568388241086
    vertex 0.005322241144563407 -0.15 0.3113103381558252
    vertex 0.004601556908558474 -0.15 0.3116222060736031
  endloop
endfacet
facet normal 0 -1 0
  outer loop
    vertex 0.009112107842767645 -0.15 0.3085568388241086
    vertex 0.004601556908558474 -0.15 0.3116222060736031
    vertex 0.003862712429686842 -0.15 0.3118882064536894
  endloop
endfacet
facet normal 0 -1 0
  outer loop
    vertex 0.009112107842767645 -0.15 0.3085568388241086
    vertex 0.003862712429686842 -0.15 0.3118882064536894
    vertex 0.003108623589560682 -0.15 0.3121072895141079
  endloop
endfacet
facet normal 0 -1 0
  outer loop
    vertex 0.009112107842767645 -0.15 0.3085568388241086
    vertex 0.003108623589560682 -0.15 0.3121072895141079
    vertex 0.002342266432321554 -0.15 0.3122785906341086
  endloop
endfacet
facet normal 0 -1 0
  outer loop
    vertex 0.009112107842767645 -0.15 0.3085568388241086
    vertex 0.002342266432321554 -0.15 0.3122785906341086
    vertex 0.001566665419553797 -0.15 0.312401433766431
  endloop
endfacet
facet normal 0 -1 0
  outer loop
    vertex 0.009112107842767645 -0.15 0.3085568388241086
    vertex 0.001566665419553797 -0.15 0.312401433766431
    vertex 0.0007848814941164114 -0.15 0.3124753341053534
  endloop
endfacet
facet normal 0 -1 0
  outer loop
    vertex 0.009112107842767645 -0.15 0.3085568388241086
    vertex 0.0007848814941164114 -0.15 0.3124753341053534
    vertex -7.699999999999999e-18 -0.15 0.3125
  endloop
endfacet
facet normal 0 -1 0
  outer loop
    vertex 0.009112107842767645 -0.15 0.3085568388241086
    vertex -7.699999999999999e-18 -0.15 0.3125
    vertex -0.0007848814941164268 -0.15 0.3124753341053534
  endloop
endfacet
facet normal 0 -1 0
  outer loop
    vertex 0.009112107842767645 -0.15 0.3085568388241086
    vertex -0.0007848814941164268 -0.15 0.3124753341053534
    vertex -0.001566665419553813 -0.15 0.312401433766431
  endloop
endfacet
facet normal 0 -1 0
  outer loop
    vertex 0.009112107842767645 -0.15 0.3085568388241086
    vertex -0.001566665419553813 -0.15 0.312401433766431
    vertex -0.002342266432321569 -0.15 0.3122785906341086
  endloop
endfacet
facet normal 0 -1 0
  outer loop
    vertex 0.009112107842767645 -0.15 0.3085568388241086
    vertex -0.002342266432321569 -0.15 0.3122785906341086
    vertex -0.003108623589560698 -0.15 0.3121072895141079
  endloop
endfacet
facet normal 0 -1 0
  outer loop
    vertex 0.009112107842767645 -0.15 0.3085568388241086
    vertex -0.003108623589560698 -0.15 0.3121072895141079
    vertex -0.003862712429686855 -0.15 0.3118882064536894
  endloop
endfacet
facet normal 0 -1 0
  outer loop
    vertex 0.009112107842767645 -0.15 0.3085568388241086
    vertex -0.003862712429686855 -0.15 0.3118882064536894
    vertex -0.004601556908558488 -0.15 0.3116222060736031
  endloop
endfacet
facet normal 0 -1 0
  outer loop
    vertex 0.009112107842767645 -0.15 0.3085568388241086
    vertex -0.004601556908558488 -0.15 0.3116222060736031
    vertex -0.00532224114456342 -0.15 0.3113103381558252
  endloop
endfacet
facet normal 0 -1 0
  outer loop
    vertex 0.009112107842767645 -0.15 0.3085568388241086
    vertex -0.00532224114456342 -0.15 0.3113103381558252
    vertex -0.006021920926271453 -0.15 0.3109538335005483
  endloop
endfacet
facet normal 0 -1 0
  outer loop
    vertex 0.009112107842767645 -0.15 0.3085568388241086
    vertex -0.006021920926271453 -0.15 0.3109538335005483
    vertex -0.00669783493723747 -0.15 0.3105540990687752
  endloop
endfacet
facet normal 0 -1 0
  outer loop
    vertex 0.009112107842767645 -0.15 0.3085568388241086
    vertex -0.00669783493723747 -0.15 0.3105540990687752
    vertex -0.007347315653655927 -0.15 0.3101127124296869
  endloop
endfacet
facet normal 0 -1 0
  outer loop
    vertex 0.009112107842767645 -0.15 0.3085568388241086
    vertex -0.007347315653655927 -0.15 0.3101127124296869
    vertex -0.007967799871858635 -0.15 0.3096314155346974
  endloop
endfacet
facet normal 0 -1 0
  outer loop
    vertex 0.009112107842767645 -0.15 0.3085568388241086
    vertex -0.007967799871858635 -0.15 0.3096314155346974
    vertex -0.008556838824108622 -0.15 0.3091121078427676
  endloop
endfacet
facet normal -0 -1 0
  outer loop
    vertex 0.009112107842767645 -0.15 0.3085568388241086
    vertex -0.008556838824108622 -0.15 0.3091121078427676
    vertex -0.009112107842767657 -0.15 0.3085568388241086
  endloop
endfacet
facet normal 0 -1 0
  outer loop
    vertex 0.009112107842767645 -0.15 0.3085568388241086
    vertex -0.009112107842767657 -0.15 0.3085568388241086
    vertex -0.009631415534697379 -0.15 0.3079677998718586
  endloop
endfacet
facet normal 0 -1 0
  outer loop
    vertex 0.009112107842767645 -0.15 0.3085568388241086
    vertex -0.009631415534697379 -0.15 0.3079677998718586
    vertex -0.01011271242968686 -0.15 0.3073473156536559
  endloop
endfacet
facet normal 0 -1 0
  outer loop
    vertex 0.009112107842767645 -0.15 0.3085568388241086
    vertex -0.01011271242968686 -0.15 0.3073473156536559
    vertex -0.0105540990687752 -0.15 0.3066978349372375
  endloop
endfacet
facet normal 0 -1 0
  outer loop
    vertex 0.009112107842767645 -0.15 0.3085568388241086
    vertex -0.0105540990687752 -0.15 0.3066978349372375
    vertex -0.01095383350054831 -0.15 0.3060219209262714
  endloop
endfacet
facet normal 0 -1 0
  outer loop
    vertex 0.009112107842767645 -0.15 0.3085568388241086
    vertex -0.01095383350054831 -0.15 0.3060219209262714
    vertex -0.01131033815582526 -0.15 0.3053222411445634
  endloop
endfacet
facet normal 0 -1 0
  outer loop
    vertex 0.009112107842767645 -0.15 0.3085568388241086
    vertex -0.01131033815582526 -0.15 0.3053222411445634
    vertex -0.01162220607360315 -0.15 0.3046015569085584
  endloop
endfacet
facet normal 0 -1 0
  outer loop
    vertex 0.009112107842767645 -0.15 0.3085568388241086
    vertex -0.01162220607360315 -0.15 0.3046015569085584
    vertex -0.01188820645368943 -0.15 0.3038627124296868
  endloop
endfacet
facet normal 0 -1 0
  outer loop
    vertex 0.009112107842767645 -0.15 0.3085568388241086
    vertex -0.01188820645368943 -0.15 0.3038627124296868
    vertex -0.0121072895141079 -0.15 0.3031086235895606
  endloop
endfacet
facet normal 0 -1 0
  outer loop
    vertex 0.009112107842767645 -0.15 0.3085568388241086
    vertex -0.0121072895141079 -0.15 0.3031086235895606
    vertex -0.01227859063410861 -0.15 0.3023422664323215
  endloop
endfacet
facet normal 0 -1 0
  outer loop
    vertex 0.009112107842767645 -0.15 0.3085568388241086
    vertex -0.01227859063410861 -0.15 0.3023422664323215
    vertex -0.01240143376643098 -0.15 0.3015666654195538
  endloop
endfacet
facet normal 0 -1 0
  outer loop
    vertex 0.009112107842767645 -0.15 0.3085568388241086
    vertex -0.01240143376643098 -0.15 0.3015666654195538
    vertex -0.0124753341053534 -0.15 0.3007848814941164
  endloop
endfacet
facet normal 0 -1 0
  outer loop
    vertex 0.009112107842767645 -0.15 0.3085568388241086
    vertex -0.0124753341053534 -0.15 0.3007848814941164
    vertex -0.0125 -0.15 0.2999999999999999
  endloop
endfacet
facet normal 0 -1 0
  outer loop
    vertex 0.009112107842767645 -0.15 0.3085568388241086
    vertex -0.0125 -0.15 0.2999999999999999
    vertex -0.01247533410535339 -0.15 0.2992151185058836
  endloop
endfacet
facet normal 0 -1 0
  outer loop
    vertex 0.009112107842767645 -0.15 0.3085568388241086
    vertex -0.01247533410535339 -0.15 0.2992151185058836
    vertex -0.01240143376643097 -0.15 0.2984333345804462
  endloop
endfacet
facet normal 0 -1 0
  outer loop
    vertex 0.009112107842767645 -0.15 0.3085568388241086
    vertex -0.01240143376643097 -0.15 0.2984333345804462
    vertex -0.0122785906341086 -0.15 0.2976577335676784
  endloop
endfacet
facet normal 0 -1 0
  outer loop
    vertex 0.009112107842767645 -0.15 0.3085568388241086
    vertex -0.0122785906341086 -0.15 0.2976577335676784
    vertex -0.01210728951410788 -0.15 0.2968913764104393
  endloop
endfacet
facet normal 0 -1 0
  outer loop
    vertex 0.009112107842767645 -0.15 0.3085568388241086
    vertex -0.01210728951410788 -0.15 0.2968913764104393
    vertex -0.01188820645368941 -0.15 0.2961372875703131
  endloop
endfacet
facet normal 0 -1 0
  outer loop
    vertex 0.009112107842767645 -0.15 0.3085568388241086
    vertex -0.01188820645368941 -0.15 0.2961372875703131
    vertex -0.01162220607360313 -0.15 0.2953984430914415
  endloop
endfacet
facet normal 0 -1 0
  outer loop
    vertex 0.009112107842767645 -0.15 0.3085568388241086
    vertex -0.01162220607360313 -0.15 0.2953984430914415
    vertex -0.01131033815582523 -0.15 0.2946777588554366
  endloop
endfacet
facet normal 0 -1 0
  outer loop
    vertex 0.009112107842767645 -0.15 0.3085568388241086
    vertex -0.01131033815582523 -0.15 0.2946777588554366
    vertex -0.01095383350054828 -0.15 0.2939780790737285
  endloop
endfacet
facet normal 0 -1 0
  outer loop
    vertex 0.009112107842767645 -0.15 0.3085568388241086
    vertex -0.01095383350054828 -0.15 0.2939780790737285
    vertex -0.01055409906877517 -0.15 0.2933021650627625
  endloop
endfacet
facet normal 0 -1 0
  outer loop
    vertex 0.009112107842767645 -0.15 0.3085568388241086
    vertex -0.01055409906877517 -0.15 0.2933021650627625
    vertex -0.01011271242968682 -0.15 0.2926526843463441
  endloop
endfacet
facet normal 0 -1 0
  outer loop
    vertex 0.009112107842767645 -0.15 0.3085568388241086
    vertex -0.01011271242968682 -0.15 0.2926526843463441
    vertex -0.009631415534697339 -0.15 0.2920322001281414
  endloop
endfacet
facet normal 0 -1 0
  outer loop
    vertex 0.009112107842767645 -0.15 0.3085568388241086
    vertex -0.009631415534697339 -0.15 0.2920322001281414
    vertex -0.009112107842767614 -0.15 0.2914431611758914
  endloop
endfacet
facet normal 0 -1 0
  outer loop
    vertex 0.009112107842767645 -0.15 0.3085568388241086
    vertex -0.009112107842767614 -0.15 0.2914431611758914
    vertex -0.008556838824108575 -0.15 0.2908878921572323
  endloop
endfacet
facet normal 0 -1 0
  outer loop
    vertex 0.009112107842767645 -0.15 0.3085568388241086
    vertex -0.008556838824108575 -0.15 0.2908878921572323
    vertex -0.007967799871858586 -0.15 0.2903685844653026
  endloop
endfacet
facet normal 0 -1 0
  outer loop
    vertex 0.009112107842767645 -0.15 0.3085568388241086
    vertex -0.007967799871858586 -0.15 0.2903685844653026
    vertex -0.00734731565365588 -0.15 0.2898872875703131
  endloop
endfacet
facet normal 0 -1 0
  outer loop
    vertex 0.009112107842767645 -0.15 0.3085568388241086
    vertex -0.00734731565365588 -0.15 0.2898872875703131
    vertex -0.006697834937237426 -0.15 0.2894459009312248
  endloop
endfacet
facet normal 0 -1 0
  outer loop
    vertex 0.009112107842767645 -0.15 0.3085568388241086
    vertex -0.006697834937237426 -0.15 0.2894459009312248
    vertex -0.006021920926271412 -0.15 0.2890461664994517
  endloop
endfacet
facet normal 0 -1 0
  outer loop
    vertex 0.009112107842767645 -0.15 0.3085568388241086
    vertex -0.006021920926271412 -0.15 0.2890461664994517
    vertex -0.005322241144563382 -0.15 0.2886896618441747
  endloop
endfacet
facet normal 0 -1 0
  outer loop
    vertex 0.009112107842767645 -0.15 0.3085568388241086
    vertex -0.005322241144563382 -0.15 0.2886896618441747
    vertex -0.004601556908558451 -0.15 0.2883777939263968
  endloop
endfacet
facet normal 0 -1 0
  outer loop
    vertex 0.009112107842767645 -0.15 0.3085568388241086
    vertex -0.004601556908558451 -0.15 0.2883777939263968
    vertex -0.003862712429686824 -0.15 0.2881117935463106
  endloop
endfacet
facet normal 0 -1 0
  outer loop
    vertex 0.009112107842767645 -0.15 0.3085568388241086
    vertex -0.003862712429686824 -0.15 0.2881117935463106
    vertex -0.00310862358956067 -0.15 0.2878927104858921
  endloop
endfacet
facet normal 0 -1 0
  outer loop
    vertex 0.009112107842767645 -0.15 0.3085568388241086
    vertex -0.00310862358956067 -0.15 0.2878927104858921
    vertex -0.002342266432321547 -0.15 0.2877214093658914
  endloop
endfacet
facet normal 0 -1 0
  outer loop
    vertex 0.009112107842767645 -0.15 0.3085568388241086
    vertex -0.002342266432321547 -0.15 0.2877214093658914
    vertex -0.001566665419553797 -0.15 0.287598566233569
  endloop
endfacet
facet normal 0 -1 0
  outer loop
    vertex 0.009112107842767645 -0.15 0.3085568388241086
    vertex -0.001566665419553797 -0.15 0.287598566233569
    vertex -0.0007848814941164146 -0.15 0.2875246658946466
  endloop
endfacet
facet normal 0 -1 0
  outer loop
    vertex 0.009112107842767645 -0.15 0.3085568388241086
    vertex -0.0007848814941164146 -0.15 0.2875246658946466
    vertex -2.495829572069578e-18 -0.15 0.2875
  endloop
endfacet
facet normal 0 -1 0
  outer loop
    vertex 0.009112107842767645 -0.15 0.3085568388241086
    vertex -2.495829572069578e-18 -0.15 0.2875
    vertex 0.0007848814941164096 -0.15 0.2875246658946466
  endloop
endfacet
facet normal 0 -1 0
  outer loop
    vertex 0.009112107842767645 -0.15 0.3085568388241086
    vertex 0.0007848814941164096 -0.15 0.2875246658946466
    vertex 0.001566665419553792 -0.15 0.287598566233569
  endloop
endfacet
facet normal 0 -1 0
  outer loop
    vertex 0.009112107842767645 -0.15 0.3085568388241086
    vertex 0.001566665419553792 -0.15 0.287598566233569
    vertex 0.002342266432321543 -0.15 0.2877214093658914
  endloop
endfacet
facet normal 0 -1 0
  outer loop
    vertex 0.009112107842767645 -0.15 0.3085568388241086
    vertex 0.002342266432321543 -0.15 0.2877214093658914
    vertex 0.003108623589560665 -0.15 0.2878927104858921
  endloop
endfacet
facet normal 0 -1 0
  outer loop
    vertex 0.009112107842767645 -0.15 0.3085568388241086
    vertex 0.003108623589560665 -0.15 0.2878927104858921
    vertex 0.003862712429686821 -0.15 0.2881117935463106
  endloop
endfacet
facet normal 0 -1 0
  outer loop
    vertex 0.009112107842767645 -0.15 0.3085568388241086
    vertex 0.003862712429686821 -0.15 0.2881117935463106
    vertex 0.004601556908558446 -0.15 0.2883777939263968
  endloop
endfacet
facet normal 0 -1 0
  outer loop
    vertex 0.009112107842767645 -0.15 0.3085568388241086
    vertex 0.004601556908558446 -0.15 0.2883777939263968
    vertex 0.005322241144563376 -0.15 0.2886896618441747
  endloop
endfacet
facet normal 0 -1 0
  outer loop
    vertex 0.009112107842767645 -0.15 0.3085568388241086
    vertex 0.005322241144563376 -0.15 0.2886896618441747
    vertex 0.006021920926271409 -0.15 0.2890461664994517
  endloop
endfacet
facet normal 0 -1 0
  outer loop
    vertex 0.009112107842767645 -0.15 0.3085568388241086
    vertex 0.006021920926271409 -0.15 0.2890461664994517
    vertex 0.006697834937237422 -0.15 0.2894459009312248
  endloop
endfacet
facet normal 0 -1 0
  outer loop
    vertex 0.009112107842767645 -0.15 0.3085568388241086
    vertex 0.006697834937237422 -0.15 0.2894459009312248
    vertex 0.007347315653655875 -0.15 0.2898872875703131
  endloop
endfacet
facet normal 0 -1 0
  outer loop
    vertex 0.009112107842767645 -0.15 0.3085568388241086
    vertex 0.007347315653655875 -0.15 0.2898872875703131
    vertex 0.007967799871858579 -0.15 0.2903685844653026
  endloop
endfacet
facet normal 0 -1 0
  outer loop
    vertex 0.009112107842767645 -0.15 0.3085568388241086
    vertex 0.007967799871858579 -0.15 0.2903685844653026
    vertex 0.008556838824108567 -0.15 0.2908878921572323
  endloop
endfacet
facet normal 0 -1 0
  outer loop
    vertex 0.009112107842767645 -0.15 0.3085568388241086
    vertex 0.008556838824108567 -0.15 0.2908878921572323
    vertex 0.009112107842767603 -0.15 0.2914431611758913
  endloop
endfacet
facet normal 0 -1 -0
  outer loop
    vertex 0.009112107842767645 -0.15 0.3085568388241086
    vertex 0.009112107842767603 -0.15 0.2914431611758913
    vertex 0.009631415534697325 -0.15 0.2920322001281414
  endloop
endfacet
facet normal 0 -1 0
  outer loop
    vertex 0.009112107842767645 -0.15 0.3085568388241086
    vertex 0.009631415534697325 -0.15 0.2920322001281414
    vertex 0.0101127124296868 -0.15 0.292652684346344
  endloop
endfacet
facet normal 0 -1 0
  outer loop
    vertex 0.009112107842767645 -0.15 0.3085568388241086
    vertex 0.0101127124296868 -0.15 0.292652684346344
    vertex 0.01055409906877515 -0.15 0.2933021650627625
  endloop
endfacet
facet normal 0 -1 0
  outer loop
    vertex 0.009112107842767645 -0.15 0.3085568388241086
    vertex 0.01055409906877515 -0.15 0.2933021650627625
    vertex 0.01095383350054826 -0.15 0.2939780790737285
  endloop
endfacet
facet normal 0 -1 0
  outer loop
    vertex 0.009112107842767645 -0.15 0.3085568388241086
    vertex 0.01095383350054826 -0.15 0.2939780790737285
    vertex 0.01131033815582521 -0.15 0.2946777588554365
  endloop
endfacet
facet normal 0 -1 0
  outer loop
    vertex 0.009112107842767645 -0.15 0.3085568388241086
    vertex 0.01131033815582521 -0.15 0.2946777588554365
    vertex 0.01162220607360311 -0.15 0.2953984430914414
  endloop
endfacet
facet normal 0 -1 0
  outer loop
    vertex 0.009112107842767645 -0.15 0.3085568388241086
    vertex 0.01162220607360311 -0.15 0.2953984430914414
    vertex 0.01188820645368939 -0.15 0.296137287570313
  endloop
endfacet
facet normal 0 -1 0
  outer loop
    vertex 0.009112107842767645 -0.15 0.3085568388241086
    vertex 0.01188820645368939 -0.15 0.296137287570313
    vertex 0.01210728951410786 -0.15 0.2968913764104392
  endloop
endfacet
facet normal 0 -1 0
  outer loop
    vertex 0.009112107842767645 -0.15 0.3085568388241086
    vertex 0.01210728951410786 -0.15 0.2968913764104392
    vertex 0.01227859063410859 -0.15 0.2976577335676783
  endloop
endfacet
facet normal 0 -1 0
  outer loop
    vertex 0.009112107842767645 -0.15 0.3085568388241086
    vertex 0.01227859063410859 -0.15 0.2976577335676783
    vertex 0.01240143376643096 -0.15 0.2984333345804461
  endloop
endfacet
facet normal 0 -1 0
  outer loop
    vertex 0.009112107842767645 -0.15 0.3085568388241086
    vertex 0.01240143376643096 -0.15 0.2984333345804461
    vertex 0.01247533410535339 -0.15 0.2992151185058834
  endloop
endfacet
facet normal 0 -1 0
  outer loop
    vertex 0.009112107842767645 -0.15 0.3085568388241086
    vertex 0.01247533410535339 -0.15 0.2992151185058834
    vertex 0.0125 -0.15 0.3
  endloop
endfacet
facet normal 0 -1 0
  outer loop
    vertex 0.04143255933366483 -0.15 0.2300833607804263
    vertex 0.03820604139901077 -0.15 0.2325861046343716
    vertex 0.03482874167363479 -0.15 0.234881315157631
  endloop
endfacet
facet normal 0 -1 0
  outer loop
    vertex 0.04449556188536478 -0.15 0.2273829607823917
    vertex 0.065 -0.15 0.18
    vertex 0.06487173734783766 -0.15 0.1840813837694054
  endloop
endfacet
facet normal 0 -1 0
  outer loop
    vertex 0.04449556188536478 -0.15 0.2273829607823917
    vertex 0.06487173734783766 -0.15 0.1840813837694054
    vertex 0.06448745558544106 -0.15 0.1881466601816798
  endloop
endfacet
facet normal 0 -1 0
  outer loop
    vertex 0.04449556188536478 -0.15 0.2273829607823917
    vertex 0.06448745558544106 -0.15 0.1881466601816798
    vertex 0.06384867129736477 -0.15 0.1921797854480721
  endloop
endfacet
facet normal 0 -1 0
  outer loop
    vertex 0.04449556188536478 -0.15 0.2273829607823917
    vertex 0.06384867129736477 -0.15 0.1921797854480721
    vertex 0.06295790547336103 -0.15 0.1961648426657155
  endloop
endfacet
facet normal 0 -1 0
  outer loop
    vertex 0.04449556188536478 -0.15 0.2273829607823917
    vertex 0.06295790547336103 -0.15 0.1961648426657155
    vertex 0.06181867355918497 -0.15 0.2000861046343716
  endloop
endfacet
facet normal 0 -1 0
  outer loop
    vertex 0.04449556188536478 -0.15 0.2273829607823917
    vertex 0.06181867355918497 -0.15 0.2000861046343716
    vertex 0.06043547158273636 -0.15 0.2039280959245041
  endloop
endfacet
facet normal 0 -1 0
  outer loop
    vertex 0.04449556188536478 -0.15 0.2273829607823917
    vertex 0.06043547158273636 -0.15 0.2039280959245041
    vertex 0.05881375841029127 -0.15 0.2076756539517297
  endloop
endfacet
facet normal 0 -1 0
  outer loop
    vertex 0.04449556188536478 -0.15 0.2273829607823917
    vertex 0.05881375841029127 -0.15 0.2076756539517297
    vertex 0.05695993420285114 -0.15 0.2113139888166115
  endloop
endfacet
facet normal 0 -1 0
  outer loop
    vertex 0.04449556188536478 -0.15 0.2273829607823917
    vertex 0.05695993420285114 -0.15 0.2113139888166115
    vertex 0.05488131515763098 -0.15 0.2148287416736348
  endloop
endfacet
facet normal 0 -1 0
  outer loop
    vertex 0.04449556188536478 -0.15 0.2273829607823917
    vertex 0.05488131515763098 -0.15 0.2148287416736348
    vertex 0.05258610463437158 -0.15 0.2182060413990107
  endloop
endfacet
facet normal 0 -1 0
  outer loop
    vertex 0.04449556188536478 -0.15 0.2273829607823917
    vertex 0.05258610463437158 -0.15 0.2182060413990107
    vertex 0.05008336078042631 -0.15 0.2214325593336648
  endloop
endfacet
facet normal 0 -1 0
  outer loop
    vertex 0.04449556188536478 -0.15 0.2273829607823917
    vertex 0.05008336078042631 -0.15 0.2214325593336648
    vertex 0.04738296078239176 -0.15 0.2244955618853647
  endloop
endfacet
facet normal 0 -1 0
  outer loop
    vertex 0.04449556188536478 -0.15 0.2273829607823917
    vertex -0.01616484266571562 -0.15 0.242957905473361
    vertex -0.02392809592450414 -0.15 0.2404354715827363
  endloop
endfacet
facet normal 0 -1 0
  outer loop
    vertex 0.04449556188536478 -0.15 0.2273829607823917
    vertex 0.03482874167363479 -0.15 0.234881315157631
    vertex 0.03131398881661149 -0.15 0.2369599342028511
  endloop
endfacet
facet normal 0 -1 0
  outer loop
    vertex 0.04449556188536478 -0.15 0.2273829607823917
    vertex 0.03131398881661149 -0.15 0.2369599342028511
    vertex 0.02767565395172972 -0.15 0.2388137584102913
  endloop
endfacet
facet normal 0 -1 0
  outer loop
    vertex 0.04449556188536478 -0.15 0.2273829607823917
    vertex 0.02767565395172972 -0.15 0.2388137584102913
    vertex 0.02392809592450406 -0.15 0.2404354715827363
  endloop
endfacet
facet normal 0 -1 0
  outer loop
    vertex 0.04449556188536478 -0.15 0.2273829607823917
    vertex 0.02392809592450406 -0.15 0.2404354715827363
    vertex 0.02008610463437157 -0.15 0.241818673559185
  endloop
endfacet
facet normal 0 -1 0
  outer loop
    vertex 0.04449556188536478 -0.15 0.2273829607823917
    vertex 0.02008610463437157 -0.15 0.241818673559185
    vertex 0.01616484266571554 -0.15 0.242957905473361
  endloop
endfacet
facet normal 0 -1 0
  outer loop
    vertex 0.04449556188536478 -0.15 0.2273829607823917
    vertex 0.01616484266571554 -0.15 0.242957905473361
    vertex 0.01217978544807208 -0.15 0.2438486712973648
  endloop
endfacet
facet normal 0 -1 0
  outer loop
    vertex 0.04449556188536478 -0.15 0.2273829607823917
    vertex 0.01217978544807208 -0.15 0.2438486712973648
    vertex 0.008146660181679748 -0.15 0.244487455585441
  endloop
endfacet
facet normal 0 -1 0
  outer loop
    vertex 0.04449556188536478 -0.15 0.2273829607823917
    vertex 0.008146660181679748 -0.15 0.244487455585441
    vertex 0.004081383769405331 -0.15 0.2448717373478377
  endloop
endfacet
facet normal 0 -1 0
  outer loop
    vertex 0.04449556188536478 -0.15 0.2273829607823917
    vertex 0.004081383769405331 -0.15 0.2448717373478377
    vertex -3.545557561562891e-17 -0.15 0.245
  endloop
endfacet
facet normal 0 -1 0
  outer loop
    vertex 0.04449556188536478 -0.15 0.2273829607823917
    vertex -3.545557561562891e-17 -0.15 0.245
    vertex -0.004081383769405416 -0.15 0.2448717373478377
  endloop
endfacet
facet normal 0 -1 0
  outer loop
    vertex 0.04449556188536478 -0.15 0.2273829607823917
    vertex -0.004081383769405416 -0.15 0.2448717373478377
    vertex -0.008146660181679824 -0.15 0.244487455585441
  endloop
endfacet
facet normal 0 -1 0
  outer loop
    vertex 0.04449556188536478 -0.15 0.2273829607823917
    vertex -0.008146660181679824 -0.15 0.244487455585441
    vertex -0.01217978544807215 -0.15 0.2438486712973648
  endloop
endfacet
facet normal 0 -1 0
  outer loop
    vertex 0.04449556188536478 -0.15 0.2273829607823917
    vertex -0.01217978544807215 -0.15 0.2438486712973648
    vertex -0.01616484266571562 -0.15 0.242957905473361
  endloop
endfacet
facet normal 0 -1 0
  outer loop
    vertex 0.04449556188536478 -0.15 0.2273829607823917
    vertex -0.02392809592450414 -0.15 0.2404354715827363
    vertex -0.02767565395172978 -0.15 0.2388137584102912
  endloop
endfacet
facet normal 0 -1 0
  outer loop
    vertex 0.04449556188536478 -0.15 0.2273829607823917
    vertex -0.02767565395172978 -0.15 0.2388137584102912
    vertex -0.03131398881661156 -0.15 0.2369599342028511
  endloop
endfacet
facet normal 0 -1 0
  outer loop
    vertex 0.04449556188536478 -0.15 0.2273829607823917
    vertex -0.03131398881661156 -0.15 0.2369599342028511
    vertex -0.03482874167363484 -0.15 0.2348813151576309
  endloop
endfacet
facet normal 0 -1 0
  outer loop
    vertex 0.04449556188536478 -0.15 0.2273829607823917
    vertex -0.03482874167363484 -0.15 0.2348813151576309
    vertex -0.03820604139901082 -0.15 0.2325861046343715
  endloop
endfacet
facet normal 0 -1 0
  outer loop
    vertex 0.04449556188536478 -0.15 0.2273829607823917
    vertex -0.03820604139901082 -0.15 0.2325861046343715
    vertex -0.0414325593336649 -0.15 0.2300833607804262
  endloop
endfacet
facet normal -0 -1 0
  outer loop
    vertex 0.04449556188536478 -0.15 0.2273829607823917
    vertex -0.0414325593336649 -0.15 0.2300833607804262
    vertex -0.04449556188536483 -0.15 0.2273829607823917
  endloop
endfacet
facet normal 0 -1 0
  outer loop
    vertex 0.04449556188536478 -0.15 0.2273829607823917
    vertex -0.04449556188536483 -0.15 0.2273829607823917
    vertex -0.04738296078239182 -0.15 0.2244955618853647
  endloop
endfacet
facet normal 0 -1 0
  outer loop
    vertex 0.04449556188536478 -0.15 0.2273829607823917
    vertex -0.04738296078239182 -0.15 0.2244955618853647
    vertex -0.05008336078042637 -0.15 0.2214325593336647
  endloop
endfacet
facet normal 0 -1 0
  outer loop
    vertex 0.04449556188536478 -0.15 0.2273829607823917
    vertex -0.05008336078042637 -0.15 0.2214325593336647
    vertex -0.05258610463437165 -0.15 0.2182060413990107
  endloop
endfacet
facet normal 0 -1 0
  outer loop
    vertex 0.04449556188536478 -0.15 0.2273829607823917
    vertex -0.05258610463437165 -0.15 0.2182060413990107
    vertex -0.05488131515763105 -0.15 0.2148287416736347
  endloop
endfacet
facet normal 0 -1 0
  outer loop
    vertex 0.04449556188536478 -0.15 0.2273829607823917
    vertex -0.05488131515763105 -0.15 0.2148287416736347
    vertex -0.05695993420285119 -0.15 0.2113139888166114
  endloop
endfacet
facet normal 0 -1 0
  outer loop
    vertex 0.04449556188536478 -0.15 0.2273829607823917
    vertex -0.05695993420285119 -0.15 0.2113139888166114
    vertex -0.05881375841029132 -0.15 0.2076756539517296
  endloop
endfacet
facet normal 0 -1 0
  outer loop
    vertex 0.04449556188536478 -0.15 0.2273829607823917
    vertex -0.05881375841029132 -0.15 0.2076756539517296
    vertex -0.06043547158273639 -0.15 0.2039280959245039
  endloop
endfacet
facet normal 0 -1 0
  outer loop
    vertex 0.04449556188536478 -0.15 0.2273829607823917
    vertex -0.06043547158273639 -0.15 0.2039280959245039
    vertex -0.06181867355918502 -0.15 0.2000861046343714
  endloop
endfacet
facet normal 0 -1 0
  outer loop
    vertex 0.04449556188536478 -0.15 0.2273829607823917
    vertex -0.06181867355918502 -0.15 0.2000861046343714
    vertex -0.06295790547336105 -0.15 0.1961648426657154
  endloop
endfacet
facet normal 0 -1 0
  outer loop
    vertex 0.04449556188536478 -0.15 0.2273829607823917
    vertex -0.06295790547336105 -0.15 0.1961648426657154
    vertex -0.0638486712973648 -0.15 0.192179785448072
  endloop
endfacet
facet normal 0 -1 0
  outer loop
    vertex 0.04449556188536478 -0.15 0.2273829607823917
    vertex -0.0638486712973648 -0.15 0.192179785448072
    vertex -0.06448745558544108 -0.15 0.1881466601816796
  endloop
endfacet
facet normal 0 -1 0
  outer loop
    vertex 0.04449556188536478 -0.15 0.2273829607823917
    vertex -0.06448745558544108 -0.15 0.1881466601816796
    vertex -0.06487173734783766 -0.15 0.1840813837694052
  endloop
endfacet
facet normal 0 -1 0
  outer loop
    vertex 0.04449556188536478 -0.15 0.2273829607823917
    vertex -0.06487173734783766 -0.15 0.1840813837694052
    vertex -0.065 -0.15 0.1799999999999998
  endloop
endfacet
facet normal 0 -1 0
  outer loop
    vertex 0.04449556188536478 -0.15 0.2273829607823917
    vertex -0.065 -0.15 0.1799999999999998
    vertex -0.06487173734783765 -0.15 0.1759186162305945
  endloop
endfacet
facet normal 0 -1 0
  outer loop
    vertex 0.04449556188536478 -0.15 0.2273829607823917
    vertex -0.06487173734783765 -0.15 0.1759186162305945
    vertex -0.06448745558544104 -0.15 0.17185333981832
  endloop
endfacet
facet normal 0 -1 0
  outer loop
    vertex 0.04449556188536478 -0.15 0.2273829607823917
    vertex -0.06448745558544104 -0.15 0.17185333981832
    vertex -0.06384867129736474 -0.15 0.1678202145519277
  endloop
endfacet
facet normal 0 -1 0
  outer loop
    vertex 0.04449556188536478 -0.15 0.2273829607823917
    vertex -0.06384867129736474 -0.15 0.1678202145519277
    vertex -0.06295790547336098 -0.15 0.1638351573342842
  endloop
endfacet
facet normal 0 -1 0
  outer loop
    vertex 0.04449556188536478 -0.15 0.2273829607823917
    vertex -0.06295790547336098 -0.15 0.1638351573342842
    vertex -0.06181867355918493 -0.15 0.1599138953656282
  endloop
endfacet
facet normal 0 -1 0
  outer loop
    vertex 0.04449556188536478 -0.15 0.2273829607823917
    vertex -0.06181867355918493 -0.15 0.1599138953656282
    vertex -0.06043547158273627 -0.15 0.1560719040754957
  endloop
endfacet
facet normal 0 -1 0
  outer loop
    vertex 0.04449556188536478 -0.15 0.2273829607823917
    vertex -0.06043547158273627 -0.15 0.1560719040754957
    vertex -0.05881375841029118 -0.15 0.1523243460482701
  endloop
endfacet
facet normal 0 -1 0
  outer loop
    vertex 0.04449556188536478 -0.15 0.2273829607823917
    vertex -0.05881375841029118 -0.15 0.1523243460482701
    vertex -0.05695993420285103 -0.15 0.1486860111833883
  endloop
endfacet
facet normal 0 -1 0
  outer loop
    vertex 0.04449556188536478 -0.15 0.2273829607823917
    vertex -0.05695993420285103 -0.15 0.1486860111833883
    vertex -0.05488131515763087 -0.15 0.145171258326365
  endloop
endfacet
facet normal 0 -1 0
  outer loop
    vertex 0.04449556188536478 -0.15 0.2273829607823917
    vertex -0.05488131515763087 -0.15 0.145171258326365
    vertex -0.05258610463437145 -0.15 0.1417939586009891
  endloop
endfacet
facet normal 0 -1 0
  outer loop
    vertex 0.04449556188536478 -0.15 0.2273829607823917
    vertex -0.05258610463437145 -0.15 0.1417939586009891
    vertex -0.05008336078042616 -0.15 0.138567440666335
  endloop
endfacet
facet normal 0 -1 0
  outer loop
    vertex 0.04449556188536478 -0.15 0.2273829607823917
    vertex -0.05008336078042616 -0.15 0.138567440666335
    vertex -0.04738296078239159 -0.15 0.1355044381146351
  endloop
endfacet
facet normal 0 -1 0
  outer loop
    vertex 0.04449556188536478 -0.15 0.2273829607823917
    vertex -0.04738296078239159 -0.15 0.1355044381146351
    vertex -0.04449556188536459 -0.15 0.1326170392176081
  endloop
endfacet
facet normal 0 -1 0
  outer loop
    vertex 0.04449556188536478 -0.15 0.2273829607823917
    vertex -0.04449556188536459 -0.15 0.1326170392176081
    vertex -0.04143255933366465 -0.15 0.1299166392195735
  endloop
endfacet
facet normal 0 -1 0
  outer loop
    vertex 0.04449556188536478 -0.15 0.2273829607823917
    vertex -0.04143255933366465 -0.15 0.1299166392195735
    vertex -0.03820604139901058 -0.15 0.1274138953656283
  endloop
endfacet
facet normal 0 -1 0
  outer loop
    vertex 0.04449556188536478 -0.15 0.2273829607823917
    vertex -0.03820604139901058 -0.15 0.1274138953656283
    vertex -0.03482874167363462 -0.15 0.1251186848423689
  endloop
endfacet
facet normal 0 -1 0
  outer loop
    vertex 0.04449556188536478 -0.15 0.2273829607823917
    vertex -0.03482874167363462 -0.15 0.1251186848423689
    vertex -0.03131398881661134 -0.15 0.1230400657971488
  endloop
endfacet
facet normal 0 -1 0
  outer loop
    vertex 0.04449556188536478 -0.15 0.2273829607823917
    vertex -0.03131398881661134 -0.15 0.1230400657971488
    vertex -0.02767565395172959 -0.15 0.1211862415897087
  endloop
endfacet
facet normal 0 -1 0
  outer loop
    vertex 0.04449556188536478 -0.15 0.2273829607823917
    vertex -0.02767565395172959 -0.15 0.1211862415897087
    vertex -0.02392809592450395 -0.15 0.1195645284172636
  endloop
endfacet
facet normal 0 -1 0
  outer loop
    vertex 0.04449556188536478 -0.15 0.2273829607823917
    vertex -0.02392809592450395 -0.15 0.1195645284172636
    vertex -0.02008610463437149 -0.15 0.118181326440815
  endloop
endfacet
facet normal -6.04038e-15 -1 3.57227e-15
  outer loop
    vertex 0.04449556188536478 -0.15 0.2273829607823917
    vertex -0.02008610463437149 -0.15 0.118181326440815
    vertex -0.01616484266571548 -0.15 0.117042094526639
  endloop
endfacet
facet normal 5.00735e-17 -1 2.24016e-16
  outer loop
    vertex 0.04449556188536478 -0.15 0.2273829607823917
    vertex -0.01616484266571548 -0.15 0.117042094526639
    vertex -0.01217978544807204 -0.15 0.1161513287026352
  endloop
endfacet
facet normal 3.65703e-17 -1 2.30896e-16
  outer loop
    vertex 0.04449556188536478 -0.15 0.2273829607823917
    vertex -0.01217978544807204 -0.15 0.1161513287026352
    vertex -0.008146660181679741 -0.15 0.1155125444145589
  endloop
endfacet
facet normal 2.2454e-17 -1 2.37539e-16
  outer loop
    vertex 0.04449556188536478 -0.15 0.2273829607823917
    vertex -0.008146660181679741 -0.15 0.1155125444145589
    vertex -0.004081383769405361 -0.15 0.1151282626521623
  endloop
endfacet
facet normal 7.66606e-18 -1 2.43938e-16
  outer loop
    vertex 0.04449556188536478 -0.15 0.2273829607823917
    vertex -0.004081383769405361 -0.15 0.1151282626521623
    vertex -7.699999999999999e-18 -0.15 0.115
  endloop
endfacet
facet normal -7.85923e-18 -1 2.50085e-16
  outer loop
    vertex 0.04449556188536478 -0.15 0.2273829607823917
    vertex -7.699999999999999e-18 -0.15 0.115
    vertex 0.004081383769405331 -0.15 0.1151282626521623
  endloop
endfacet
facet normal -2.4196e-17 -1 2.55966e-16
  outer loop
    vertex 0.04449556188536478 -0.15 0.2273829607823917
    vertex 0.004081383769405331 -0.15 0.1151282626521623
    vertex 0.00814666018167972 -0.15 0.1155125444145589
  endloop
endfacet
facet normal -4.14279e-17 -1 2.61565e-16
  outer loop
    vertex 0.04449556188536478 -0.15 0.2273829607823917
    vertex 0.00814666018167972 -0.15 0.1155125444145589
    vertex 0.01217978544807203 -0.15 0.1161513287026352
  endloop
endfacet
facet normal -5.96502e-17 -1 2.66859e-16
  outer loop
    vertex 0.04449556188536478 -0.15 0.2273829607823917
    vertex 0.01217978544807203 -0.15 0.1161513287026352
    vertex 0.01616484266571546 -0.15 0.1170420945266389
  endloop
endfacet
facet normal -7.89711e-17 -1 2.7182e-16
  outer loop
    vertex 0.04449556188536478 -0.15 0.2273829607823917
    vertex 0.01616484266571546 -0.15 0.1170420945266389
    vertex 0.02008610463437146 -0.15 0.118181326440815
  endloop
endfacet
facet normal -9.95145e-17 -1 2.76412e-16
  outer loop
    vertex 0.04449556188536478 -0.15 0.2273829607823917
    vertex 0.02008610463437146 -0.15 0.118181326440815
    vertex 0.02392809592450394 -0.15 0.1195645284172636
  endloop
endfacet
facet normal -1.21423e-16 -1 2.80591e-16
  outer loop
    vertex 0.04449556188536478 -0.15 0.2273829607823917
    vertex 0.02392809592450394 -0.15 0.1195645284172636
    vertex 0.02767565395172956 -0.15 0.1211862415897086
  endloop
endfacet
facet normal -1.4486e-16 -1 2.84304e-16
  outer loop
    vertex 0.04449556188536478 -0.15 0.2273829607823917
    vertex 0.02767565395172956 -0.15 0.1211862415897086
    vertex 0.03131398881661133 -0.15 0.1230400657971488
  endloop
endfacet
facet normal -1.70016e-16 -1 2.87482e-16
  outer loop
    vertex 0.04449556188536478 -0.15 0.2273829607823917
    vertex 0.03131398881661133 -0.15 0.1230400657971488
    vertex 0.0348287416736346 -0.15 0.1251186848423689
  endloop
endfacet
facet normal -1.97113e-16 -1 2.90043e-16
  outer loop
    vertex 0.04449556188536478 -0.15 0.2273829607823917
    vertex 0.0348287416736346 -0.15 0.1251186848423689
    vertex 0.03820604139901056 -0.15 0.1274138953656282
  endloop
endfacet
facet normal -2.2641e-16 -1 2.91886e-16
  outer loop
    vertex 0.04449556188536478 -0.15 0.2273829607823917
    vertex 0.03820604139901056 -0.15 0.1274138953656282
    vertex 0.04143255933366462 -0.15 0.1299166392195735
  endloop
endfacet
facet normal -2.58213e-16 -1 2.92886e-16
  outer loop
    vertex 0.04449556188536478 -0.15 0.2273829607823917
    vertex 0.04143255933366462 -0.15 0.1299166392195735
    vertex 0.04449556188536456 -0.15 0.132617039217608
  endloop
endfacet
facet normal -2.92886e-16 -1 2.92886e-16
  outer loop
    vertex 0.04449556188536478 -0.15 0.2273829607823917
    vertex 0.04449556188536456 -0.15 0.132617039217608
    vertex 0.04738296078239154 -0.15 0.135504438114635
  endloop
endfacet
facet normal -3.3086e-16 -1 2.91692e-16
  outer loop
    vertex 0.04449556188536478 -0.15 0.2273829607823917
    vertex 0.04738296078239154 -0.15 0.135504438114635
    vertex 0.05008336078042609 -0.15 0.1385674406663349
  endloop
endfacet
facet normal -3.72657e-16 -1 2.89063e-16
  outer loop
    vertex 0.04449556188536478 -0.15 0.2273829607823917
    vertex 0.05008336078042609 -0.15 0.1385674406663349
    vertex 0.05258610463437136 -0.15 0.141793958600989
  endloop
endfacet
facet normal -4.18909e-16 -1 2.8469e-16
  outer loop
    vertex 0.04449556188536478 -0.15 0.2273829607823917
    vertex 0.05258610463437136 -0.15 0.141793958600989
    vertex 0.05488131515763078 -0.15 0.1451712583263649
  endloop
endfacet
facet normal -4.70389e-16 -1 2.78187e-16
  outer loop
    vertex 0.04449556188536478 -0.15 0.2273829607823917
    vertex 0.05488131515763078 -0.15 0.1451712583263649
    vertex 0.05695993420285094 -0.15 0.1486860111833881
  endloop
endfacet
facet normal -5.28049e-16 -1 2.69055e-16
  outer loop
    vertex 0.04449556188536478 -0.15 0.2273829607823917
    vertex 0.05695993420285094 -0.15 0.1486860111833881
    vertex 0.05881375841029108 -0.15 0.1523243460482699
  endloop
endfacet
facet normal -5.93081e-16 -1 2.56649e-16
  outer loop
    vertex 0.04449556188536478 -0.15 0.2273829607823917
    vertex 0.05881375841029108 -0.15 0.1523243460482699
    vertex 0.06043547158273616 -0.15 0.1560719040754955
  endloop
endfacet
facet normal 0 -1 0
  outer loop
    vertex 0.04449556188536478 -0.15 0.2273829607823917
    vertex 0.04143255933366483 -0.15 0.2300833607804263
    vertex 0.03482874167363479 -0.15 0.234881315157631
  endloop
endfacet
facet normal -6.66985e-16 -1 2.4013e-16
  outer loop
    vertex 0.04449556188536478 -0.15 0.2273829607823917
    vertex 0.06043547158273616 -0.15 0.1560719040754955
    vertex 0.06181867355918483 -0.15 0.1599138953656279
  endloop
endfacet
facet normal -7.51681e-16 -1 2.18383e-16
  outer loop
    vertex 0.04449556188536478 -0.15 0.2273829607823917
    vertex 0.06181867355918483 -0.15 0.1599138953656279
    vertex 0.06295790547336089 -0.15 0.1638351573342839
  endloop
endfacet
facet normal -8.49653e-16 -1 1.8992e-16
  outer loop
    vertex 0.04449556188536478 -0.15 0.2273829607823917
    vertex 0.06295790547336089 -0.15 0.1638351573342839
    vertex 0.06384867129736466 -0.15 0.1678202145519274
  endloop
endfacet
facet normal -9.64173e-16 -1 1.5271e-16
  outer loop
    vertex 0.04449556188536478 -0.15 0.2273829607823917
    vertex 0.06384867129736466 -0.15 0.1678202145519274
    vertex 0.064487455585441 -0.15 0.1718533398183197
  endloop
endfacet
facet normal 1.39207e-14 -1 5.51158e-15
  outer loop
    vertex 0.04449556188536478 -0.15 0.2273829607823917
    vertex 0.064487455585441 -0.15 0.1718533398183197
    vertex 0.06487173734783763 -0.15 0.1759186162305941
  endloop
endfacet
facet normal 0 -1 0
  outer loop
    vertex 0.04449556188536478 -0.15 0.2273829607823917
    vertex 0.06487173734783763 -0.15 0.1759186162305941
    vertex 0.065 -0.15 0.18
  endloop
endfacet
facet normal 0 -1 0
  outer loop
    vertex -0.01616484266571562 -0.15 0.242957905473361
    vertex -0.02008610463437165 -0.15 0.241818673559185
    vertex -0.02392809592450414 -0.15 0.2404354715827363
  endloop
endfacet
facet normal 0 1 0
  outer loop
    vertex 0.02733632352830297 0.15 0.2706705164723258
    vertex -0.0375 0.15 0.245
    vertex -0.03742600231606018 0.15 0.2473546444823493
  endloop
endfacet
facet normal 0 1 0
  outer loop
    vertex 0.02733632352830297 0.15 0.2706705164723258
    vertex -0.03742600231606018 0.15 0.2473546444823493
    vertex -0.03720430129929292 0.15 0.2496999962586614
  endloop
endfacet
facet normal 0 1 0
  outer loop
    vertex 0.02733632352830297 0.15 0.2706705164723258
    vertex -0.03720430129929292 0.15 0.2496999962586614
    vertex -0.03683577190232583 0.15 0.2520267992969647
  endloop
endfacet
facet normal 0 1 0
  outer loop
    vertex 0.02733632352830297 0.15 0.2706705164723258
    vertex -0.03683577190232583 0.15 0.2520267992969647
    vertex -0.03632186854232367 0.15 0.2543258707686821
  endloop
endfacet
facet normal 0 1 0
  outer loop
    vertex 0.02733632352830297 0.15 0.2706705164723258
    vertex -0.03632186854232367 0.15 0.2543258707686821
    vertex -0.03566461936106825 0.15 0.2565881372890605
  endloop
endfacet
facet normal 0 1 0
  outer loop
    vertex 0.02733632352830297 0.15 0.2706705164723258
    vertex -0.03566461936106825 0.15 0.2565881372890605
    vertex -0.03486661822080943 0.15 0.2588046707256754
  endloop
endfacet
facet normal 0 1 0
  outer loop
    vertex 0.02733632352830297 0.15 0.2706705164723258
    vertex -0.03486661822080943 0.15 0.2588046707256754
    vertex -0.03393101446747573 0.15 0.2609667234336902
  endloop
endfacet
facet normal 0 1 0
  outer loop
    vertex 0.02733632352830297 0.15 0.2706705164723258
    vertex -0.03393101446747573 0.15 0.2609667234336902
    vertex -0.03286150050164488 0.15 0.2630657627788143
  endloop
endfacet
facet normal 0 1 0
  outer loop
    vertex 0.02733632352830297 0.15 0.2706705164723258
    vertex -0.03286150050164488 0.15 0.2630657627788143
    vertex -0.03166229720632557 0.15 0.2650935048117123
  endloop
endfacet
facet normal 0 1 0
  outer loop
    vertex 0.02733632352830297 0.15 0.2706705164723258
    vertex -0.03166229720632557 0.15 0.2650935048117123
    vertex -0.03033813728906053 0.15 0.2670419469609677
  endloop
endfacet
facet normal 0 1 0
  outer loop
    vertex 0.02733632352830297 0.15 0.2706705164723258
    vertex -0.03033813728906053 0.15 0.2670419469609677
    vertex -0.0288942466040921 0.15 0.2689033996155759
  endloop
endfacet
facet normal 0 1 0
  outer loop
    vertex 0.02733632352830297 0.15 0.2706705164723258
    vertex -0.0288942466040921 0.15 0.2689033996155759
    vertex -0.02733632352830294 0.15 0.2706705164723258
  endloop
endfacet
facet normal 0 1 0
  outer loop
    vertex 0.02733632352830297 0.15 0.2706705164723258
    vertex -0.02733632352830294 0.15 0.2706705164723258
    vertex -0.02567051647232583 0.15 0.2723363235283029
  endloop
endfacet
facet normal 0 1 0
  outer loop
    vertex 0.02733632352830297 0.15 0.2706705164723258
    vertex -0.02567051647232583 0.15 0.2723363235283029
    vertex -0.02390339961557587 0.15 0.2738942466040921
  endloop
endfacet
facet normal 0 1 0
  outer loop
    vertex 0.02733632352830297 0.15 0.2706705164723258
    vertex -0.02390339961557587 0.15 0.2738942466040921
    vertex -0.02204194696096775 0.15 0.2753381372890605
  endloop
endfacet
facet normal 0 1 0
  outer loop
    vertex 0.02733632352830297 0.15 0.2706705164723258
    vertex -0.02204194696096775 0.15 0.2753381372890605
    vertex -0.02009350481171238 0.15 0.2766622972063256
  endloop
endfacet
facet normal 0 1 0
  outer loop
    vertex 0.02733632352830297 0.15 0.2706705164723258
    vertex -0.02009350481171238 0.15 0.2766622972063256
    vertex -0.01806576277881432 0.15 0.2778615005016449
  endloop
endfacet
facet normal 0 1 0
  outer loop
    vertex 0.02733632352830297 0.15 0.2706705164723258
    vertex -0.01806576277881432 0.15 0.2778615005016449
    vertex -0.01596672343369022 0.15 0.2789310144674758
  endloop
endfacet
facet normal 0 1 0
  outer loop
    vertex 0.02733632352830297 0.15 0.2706705164723258
    vertex -0.01596672343369022 0.15 0.2789310144674758
    vertex -0.01380467072567542 0.15 0.2798666182208094
  endloop
endfacet
facet normal 0 1 0
  outer loop
    vertex 0.02733632352830297 0.15 0.2706705164723258
    vertex -0.01380467072567542 0.15 0.2798666182208094
    vertex -0.01158813728906052 0.15 0.2806646193610682
  endloop
endfacet
facet normal 0 1 0
  outer loop
    vertex 0.02733632352830297 0.15 0.2706705164723258
    vertex -0.01158813728906052 0.15 0.2806646193610682
    vertex -0.009325870768682045 0.15 0.2813218685423237
  endloop
endfacet
facet normal 0 1 0
  outer loop
    vertex 0.02733632352830297 0.15 0.2706705164723258
    vertex -0.009325870768682045 0.15 0.2813218685423237
    vertex -0.007026799296964661 0.15 0.2818357719023258
  endloop
endfacet
facet normal 0 1 0
  outer loop
    vertex 0.02733632352830297 0.15 0.2706705164723258
    vertex -0.007026799296964661 0.15 0.2818357719023258
    vertex -0.004699996258661392 0.15 0.2822043012992929
  endloop
endfacet
facet normal 0 1 0
  outer loop
    vertex 0.02733632352830297 0.15 0.2706705164723258
    vertex -0.004699996258661392 0.15 0.2822043012992929
    vertex -0.002354644482349229 0.15 0.2824260023160602
  endloop
endfacet
facet normal 0 1 0
  outer loop
    vertex 0.02733632352830297 0.15 0.2706705164723258
    vertex -0.002354644482349229 0.15 0.2824260023160602
    vertex 2.431732845102268e-17 0.15 0.2825
  endloop
endfacet
facet normal 0 1 0
  outer loop
    vertex 0.02733632352830297 0.15 0.2706705164723258
    vertex 2.431732845102268e-17 0.15 0.2825
    vertex 0.002354644482349278 0.15 0.2824260023160602
  endloop
endfacet
facet normal 0 1 0
  outer loop
    vertex 0.02733632352830297 0.15 0.2706705164723258
    vertex 0.002354644482349278 0.15 0.2824260023160602
    vertex 0.004699996258661441 0.15 0.2822043012992929
  endloop
endfacet
facet normal 0 1 0
  outer loop
    vertex 0.02733632352830297 0.15 0.2706705164723258
    vertex 0.004699996258661441 0.15 0.2822043012992929
    vertex 0.007026799296964707 0.15 0.2818357719023258
  endloop
endfacet
facet normal 0 1 0
  outer loop
    vertex 0.02733632352830297 0.15 0.2706705164723258
    vertex 0.007026799296964707 0.15 0.2818357719023258
    vertex 0.009325870768682087 0.15 0.2813218685423237
  endloop
endfacet
facet normal 0 1 0
  outer loop
    vertex 0.02733632352830297 0.15 0.2706705164723258
    vertex 0.009325870768682087 0.15 0.2813218685423237
    vertex 0.01158813728906056 0.15 0.2806646193610682
  endloop
endfacet
facet normal 0 1 0
  outer loop
    vertex 0.02733632352830297 0.15 0.2706705164723258
    vertex 0.01158813728906056 0.15 0.2806646193610682
    vertex 0.01380467072567547 0.15 0.2798666182208094
  endloop
endfacet
facet normal 0 1 0
  outer loop
    vertex 0.02733632352830297 0.15 0.2706705164723258
    vertex 0.01380467072567547 0.15 0.2798666182208094
    vertex 0.01596672343369026 0.15 0.2789310144674757
  endloop
endfacet
facet normal 0 1 0
  outer loop
    vertex 0.02733632352830297 0.15 0.2706705164723258
    vertex 0.01596672343369026 0.15 0.2789310144674757
    vertex 0.01806576277881436 0.15 0.2778615005016449
  endloop
endfacet
facet normal 0 1 0
  outer loop
    vertex 0.02733632352830297 0.15 0.2706705164723258
    vertex 0.01806576277881436 0.15 0.2778615005016449
    vertex 0.02009350481171241 0.15 0.2766622972063255
  endloop
endfacet
facet normal 0 1 0
  outer loop
    vertex 0.02733632352830297 0.15 0.2706705164723258
    vertex 0.02009350481171241 0.15 0.2766622972063255
    vertex 0.02204194696096778 0.15 0.2753381372890605
  endloop
endfacet
facet normal 0 1 0
  outer loop
    vertex 0.02733632352830297 0.15 0.2706705164723258
    vertex 0.02204194696096778 0.15 0.2753381372890605
    vertex 0.02390339961557591 0.15 0.2738942466040921
  endloop
endfacet
facet normal 0 1 0
  outer loop
    vertex 0.02733632352830297 0.15 0.2706705164723258
    vertex 0.02390339961557591 0.15 0.2738942466040921
    vertex 0.02567051647232587 0.15 0.2723363235283029
  endloop
endfacet
facet normal 0 1 0
  outer loop
    vertex 0.02733632352830297 0.15 0.2706705164723258
    vertex 0.02889424660409213 0.15 0.2689033996155758
    vertex 0.03033813728906057 0.15 0.2670419469609677
  endloop
endfacet
facet normal 0 1 0
  outer loop
    vertex 0.02733632352830297 0.15 0.2706705164723258
    vertex 0.03033813728906057 0.15 0.2670419469609677
    vertex 0.03166229720632561 0.15 0.2650935048117123
  endloop
endfacet
facet normal 0 1 0
  outer loop
    vertex 0.02733632352830297 0.15 0.2706705164723258
    vertex 0.03166229720632561 0.15 0.2650935048117123
    vertex 0.03286150050164491 0.15 0.2630657627788143
  endloop
endfacet
facet normal 0 1 0
  outer loop
    vertex 0.02733632352830297 0.15 0.2706705164723258
    vertex 0.03286150050164491 0.15 0.2630657627788143
    vertex 0.03393101446747577 0.15 0.2609667234336902
  endloop
endfacet
facet normal 0 1 0
  outer loop
    vertex 0.02733632352830297 0.15 0.2706705164723258
    vertex 0.03393101446747577 0.15 0.2609667234336902
    vertex 0.03486661822080945 0.15 0.2588046707256754
  endloop
endfacet
facet normal 0 1 0
  outer loop
    vertex 0.02733632352830297 0.15 0.2706705164723258
    vertex 0.03486661822080945 0.15 0.2588046707256754
    vertex 0.03566461936106827 0.15 0.2565881372890604
  endloop
endfacet
facet normal 0 1 0
  outer loop
    vertex 0.02733632352830297 0.15 0.2706705164723258
    vertex 0.03566461936106827 0.15 0.2565881372890604
    vertex 0.03632186854232369 0.15 0.254325870768682
  endloop
endfacet
facet normal 0 1 0
  outer loop
    vertex 0.02733632352830297 0.15 0.2706705164723258
    vertex 0.03632186854232369 0.15 0.254325870768682
    vertex 0.03683577190232584 0.15 0.2520267992969646
  endloop
endfacet
facet normal 0 1 0
  outer loop
    vertex 0.02733632352830297 0.15 0.2706705164723258
    vertex 0.03683577190232584 0.15 0.2520267992969646
    vertex 0.03720430129929293 0.15 0.2496999962586613
  endloop
endfacet
facet normal 0 1 0
  outer loop
    vertex 0.02733632352830297 0.15 0.2706705164723258
    vertex 0.03720430129929293 0.15 0.2496999962586613
    vertex 0.03742600231606018 0.15 0.2473546444823491
  endloop
endfacet
facet normal 0 1 0
  outer loop
    vertex 0.02733632352830297 0.15 0.2706705164723258
    vertex 0.03742600231606018 0.15 0.2473546444823491
    vertex 0.0375 0.15 0.2449999999999999
  endloop
endfacet
facet normal 0 1 0
  outer loop
    vertex 0.02733632352830297 0.15 0.2706705164723258
    vertex 0.0375 0.15 0.2449999999999999
    vertex 0.03742600231606017 0.15 0.2426453555176507
  endloop
endfacet
facet normal 0 1 0
  outer loop
    vertex 0.02733632352830297 0.15 0.2706705164723258
    vertex 0.03742600231606017 0.15 0.2426453555176507
    vertex 0.0372043012992929 0.15 0.2403000037413385
  endloop
endfacet
facet normal 0 1 0
  outer loop
    vertex 0.02733632352830297 0.15 0.2706705164723258
    vertex 0.0372043012992929 0.15 0.2403000037413385
    vertex 0.03683577190232581 0.15 0.2379732007030352
  endloop
endfacet
facet normal 0 1 0
  outer loop
    vertex 0.02733632352830297 0.15 0.2706705164723258
    vertex 0.03683577190232581 0.15 0.2379732007030352
    vertex 0.03632186854232364 0.15 0.2356741292313178
  endloop
endfacet
facet normal 0 1 0
  outer loop
    vertex 0.02733632352830297 0.15 0.2706705164723258
    vertex 0.03632186854232364 0.15 0.2356741292313178
    vertex 0.03566461936106822 0.15 0.2334118627109394
  endloop
endfacet
facet normal 0 1 0
  outer loop
    vertex 0.02733632352830297 0.15 0.2706705164723258
    vertex 0.03566461936106822 0.15 0.2334118627109394
    vertex 0.03486661822080938 0.15 0.2311953292743245
  endloop
endfacet
facet normal 0 1 0
  outer loop
    vertex 0.02733632352830297 0.15 0.2706705164723258
    vertex 0.03486661822080938 0.15 0.2311953292743245
    vertex 0.03393101446747569 0.15 0.2290332765663097
  endloop
endfacet
facet normal 0 1 0
  outer loop
    vertex 0.02733632352830297 0.15 0.2706705164723258
    vertex 0.03393101446747569 0.15 0.2290332765663097
    vertex 0.03286150050164483 0.15 0.2269342372211856
  endloop
endfacet
facet normal 0 1 0
  outer loop
    vertex 0.02733632352830297 0.15 0.2706705164723258
    vertex 0.03286150050164483 0.15 0.2269342372211856
    vertex 0.0316622972063255 0.15 0.2249064951882875
  endloop
endfacet
facet normal 0 1 0
  outer loop
    vertex 0.02733632352830297 0.15 0.2706705164723258
    vertex 0.0316622972063255 0.15 0.2249064951882875
    vertex 0.03033813728906046 0.15 0.2229580530390322
  endloop
endfacet
facet normal 0 1 0
  outer loop
    vertex 0.02733632352830297 0.15 0.2706705164723258
    vertex 0.03033813728906046 0.15 0.2229580530390322
    vertex 0.02889424660409201 0.15 0.221096600384424
  endloop
endfacet
facet normal 0 1 0
  outer loop
    vertex 0.02733632352830297 0.15 0.2706705164723258
    vertex 0.02889424660409201 0.15 0.221096600384424
    vertex 0.02733632352830285 0.15 0.2193294835276741
  endloop
endfacet
facet normal 0 1 0
  outer loop
    vertex 0.02733632352830297 0.15 0.2706705164723258
    vertex 0.02733632352830285 0.15 0.2193294835276741
    vertex 0.02567051647232571 0.15 0.217663676471697
  endloop
endfacet
facet normal 0 1 0
  outer loop
    vertex 0.02733632352830297 0.15 0.2706705164723258
    vertex 0.02567051647232571 0.15 0.217663676471697
    vertex 0.02390339961557575 0.15 0.2161057533959078
  endloop
endfacet
facet normal 0 1 0
  outer loop
    vertex 0.02733632352830297 0.15 0.2706705164723258
    vertex 0.02390339961557575 0.15 0.2161057533959078
    vertex 0.02204194696096764 0.15 0.2146618627109394
  endloop
endfacet
facet normal 0 1 0
  outer loop
    vertex 0.02733632352830297 0.15 0.2706705164723258
    vertex 0.02204194696096764 0.15 0.2146618627109394
    vertex 0.02009350481171228 0.15 0.2133377027936744
  endloop
endfacet
facet normal 0 1 0
  outer loop
    vertex 0.02733632352830297 0.15 0.2706705164723258
    vertex 0.02009350481171228 0.15 0.2133377027936744
    vertex 0.01806576277881424 0.15 0.2121384994983551
  endloop
endfacet
facet normal 0 1 0
  outer loop
    vertex 0.02733632352830297 0.15 0.2706705164723258
    vertex 0.01806576277881424 0.15 0.2121384994983551
    vertex 0.01596672343369014 0.15 0.2110689855325242
  endloop
endfacet
facet normal 0 1 0
  outer loop
    vertex 0.02733632352830297 0.15 0.2706705164723258
    vertex 0.01596672343369014 0.15 0.2110689855325242
    vertex 0.01380467072567535 0.15 0.2101333817791906
  endloop
endfacet
facet normal 0 1 0
  outer loop
    vertex 0.02733632352830297 0.15 0.2706705164723258
    vertex 0.01380467072567535 0.15 0.2101333817791906
    vertex 0.01158813728906047 0.15 0.2093353806389317
  endloop
endfacet
facet normal 0 1 0
  outer loop
    vertex 0.02733632352830297 0.15 0.2706705164723258
    vertex 0.01158813728906047 0.15 0.2093353806389317
    vertex 0.00932587076868201 0.15 0.2086781314576763
  endloop
endfacet
facet normal 0 1 0
  outer loop
    vertex 0.02733632352830297 0.15 0.2706705164723258
    vertex 0.00932587076868201 0.15 0.2086781314576763
    vertex 0.007026799296964644 0.15 0.2081642280976742
  endloop
endfacet
facet normal 0 1 0
  outer loop
    vertex 0.02733632352830297 0.15 0.2706705164723258
    vertex 0.007026799296964644 0.15 0.2081642280976742
    vertex 0.004699996258661392 0.15 0.2077956987007071
  endloop
endfacet
facet normal 0 1 0
  outer loop
    vertex 0.02733632352830297 0.15 0.2706705164723258
    vertex 0.004699996258661392 0.15 0.2077956987007071
    vertex 0.002354644482349243 0.15 0.2075739976839398
  endloop
endfacet
facet normal 0 1 0
  outer loop
    vertex 0.02733632352830297 0.15 0.2706705164723258
    vertex 0.002354644482349243 0.15 0.2075739976839398
    vertex 3.500646739301e-18 0.15 0.2075
  endloop
endfacet
facet normal 0 1 0
  outer loop
    vertex 0.02733632352830297 0.15 0.2706705164723258
    vertex 3.500646739301e-18 0.15 0.2075
    vertex -0.002354644482349229 0.15 0.2075739976839398
  endloop
endfacet
facet normal 0 1 0
  outer loop
    vertex 0.02733632352830297 0.15 0.2706705164723258
    vertex -0.002354644482349229 0.15 0.2075739976839398
    vertex -0.004699996258661378 0.15 0.2077956987007071
  endloop
endfacet
facet normal 0 1 0
  outer loop
    vertex 0.02733632352830297 0.15 0.2706705164723258
    vertex -0.004699996258661378 0.15 0.2077956987007071
    vertex -0.007026799296964627 0.15 0.2081642280976742
  endloop
endfacet
facet normal 0 1 0
  outer loop
    vertex 0.02733632352830297 0.15 0.2706705164723258
    vertex -0.007026799296964627 0.15 0.2081642280976742
    vertex -0.009325870768681997 0.15 0.2086781314576763
  endloop
endfacet
facet normal 0 1 0
  outer loop
    vertex 0.02733632352830297 0.15 0.2706705164723258
    vertex -0.009325870768681997 0.15 0.2086781314576763
    vertex -0.01158813728906046 0.15 0.2093353806389317
  endloop
endfacet
facet normal 0 1 0
  outer loop
    vertex 0.02733632352830297 0.15 0.2706705164723258
    vertex -0.01158813728906046 0.15 0.2093353806389317
    vertex -0.01380467072567534 0.15 0.2101333817791906
  endloop
endfacet
facet normal 0 1 0
  outer loop
    vertex 0.02733632352830297 0.15 0.2706705164723258
    vertex -0.01380467072567534 0.15 0.2101333817791906
    vertex -0.01596672343369013 0.15 0.2110689855325242
  endloop
endfacet
facet normal 0 1 0
  outer loop
    vertex 0.02733632352830297 0.15 0.2706705164723258
    vertex -0.01596672343369013 0.15 0.2110689855325242
    vertex -0.01806576277881422 0.15 0.2121384994983551
  endloop
endfacet
facet normal 0 1 0
  outer loop
    vertex 0.02733632352830297 0.15 0.2706705164723258
    vertex -0.01806576277881422 0.15 0.2121384994983551
    vertex -0.02009350481171226 0.15 0.2133377027936744
  endloop
endfacet
facet normal 0 1 0
  outer loop
    vertex 0.02733632352830297 0.15 0.2706705164723258
    vertex -0.02009350481171226 0.15 0.2133377027936744
    vertex -0.02204194696096763 0.15 0.2146618627109394
  endloop
endfacet
facet normal 0 1 0
  outer loop
    vertex 0.02733632352830297 0.15 0.2706705164723258
    vertex -0.02204194696096763 0.15 0.2146618627109394
    vertex -0.02390339961557575 0.15 0.2161057533959078
  endloop
endfacet
facet normal 0 1 0
  outer loop
    vertex 0.02733632352830297 0.15 0.2706705164723258
    vertex -0.02390339961557575 0.15 0.2161057533959078
    vertex -0.0256705164723257 0.15 0.217663676471697
  endloop
endfacet
facet normal 0 1 0
  outer loop
    vertex 0.02733632352830297 0.15 0.2706705164723258
    vertex -0.0256705164723257 0.15 0.217663676471697
    vertex -0.02733632352830281 0.15 0.219329483527674
  endloop
endfacet
facet normal 0 1 0
  outer loop
    vertex 0.02733632352830297 0.15 0.2706705164723258
    vertex -0.02733632352830281 0.15 0.219329483527674
    vertex -0.02889424660409197 0.15 0.221096600384424
  endloop
endfacet
facet normal 0 1 0
  outer loop
    vertex 0.02733632352830297 0.15 0.2706705164723258
    vertex -0.02889424660409197 0.15 0.221096600384424
    vertex -0.0303381372890604 0.15 0.2229580530390321
  endloop
endfacet
facet normal 0 1 0
  outer loop
    vertex 0.02733632352830297 0.15 0.2706705164723258
    vertex -0.0303381372890604 0.15 0.2229580530390321
    vertex -0.03166229720632545 0.15 0.2249064951882874
  endloop
endfacet
facet normal 0 1 0
  outer loop
    vertex 0.02733632352830297 0.15 0.2706705164723258
    vertex -0.03166229720632545 0.15 0.2249064951882874
    vertex -0.03286150050164477 0.15 0.2269342372211855
  endloop
endfacet
facet normal 0 1 0
  outer loop
    vertex 0.02733632352830297 0.15 0.2706705164723258
    vertex -0.03286150050164477 0.15 0.2269342372211855
    vertex -0.03393101446747562 0.15 0.2290332765663095
  endloop
endfacet
facet normal 0 1 0
  outer loop
    vertex 0.02733632352830297 0.15 0.2706705164723258
    vertex -0.03393101446747562 0.15 0.2290332765663095
    vertex -0.03486661822080933 0.15 0.2311953292743243
  endloop
endfacet
facet normal 0 1 0
  outer loop
    vertex 0.02733632352830297 0.15 0.2706705164723258
    vertex -0.03486661822080933 0.15 0.2311953292743243
    vertex -0.03566461936106817 0.15 0.2334118627109392
  endloop
endfacet
facet normal 0 1 0
  outer loop
    vertex 0.02733632352830297 0.15 0.2706705164723258
    vertex -0.03566461936106817 0.15 0.2334118627109392
    vertex -0.0363218685423236 0.15 0.2356741292313177
  endloop
endfacet
facet normal 0 1 0
  outer loop
    vertex 0.02733632352830297 0.15 0.2706705164723258
    vertex -0.0363218685423236 0.15 0.2356741292313177
    vertex -0.03683577190232577 0.15 0.237973200703035
  endloop
endfacet
facet normal 0 1 0
  outer loop
    vertex 0.02733632352830297 0.15 0.2706705164723258
    vertex -0.03683577190232577 0.15 0.237973200703035
    vertex -0.03720430129929288 0.15 0.2403000037413383
  endloop
endfacet
facet normal 0 1 0
  outer loop
    vertex 0.02733632352830297 0.15 0.2706705164723258
    vertex -0.03720430129929288 0.15 0.2403000037413383
    vertex -0.03742600231606016 0.15 0.2426453555176504
  endloop
endfacet
facet normal 0 1 0
  outer loop
    vertex 0.02733632352830297 0.15 0.2706705164723258
    vertex -0.03742600231606016 0.15 0.2426453555176504
    vertex -0.0375 0.15 0.245
  endloop
endfacet
endsolid Created by Gmsh
