<?xml version="1.0" encoding="utf-8" standalone="no"?>
<!DOCTYPE svg PUBLIC "-//W3C//DTD SVG 1.1//EN"
  "http://www.w3.org/Graphics/SVG/1.1/DTD/svg11.dtd">
<svg xmlns:xlink="http://www.w3.org/1999/xlink" width="432pt" height="216pt" viewBox="0 0 432 216" xmlns="http://www.w3.org/2000/svg" version="1.1">
 <metadata>
  <rdf:RDF xmlns:dc="http://purl.org/dc/elements/1.1/" xmlns:cc="http://creativecommons.org/ns#" xmlns:rdf="http://www.w3.org/1999/02/22-rdf-syntax-ns#">
   <cc:Work>
    <dc:type rdf:resource="http://purl.org/dc/dcmitype/StillImage"/>
    <dc:date>2024-12-01T18:00:53.082051</dc:date>
    <dc:format>image/svg+xml</dc:format>
    <dc:creator>
     <cc:Agent>
      <dc:title>Matplotlib v3.9.2, https://matplotlib.org/</dc:title>
     </cc:Agent>
    </dc:creator>
   </cc:Work>
  </rdf:RDF>
 </metadata>
 <defs>
  <style type="text/css">*{stroke-linejoin: round; stroke-linecap: butt}</style>
 </defs>
 <g id="figure_1">
  <g id="patch_1">
   <path d="M 0 216 
L 432 216 
L 432 0 
L 0 0 
z
" style="fill: #ffffff"/>
  </g>
  <g id="axes_1">
   <g id="patch_2">
    <path d="M 46.64 174.04 
L 405.405 174.04 
L 405.405 10.8 
L 46.64 10.8 
z
" style="fill: #ffffff"/>
   </g>
   <g id="matplotlib.axis_1">
    <g id="xtick_1">
     <g id="line2d_1">
      <path d="M 46.64 174.04 
L 46.64 10.8 
" clip-path="url(#pdfa8d8bb9f)" style="fill: none; stroke-dasharray: 0.8,1.32; stroke-dashoffset: 0; stroke: #b0b0b0; stroke-width: 0.8"/>
     </g>
     <g id="line2d_2">
      <defs>
       <path id="m7771f2c2cc" d="M 0 0 
L 0 3.5 
" style="stroke: #000000; stroke-width: 0.8"/>
      </defs>
      <g>
       <use xlink:href="#m7771f2c2cc" x="46.64" y="174.04" style="stroke: #000000; stroke-width: 0.8"/>
      </g>
     </g>
     <g id="text_1">
      <!-- 10 -->
      <g transform="translate(40.2775 188.638438) scale(0.1 -0.1)">
       <defs>
        <path id="DejaVuSans-31" d="M 794 531 
L 1825 531 
L 1825 4091 
L 703 3866 
L 703 4441 
L 1819 4666 
L 2450 4666 
L 2450 531 
L 3481 531 
L 3481 0 
L 794 0 
L 794 531 
z
" transform="scale(0.015625)"/>
        <path id="DejaVuSans-30" d="M 2034 4250 
Q 1547 4250 1301 3770 
Q 1056 3291 1056 2328 
Q 1056 1369 1301 889 
Q 1547 409 2034 409 
Q 2525 409 2770 889 
Q 3016 1369 3016 2328 
Q 3016 3291 2770 3770 
Q 2525 4250 2034 4250 
z
M 2034 4750 
Q 2819 4750 3233 4129 
Q 3647 3509 3647 2328 
Q 3647 1150 3233 529 
Q 2819 -91 2034 -91 
Q 1250 -91 836 529 
Q 422 1150 422 2328 
Q 422 3509 836 4129 
Q 1250 4750 2034 4750 
z
" transform="scale(0.015625)"/>
       </defs>
       <use xlink:href="#DejaVuSans-31"/>
       <use xlink:href="#DejaVuSans-30" x="63.623047"/>
      </g>
     </g>
    </g>
    <g id="xtick_2">
     <g id="line2d_3">
      <path d="M 82.639675 174.04 
L 82.639675 10.8 
" clip-path="url(#pdfa8d8bb9f)" style="fill: none; stroke-dasharray: 0.8,1.32; stroke-dashoffset: 0; stroke: #b0b0b0; stroke-width: 0.8"/>
     </g>
     <g id="line2d_4">
      <g>
       <use xlink:href="#m7771f2c2cc" x="82.639675" y="174.04" style="stroke: #000000; stroke-width: 0.8"/>
      </g>
     </g>
     <g id="text_2">
      <!-- 20 -->
      <g transform="translate(76.277175 188.638438) scale(0.1 -0.1)">
       <defs>
        <path id="DejaVuSans-32" d="M 1228 531 
L 3431 531 
L 3431 0 
L 469 0 
L 469 531 
Q 828 903 1448 1529 
Q 2069 2156 2228 2338 
Q 2531 2678 2651 2914 
Q 2772 3150 2772 3378 
Q 2772 3750 2511 3984 
Q 2250 4219 1831 4219 
Q 1534 4219 1204 4116 
Q 875 4013 500 3803 
L 500 4441 
Q 881 4594 1212 4672 
Q 1544 4750 1819 4750 
Q 2544 4750 2975 4387 
Q 3406 4025 3406 3419 
Q 3406 3131 3298 2873 
Q 3191 2616 2906 2266 
Q 2828 2175 2409 1742 
Q 1991 1309 1228 531 
z
" transform="scale(0.015625)"/>
       </defs>
       <use xlink:href="#DejaVuSans-32"/>
       <use xlink:href="#DejaVuSans-30" x="63.623047"/>
      </g>
     </g>
    </g>
    <g id="xtick_3">
     <g id="line2d_5">
      <path d="M 130.228658 174.04 
L 130.228658 10.8 
" clip-path="url(#pdfa8d8bb9f)" style="fill: none; stroke-dasharray: 0.8,1.32; stroke-dashoffset: 0; stroke: #b0b0b0; stroke-width: 0.8"/>
     </g>
     <g id="line2d_6">
      <g>
       <use xlink:href="#m7771f2c2cc" x="130.228658" y="174.04" style="stroke: #000000; stroke-width: 0.8"/>
      </g>
     </g>
     <g id="text_3">
      <!-- 50 -->
      <g transform="translate(123.866158 188.638438) scale(0.1 -0.1)">
       <defs>
        <path id="DejaVuSans-35" d="M 691 4666 
L 3169 4666 
L 3169 4134 
L 1269 4134 
L 1269 2991 
Q 1406 3038 1543 3061 
Q 1681 3084 1819 3084 
Q 2600 3084 3056 2656 
Q 3513 2228 3513 1497 
Q 3513 744 3044 326 
Q 2575 -91 1722 -91 
Q 1428 -91 1123 -41 
Q 819 9 494 109 
L 494 744 
Q 775 591 1075 516 
Q 1375 441 1709 441 
Q 2250 441 2565 725 
Q 2881 1009 2881 1497 
Q 2881 1984 2565 2268 
Q 2250 2553 1709 2553 
Q 1456 2553 1204 2497 
Q 953 2441 691 2322 
L 691 4666 
z
" transform="scale(0.015625)"/>
       </defs>
       <use xlink:href="#DejaVuSans-35"/>
       <use xlink:href="#DejaVuSans-30" x="63.623047"/>
      </g>
     </g>
    </g>
    <g id="xtick_4">
     <g id="line2d_7">
      <path d="M 166.228333 174.04 
L 166.228333 10.8 
" clip-path="url(#pdfa8d8bb9f)" style="fill: none; stroke-dasharray: 0.8,1.32; stroke-dashoffset: 0; stroke: #b0b0b0; stroke-width: 0.8"/>
     </g>
     <g id="line2d_8">
      <g>
       <use xlink:href="#m7771f2c2cc" x="166.228333" y="174.04" style="stroke: #000000; stroke-width: 0.8"/>
      </g>
     </g>
     <g id="text_4">
      <!-- 100 -->
      <g transform="translate(156.684583 188.638438) scale(0.1 -0.1)">
       <use xlink:href="#DejaVuSans-31"/>
       <use xlink:href="#DejaVuSans-30" x="63.623047"/>
       <use xlink:href="#DejaVuSans-30" x="127.246094"/>
      </g>
     </g>
    </g>
    <g id="xtick_5">
     <g id="line2d_9">
      <path d="M 202.228009 174.04 
L 202.228009 10.8 
" clip-path="url(#pdfa8d8bb9f)" style="fill: none; stroke-dasharray: 0.8,1.32; stroke-dashoffset: 0; stroke: #b0b0b0; stroke-width: 0.8"/>
     </g>
     <g id="line2d_10">
      <g>
       <use xlink:href="#m7771f2c2cc" x="202.228009" y="174.04" style="stroke: #000000; stroke-width: 0.8"/>
      </g>
     </g>
     <g id="text_5">
      <!-- 200 -->
      <g transform="translate(192.684259 188.638438) scale(0.1 -0.1)">
       <use xlink:href="#DejaVuSans-32"/>
       <use xlink:href="#DejaVuSans-30" x="63.623047"/>
       <use xlink:href="#DejaVuSans-30" x="127.246094"/>
      </g>
     </g>
    </g>
    <g id="xtick_6">
     <g id="line2d_11">
      <path d="M 249.816991 174.04 
L 249.816991 10.8 
" clip-path="url(#pdfa8d8bb9f)" style="fill: none; stroke-dasharray: 0.8,1.32; stroke-dashoffset: 0; stroke: #b0b0b0; stroke-width: 0.8"/>
     </g>
     <g id="line2d_12">
      <g>
       <use xlink:href="#m7771f2c2cc" x="249.816991" y="174.04" style="stroke: #000000; stroke-width: 0.8"/>
      </g>
     </g>
     <g id="text_6">
      <!-- 500 -->
      <g transform="translate(240.273241 188.638438) scale(0.1 -0.1)">
       <use xlink:href="#DejaVuSans-35"/>
       <use xlink:href="#DejaVuSans-30" x="63.623047"/>
       <use xlink:href="#DejaVuSans-30" x="127.246094"/>
      </g>
     </g>
    </g>
    <g id="xtick_7">
     <g id="line2d_13">
      <path d="M 285.816667 174.04 
L 285.816667 10.8 
" clip-path="url(#pdfa8d8bb9f)" style="fill: none; stroke-dasharray: 0.8,1.32; stroke-dashoffset: 0; stroke: #b0b0b0; stroke-width: 0.8"/>
     </g>
     <g id="line2d_14">
      <g>
       <use xlink:href="#m7771f2c2cc" x="285.816667" y="174.04" style="stroke: #000000; stroke-width: 0.8"/>
      </g>
     </g>
     <g id="text_7">
      <!-- 1000 -->
      <g transform="translate(273.091667 188.638438) scale(0.1 -0.1)">
       <use xlink:href="#DejaVuSans-31"/>
       <use xlink:href="#DejaVuSans-30" x="63.623047"/>
       <use xlink:href="#DejaVuSans-30" x="127.246094"/>
       <use xlink:href="#DejaVuSans-30" x="190.869141"/>
      </g>
     </g>
    </g>
    <g id="xtick_8">
     <g id="line2d_15">
      <path d="M 321.816342 174.04 
L 321.816342 10.8 
" clip-path="url(#pdfa8d8bb9f)" style="fill: none; stroke-dasharray: 0.8,1.32; stroke-dashoffset: 0; stroke: #b0b0b0; stroke-width: 0.8"/>
     </g>
     <g id="line2d_16">
      <g>
       <use xlink:href="#m7771f2c2cc" x="321.816342" y="174.04" style="stroke: #000000; stroke-width: 0.8"/>
      </g>
     </g>
     <g id="text_8">
      <!-- 2000 -->
      <g transform="translate(309.091342 188.638438) scale(0.1 -0.1)">
       <use xlink:href="#DejaVuSans-32"/>
       <use xlink:href="#DejaVuSans-30" x="63.623047"/>
       <use xlink:href="#DejaVuSans-30" x="127.246094"/>
       <use xlink:href="#DejaVuSans-30" x="190.869141"/>
      </g>
     </g>
    </g>
    <g id="xtick_9">
     <g id="line2d_17">
      <path d="M 369.405325 174.04 
L 369.405325 10.8 
" clip-path="url(#pdfa8d8bb9f)" style="fill: none; stroke-dasharray: 0.8,1.32; stroke-dashoffset: 0; stroke: #b0b0b0; stroke-width: 0.8"/>
     </g>
     <g id="line2d_18">
      <g>
       <use xlink:href="#m7771f2c2cc" x="369.405325" y="174.04" style="stroke: #000000; stroke-width: 0.8"/>
      </g>
     </g>
     <g id="text_9">
      <!-- 5000 -->
      <g transform="translate(356.680325 188.638438) scale(0.1 -0.1)">
       <use xlink:href="#DejaVuSans-35"/>
       <use xlink:href="#DejaVuSans-30" x="63.623047"/>
       <use xlink:href="#DejaVuSans-30" x="127.246094"/>
       <use xlink:href="#DejaVuSans-30" x="190.869141"/>
      </g>
     </g>
    </g>
    <g id="xtick_10">
     <g id="line2d_19">
      <path d="M 405.405 174.04 
L 405.405 10.8 
" clip-path="url(#pdfa8d8bb9f)" style="fill: none; stroke-dasharray: 0.8,1.32; stroke-dashoffset: 0; stroke: #b0b0b0; stroke-width: 0.8"/>
     </g>
     <g id="line2d_20">
      <g>
       <use xlink:href="#m7771f2c2cc" x="405.405" y="174.04" style="stroke: #000000; stroke-width: 0.8"/>
      </g>
     </g>
     <g id="text_10">
      <!-- 10000 -->
      <g transform="translate(389.49875 188.638438) scale(0.1 -0.1)">
       <use xlink:href="#DejaVuSans-31"/>
       <use xlink:href="#DejaVuSans-30" x="63.623047"/>
       <use xlink:href="#DejaVuSans-30" x="127.246094"/>
       <use xlink:href="#DejaVuSans-30" x="190.869141"/>
       <use xlink:href="#DejaVuSans-30" x="254.492188"/>
      </g>
     </g>
    </g>
    <g id="xtick_11">
     <g id="line2d_21">
      <path d="M 103.698136 174.04 
L 103.698136 10.8 
" clip-path="url(#pdfa8d8bb9f)" style="fill: none; stroke-dasharray: 0.8,1.32; stroke-dashoffset: 0; stroke: #b0b0b0; stroke-width: 0.8"/>
     </g>
     <g id="line2d_22">
      <defs>
       <path id="m84d1c6b630" d="M 0 0 
L 0 2 
" style="stroke: #000000; stroke-width: 0.6"/>
      </defs>
      <g>
       <use xlink:href="#m84d1c6b630" x="103.698136" y="174.04" style="stroke: #000000; stroke-width: 0.6"/>
      </g>
     </g>
    </g>
    <g id="xtick_12">
     <g id="line2d_23">
      <path d="M 118.639351 174.04 
L 118.639351 10.8 
" clip-path="url(#pdfa8d8bb9f)" style="fill: none; stroke-dasharray: 0.8,1.32; stroke-dashoffset: 0; stroke: #b0b0b0; stroke-width: 0.8"/>
     </g>
     <g id="line2d_24">
      <g>
       <use xlink:href="#m84d1c6b630" x="118.639351" y="174.04" style="stroke: #000000; stroke-width: 0.6"/>
      </g>
     </g>
    </g>
    <g id="xtick_13">
     <g id="line2d_25">
      <path d="M 139.697811 174.04 
L 139.697811 10.8 
" clip-path="url(#pdfa8d8bb9f)" style="fill: none; stroke-dasharray: 0.8,1.32; stroke-dashoffset: 0; stroke: #b0b0b0; stroke-width: 0.8"/>
     </g>
     <g id="line2d_26">
      <g>
       <use xlink:href="#m84d1c6b630" x="139.697811" y="174.04" style="stroke: #000000; stroke-width: 0.6"/>
      </g>
     </g>
    </g>
    <g id="xtick_14">
     <g id="line2d_27">
      <path d="M 147.703866 174.04 
L 147.703866 10.8 
" clip-path="url(#pdfa8d8bb9f)" style="fill: none; stroke-dasharray: 0.8,1.32; stroke-dashoffset: 0; stroke: #b0b0b0; stroke-width: 0.8"/>
     </g>
     <g id="line2d_28">
      <g>
       <use xlink:href="#m84d1c6b630" x="147.703866" y="174.04" style="stroke: #000000; stroke-width: 0.6"/>
      </g>
     </g>
    </g>
    <g id="xtick_15">
     <g id="line2d_29">
      <path d="M 154.639026 174.04 
L 154.639026 10.8 
" clip-path="url(#pdfa8d8bb9f)" style="fill: none; stroke-dasharray: 0.8,1.32; stroke-dashoffset: 0; stroke: #b0b0b0; stroke-width: 0.8"/>
     </g>
     <g id="line2d_30">
      <g>
       <use xlink:href="#m84d1c6b630" x="154.639026" y="174.04" style="stroke: #000000; stroke-width: 0.6"/>
      </g>
     </g>
    </g>
    <g id="xtick_16">
     <g id="line2d_31">
      <path d="M 160.756271 174.04 
L 160.756271 10.8 
" clip-path="url(#pdfa8d8bb9f)" style="fill: none; stroke-dasharray: 0.8,1.32; stroke-dashoffset: 0; stroke: #b0b0b0; stroke-width: 0.8"/>
     </g>
     <g id="line2d_32">
      <g>
       <use xlink:href="#m84d1c6b630" x="160.756271" y="174.04" style="stroke: #000000; stroke-width: 0.6"/>
      </g>
     </g>
    </g>
    <g id="xtick_17">
     <g id="line2d_33">
      <path d="M 223.286469 174.04 
L 223.286469 10.8 
" clip-path="url(#pdfa8d8bb9f)" style="fill: none; stroke-dasharray: 0.8,1.32; stroke-dashoffset: 0; stroke: #b0b0b0; stroke-width: 0.8"/>
     </g>
     <g id="line2d_34">
      <g>
       <use xlink:href="#m84d1c6b630" x="223.286469" y="174.04" style="stroke: #000000; stroke-width: 0.6"/>
      </g>
     </g>
    </g>
    <g id="xtick_18">
     <g id="line2d_35">
      <path d="M 238.227684 174.04 
L 238.227684 10.8 
" clip-path="url(#pdfa8d8bb9f)" style="fill: none; stroke-dasharray: 0.8,1.32; stroke-dashoffset: 0; stroke: #b0b0b0; stroke-width: 0.8"/>
     </g>
     <g id="line2d_36">
      <g>
       <use xlink:href="#m84d1c6b630" x="238.227684" y="174.04" style="stroke: #000000; stroke-width: 0.6"/>
      </g>
     </g>
    </g>
    <g id="xtick_19">
     <g id="line2d_37">
      <path d="M 259.286144 174.04 
L 259.286144 10.8 
" clip-path="url(#pdfa8d8bb9f)" style="fill: none; stroke-dasharray: 0.8,1.32; stroke-dashoffset: 0; stroke: #b0b0b0; stroke-width: 0.8"/>
     </g>
     <g id="line2d_38">
      <g>
       <use xlink:href="#m84d1c6b630" x="259.286144" y="174.04" style="stroke: #000000; stroke-width: 0.6"/>
      </g>
     </g>
    </g>
    <g id="xtick_20">
     <g id="line2d_39">
      <path d="M 267.292199 174.04 
L 267.292199 10.8 
" clip-path="url(#pdfa8d8bb9f)" style="fill: none; stroke-dasharray: 0.8,1.32; stroke-dashoffset: 0; stroke: #b0b0b0; stroke-width: 0.8"/>
     </g>
     <g id="line2d_40">
      <g>
       <use xlink:href="#m84d1c6b630" x="267.292199" y="174.04" style="stroke: #000000; stroke-width: 0.6"/>
      </g>
     </g>
    </g>
    <g id="xtick_21">
     <g id="line2d_41">
      <path d="M 274.22736 174.04 
L 274.22736 10.8 
" clip-path="url(#pdfa8d8bb9f)" style="fill: none; stroke-dasharray: 0.8,1.32; stroke-dashoffset: 0; stroke: #b0b0b0; stroke-width: 0.8"/>
     </g>
     <g id="line2d_42">
      <g>
       <use xlink:href="#m84d1c6b630" x="274.22736" y="174.04" style="stroke: #000000; stroke-width: 0.6"/>
      </g>
     </g>
    </g>
    <g id="xtick_22">
     <g id="line2d_43">
      <path d="M 280.344605 174.04 
L 280.344605 10.8 
" clip-path="url(#pdfa8d8bb9f)" style="fill: none; stroke-dasharray: 0.8,1.32; stroke-dashoffset: 0; stroke: #b0b0b0; stroke-width: 0.8"/>
     </g>
     <g id="line2d_44">
      <g>
       <use xlink:href="#m84d1c6b630" x="280.344605" y="174.04" style="stroke: #000000; stroke-width: 0.6"/>
      </g>
     </g>
    </g>
    <g id="xtick_23">
     <g id="line2d_45">
      <path d="M 342.874802 174.04 
L 342.874802 10.8 
" clip-path="url(#pdfa8d8bb9f)" style="fill: none; stroke-dasharray: 0.8,1.32; stroke-dashoffset: 0; stroke: #b0b0b0; stroke-width: 0.8"/>
     </g>
     <g id="line2d_46">
      <g>
       <use xlink:href="#m84d1c6b630" x="342.874802" y="174.04" style="stroke: #000000; stroke-width: 0.6"/>
      </g>
     </g>
    </g>
    <g id="xtick_24">
     <g id="line2d_47">
      <path d="M 357.816018 174.04 
L 357.816018 10.8 
" clip-path="url(#pdfa8d8bb9f)" style="fill: none; stroke-dasharray: 0.8,1.32; stroke-dashoffset: 0; stroke: #b0b0b0; stroke-width: 0.8"/>
     </g>
     <g id="line2d_48">
      <g>
       <use xlink:href="#m84d1c6b630" x="357.816018" y="174.04" style="stroke: #000000; stroke-width: 0.6"/>
      </g>
     </g>
    </g>
    <g id="xtick_25">
     <g id="line2d_49">
      <path d="M 378.874478 174.04 
L 378.874478 10.8 
" clip-path="url(#pdfa8d8bb9f)" style="fill: none; stroke-dasharray: 0.8,1.32; stroke-dashoffset: 0; stroke: #b0b0b0; stroke-width: 0.8"/>
     </g>
     <g id="line2d_50">
      <g>
       <use xlink:href="#m84d1c6b630" x="378.874478" y="174.04" style="stroke: #000000; stroke-width: 0.6"/>
      </g>
     </g>
    </g>
    <g id="xtick_26">
     <g id="line2d_51">
      <path d="M 386.880533 174.04 
L 386.880533 10.8 
" clip-path="url(#pdfa8d8bb9f)" style="fill: none; stroke-dasharray: 0.8,1.32; stroke-dashoffset: 0; stroke: #b0b0b0; stroke-width: 0.8"/>
     </g>
     <g id="line2d_52">
      <g>
       <use xlink:href="#m84d1c6b630" x="386.880533" y="174.04" style="stroke: #000000; stroke-width: 0.6"/>
      </g>
     </g>
    </g>
    <g id="xtick_27">
     <g id="line2d_53">
      <path d="M 393.815693 174.04 
L 393.815693 10.8 
" clip-path="url(#pdfa8d8bb9f)" style="fill: none; stroke-dasharray: 0.8,1.32; stroke-dashoffset: 0; stroke: #b0b0b0; stroke-width: 0.8"/>
     </g>
     <g id="line2d_54">
      <g>
       <use xlink:href="#m84d1c6b630" x="393.815693" y="174.04" style="stroke: #000000; stroke-width: 0.6"/>
      </g>
     </g>
    </g>
    <g id="xtick_28">
     <g id="line2d_55">
      <path d="M 399.932938 174.04 
L 399.932938 10.8 
" clip-path="url(#pdfa8d8bb9f)" style="fill: none; stroke-dasharray: 0.8,1.32; stroke-dashoffset: 0; stroke: #b0b0b0; stroke-width: 0.8"/>
     </g>
     <g id="line2d_56">
      <g>
       <use xlink:href="#m84d1c6b630" x="399.932938" y="174.04" style="stroke: #000000; stroke-width: 0.6"/>
      </g>
     </g>
    </g>
    <g id="text_11">
     <!-- Frequency [Hz] -->
     <g transform="translate(188.317813 202.316563) scale(0.1 -0.1)">
      <defs>
       <path id="DejaVuSans-46" d="M 628 4666 
L 3309 4666 
L 3309 4134 
L 1259 4134 
L 1259 2759 
L 3109 2759 
L 3109 2228 
L 1259 2228 
L 1259 0 
L 628 0 
L 628 4666 
z
" transform="scale(0.015625)"/>
       <path id="DejaVuSans-72" d="M 2631 2963 
Q 2534 3019 2420 3045 
Q 2306 3072 2169 3072 
Q 1681 3072 1420 2755 
Q 1159 2438 1159 1844 
L 1159 0 
L 581 0 
L 581 3500 
L 1159 3500 
L 1159 2956 
Q 1341 3275 1631 3429 
Q 1922 3584 2338 3584 
Q 2397 3584 2469 3576 
Q 2541 3569 2628 3553 
L 2631 2963 
z
" transform="scale(0.015625)"/>
       <path id="DejaVuSans-65" d="M 3597 1894 
L 3597 1613 
L 953 1613 
Q 991 1019 1311 708 
Q 1631 397 2203 397 
Q 2534 397 2845 478 
Q 3156 559 3463 722 
L 3463 178 
Q 3153 47 2828 -22 
Q 2503 -91 2169 -91 
Q 1331 -91 842 396 
Q 353 884 353 1716 
Q 353 2575 817 3079 
Q 1281 3584 2069 3584 
Q 2775 3584 3186 3129 
Q 3597 2675 3597 1894 
z
M 3022 2063 
Q 3016 2534 2758 2815 
Q 2500 3097 2075 3097 
Q 1594 3097 1305 2825 
Q 1016 2553 972 2059 
L 3022 2063 
z
" transform="scale(0.015625)"/>
       <path id="DejaVuSans-71" d="M 947 1747 
Q 947 1113 1208 752 
Q 1469 391 1925 391 
Q 2381 391 2643 752 
Q 2906 1113 2906 1747 
Q 2906 2381 2643 2742 
Q 2381 3103 1925 3103 
Q 1469 3103 1208 2742 
Q 947 2381 947 1747 
z
M 2906 525 
Q 2725 213 2448 61 
Q 2172 -91 1784 -91 
Q 1150 -91 751 415 
Q 353 922 353 1747 
Q 353 2572 751 3078 
Q 1150 3584 1784 3584 
Q 2172 3584 2448 3432 
Q 2725 3281 2906 2969 
L 2906 3500 
L 3481 3500 
L 3481 -1331 
L 2906 -1331 
L 2906 525 
z
" transform="scale(0.015625)"/>
       <path id="DejaVuSans-75" d="M 544 1381 
L 544 3500 
L 1119 3500 
L 1119 1403 
Q 1119 906 1312 657 
Q 1506 409 1894 409 
Q 2359 409 2629 706 
Q 2900 1003 2900 1516 
L 2900 3500 
L 3475 3500 
L 3475 0 
L 2900 0 
L 2900 538 
Q 2691 219 2414 64 
Q 2138 -91 1772 -91 
Q 1169 -91 856 284 
Q 544 659 544 1381 
z
M 1991 3584 
L 1991 3584 
z
" transform="scale(0.015625)"/>
       <path id="DejaVuSans-6e" d="M 3513 2113 
L 3513 0 
L 2938 0 
L 2938 2094 
Q 2938 2591 2744 2837 
Q 2550 3084 2163 3084 
Q 1697 3084 1428 2787 
Q 1159 2491 1159 1978 
L 1159 0 
L 581 0 
L 581 3500 
L 1159 3500 
L 1159 2956 
Q 1366 3272 1645 3428 
Q 1925 3584 2291 3584 
Q 2894 3584 3203 3211 
Q 3513 2838 3513 2113 
z
" transform="scale(0.015625)"/>
       <path id="DejaVuSans-63" d="M 3122 3366 
L 3122 2828 
Q 2878 2963 2633 3030 
Q 2388 3097 2138 3097 
Q 1578 3097 1268 2742 
Q 959 2388 959 1747 
Q 959 1106 1268 751 
Q 1578 397 2138 397 
Q 2388 397 2633 464 
Q 2878 531 3122 666 
L 3122 134 
Q 2881 22 2623 -34 
Q 2366 -91 2075 -91 
Q 1284 -91 818 406 
Q 353 903 353 1747 
Q 353 2603 823 3093 
Q 1294 3584 2113 3584 
Q 2378 3584 2631 3529 
Q 2884 3475 3122 3366 
z
" transform="scale(0.015625)"/>
       <path id="DejaVuSans-79" d="M 2059 -325 
Q 1816 -950 1584 -1140 
Q 1353 -1331 966 -1331 
L 506 -1331 
L 506 -850 
L 844 -850 
Q 1081 -850 1212 -737 
Q 1344 -625 1503 -206 
L 1606 56 
L 191 3500 
L 800 3500 
L 1894 763 
L 2988 3500 
L 3597 3500 
L 2059 -325 
z
" transform="scale(0.015625)"/>
       <path id="DejaVuSans-20" transform="scale(0.015625)"/>
       <path id="DejaVuSans-5b" d="M 550 4863 
L 1875 4863 
L 1875 4416 
L 1125 4416 
L 1125 -397 
L 1875 -397 
L 1875 -844 
L 550 -844 
L 550 4863 
z
" transform="scale(0.015625)"/>
       <path id="DejaVuSans-48" d="M 628 4666 
L 1259 4666 
L 1259 2753 
L 3553 2753 
L 3553 4666 
L 4184 4666 
L 4184 0 
L 3553 0 
L 3553 2222 
L 1259 2222 
L 1259 0 
L 628 0 
L 628 4666 
z
" transform="scale(0.015625)"/>
       <path id="DejaVuSans-7a" d="M 353 3500 
L 3084 3500 
L 3084 2975 
L 922 459 
L 3084 459 
L 3084 0 
L 275 0 
L 275 525 
L 2438 3041 
L 353 3041 
L 353 3500 
z
" transform="scale(0.015625)"/>
       <path id="DejaVuSans-5d" d="M 1947 4863 
L 1947 -844 
L 622 -844 
L 622 -397 
L 1369 -397 
L 1369 4416 
L 622 4416 
L 622 4863 
L 1947 4863 
z
" transform="scale(0.015625)"/>
      </defs>
      <use xlink:href="#DejaVuSans-46"/>
      <use xlink:href="#DejaVuSans-72" x="50.269531"/>
      <use xlink:href="#DejaVuSans-65" x="89.132812"/>
      <use xlink:href="#DejaVuSans-71" x="150.65625"/>
      <use xlink:href="#DejaVuSans-75" x="214.132812"/>
      <use xlink:href="#DejaVuSans-65" x="277.511719"/>
      <use xlink:href="#DejaVuSans-6e" x="339.035156"/>
      <use xlink:href="#DejaVuSans-63" x="402.414062"/>
      <use xlink:href="#DejaVuSans-79" x="457.394531"/>
      <use xlink:href="#DejaVuSans-20" x="516.574219"/>
      <use xlink:href="#DejaVuSans-5b" x="548.361328"/>
      <use xlink:href="#DejaVuSans-48" x="587.375"/>
      <use xlink:href="#DejaVuSans-7a" x="662.570312"/>
      <use xlink:href="#DejaVuSans-5d" x="715.060547"/>
     </g>
    </g>
   </g>
   <g id="matplotlib.axis_2">
    <g id="ytick_1">
     <g id="line2d_57">
      <path d="M 46.64 163.683403 
L 405.405 163.683403 
" clip-path="url(#pdfa8d8bb9f)" style="fill: none; stroke-dasharray: 0.8,1.32; stroke-dashoffset: 0; stroke: #b0b0b0; stroke-width: 0.8"/>
     </g>
     <g id="line2d_58">
      <defs>
       <path id="m641200ef29" d="M 0 0 
L -3.5 0 
" style="stroke: #000000; stroke-width: 0.8"/>
      </defs>
      <g>
       <use xlink:href="#m641200ef29" x="46.64" y="163.683403" style="stroke: #000000; stroke-width: 0.8"/>
      </g>
     </g>
     <g id="text_12">
      <!-- −3 -->
      <g transform="translate(24.897813 167.482622) scale(0.1 -0.1)">
       <defs>
        <path id="DejaVuSans-2212" d="M 678 2272 
L 4684 2272 
L 4684 1741 
L 678 1741 
L 678 2272 
z
" transform="scale(0.015625)"/>
        <path id="DejaVuSans-33" d="M 2597 2516 
Q 3050 2419 3304 2112 
Q 3559 1806 3559 1356 
Q 3559 666 3084 287 
Q 2609 -91 1734 -91 
Q 1441 -91 1130 -33 
Q 819 25 488 141 
L 488 750 
Q 750 597 1062 519 
Q 1375 441 1716 441 
Q 2309 441 2620 675 
Q 2931 909 2931 1356 
Q 2931 1769 2642 2001 
Q 2353 2234 1838 2234 
L 1294 2234 
L 1294 2753 
L 1863 2753 
Q 2328 2753 2575 2939 
Q 2822 3125 2822 3475 
Q 2822 3834 2567 4026 
Q 2313 4219 1838 4219 
Q 1578 4219 1281 4162 
Q 984 4106 628 3988 
L 628 4550 
Q 988 4650 1302 4700 
Q 1616 4750 1894 4750 
Q 2613 4750 3031 4423 
Q 3450 4097 3450 3541 
Q 3450 3153 3228 2886 
Q 3006 2619 2597 2516 
z
" transform="scale(0.015625)"/>
       </defs>
       <use xlink:href="#DejaVuSans-2212"/>
       <use xlink:href="#DejaVuSans-33" x="83.789062"/>
      </g>
     </g>
    </g>
    <g id="ytick_2">
     <g id="line2d_59">
      <path d="M 46.64 139.97694 
L 405.405 139.97694 
" clip-path="url(#pdfa8d8bb9f)" style="fill: none; stroke-dasharray: 0.8,1.32; stroke-dashoffset: 0; stroke: #b0b0b0; stroke-width: 0.8"/>
     </g>
     <g id="line2d_60">
      <g>
       <use xlink:href="#m641200ef29" x="46.64" y="139.97694" style="stroke: #000000; stroke-width: 0.8"/>
      </g>
     </g>
     <g id="text_13">
      <!-- −2 -->
      <g transform="translate(24.897813 143.776159) scale(0.1 -0.1)">
       <use xlink:href="#DejaVuSans-2212"/>
       <use xlink:href="#DejaVuSans-32" x="83.789062"/>
      </g>
     </g>
    </g>
    <g id="ytick_3">
     <g id="line2d_61">
      <path d="M 46.64 116.270477 
L 405.405 116.270477 
" clip-path="url(#pdfa8d8bb9f)" style="fill: none; stroke-dasharray: 0.8,1.32; stroke-dashoffset: 0; stroke: #b0b0b0; stroke-width: 0.8"/>
     </g>
     <g id="line2d_62">
      <g>
       <use xlink:href="#m641200ef29" x="46.64" y="116.270477" style="stroke: #000000; stroke-width: 0.8"/>
      </g>
     </g>
     <g id="text_14">
      <!-- −1 -->
      <g transform="translate(24.897813 120.069696) scale(0.1 -0.1)">
       <use xlink:href="#DejaVuSans-2212"/>
       <use xlink:href="#DejaVuSans-31" x="83.789062"/>
      </g>
     </g>
    </g>
    <g id="ytick_4">
     <g id="line2d_63">
      <path d="M 46.64 92.564014 
L 405.405 92.564014 
" clip-path="url(#pdfa8d8bb9f)" style="fill: none; stroke-dasharray: 0.8,1.32; stroke-dashoffset: 0; stroke: #b0b0b0; stroke-width: 0.8"/>
     </g>
     <g id="line2d_64">
      <g>
       <use xlink:href="#m641200ef29" x="46.64" y="92.564014" style="stroke: #000000; stroke-width: 0.8"/>
      </g>
     </g>
     <g id="text_15">
      <!-- 0 -->
      <g transform="translate(33.2775 96.363233) scale(0.1 -0.1)">
       <use xlink:href="#DejaVuSans-30"/>
      </g>
     </g>
    </g>
    <g id="ytick_5">
     <g id="line2d_65">
      <path d="M 46.64 68.857551 
L 405.405 68.857551 
" clip-path="url(#pdfa8d8bb9f)" style="fill: none; stroke-dasharray: 0.8,1.32; stroke-dashoffset: 0; stroke: #b0b0b0; stroke-width: 0.8"/>
     </g>
     <g id="line2d_66">
      <g>
       <use xlink:href="#m641200ef29" x="46.64" y="68.857551" style="stroke: #000000; stroke-width: 0.8"/>
      </g>
     </g>
     <g id="text_16">
      <!-- 1 -->
      <g transform="translate(33.2775 72.65677) scale(0.1 -0.1)">
       <use xlink:href="#DejaVuSans-31"/>
      </g>
     </g>
    </g>
    <g id="ytick_6">
     <g id="line2d_67">
      <path d="M 46.64 45.151088 
L 405.405 45.151088 
" clip-path="url(#pdfa8d8bb9f)" style="fill: none; stroke-dasharray: 0.8,1.32; stroke-dashoffset: 0; stroke: #b0b0b0; stroke-width: 0.8"/>
     </g>
     <g id="line2d_68">
      <g>
       <use xlink:href="#m641200ef29" x="46.64" y="45.151088" style="stroke: #000000; stroke-width: 0.8"/>
      </g>
     </g>
     <g id="text_17">
      <!-- 2 -->
      <g transform="translate(33.2775 48.950307) scale(0.1 -0.1)">
       <use xlink:href="#DejaVuSans-32"/>
      </g>
     </g>
    </g>
    <g id="ytick_7">
     <g id="line2d_69">
      <path d="M 46.64 21.444625 
L 405.405 21.444625 
" clip-path="url(#pdfa8d8bb9f)" style="fill: none; stroke-dasharray: 0.8,1.32; stroke-dashoffset: 0; stroke: #b0b0b0; stroke-width: 0.8"/>
     </g>
     <g id="line2d_70">
      <g>
       <use xlink:href="#m641200ef29" x="46.64" y="21.444625" style="stroke: #000000; stroke-width: 0.8"/>
      </g>
     </g>
     <g id="text_18">
      <!-- 3 -->
      <g transform="translate(33.2775 25.243844) scale(0.1 -0.1)">
       <use xlink:href="#DejaVuSans-33"/>
      </g>
     </g>
    </g>
    <g id="text_19">
     <!-- Phase [rad] -->
     <g transform="translate(18.818125 121.133281) rotate(-90) scale(0.1 -0.1)">
      <defs>
       <path id="DejaVuSans-50" d="M 1259 4147 
L 1259 2394 
L 2053 2394 
Q 2494 2394 2734 2622 
Q 2975 2850 2975 3272 
Q 2975 3691 2734 3919 
Q 2494 4147 2053 4147 
L 1259 4147 
z
M 628 4666 
L 2053 4666 
Q 2838 4666 3239 4311 
Q 3641 3956 3641 3272 
Q 3641 2581 3239 2228 
Q 2838 1875 2053 1875 
L 1259 1875 
L 1259 0 
L 628 0 
L 628 4666 
z
" transform="scale(0.015625)"/>
       <path id="DejaVuSans-68" d="M 3513 2113 
L 3513 0 
L 2938 0 
L 2938 2094 
Q 2938 2591 2744 2837 
Q 2550 3084 2163 3084 
Q 1697 3084 1428 2787 
Q 1159 2491 1159 1978 
L 1159 0 
L 581 0 
L 581 4863 
L 1159 4863 
L 1159 2956 
Q 1366 3272 1645 3428 
Q 1925 3584 2291 3584 
Q 2894 3584 3203 3211 
Q 3513 2838 3513 2113 
z
" transform="scale(0.015625)"/>
       <path id="DejaVuSans-61" d="M 2194 1759 
Q 1497 1759 1228 1600 
Q 959 1441 959 1056 
Q 959 750 1161 570 
Q 1363 391 1709 391 
Q 2188 391 2477 730 
Q 2766 1069 2766 1631 
L 2766 1759 
L 2194 1759 
z
M 3341 1997 
L 3341 0 
L 2766 0 
L 2766 531 
Q 2569 213 2275 61 
Q 1981 -91 1556 -91 
Q 1019 -91 701 211 
Q 384 513 384 1019 
Q 384 1609 779 1909 
Q 1175 2209 1959 2209 
L 2766 2209 
L 2766 2266 
Q 2766 2663 2505 2880 
Q 2244 3097 1772 3097 
Q 1472 3097 1187 3025 
Q 903 2953 641 2809 
L 641 3341 
Q 956 3463 1253 3523 
Q 1550 3584 1831 3584 
Q 2591 3584 2966 3190 
Q 3341 2797 3341 1997 
z
" transform="scale(0.015625)"/>
       <path id="DejaVuSans-73" d="M 2834 3397 
L 2834 2853 
Q 2591 2978 2328 3040 
Q 2066 3103 1784 3103 
Q 1356 3103 1142 2972 
Q 928 2841 928 2578 
Q 928 2378 1081 2264 
Q 1234 2150 1697 2047 
L 1894 2003 
Q 2506 1872 2764 1633 
Q 3022 1394 3022 966 
Q 3022 478 2636 193 
Q 2250 -91 1575 -91 
Q 1294 -91 989 -36 
Q 684 19 347 128 
L 347 722 
Q 666 556 975 473 
Q 1284 391 1588 391 
Q 1994 391 2212 530 
Q 2431 669 2431 922 
Q 2431 1156 2273 1281 
Q 2116 1406 1581 1522 
L 1381 1569 
Q 847 1681 609 1914 
Q 372 2147 372 2553 
Q 372 3047 722 3315 
Q 1072 3584 1716 3584 
Q 2034 3584 2315 3537 
Q 2597 3491 2834 3397 
z
" transform="scale(0.015625)"/>
       <path id="DejaVuSans-64" d="M 2906 2969 
L 2906 4863 
L 3481 4863 
L 3481 0 
L 2906 0 
L 2906 525 
Q 2725 213 2448 61 
Q 2172 -91 1784 -91 
Q 1150 -91 751 415 
Q 353 922 353 1747 
Q 353 2572 751 3078 
Q 1150 3584 1784 3584 
Q 2172 3584 2448 3432 
Q 2725 3281 2906 2969 
z
M 947 1747 
Q 947 1113 1208 752 
Q 1469 391 1925 391 
Q 2381 391 2643 752 
Q 2906 1113 2906 1747 
Q 2906 2381 2643 2742 
Q 2381 3103 1925 3103 
Q 1469 3103 1208 2742 
Q 947 2381 947 1747 
z
" transform="scale(0.015625)"/>
      </defs>
      <use xlink:href="#DejaVuSans-50"/>
      <use xlink:href="#DejaVuSans-68" x="60.302734"/>
      <use xlink:href="#DejaVuSans-61" x="123.681641"/>
      <use xlink:href="#DejaVuSans-73" x="184.960938"/>
      <use xlink:href="#DejaVuSans-65" x="237.060547"/>
      <use xlink:href="#DejaVuSans-20" x="298.583984"/>
      <use xlink:href="#DejaVuSans-5b" x="330.371094"/>
      <use xlink:href="#DejaVuSans-72" x="369.384766"/>
      <use xlink:href="#DejaVuSans-61" x="410.498047"/>
      <use xlink:href="#DejaVuSans-64" x="471.777344"/>
      <use xlink:href="#DejaVuSans-5d" x="535.253906"/>
     </g>
    </g>
   </g>
   <g id="line2d_71">
    <path d="M 46.64 94.143568 
L 49.519088 94.23353 
L 52.433075 94.329792 
L 55.324203 94.430773 
L 58.229307 94.538046 
L 61.098566 94.650031 
L 64.003796 94.769875 
L 66.895931 94.895997 
L 69.801992 95.029965 
L 72.68001 95.170196 
L 75.585667 95.31983 
L 78.478205 95.47728 
L 81.351383 95.642533 
L 84.250439 95.81872 
L 87.139267 96.004249 
L 90.033739 96.200669 
L 92.924715 96.407952 
L 95.824638 96.627637 
L 98.723811 96.859685 
L 101.614036 97.104054 
L 104.5055 97.362257 
L 107.405886 97.635797 
L 110.29025 97.92304 
L 113.181714 98.227023 
L 116.084579 98.549203 
L 118.975846 98.887903 
L 121.861255 99.244544 
L 124.756596 99.622064 
L 127.652059 100.020266 
L 130.54967 100.440466 
L 133.440799 100.882405 
L 136.327433 101.347316 
L 139.228266 101.839418 
L 142.116261 102.355242 
L 145.00862 102.898857 
L 147.903807 103.471189 
L 150.800101 104.073068 
L 153.689041 104.703729 
L 156.582295 105.366732 
L 159.476852 106.0625 
L 162.369832 106.791294 
L 165.2638 107.554634 
L 168.15534 108.352378 
L 171.050778 109.186962 
L 173.945711 110.057705 
L 176.836173 110.963672 
L 179.730632 111.907668 
L 182.62399 112.888022 
L 185.515317 113.904048 
L 188.410234 114.957165 
L 191.303117 116.044473 
L 194.195113 117.16515 
L 197.089575 118.318988 
L 199.983274 119.50285 
L 202.875756 120.714294 
L 205.768655 121.951427 
L 208.662825 123.211743 
L 211.55631 124.491196 
L 214.44916 125.786323 
L 217.342921 127.094114 
L 220.236529 128.410206 
L 223.128689 129.729994 
L 226.022867 131.050978 
L 228.915143 132.367291 
L 231.80931 133.676632 
L 234.702365 134.973736 
L 237.595419 136.25538 
L 240.488914 137.518255 
L 243.381571 138.758573 
L 246.275272 139.974208 
L 249.168952 141.162091 
L 252.062306 142.319838 
L 254.955591 143.445636 
L 257.848563 144.537825 
L 260.741428 145.595252 
L 263.634699 146.617179 
L 266.528336 147.602961 
L 269.421137 148.551855 
L 272.315077 149.464415 
L 275.208082 150.340119 
L 278.101075 151.179599 
L 280.994347 151.983441 
L 283.887677 152.752232 
L 286.78095 153.486715 
L 289.674593 154.187871 
L 292.56758 154.856411 
L 295.460811 155.493569 
L 298.354145 156.100372 
L 301.247407 156.677876 
L 304.14074 157.227223 
L 307.03381 157.749475 
L 309.927212 158.245856 
L 312.82035 158.717376 
L 315.713767 159.165218 
L 318.606891 159.59037 
L 321.500388 159.993981 
L 324.393598 160.376982 
L 327.286716 160.740396 
L 330.180118 161.085231 
L 333.073441 161.412371 
L 335.966543 161.722699 
L 338.8598 162.017116 
L 341.753064 162.296435 
L 344.646438 162.56146 
L 347.539711 162.812931 
L 350.43287 163.051578 
L 353.326164 163.27812 
L 356.219479 163.493213 
L 359.112779 163.697493 
L 362.00595 163.891562 
L 364.899245 164.076021 
L 367.792528 164.251417 
L 370.685848 164.418288 
L 373.579084 164.577136 
L 376.472327 164.728456 
L 379.365632 164.872719 
L 382.258836 165.010369 
L 385.152132 165.141847 
L 388.045367 165.267565 
L 390.938662 165.387933 
L 393.831921 165.50334 
L 396.725175 165.614169 
L 399.618464 165.720798 
L 402.511758 165.823594 
L 405.405 165.922923 
" clip-path="url(#pdfa8d8bb9f)" style="fill: none; stroke: #1f77b4; stroke-width: 1.5; stroke-linecap: square"/>
   </g>
   <g id="line2d_72">
    <path d="M 46.64 94.275604 
L 49.519088 94.373092 
L 52.433075 94.477408 
L 55.324203 94.586839 
L 58.229307 94.703091 
L 61.098566 94.824449 
L 64.003796 94.954329 
L 66.895931 95.091013 
L 69.801992 95.236205 
L 72.68001 95.388186 
L 75.585667 95.550363 
L 78.478205 95.721016 
L 81.351383 95.900133 
L 84.250439 96.091108 
L 87.139267 96.292216 
L 90.033739 96.50514 
L 92.924715 96.729851 
L 95.824638 96.968021 
L 98.723811 97.219609 
L 101.614036 97.484574 
L 104.5055 97.764562 
L 107.405886 98.061207 
L 110.29025 98.372742 
L 113.181714 98.702471 
L 116.084579 99.051979 
L 118.975846 99.41946 
L 121.861255 99.806466 
L 124.756596 100.216198 
L 127.652059 100.648459 
L 130.54967 101.1047 
L 133.440799 101.584658 
L 136.327433 102.089699 
L 139.228266 102.624439 
L 142.116261 103.185143 
L 145.00862 103.776276 
L 147.903807 104.398898 
L 150.800101 105.053967 
L 153.689041 105.74072 
L 156.582295 106.463112 
L 159.476852 107.221696 
L 162.369832 108.016866 
L 165.2638 108.850403 
L 168.15534 109.722297 
L 171.050778 110.635379 
L 173.945711 111.589097 
L 176.836173 112.582647 
L 179.730632 113.619359 
L 182.62399 114.697692 
L 185.515317 115.817219 
L 188.410234 116.979884 
L 191.303117 118.182914 
L 194.195113 119.425878 
L 197.089575 120.709088 
L 199.983274 122.029664 
L 202.875756 123.385552 
L 205.768655 124.775374 
L 208.662825 126.197139 
L 211.55631 127.647182 
L 214.44916 129.122551 
L 217.342921 130.620872 
L 220.236529 132.138287 
L 223.128689 133.670688 
L 226.022867 135.216464 
L 228.915143 136.770101 
L 231.80931 138.330305 
L 234.702365 139.892282 
L 237.595419 141.453664 
L 240.488914 143.011984 
L 243.381571 144.564154 
L 246.275272 146.109119 
L 249.168952 147.644605 
L 252.062306 149.169129 
L 254.955591 150.681883 
L 257.848563 152.182182 
L 260.741428 153.66994 
L 263.634699 155.145575 
L 266.528336 156.609545 
L 269.421137 158.06203 
L 272.315077 159.505078 
L 275.208082 160.938946 
L 278.101075 162.365596 
L 280.994347 163.786835 
L 283.887677 165.204356 
L 286.78095 166.62 
L 289.674593 19.083836 
L 292.56758 20.501545 
L 295.460811 21.923441 
L 298.354145 23.351382 
L 301.247407 24.787127 
L 304.14074 26.232469 
L 307.03381 27.688812 
L 309.927212 29.157835 
L 312.82035 30.640394 
L 315.713767 32.137667 
L 318.606891 33.649972 
L 321.500388 35.177957 
L 324.393598 36.721236 
L 327.286716 38.279519 
L 330.180118 39.852248 
L 333.073441 41.438099 
L 335.966543 43.035493 
L 338.8598 44.642791 
L 341.753064 46.257732 
L 344.646438 47.877899 
L 347.539711 49.500449 
L 350.43287 51.122441 
L 353.326164 52.74094 
L 356.219479 54.352723 
L 359.112779 55.954593 
L 362.00595 57.543359 
L 364.899245 59.116145 
L 367.792528 60.670034 
L 370.685848 62.202435 
L 373.579084 63.710945 
L 376.472327 65.193584 
L 379.365632 66.648696 
L 382.258836 68.074883 
L 385.152132 69.471301 
L 388.045367 70.837326 
L 390.938662 72.172853 
L 393.831921 73.47806 
L 396.725175 74.753567 
L 399.618464 76.000369 
L 402.511758 77.219802 
L 405.405 78.413565 
" clip-path="url(#pdfa8d8bb9f)" style="fill: none; stroke: #ff7f0e; stroke-width: 1.5; stroke-linecap: square"/>
   </g>
   <g id="line2d_73">
    <path d="M 46.64 18.22 
L 49.519088 18.227526 
L 52.433075 18.23558 
L 55.324203 18.24403 
L 58.229307 18.253009 
L 61.098566 18.262383 
L 64.003796 18.272418 
L 66.895931 18.282981 
L 69.801992 18.294203 
L 72.68001 18.305954 
L 75.585667 18.318498 
L 78.478205 18.331701 
L 81.351383 18.345564 
L 84.250439 18.360352 
L 87.139267 18.375932 
L 90.033739 18.392436 
L 92.924715 18.409864 
L 95.824638 18.428348 
L 98.723811 18.447888 
L 101.614036 18.468485 
L 104.5055 18.490269 
L 107.405886 18.513374 
L 110.29025 18.537667 
L 113.181714 18.563411 
L 116.084579 18.59074 
L 118.975846 18.619521 
L 121.861255 18.649886 
L 124.756596 18.682098 
L 127.652059 18.716158 
L 130.54967 18.752198 
L 133.440799 18.790217 
L 136.327433 18.830347 
L 139.228266 18.872985 
L 142.116261 18.917865 
L 145.00862 18.965384 
L 147.903807 19.015673 
L 150.800101 19.068863 
L 153.689041 19.124955 
L 156.582295 19.184344 
L 159.476852 19.24716 
L 162.369832 19.313536 
L 165.2638 19.383733 
L 168.15534 19.457884 
L 171.050778 19.536381 
L 173.945711 19.619356 
L 176.836173 19.706939 
L 179.730632 19.799655 
L 182.62399 19.897634 
L 185.515317 20.001135 
L 188.410234 20.110683 
L 191.303117 20.226405 
L 194.195113 20.348692 
L 197.089575 20.478065 
L 199.983274 20.614779 
L 202.875756 20.759222 
L 205.768655 20.911911 
L 208.662825 21.07336 
L 211.55631 21.243951 
L 214.44916 21.424192 
L 217.342921 21.614723 
L 220.236529 21.816045 
L 223.128689 22.028659 
L 226.022867 22.253449 
L 228.915143 22.490774 
L 231.80931 22.741637 
L 234.702365 23.00651 
L 237.595419 23.286248 
L 240.488914 23.581694 
L 243.381571 23.893545 
L 246.275272 24.222875 
L 249.168952 24.570478 
L 252.062306 24.937255 
L 254.955591 25.324211 
L 257.848563 25.732321 
L 260.741428 26.162652 
L 263.634699 26.61636 
L 266.528336 27.094548 
L 269.421137 27.59814 
L 272.315077 28.128627 
L 275.208082 28.686792 
L 278.101075 29.273961 
L 280.994347 29.891358 
L 283.887677 30.540088 
L 286.78095 31.221249 
L 289.674593 31.936029 
L 292.56758 32.685197 
L 295.460811 33.469936 
L 298.354145 34.291075 
L 301.247407 35.149315 
L 304.14074 36.045309 
L 307.03381 36.979401 
L 309.927212 37.952043 
L 312.82035 38.963082 
L 315.713767 40.012513 
L 318.606891 41.099665 
L 321.500388 42.224039 
L 324.393598 43.384318 
L 327.286716 44.579187 
L 330.180118 45.807081 
L 333.073441 47.065791 
L 335.966543 48.352858 
L 338.8598 49.665738 
L 341.753064 51.00136 
L 344.646438 52.356503 
L 347.539711 53.727582 
L 350.43287 55.110927 
L 353.326164 56.502885 
L 356.219479 57.899574 
L 359.112779 59.297164 
L 362.00595 60.691861 
L 364.899245 62.080188 
L 367.792528 63.45868 
L 370.685848 64.824211 
L 373.579084 66.173873 
L 376.472327 67.505192 
L 379.365632 68.816041 
L 382.258836 70.104578 
L 385.152132 71.369518 
L 388.045367 72.609825 
L 390.938662 73.824983 
L 393.831921 75.014784 
L 396.725175 76.179461 
L 399.618464 77.319635 
L 402.511758 78.436272 
L 405.405 79.530705 
" clip-path="url(#pdfa8d8bb9f)" style="fill: none; stroke: #2ca02c; stroke-width: 1.5; stroke-linecap: square"/>
   </g>
   <g id="line2d_74">
    <path d="M 46.64 94.143692 
L 49.519088 94.233676 
L 52.433075 94.329965 
L 55.324203 94.430977 
L 58.229307 94.538287 
L 61.098566 94.650315 
L 64.003796 94.770212 
L 66.895931 94.896395 
L 69.801992 95.030435 
L 72.68001 95.170751 
L 75.585667 95.320486 
L 78.478205 95.478055 
L 81.351383 95.643447 
L 84.250439 95.819801 
L 87.139267 96.005526 
L 90.033739 96.202177 
L 92.924715 96.409733 
L 95.824638 96.629742 
L 98.723811 96.862172 
L 101.614036 97.10699 
L 104.5055 97.365724 
L 107.405886 97.639893 
L 110.29025 97.927873 
L 113.181714 98.232728 
L 116.084579 98.55594 
L 118.975846 98.895853 
L 121.861255 99.25392 
L 124.756596 99.633126 
L 127.652059 100.033314 
L 130.54967 100.455857 
L 133.440799 100.900546 
L 136.327433 101.368687 
L 139.228266 101.864607 
L 142.116261 102.384897 
L 145.00862 102.933765 
L 147.903807 103.51227 
L 150.800101 104.12139 
L 153.689041 104.760515 
L 156.582295 105.433441 
L 159.476852 106.140817 
L 162.369832 106.883163 
L 165.2638 107.662318 
L 168.15534 108.478469 
L 171.050778 109.334494 
L 173.945711 110.23013 
L 176.836173 111.164906 
L 179.730632 112.142274 
L 182.62399 113.161134 
L 185.515317 114.221473 
L 188.410234 115.325557 
L 191.303117 116.471217 
L 194.195113 117.658533 
L 197.089575 118.888331 
L 199.983274 120.158407 
L 202.875756 121.46735 
L 205.768655 122.814414 
L 208.662825 124.198257 
L 211.55631 125.61589 
L 214.44916 127.064978 
L 217.342921 128.543713 
L 220.236529 130.048761 
L 223.128689 131.576456 
L 226.022867 133.125534 
L 228.915143 134.690729 
L 231.80931 136.270904 
L 234.702365 137.861279 
L 237.595419 139.459414 
L 240.488914 141.062661 
L 243.381571 142.667629 
L 246.275272 144.272926 
L 249.168952 145.875816 
L 252.062306 147.474306 
L 254.955591 149.067054 
L 257.848563 150.652799 
L 260.741428 152.230882 
L 263.634699 153.801166 
L 266.528336 155.363548 
L 269.421137 156.917635 
L 272.315077 158.465034 
L 275.208082 160.005463 
L 278.101075 161.54048 
L 280.994347 163.071509 
L 283.887677 164.599872 
L 286.78095 166.127077 
L 289.674593 18.702905 
L 292.56758 20.232718 
L 295.460811 21.766596 
L 298.354145 23.306136 
L 301.247407 24.85283 
L 304.14074 26.40822 
L 307.03381 27.973421 
L 309.927212 29.549845 
L 312.82035 31.138011 
L 315.713767 32.738777 
L 318.606891 34.352069 
L 321.500388 35.978158 
L 324.393598 37.616202 
L 327.286716 39.265456 
L 330.180118 40.92489 
L 333.073441 42.592667 
L 335.966543 44.266696 
L 338.8598 45.94484 
L 341.753064 47.624345 
L 344.646438 49.302332 
L 347.539711 50.975534 
L 350.43287 52.640651 
L 353.326164 54.294459 
L 356.219479 55.93352 
L 359.112779 57.554517 
L 362.00595 59.154232 
L 364.899245 60.729861 
L 367.792528 62.27865 
L 370.685848 63.798264 
L 373.579084 65.286634 
L 376.472327 66.742186 
L 379.365632 68.163723 
L 382.258836 69.55035 
L 385.152132 70.901746 
L 388.045367 72.217829 
L 390.938662 73.499024 
L 393.831921 74.746027 
L 396.725175 75.959947 
L 399.618464 77.142229 
L 402.511758 78.294616 
L 405.405 79.419157 
" clip-path="url(#pdfa8d8bb9f)" style="fill: none; stroke: #d62728; stroke-width: 1.5; stroke-linecap: square"/>
   </g>
   <g id="patch_3">
    <path d="M 46.64 174.04 
L 46.64 10.8 
" style="fill: none; stroke: #000000; stroke-width: 0.8; stroke-linejoin: miter; stroke-linecap: square"/>
   </g>
   <g id="patch_4">
    <path d="M 405.405 174.04 
L 405.405 10.8 
" style="fill: none; stroke: #000000; stroke-width: 0.8; stroke-linejoin: miter; stroke-linecap: square"/>
   </g>
   <g id="patch_5">
    <path d="M 46.64 174.04 
L 405.405 174.04 
" style="fill: none; stroke: #000000; stroke-width: 0.8; stroke-linejoin: miter; stroke-linecap: square"/>
   </g>
   <g id="patch_6">
    <path d="M 46.64 10.8 
L 405.405 10.8 
" style="fill: none; stroke: #000000; stroke-width: 0.8; stroke-linejoin: miter; stroke-linecap: square"/>
   </g>
   <g id="legend_1">
    <g id="patch_7">
     <path d="M 53.64 169.04 
L 108.505625 169.04 
Q 110.505625 169.04 110.505625 167.04 
L 110.505625 109.3275 
Q 110.505625 107.3275 108.505625 107.3275 
L 53.64 107.3275 
Q 51.64 107.3275 51.64 109.3275 
L 51.64 167.04 
Q 51.64 169.04 53.64 169.04 
z
" style="fill: #ffffff; opacity: 0.8; stroke: #cccccc; stroke-linejoin: miter"/>
    </g>
    <g id="line2d_75">
     <path d="M 55.64 115.425938 
L 65.64 115.425938 
L 75.64 115.425938 
" style="fill: none; stroke: #1f77b4; stroke-width: 1.5; stroke-linecap: square"/>
    </g>
    <g id="text_20">
     <!-- LF -->
     <g transform="translate(83.64 118.925938) scale(0.1 -0.1)">
      <defs>
       <path id="DejaVuSans-4c" d="M 628 4666 
L 1259 4666 
L 1259 531 
L 3531 531 
L 3531 0 
L 628 0 
L 628 4666 
z
" transform="scale(0.015625)"/>
      </defs>
      <use xlink:href="#DejaVuSans-4c"/>
      <use xlink:href="#DejaVuSans-46" x="55.712891"/>
     </g>
    </g>
    <g id="line2d_76">
     <path d="M 55.64 130.104062 
L 65.64 130.104062 
L 75.64 130.104062 
" style="fill: none; stroke: #ff7f0e; stroke-width: 1.5; stroke-linecap: square"/>
    </g>
    <g id="text_21">
     <!-- MF -->
     <g transform="translate(83.64 133.604062) scale(0.1 -0.1)">
      <defs>
       <path id="DejaVuSans-4d" d="M 628 4666 
L 1569 4666 
L 2759 1491 
L 3956 4666 
L 4897 4666 
L 4897 0 
L 4281 0 
L 4281 4097 
L 3078 897 
L 2444 897 
L 1241 4097 
L 1241 0 
L 628 0 
L 628 4666 
z
" transform="scale(0.015625)"/>
      </defs>
      <use xlink:href="#DejaVuSans-4d"/>
      <use xlink:href="#DejaVuSans-46" x="86.279297"/>
     </g>
    </g>
    <g id="line2d_77">
     <path d="M 55.64 144.782188 
L 65.64 144.782188 
L 75.64 144.782188 
" style="fill: none; stroke: #2ca02c; stroke-width: 1.5; stroke-linecap: square"/>
    </g>
    <g id="text_22">
     <!-- HF -->
     <g transform="translate(83.64 148.282188) scale(0.1 -0.1)">
      <use xlink:href="#DejaVuSans-48"/>
      <use xlink:href="#DejaVuSans-46" x="75.195312"/>
     </g>
    </g>
    <g id="line2d_78">
     <path d="M 55.64 159.460313 
L 65.64 159.460313 
L 75.64 159.460313 
" style="fill: none; stroke: #d62728; stroke-width: 1.5; stroke-linecap: square"/>
    </g>
    <g id="text_23">
     <!-- total -->
     <g transform="translate(83.64 162.960313) scale(0.1 -0.1)">
      <defs>
       <path id="DejaVuSans-74" d="M 1172 4494 
L 1172 3500 
L 2356 3500 
L 2356 3053 
L 1172 3053 
L 1172 1153 
Q 1172 725 1289 603 
Q 1406 481 1766 481 
L 2356 481 
L 2356 0 
L 1766 0 
Q 1100 0 847 248 
Q 594 497 594 1153 
L 594 3053 
L 172 3053 
L 172 3500 
L 594 3500 
L 594 4494 
L 1172 4494 
z
" transform="scale(0.015625)"/>
       <path id="DejaVuSans-6f" d="M 1959 3097 
Q 1497 3097 1228 2736 
Q 959 2375 959 1747 
Q 959 1119 1226 758 
Q 1494 397 1959 397 
Q 2419 397 2687 759 
Q 2956 1122 2956 1747 
Q 2956 2369 2687 2733 
Q 2419 3097 1959 3097 
z
M 1959 3584 
Q 2709 3584 3137 3096 
Q 3566 2609 3566 1747 
Q 3566 888 3137 398 
Q 2709 -91 1959 -91 
Q 1206 -91 779 398 
Q 353 888 353 1747 
Q 353 2609 779 3096 
Q 1206 3584 1959 3584 
z
" transform="scale(0.015625)"/>
       <path id="DejaVuSans-6c" d="M 603 4863 
L 1178 4863 
L 1178 0 
L 603 0 
L 603 4863 
z
" transform="scale(0.015625)"/>
      </defs>
      <use xlink:href="#DejaVuSans-74"/>
      <use xlink:href="#DejaVuSans-6f" x="39.208984"/>
      <use xlink:href="#DejaVuSans-74" x="100.390625"/>
      <use xlink:href="#DejaVuSans-61" x="139.599609"/>
      <use xlink:href="#DejaVuSans-6c" x="200.878906"/>
     </g>
    </g>
   </g>
  </g>
 </g>
 <defs>
  <clipPath id="pdfa8d8bb9f">
   <rect x="46.64" y="10.8" width="358.765" height="163.24"/>
  </clipPath>
 </defs>
</svg>
