<?xml version="1.0" encoding="UTF-8" standalone="no"?>
<!-- Created with Inkscape (http://www.inkscape.org/) -->

<svg
   version="1.1"
   id="svg1"
   width="608.98132"
   height="113.02667"
   viewBox="0 0 608.98132 113.02667"
   sodipodi:docname="electroacoustic_driver.svg"
   inkscape:version="1.4 (e7c3feb100, 2024-10-09)"
   xmlns:inkscape="http://www.inkscape.org/namespaces/inkscape"
   xmlns:sodipodi="http://sodipodi.sourceforge.net/DTD/sodipodi-0.dtd"
   xmlns="http://www.w3.org/2000/svg"
   xmlns:svg="http://www.w3.org/2000/svg">
  <defs
     id="defs1" />
  <sodipodi:namedview
     id="namedview1"
     pagecolor="#ffffff"
     bordercolor="#000000"
     borderopacity="0.25"
     inkscape:showpageshadow="2"
     inkscape:pageopacity="0.0"
     inkscape:pagecheckerboard="0"
     inkscape:deskcolor="#d1d1d1"
     inkscape:zoom="1.3712951"
     inkscape:cx="283.67344"
     inkscape:cy="41.201927"
     inkscape:window-width="1280"
     inkscape:window-height="952"
     inkscape:window-x="0"
     inkscape:window-y="0"
     inkscape:window-maximized="1"
     inkscape:current-layer="g1">
    <inkscape:page
       x="0"
       y="0"
       inkscape:label="1"
       id="page1"
       width="608.98132"
       height="113.02667"
       margin="0"
       bleed="0" />
  </sodipodi:namedview>
  <g
     id="g1"
     inkscape:groupmode="layer"
     inkscape:label="1">
    <path
       id="path1"
       d="m 0,0 v 16.44109 m -15.71558,2.83189 V 37.42061 M 0,40.25252 v 16.4411 h 16.44109 m 23.81143,0 h 16.4411 12.47261 m 31.74838,0 h 12.47263 V 28.3468 M 106.24358,15.41356 V 41.28004 M 113.38724,28.3468 V 0 H 0 m 113.38724,36.85092 c 4.69674,0 8.50412,-3.80736 8.50412,-8.50412 0,-4.69676 -3.80738,-8.50412 -8.50412,-8.50412 M 141.73404,0 l -2e-5,28.3468 m 7.14367,-12.93324 v 25.86648 m -7.14367,-12.93324 2e-5,28.34682 m 0,-19.8427 c -4.69676,0 -8.50412,-3.80736 -8.50412,-8.50412 0,-4.69676 3.80736,-8.50412 8.50412,-8.50412 m 0,36.85094 h 12.47259 m 31.7484,0 h 12.47263 16.44108 m 23.81144,0 h 16.4411 10.20492 m 7.93695,0 h 10.20495 v -16.4411 m 0,-23.81143 V 0 H 141.73404 m 170.08086,0 -2e-5,16.44109 m 6.44881,-6.98039 v 37.77221 m -6.44881,-6.98039 2e-5,16.4411 h 16.44108 m 23.81143,0 h 16.4411 12.47261 m 31.74838,0 h 12.47263 M 311.8149,0 h 56.6936 m 0,0 h 56.69363"
       style="fill:none;stroke:#000000;stroke-width:0.3985;stroke-linecap:butt;stroke-linejoin:miter;stroke-miterlimit:10;stroke-dasharray:none;stroke-opacity:1"
       transform="matrix(1.3333333,0,0,-1.3333333,39.670667,110.64533)" />
    <path
       id="path2"
       d="m -11.90572,28.3468 c 0,-6.57542 5.33031,-11.90571 11.90572,-11.90571 6.57541,0 11.90572,5.33029 11.90572,11.90571 0,6.57543 -5.33031,11.90572 -11.90572,11.90572 -6.57541,0 -11.90572,-5.33029 -11.90572,-11.90572 z"
       style="fill:none;stroke:#000000;stroke-width:0.797;stroke-linecap:butt;stroke-linejoin:miter;stroke-miterlimit:10;stroke-dasharray:none;stroke-opacity:1"
       transform="matrix(1.3333333,0,0,-1.3333333,39.670667,110.64533)" />
    <path
       id="path3"
       d="M 5.95285,28.3468 C 4.98253,26.82289 4.0539,25.37038 2.97643,25.37038 c -1.07747,0 -2.00611,1.4525 -2.97643,2.97642 -0.9703,1.52391 -1.89894,2.97643 -2.97643,2.97643 -1.07745,0 -2.00608,-1.4525 -2.97642,-2.97643"
       style="fill:none;stroke:#000000;stroke-width:0.797;stroke-linecap:butt;stroke-linejoin:miter;stroke-miterlimit:10;stroke-dasharray:none;stroke-opacity:1"
       transform="matrix(1.3333333,0,0,-1.3333333,39.670667,110.64533)" />
    <path
       id="path4"
       d="m -15.71558,33.20406 h 1.98426 l -1.98426,4.21655 -1.98425,-4.21655 z"
       style="fill:#000000;fill-opacity:1;fill-rule:nonzero;stroke:#000000;stroke-width:0.3985;stroke-linecap:butt;stroke-linejoin:miter;stroke-miterlimit:10;stroke-dasharray:none;stroke-opacity:1"
       transform="matrix(1.3333333,0,0,-1.3333333,39.670667,110.64533)" />
    <path
       id="path5"
       d="m 5.7999687,-2.2978359 c 0,1.40624996 -0.9726562,2.20312496 -1.9101562,2.20312496 -0.46875,0 -1.6523438,-0.24609375 -1.6523438,-2.13281246 v -3.796875 c 0,-0.3632813 0.023437,-0.46875 0.7851563,-0.46875 h 0.2460937 v -0.3164063 c -0.3515625,0.035156 -1.0898437,0.035156 -1.4648437,0.035156 -0.375,0 -1.125,0 -1.4765625,-0.035156 v 0.3164063 h 0.234375 c 0.7734375,0 0.796875,0.1054687 0.796875,0.46875 v 3.75 c 0,1.40624996 1.1484375,2.49609371 2.5078125,2.49609371 1.1484375,0 2.0390625,-0.92578125 2.2148437,-2.06250001 0.023437,-0.1992187 0.023437,-0.2929687 0.023437,-0.6914062 v -3.1875 c 0,-0.328125 0,-0.7734375 1.03125,-0.7734375 v -0.3164063 c -0.3632812,0.011719 -0.84375,0.035156 -1.1835937,0.035156 -0.3398438,0 -0.8203125,-0.023437 -1.1835938,-0.035156 v 0.3164063 c 1.03125,0 1.03125,0.46875 1.03125,0.7382812 z m 0,0"
       style="fill:#000000;fill-opacity:1;fill-rule:nonzero;stroke:none"
       aria-label="U"
       transform="matrix(1.3333333,0,0,1.3333333,2.6573333,77.388)" />
    <path
       id="path6"
       d="m 16.04257,56.53423 c 0,3.28768 1.63475,5.95285 3.65135,5.95285 2.01661,0 3.65136,-2.66517 3.65136,-5.95285 0,-1.64377 -0.66626,-2.97628 -1.48815,-2.97628 -0.82187,0 -1.48813,1.33251 -1.48813,2.97628 0,3.28768 1.63475,5.95285 3.65136,5.95285 2.0166,0 3.65133,-2.66517 3.65133,-5.95285 0,-1.64377 -0.66624,-2.97628 -1.48813,-2.97628 -0.82188,0 -1.48814,1.33251 -1.48814,2.97628 0,3.28768 1.63475,5.95285 3.65135,5.95285 2.0166,0 3.65135,-2.66517 3.65135,-5.95285 0,-1.64377 -0.66626,-2.97628 -1.48814,-2.97628 -0.82187,0 -1.48813,1.33251 -1.48813,2.97628 0,3.28768 1.63474,5.95285 3.65134,5.95285 2.01661,0 3.65135,-2.66517 3.65135,-5.95285 0,-1.64377 -0.66626,-2.97628 -1.48813,-2.97628 -0.82188,0 -1.48814,1.33251 -1.48814,2.97628 0,3.28768 1.63475,5.95285 3.65135,5.95285 2.0166,0 3.65135,-2.66517 3.65135,-5.95285"
       style="fill:none;stroke:#000000;stroke-width:0.797;stroke-linecap:butt;stroke-linejoin:bevel;stroke-miterlimit:10;stroke-dasharray:none;stroke-opacity:1"
       transform="matrix(1.3333333,0,0,-1.3333333,39.670667,110.64533)" />
    <path
       id="path7"
       d="M 5.8012422,-2.5660391 H 5.5434297 C 5.4379609,-1.5582266 5.2973359,-0.30432031 3.5512422,-0.30432031 H 2.7309297 c -0.46875,0 -0.4921875,-0.0703125 -0.4921875,-0.3984375 V -6.0113516 c 0,-0.3398437 0,-0.4804687 0.9492187,-0.4804687 h 0.328125 v -0.3164063 c -0.3632812,0.035156 -1.265625,0.035156 -1.6757812,0.035156 -0.3867188,0 -1.16015626,0 -1.51171876,-0.035156 v 0.3164063 h 0.234375 c 0.77343746,0 0.79687496,0.1054687 0.79687496,0.46875 v 5.24999999 c 0,0.3515625 -0.023437,0.46875 -0.79687496,0.46875 h -0.234375 V 3.671875e-4 H 5.5199922 Z m 1.5380859,0.058594 c 0.058594,-1.4882813 0.9023438,-1.734375 1.2421875,-1.734375 1.0195313,0 1.125,1.3476562 1.125,1.734375 z m -0.011719,0.2109375 h 2.7890629 c 0.210937,0 0.246094,0 0.246094,-0.2109375 0,-0.984375 -0.5390632,-1.9570313 -1.7812507,-1.9570313 -1.1601562,0 -2.0742187,1.03125 -2.0742187,2.2734375 0,1.33593754 1.0429687,2.29687504 2.1914062,2.29687504 1.21875,0 1.6640632,-1.1015625 1.6640632,-1.28906254 0,-0.1054687 -0.08203,-0.1171875 -0.128907,-0.1171875 -0.09375,0 -0.117187,0.058594 -0.128906,0.140625 -0.3515627,1.01953129 -1.2539064,1.01953129 -1.3476564,1.01953129 -0.5039063,0 -0.9023438,-0.29296875 -1.125,-0.66796875 C 7.3276094,-1.2886953 7.3276094,-1.9449453 7.3276091,-2.2965076 Z m 0,0"
       style="fill:#000000;fill-opacity:1;fill-rule:nonzero;stroke:none"
       aria-label="Le"
       transform="matrix(1.3333333,0,0,1.3333333,70.362667,22.034667)" />
    <path
       id="path8"
       d="m 46.73685,56.69362 v -1.98425 l 4.21653,1.98425 -4.21653,1.98425 z"
       style="fill:#000000;fill-opacity:1;fill-rule:nonzero;stroke:#000000;stroke-width:0.3985;stroke-linecap:butt;stroke-linejoin:miter;stroke-miterlimit:10;stroke-dasharray:none;stroke-opacity:1"
       transform="matrix(1.3333333,0,0,-1.3333333,39.670667,110.64533)" />
    <path
       id="path9"
       d="M 1.7566562,-4.4047891 0.362125,-4.2876016 v 0.3046875 c 0.65625,0 0.7382812,0.058594 0.7382812,0.5507813 v 2.67187499 c 0,0.45703125 -0.1054687,0.45703125 -0.77343745,0.45703125 v 0.3046875 C 0.643375,-0.01025781 1.1824375,-0.03369531 1.4285312,-0.03369531 c 0.3398438,0 0.6914063,0.0234375 1.03125,0.03515625 v -0.3046875 c -0.65625,0 -0.703125,-0.0585938 -0.703125,-0.4453125 z m 0.046875,-1.734375 c 0,-0.3164062 -0.2460937,-0.5273437 -0.5273437,-0.5273437 -0.31640625,0 -0.52734375,0.2695312 -0.52734375,0.5273437 0,0.2695313 0.2109375,0.5273438 0.52734375,0.5273438 0.28125,0 0.5273437,-0.1992188 0.5273437,-0.5273438 z m 0,0"
       style="fill:#000000;fill-opacity:1;fill-rule:nonzero;stroke:none"
       aria-label="i"
       transform="matrix(1.3333333,0,0,1.3333333,102.45467,30.361333)" />
    <path
       id="path10"
       d="m 68.76772,56.69362 3.07742,5.95285 5.35782,-11.90572 5.3578,11.90572 5.35782,-11.90572 5.35782,11.90572 5.35782,-11.90572 2.67891,5.95287"
       style="fill:none;stroke:#000000;stroke-width:0.797;stroke-linecap:butt;stroke-linejoin:bevel;stroke-miterlimit:10;stroke-dasharray:none;stroke-opacity:1"
       transform="matrix(1.3333333,0,0,-1.3333333,39.670667,110.64533)" />
    <path
       id="path11"
       d="m 2.2266953,-3.5152578 v -2.578125 c 0,-0.234375 0,-0.3515625 0.2226563,-0.3867188 0.1054687,-0.011719 0.3867187,-0.011719 0.5859375,-0.011719 0.9023437,0 2.015625,0.035156 2.015625,1.4765625 0,0.6914062 -0.234375,1.5 -1.7109375,1.5 z m 2.109375,0.1289062 c 0.9609375,-0.234375 1.7460938,-0.84375 1.7460938,-1.6289062 0,-0.9492188 -1.1367188,-1.7929688 -2.6015625,-1.7929688 H 0.35169531 v 0.3164063 h 0.234375 c 0.77343749,0 0.78515629,0.1054687 0.78515629,0.46875 v 5.24999999 c 0,0.3515625 -0.011719,0.46875 -0.78515629,0.46875 h -0.234375 V 3.671875e-4 C 0.70325781,-0.03478906 1.4181016,-0.03478906 1.8048203,-0.03478906 c 0.3867188,0 1.0898438,0 1.453125,0.0351562475 V -0.30432031 h -0.234375 c -0.7734375,0 -0.796875,-0.1171875 -0.796875,-0.46875 V -3.2926016 h 1.1484375 c 0.1640625,0 0.5742188,0 0.9257813,0.3398438 0.3867187,0.3515625 0.3867187,0.65625 0.3867187,1.3242187 0,0.65625004 0,1.05468754 0.3984375,1.42968754 0.4101563,0.36328125 0.9609375,0.421875 1.2539063,0.421875 0.7851562,0 0.9492187,-0.8203125 0.9492187,-1.1015625 0,-0.0585938 0,-0.16406254 -0.1289062,-0.16406254 -0.1054688,0 -0.1054688,0.0820313 -0.1171875,0.15234379 -0.058594,0.71484375 -0.4101563,0.8906249975 -0.65625,0.8906249975 -0.4921875,0 -0.5742188,-0.5039062475 -0.703125,-1.4296874875 l -0.140625,-0.796875 C 5.3673203,-2.8707266 4.8868516,-3.1988516 4.3360703,-3.3863516 Z m 4.1103516,0.8789063 c 0.058594,-1.4882813 0.9023437,-1.734375 1.2421875,-1.734375 1.0195316,0 1.1249996,1.3476562 1.1249996,1.734375 z m -0.011719,0.2109375 h 2.7890631 c 0.210937,0 0.246093,0 0.246093,-0.2109375 0,-0.984375 -0.539062,-1.9570313 -1.7812498,-1.9570313 -1.1601563,0 -2.0742188,1.03125 -2.0742188,2.2734375 0,1.33593754 1.0429688,2.29687504 2.1914063,2.29687504 1.2187503,0 1.6640623,-1.1015625 1.6640623,-1.28906254 0,-0.1054687 -0.08203,-0.1171875 -0.128906,-0.1171875 -0.09375,0 -0.117187,0.058594 -0.128906,0.140625 -0.351563,1.01953129 -1.2539066,1.01953129 -1.3476566,1.01953129 -0.5039062,0 -0.9023437,-0.29296875 -1.125,-0.66796875 C 8.4347031,-1.2886953 8.4347031,-1.9449453 8.4347029,-2.2965078 Z m 0,0"
       style="fill:#000000;fill-opacity:1;fill-rule:nonzero;stroke:none"
       aria-label="Re"
       transform="matrix(1.3333333,0,0,1.3333333,145.21467,22.034667)" />
    <path
       id="path12"
       d="m 106.24358,37.06349 h 1.98425 l -1.98425,4.21655 -1.98426,-4.21655 z"
       style="fill:#000000;fill-opacity:1;fill-rule:nonzero;stroke:#000000;stroke-width:0.3985;stroke-linecap:butt;stroke-linejoin:miter;stroke-miterlimit:10;stroke-dasharray:none;stroke-opacity:1"
       transform="matrix(1.3333333,0,0,-1.3333333,39.670667,110.64533)" />
    <path
       id="path13"
       d="m 2.2135703,-3.6458281 v -2.4492188 c 0,-0.328125 0.011719,-0.3984375 0.4804688,-0.3984375 h 1.2421875 c 0.9609375,0 1.3125,0.84375 1.3125,1.3710938 0,0.6328125 -0.4921875,1.4765625 -1.59375,1.4765625 z m 2.34375,0.09375 c 0.9726563,-0.1992188 1.6523438,-0.8320313 1.6523438,-1.5703125 0,-0.8671875 -0.9140625,-1.6875 -2.203125,-1.6875 H 0.36200781 v 0.3164062 h 0.234375 c 0.76171879,0 0.78515629,0.1054688 0.78515629,0.46875 v 5.25000002 c 0,0.3515625 -0.023437,0.46875 -0.78515629,0.46875 h -0.234375 v 0.3046875 H 4.2643516 c 1.3242187,0 2.2148437,-0.890625 2.2148437,-1.82812502 0,-0.8671875 -0.8085937,-1.6054687 -1.921875,-1.7226562 z m -0.609375,3.24609372 H 2.6940391 c -0.46875,0 -0.4804688,-0.0703125 -0.4804688,-0.3984375 V -3.4231719 h 1.875 c 0.984375,0 1.3945313,0.9257813 1.3945313,1.59375 0,0.703125 -0.515625,1.52343752 -1.5351563,1.52343752 z M 8.8141562,-6.9153594 7.3844687,-6.8098906 v 0.3164062 c 0.703125,0 0.7734375,0.070312 0.7734375,0.5507813 v 5.17968747 c 0,0.45703125 -0.1054687,0.45703125 -0.7734375,0.45703125 v 0.3046875 c 0.328125,-0.01171875 0.8554688,-0.03515625 1.1015625,-0.03515625 0.2578125,0 0.7382813,0.0234375 1.1132813,0.03515625 v -0.3046875 c -0.6679688,0 -0.7851563,0 -0.7851563,-0.45703125 z m 5.1591798,3.5976563 c 0.08203,-0.234375 0.257812,-0.65625 0.914062,-0.6679688 v -0.3046875 c -0.234375,0.011719 -0.515625,0.023437 -0.75,0.023437 -0.234375,0 -0.691406,-0.023437 -0.867187,-0.023437 v 0.3046875 c 0.375,0.011719 0.480469,0.234375 0.480469,0.4335938 0,0.082031 -0.02344,0.1289062 -0.05859,0.234375 l -1.019531,2.54296872 -1.113282,-2.77734372 c -0.05859,-0.140625 -0.05859,-0.1523438 -0.05859,-0.1757813 0,-0.2578125 0.386718,-0.2578125 0.5625,-0.2578125 v -0.3046875 c -0.292969,0 -0.855469,0.023437 -1.078125,0.023437 -0.269532,0 -0.667969,-0.011719 -0.972657,-0.023437 v 0.3046875 c 0.632813,0 0.667969,0.058594 0.796875,0.3632813 l 1.441407,3.53906247 c 0.05859,0.140625 0.07031,0.1875 0.199218,0.1875 0.128907,0 0.175782,-0.08203125 0.210938,-0.1875 z m 0,0"
       style="fill:#000000;fill-opacity:1;fill-rule:nonzero;stroke:none"
       aria-label="Blv"
       transform="matrix(1.3333333,0,0,1.3333333,158.29467,77.462667)" />
    <path
       id="path14"
       d="m 148.87769,37.06349 h 1.98425 l -1.98425,4.21655 -1.98426,-4.21655 z"
       style="fill:#000000;fill-opacity:1;fill-rule:nonzero;stroke:#000000;stroke-width:0.3985;stroke-linecap:butt;stroke-linejoin:miter;stroke-miterlimit:10;stroke-dasharray:none;stroke-opacity:1"
       transform="matrix(1.3333333,0,0,-1.3333333,39.670667,110.64533)" />
    <path
       id="path15"
       d="m 2.2151563,-3.6458281 v -2.4492188 c 0,-0.328125 0.011719,-0.3984375 0.4804687,-0.3984375 h 1.2421875 c 0.9609375,0 1.3125,0.84375 1.3125,1.3710938 0,0.6328125 -0.4921875,1.4765625 -1.59375,1.4765625 z m 2.34375,0.09375 C 5.5315625,-3.7512969 6.21125,-4.3841094 6.21125,-5.1223906 c 0,-0.8671875 -0.9140625,-1.6875 -2.203125,-1.6875 H 0.36359375 v 0.3164062 h 0.234375 c 0.76171875,0 0.78515625,0.1054688 0.78515625,0.46875 v 5.25000002 c 0,0.3515625 -0.023437,0.46875 -0.78515625,0.46875 h -0.234375 v 0.3046875 H 4.2659375 c 1.3242188,0 2.2148438,-0.890625 2.2148438,-1.82812502 0,-0.8671875 -0.8085938,-1.6054687 -1.921875,-1.7226562 z m -0.609375,3.24609372 H 2.695625 c -0.46875,0 -0.4804687,-0.0703125 -0.4804687,-0.3984375 V -3.4231719 h 1.875 c 0.984375,0 1.3945312,0.9257813 1.3945312,1.59375 0,0.703125 -0.515625,1.52343752 -1.5351562,1.52343752 z M 8.8157422,-6.9153594 7.3860547,-6.8098906 v 0.3164062 c 0.703125,0 0.7734375,0.070312 0.7734375,0.5507813 v 5.17968747 c 0,0.45703125 -0.1054688,0.45703125 -0.7734375,0.45703125 v 0.3046875 c 0.328125,-0.01171875 0.8554687,-0.03515625 1.1015625,-0.03515625 0.2578125,0 0.7382812,0.0234375 1.1132812,0.03515625 v -0.3046875 c -0.6679687,0 -0.7851562,0 -0.7851562,-0.45703125 z m 2.7656248,2.5078125 -1.394531,0.1171875 v 0.3046875 c 0.65625,0 0.738281,0.058594 0.738281,0.5507813 v 2.67187497 c 0,0.45703125 -0.105469,0.45703125 -0.773437,0.45703125 v 0.3046875 c 0.316406,-0.01171875 0.855468,-0.03515625 1.101562,-0.03515625 0.339844,0 0.691406,0.0234375 1.03125,0.03515625 v -0.3046875 c -0.65625,0 -0.703125,-0.0585938 -0.703125,-0.4453125 z m 0.04687,-1.734375 c 0,-0.3164062 -0.246094,-0.5273437 -0.527344,-0.5273437 -0.316406,0 -0.527343,0.2695312 -0.527343,0.5273437 0,0.2695313 0.210937,0.5273438 0.527343,0.5273438 0.28125,0 0.527344,-0.1992188 0.527344,-0.5273438 z m 0,0"
       style="fill:#000000;fill-opacity:1;fill-rule:nonzero;stroke:none"
       aria-label="Bli"
       transform="matrix(1.3333333,0,0,1.3333333,241.09333,77.462667)" />
    <path
       id="path16"
       d="m 153.80814,56.69362 3.0774,5.95285 5.35782,-11.90572 5.35782,11.90572 5.35782,-11.90572 5.35782,11.90572 5.3578,-11.90572 2.67891,5.95287"
       style="fill:none;stroke:#000000;stroke-width:0.797;stroke-linecap:butt;stroke-linejoin:bevel;stroke-miterlimit:10;stroke-dasharray:none;stroke-opacity:1"
       transform="matrix(1.3333333,0,0,-1.3333333,39.670667,110.64533)" />
    <path
       id="path17"
       d="m 2.2263906,-3.5152578 v -2.578125 c 0,-0.234375 0,-0.3515625 0.2226563,-0.3867188 0.1054687,-0.011719 0.3867187,-0.011719 0.5859375,-0.011719 0.9023437,0 2.015625,0.035156 2.015625,1.4765625 0,0.6914062 -0.234375,1.5 -1.7109375,1.5 z m 2.109375,0.1289062 c 0.9609375,-0.234375 1.7460938,-0.84375 1.7460938,-1.6289062 0,-0.9492188 -1.1367188,-1.7929688 -2.6015625,-1.7929688 H 0.35139063 v 0.3164063 h 0.234375 c 0.77343747,0 0.78515627,0.1054687 0.78515627,0.46875 v 5.24999999 c 0,0.3515625 -0.011719,0.46875 -0.78515627,0.46875 h -0.234375 V 3.671875e-4 C 0.70295313,-0.03478906 1.4177969,-0.03478906 1.8045156,-0.03478906 c 0.3867188,0 1.0898438,0 1.453125,0.0351562475 V -0.30432031 h -0.234375 c -0.7734375,0 -0.796875,-0.1171875 -0.796875,-0.46875 V -3.2926016 h 1.1484375 c 0.1640625,0 0.5742188,0 0.9257813,0.3398438 0.3867187,0.3515625 0.3867187,0.65625 0.3867187,1.3242187 0,0.65625004 0,1.05468754 0.3984375,1.42968754 0.4101563,0.36328125 0.9609375,0.421875 1.2539063,0.421875 0.7851562,0 0.9492187,-0.8203125 0.9492187,-1.1015625 0,-0.0585938 0,-0.16406254 -0.1289062,-0.16406254 -0.1054688,0 -0.1054688,0.0820313 -0.1171875,0.15234379 -0.058594,0.71484375 -0.4101563,0.8906249975 -0.65625,0.8906249975 -0.4921875,0 -0.5742188,-0.5039062475 -0.703125,-1.4296874875 l -0.140625,-0.796875 C 5.3670156,-2.8707266 4.8865469,-3.1988516 4.3357656,-3.3863516 Z m 4.0986328,-0.035156 v 2.66015624 c 0,0.45703125 -0.1171875,0.45703125 -0.7851562,0.45703125 V 3.671875e-4 c 0.3515625,-0.0117187475 0.8554687,-0.0351562475 1.125,-0.0351562475 0.2578125,0 0.7851562,0.0234375 1.1132812,0.0351562475 V -0.30432031 c -0.65625,0 -0.7734375,0 -0.7734375,-0.45703125 V -2.5894766 c 0,-1.03125 0.7148438,-1.59375 1.3476561,-1.59375 0.621094,0 0.738281,0.5390625 0.738281,1.1015625 v 2.32031254 c 0,0.45703125 -0.117187,0.45703125 -0.773437,0.45703125 V 3.671875e-4 c 0.339844,-0.0117187475 0.855469,-0.0351562475 1.125,-0.0351562475 0.257812,0 0.773437,0.0234375 1.113281,0.0351562475 V -0.30432031 c -0.667969,0 -0.785156,0 -0.785156,-0.45703125 V -2.5894766 c 0,-1.03125 0.714844,-1.59375 1.347656,-1.59375 0.632813,0 0.738281,0.5390625 0.738281,1.1015625 v 2.32031254 c 0,0.45703125 -0.105468,0.45703125 -0.773437,0.45703125 V 3.671875e-4 c 0.351562,-0.0117187475 0.855469,-0.0351562475 1.125,-0.0351562475 0.257812,0 0.773437,0.0234375 1.113281,0.0351562475 V -0.30432031 c -0.515625,0 -0.761719,0 -0.773437,-0.3046875 V -2.5074453 c 0,-0.8554688 0,-1.171875 -0.316407,-1.5234375 -0.128906,-0.1757813 -0.46875,-0.375 -1.042968,-0.375 -0.832032,0 -1.277344,0.5976562 -1.441407,0.984375 -0.140625,-0.8671875 -0.878906,-0.984375 -1.324218,-0.984375 -0.7265628,0 -1.1953128,0.4335937 -1.4765628,1.0546875 v -1.0546875 l -1.40625,0.1171875 v 0.3046875 c 0.703125,0 0.7851562,0.070312 0.7851562,0.5625002 z m 9.2753906,1.4882812 c 0.222656,0.035156 1.03125,0.1992188 1.03125,0.9140625 0,0.51562504 -0.351562,0.91406254 -1.125,0.91406254 -0.832031,0 -1.195312,-0.57421875 -1.382812,-1.41796874 -0.03516,-0.1289063 -0.03516,-0.1757813 -0.140625,-0.1757813 -0.128907,0 -0.128907,0.070312 -0.128907,0.2578125 v 1.31250004 c 0,0.1640625 0,0.234375 0.105469,0.234375 0.05859,0 0.07031,0 0.257813,-0.19921875 0.01172,-0.01171875 0.01172,-0.03515625 0.199218,-0.22265625 0.433594,0.421875 0.878907,0.421875 1.089844,0.421875 1.148438,0 1.605469,-0.66796875 1.605469,-1.38281254 0,-0.5273437 -0.292969,-0.8203125 -0.421875,-0.9492187 -0.328125,-0.3164063 -0.714844,-0.3984375 -1.136719,-0.46875 -0.550781,-0.1171875 -1.21875,-0.2460938 -1.21875,-0.8203125 0,-0.3515625 0.257813,-0.7617188 1.113281,-0.7617188 1.101563,0 1.148438,0.9023438 1.171875,1.2070313 0,0.09375 0.09375,0.09375 0.117188,0.09375 0.128906,0 0.128906,-0.046875 0.128906,-0.2460938 v -0.9960937 c 0,-0.1757813 0,-0.2460938 -0.117187,-0.2460938 -0.04687,0 -0.07031,0 -0.199219,0.1171875 -0.02344,0.046875 -0.128906,0.1289063 -0.164063,0.1640625 -0.375,-0.28125 -0.785156,-0.28125 -0.9375,-0.28125 -1.21875,0 -1.59375,0.6679688 -1.59375,1.2304688 0,0.3398437 0.164063,0.6210937 0.433594,0.84375 0.316406,0.2578125 0.597656,0.3164062 1.3125,0.4570312 z m 0,0"
       style="fill:#000000;fill-opacity:1;fill-rule:nonzero;stroke:none"
       aria-label="Rms"
       transform="matrix(1.3333333,0,0,1.3333333,253.39867,22.034667)" />
    <path
       id="path18"
       d="m 190.45512,56.69362 v -1.98425 l 4.21654,1.98425 -4.21654,1.98425 z"
       style="fill:#000000;fill-opacity:1;fill-rule:nonzero;stroke:#000000;stroke-width:0.3985;stroke-linecap:butt;stroke-linejoin:miter;stroke-miterlimit:10;stroke-dasharray:none;stroke-opacity:1"
       transform="matrix(1.3333333,0,0,-1.3333333,39.670667,110.64533)" />
    <path
       id="path19"
       d="m 4.1489141,-3.3149453 c 0.082031,-0.234375 0.2578125,-0.65625 0.9140625,-0.6679688 v -0.3046875 c -0.234375,0.011719 -0.515625,0.023437 -0.75,0.023437 -0.234375,0 -0.6914063,-0.023437 -0.8671875,-0.023437 v 0.3046875 c 0.375,0.011719 0.4804687,0.234375 0.4804687,0.4335938 0,0.082031 -0.023437,0.1289062 -0.058594,0.234375 L 2.8481328,-0.77197656 1.7348516,-3.5493203 c -0.058594,-0.140625 -0.058594,-0.1523438 -0.058594,-0.1757813 0,-0.2578125 0.3867188,-0.2578125 0.5625,-0.2578125 v -0.3046875 c -0.2929687,0 -0.8554687,0.023437 -1.078125,0.023437 -0.26953124,0 -0.66796874,-0.011719 -0.97265624,-0.023437 v 0.3046875 c 0.6328125,0 0.66796875,0.058594 0.796875,0.3632813 l 1.44140624,3.53906249 c 0.058594,0.140625 0.070312,0.1875 0.1992188,0.1875 0.1289062,0 0.1757812,-0.08203125 0.2109375,-0.1875 z m 0,0"
       style="fill:#000000;fill-opacity:1;fill-rule:nonzero;stroke:none"
       aria-label="v"
       transform="matrix(1.3333333,0,0,1.3333333,292.41733,30.361333)" />
    <path
       id="path20"
       d="m 214.47023,56.53423 c 0,3.28768 1.63475,5.95285 3.65135,5.95285 2.0166,0 3.65135,-2.66517 3.65135,-5.95285 0,-1.64377 -0.66626,-2.97628 -1.48814,-2.97628 -0.82189,0 -1.48813,1.33251 -1.48813,2.97628 0,3.28768 1.63474,5.95285 3.65134,5.95285 2.0166,0 3.65135,-2.66517 3.65135,-5.95285 0,-1.64377 -0.66626,-2.97628 -1.48813,-2.97628 -0.82188,0 -1.48814,1.33251 -1.48814,2.97628 0,3.28768 1.63475,5.95285 3.65135,5.95285 2.0166,0 3.65134,-2.66517 3.65134,-5.95285 0,-1.64377 -0.66625,-2.97628 -1.48813,-2.97628 -0.82189,0 -1.48814,1.33251 -1.48814,2.97628 0,3.28768 1.63474,5.95285 3.65135,5.95285 2.0166,0 3.65135,-2.66517 3.65135,-5.95285 0,-1.64377 -0.66626,-2.97628 -1.48815,-2.97628 -0.82187,0 -1.48813,1.33251 -1.48813,2.97628 0,3.28768 1.63474,5.95285 3.65136,5.95285 2.0166,0 3.65133,-2.66517 3.65133,-5.95285"
       style="fill:none;stroke:#000000;stroke-width:0.797;stroke-linecap:butt;stroke-linejoin:bevel;stroke-miterlimit:10;stroke-dasharray:none;stroke-opacity:1"
       transform="matrix(1.3333333,0,0,-1.3333333,39.670667,110.64533)" />
    <path
       id="path21"
       d="M 2.4021406,-6.5855703 C 2.3083906,-6.8082266 2.2849531,-6.8082266 2.0505781,-6.8082266 H 0.36307813 v 0.3164063 h 0.24609375 c 0.76171872,0 0.78515622,0.1054687 0.78515622,0.46875 v 4.9804687 c 0,0.26953129 0,0.73828129 -1.03124997,0.73828129 V 3.671875e-4 C 0.71464063,-0.01135156 1.2068281,-0.03478906 1.5349531,-0.03478906 c 0.328125,0 0.8203125,0.0234375 1.1601563,0.0351562475 V -0.30432031 c -1.0195313,0 -1.0195313,-0.46875 -1.0195313,-0.73828129 v -5.3671875 h 0.011719 l 2.4023437,6.18750004 c 0.046875,0.12890625 0.09375,0.2226562475 0.1992188,0.2226562475 0.1054687,0 0.1289062,-0.0820312475 0.1757812,-0.1874999975 L 6.9138594,-6.4918203 h 0.011719 v 5.71874999 c 0,0.3515625 -0.023437,0.46875 -0.7851562,0.46875 H 5.8943281 V 3.671875e-4 c 0.375,-0.0351562475 1.0429688,-0.0351562475 1.4414063,-0.0351562475 0.3867187,0 1.0546875,0 1.4179687,0.0351562475 V -0.30432031 h -0.234375 c -0.7734375,0 -0.7851562,-0.1171875 -0.7851562,-0.46875 V -6.0230703 c 0,-0.3632813 0.011719,-0.46875 0.7851562,-0.46875 h 0.234375 V -6.8082266 H 7.0779219 c -0.2695313,0 -0.2695313,0.011719 -0.3398438,0.1992188 l -2.1796875,5.6015625 z m 7.8310544,3.1640625 v 2.66015624 c 0,0.45703125 -0.117187,0.45703125 -0.7851559,0.45703125 V 3.671875e-4 C 9.7996016,-0.01135156 10.303508,-0.03478906 10.573039,-0.03478906 c 0.257813,0 0.785156,0.0234375 1.113281,0.0351562475 V -0.30432031 c -0.65625,0 -0.773437,0 -0.773437,-0.45703125 V -2.5894766 c 0,-1.03125 0.714844,-1.59375 1.347656,-1.59375 0.621094,0 0.738281,0.5390625 0.738281,1.1015625 v 2.32031254 c 0,0.45703125 -0.117187,0.45703125 -0.773437,0.45703125 V 3.671875e-4 c 0.339844,-0.0117187475 0.855469,-0.0351562475 1.125,-0.0351562475 0.257812,0 0.773437,0.0234375 1.113281,0.0351562475 V -0.30432031 c -0.667969,0 -0.785156,0 -0.785156,-0.45703125 V -2.5894766 c 0,-1.03125 0.714844,-1.59375 1.347656,-1.59375 0.632813,0 0.738281,0.5390625 0.738281,1.1015625 v 2.32031254 c 0,0.45703125 -0.105468,0.45703125 -0.773437,0.45703125 V 3.671875e-4 c 0.351562,-0.0117187475 0.855469,-0.0351562475 1.125,-0.0351562475 0.257812,0 0.773437,0.0234375 1.113281,0.0351562475 V -0.30432031 c -0.515625,0 -0.761719,0 -0.773437,-0.3046875 V -2.5074453 c 0,-0.8554688 0,-1.171875 -0.316407,-1.5234375 -0.128906,-0.1757813 -0.46875,-0.375 -1.042968,-0.375 -0.832032,0 -1.277344,0.5976562 -1.441407,0.984375 -0.140625,-0.8671875 -0.878906,-0.984375 -1.324218,-0.984375 -0.726563,0 -1.195313,0.4335937 -1.476563,1.0546875 v -1.0546875 l -1.4062499,0.1171875 v 0.3046875 c 0.7031249,0 0.7851559,0.070312 0.7851559,0.5625 z m 9.275391,1.4882812 c 0.222656,0.035156 1.03125,0.1992188 1.03125,0.9140625 0,0.51562504 -0.351563,0.91406254 -1.125,0.91406254 -0.832031,0 -1.195313,-0.57421875 -1.382813,-1.41796874 -0.03516,-0.1289063 -0.03516,-0.1757813 -0.140625,-0.1757813 -0.128906,0 -0.128906,0.070312 -0.128906,0.2578125 v 1.31250004 c 0,0.1640625 0,0.234375 0.105469,0.234375 0.05859,0 0.07031,0 0.257812,-0.19921875 0.01172,-0.01171875 0.01172,-0.03515625 0.199219,-0.22265625 0.433594,0.421875 0.878906,0.421875 1.089844,0.421875 1.148437,0 1.605469,-0.66796875 1.605469,-1.38281254 0,-0.5273437 -0.292969,-0.8203125 -0.421875,-0.9492187 -0.328125,-0.3164063 -0.714844,-0.3984375 -1.136719,-0.46875 -0.550781,-0.1171875 -1.21875,-0.2460938 -1.21875,-0.8203125 0,-0.3515625 0.257812,-0.7617188 1.113281,-0.7617188 1.101563,0 1.148438,0.9023438 1.171875,1.2070313 0,0.09375 0.09375,0.09375 0.117188,0.09375 0.128906,0 0.128906,-0.046875 0.128906,-0.2460938 v -0.9960937 c 0,-0.1757813 0,-0.2460938 -0.117188,-0.2460938 -0.04687,0 -0.07031,0 -0.199218,0.1171875 -0.02344,0.046875 -0.128907,0.1289063 -0.164063,0.1640625 -0.375,-0.28125 -0.785156,-0.28125 -0.9375,-0.28125 -1.21875,0 -1.59375,0.6679688 -1.59375,1.2304688 0,0.3398437 0.164063,0.6210937 0.433594,0.84375 0.316406,0.2578125 0.597656,0.3164062 1.3125,0.4570312 z m 0,0"
       style="fill:#000000;fill-opacity:1;fill-rule:nonzero;stroke:none"
       aria-label="Mms"
       transform="matrix(1.3333333,0,0,1.3333333,327.78933,22.034667)" />
    <path
       id="path22"
       d="M 265.3262,68.59933 V 44.78789 m 7.93695,23.81144 V 44.78789"
       style="fill:none;stroke:#000000;stroke-width:0.797;stroke-linecap:butt;stroke-linejoin:miter;stroke-miterlimit:10;stroke-dasharray:none;stroke-opacity:1"
       transform="matrix(1.3333333,0,0,-1.3333333,39.670667,110.64533)" />
    <path
       id="path23"
       d="m 0.56257813,-3.4096406 c 0,2.0625 1.60546877,3.63281247 3.45703127,3.63281247 1.6289062,0 2.6015625,-1.38281247 2.6015625,-2.54296877 0,-0.1054687 0,-0.1757812 -0.1289063,-0.1757812 -0.1054687,0 -0.1054687,0.070312 -0.1171875,0.1640625 -0.082031,1.42968747 -1.1484375,2.23828122 -2.2265625,2.23828122 -0.609375,0 -2.5664062,-0.33984375 -2.5664062,-3.30468752 0,-2.9765625 1.9453125,-3.3164062 2.5546875,-3.3164062 1.078125,0 1.96875,0.9023437 2.1679687,2.3671875 0.023437,0.1289062 0.023437,0.1640625 0.1640625,0.1640625 0.1523438,0 0.1523438,-0.035156 0.1523438,-0.234375 v -2.3671875 c 0,-0.1640625 0,-0.234375 -0.1054688,-0.234375 -0.035156,0 -0.082031,0 -0.1640625,0.1171875 l -0.4921875,0.7382812 c -0.375,-0.3632812 -0.8789062,-0.8554687 -1.8398437,-0.8554687 -1.8632813,0 -3.45703127,1.5820312 -3.45703127,3.609375 z m 7.73437497,-0.011719 v 2.66015627 c 0,0.45703125 -0.1171875,0.45703125 -0.7851562,0.45703125 V 5.15625e-4 c 0.3515625,-0.011718755 0.8554687,-0.035156255 1.125,-0.035156255 0.2578125,0 0.7851562,0.0234375 1.1132812,0.035156255 V -0.30417188 c -0.65625,0 -0.7734375,0 -0.7734375,-0.45703125 V -2.5893281 c 0,-1.03125 0.7148438,-1.59375 1.3476564,-1.59375 0.621094,0 0.738281,0.5390625 0.738281,1.1015625 v 2.32031247 c 0,0.45703125 -0.117187,0.45703125 -0.773437,0.45703125 V 5.15625e-4 c 0.339843,-0.011718755 0.855468,-0.035156255 1.125,-0.035156255 0.257812,0 0.773437,0.0234375 1.113281,0.035156255 V -0.30417188 c -0.667969,0 -0.785156,0 -0.785156,-0.45703125 V -2.5893281 c 0,-1.03125 0.714843,-1.59375 1.347656,-1.59375 0.632812,0 0.738281,0.5390625 0.738281,1.1015625 v 2.32031247 c 0,0.45703125 -0.105469,0.45703125 -0.773437,0.45703125 V 5.15625e-4 c 0.351562,-0.011718755 0.855468,-0.035156255 1.125,-0.035156255 0.257812,0 0.773437,0.0234375 1.113281,0.035156255 V -0.30417188 c -0.515625,0 -0.761719,0 -0.773438,-0.3046875 V -2.5072969 c 0,-0.8554687 0,-1.171875 -0.316406,-1.5234375 -0.128906,-0.1757812 -0.46875,-0.375 -1.042969,-0.375 -0.832031,0 -1.277343,0.5976563 -1.441406,0.984375 -0.140625,-0.8671875 -0.878906,-0.984375 -1.324219,-0.984375 -0.7265621,0 -1.1953121,0.4335938 -1.4765621,1.0546875 v -1.0546875 l -1.40625,0.1171875 v 0.3046875 c 0.703125,0 0.7851562,0.070312 0.7851562,0.5624998 z m 9.2753909,1.4882813 c 0.222656,0.035156 1.03125,0.1992187 1.03125,0.9140625 0,0.51562497 -0.351563,0.91406247 -1.125,0.91406247 -0.832031,0 -1.195313,-0.57421875 -1.382813,-1.41796877 -0.03516,-0.1289062 -0.03516,-0.1757812 -0.140625,-0.1757812 -0.128906,0 -0.128906,0.070312 -0.128906,0.2578125 v 1.31249997 c 0,0.1640625 0,0.234375 0.105469,0.234375 0.05859,0 0.07031,0 0.257812,-0.19921875 0.01172,-0.01171875 0.01172,-0.03515625 0.199219,-0.22265625 0.433594,0.421875 0.878906,0.421875 1.089844,0.421875 1.148437,0 1.605469,-0.66796875 1.605469,-1.38281247 0,-0.5273438 -0.292969,-0.8203125 -0.421875,-0.9492188 -0.328125,-0.3164062 -0.714844,-0.3984375 -1.136719,-0.46875 -0.550781,-0.1171875 -1.21875,-0.2460937 -1.21875,-0.8203125 0,-0.3515625 0.257812,-0.7617187 1.113281,-0.7617187 1.101563,0 1.148438,0.9023437 1.171875,1.2070312 0,0.09375 0.09375,0.09375 0.117188,0.09375 0.128906,0 0.128906,-0.046875 0.128906,-0.2460937 v -0.9960938 c 0,-0.1757812 0,-0.2460937 -0.117188,-0.2460937 -0.04687,0 -0.07031,0 -0.199218,0.1171875 -0.02344,0.046875 -0.128907,0.1289062 -0.164063,0.1640625 -0.375,-0.28125 -0.785156,-0.28125 -0.9375,-0.28125 -1.21875,0 -1.59375,0.6679687 -1.59375,1.2304687 0,0.3398438 0.164063,0.6210938 0.433594,0.84375 0.316406,0.2578125 0.597656,0.3164063 1.3125,0.4570313 z m 0,0"
       style="fill:#000000;fill-opacity:1;fill-rule:nonzero;stroke:none"
       aria-label="Cms"
       transform="matrix(1.3333333,0,0,1.3333333,385.77333,13.304)" />
    <path
       id="path24"
       d="m 283.3087,40.65103 c 3.2877,0 5.95285,-1.63475 5.95285,-3.65135 0,-2.0166 -2.66515,-3.65135 -5.95285,-3.65135 -1.64377,0 -2.97627,0.66626 -2.97627,1.48814 0,0.82187 1.3325,1.48813 2.97627,1.48813 3.2877,0 5.95285,-1.63473 5.95285,-3.65135 0,-2.0166 -2.66515,-3.65134 -5.95285,-3.65134 -1.64377,0 -2.97627,0.66626 -2.97627,1.48813 0,0.82188 1.3325,1.48814 2.97627,1.48814 3.2877,0 5.95285,-1.63475 5.95285,-3.65135 0,-2.0166 -2.66515,-3.65135 -5.95285,-3.65135 -1.64377,0 -2.97627,0.66626 -2.97627,1.48814 0,0.82189 1.3325,1.48813 2.97627,1.48813 3.2877,0 5.95285,-1.63473 5.95285,-3.65133 0,-2.01661 -2.66515,-3.65136 -5.95285,-3.65136 -1.64377,0 -2.97627,0.66626 -2.97627,1.48814 0,0.82188 1.3325,1.48814 2.97627,1.48814 3.2877,0 5.95285,-1.63475 5.95285,-3.65136 0,-2.0166 -2.66515,-3.65135 -5.95285,-3.65135"
       style="fill:none;stroke:#000000;stroke-width:0.797;stroke-linecap:butt;stroke-linejoin:bevel;stroke-miterlimit:10;stroke-dasharray:none;stroke-opacity:1"
       transform="matrix(1.3333333,0,0,-1.3333333,39.670667,110.64533)" />
    <path
       id="path25"
       d="m 311.97427,16.04257 c -3.2877,0 -5.95285,1.63475 -5.95285,3.65135 0,2.01661 2.66515,3.65136 5.95285,3.65136 1.64377,0 2.97628,-0.66626 2.97628,-1.48815 0,-0.82187 -1.33251,-1.48813 -2.97628,-1.48813 -3.2877,0 -5.95285,1.63475 -5.95285,3.65136 0,2.0166 2.66515,3.65133 5.95285,3.65133 1.64377,0 2.97628,-0.66624 2.97628,-1.48813 0,-0.82188 -1.33251,-1.48814 -2.97628,-1.48814 -3.2877,0 -5.95285,1.63475 -5.95285,3.65135 0,2.0166 2.66515,3.65135 5.95285,3.65135 1.64377,0 2.97628,-0.66626 2.97628,-1.48814 0,-0.82187 -1.33251,-1.48813 -2.97628,-1.48813 -3.2877,0 -5.95285,1.63474 -5.95285,3.65134 0,2.01661 2.66515,3.65135 5.95285,3.65135 1.64377,0 2.97628,-0.66626 2.97628,-1.48813 0,-0.82188 -1.33251,-1.48814 -2.97628,-1.48814 -3.2877,0 -5.95285,1.63475 -5.95285,3.65135 0,2.0166 2.66515,3.65135 5.95285,3.65135"
       style="fill:none;stroke:#000000;stroke-width:0.797;stroke-linecap:butt;stroke-linejoin:bevel;stroke-miterlimit:10;stroke-dasharray:none;stroke-opacity:1"
       transform="matrix(1.3333333,0,0,-1.3333333,39.670667,110.64533)" />
    <path
       id="path26"
       d="m 318.26369,43.01636 h 1.98425 l -1.98425,4.21655 -1.98426,-4.21655 z"
       style="fill:#000000;fill-opacity:1;fill-rule:nonzero;stroke:#000000;stroke-width:0.3985;stroke-linecap:butt;stroke-linejoin:miter;stroke-miterlimit:10;stroke-dasharray:none;stroke-opacity:1"
       transform="matrix(1.3333333,0,0,-1.3333333,39.670667,110.64533)" />
    <path
       id="path27"
       d="m 2.2608438,-3.1533047 h 1.6875 c 1.1953125,0 2.2617187,-0.796875 2.2617187,-1.7929687 0,-0.984375 -0.984375,-1.8632813 -2.34375,-1.8632813 h -3.515625 v 0.3164063 h 0.234375 c 0.7734375,0 0.7851563,0.1054687 0.7851563,0.46875 v 5.24999996 c 0,0.3515625 -0.011719,0.46875 -0.7851563,0.46875 H 0.3506875 V -9.609375e-4 C 0.70225,-0.03611719 1.4288125,-0.03611719 1.8155313,-0.03611719 c 0.375,0 1.125,0 1.4765625,0.0351562525 V -0.30564844 H 3.046 c -0.7617187,0 -0.7851562,-0.1171875 -0.7851562,-0.46875 z m -0.035156,-0.2578125 v -2.6835937 c 0,-0.328125 0.023437,-0.3984375 0.4921875,-0.3984375 H 3.6085 c 1.5820313,0 1.5820313,1.0546875 1.5820313,1.546875 0,0.4570312 0,1.5351562 -1.5820313,1.5351562 z m 6.6298828,1.4765625 c 0.2226563,0.035156 1.03125,0.1992188 1.03125,0.9140625 0,0.51562501 -0.3515625,0.91406251 -1.125,0.91406251 -0.8320312,0 -1.1953125,-0.57421875 -1.3828125,-1.41796871 -0.035156,-0.1289063 -0.035156,-0.1757813 -0.140625,-0.1757813 -0.1289062,0 -0.1289062,0.070312 -0.1289062,0.2578125 v 1.31250001 c 0,0.1640625 0,0.234375 0.1054687,0.234375 0.058594,0 0.070312,0 0.2578125,-0.19921875 0.011719,-0.01171875 0.011719,-0.03515625 0.1992188,-0.22265625 0.4335937,0.421875 0.8789062,0.421875 1.0898437,0.421875 1.1484375,0 1.6054684,-0.66796875 1.6054684,-1.38281251 0,-0.5273437 -0.292969,-0.8203125 -0.4218746,-0.9492187 -0.328125,-0.3164063 -0.7148438,-0.3984375 -1.1367188,-0.46875 -0.5507812,-0.1171875 -1.21875,-0.2460938 -1.21875,-0.8203125 0,-0.3515625 0.2578125,-0.7617188 1.1132813,-0.7617188 1.1015625,0 1.1484375,0.9023438 1.171875,1.2070313 0,0.09375 0.09375,0.09375 0.1171875,0.09375 0.1289056,0 0.1289056,-0.046875 0.1289056,-0.2460938 v -0.9960937 c 0,-0.1757813 0,-0.2460938 -0.117187,-0.2460938 -0.046875,0 -0.070313,0 -0.1992186,0.1171875 -0.023437,0.046875 -0.1289063,0.1289063 -0.1640625,0.1640625 -0.375,-0.28125 -0.7851563,-0.28125 -0.9375,-0.28125 -1.21875,0 -1.59375,0.6679688 -1.59375,1.2304688 0,0.3398437 0.1640625,0.6210937 0.4335937,0.84375 0.3164063,0.2578125 0.5976563,0.3164062 1.3125,0.4570312 z m 0,0"
       style="fill:#000000;fill-opacity:1;fill-rule:nonzero;stroke:none"
       aria-label="Ps"
       transform="matrix(1.3333333,0,0,1.3333333,466.93867,77.388)" />
    <path
       id="path28"
       d="m 327.85747,56.53423 c 0,3.28768 1.63475,5.95285 3.65135,5.95285 2.0166,0 3.65135,-2.66517 3.65135,-5.95285 0,-1.64377 -0.66626,-2.97628 -1.48814,-2.97628 -0.82187,0 -1.48813,1.33251 -1.48813,2.97628 0,3.28768 1.63473,5.95285 3.65134,5.95285 2.01661,0 3.65135,-2.66517 3.65135,-5.95285 0,-1.64377 -0.66626,-2.97628 -1.48813,-2.97628 -0.82189,0 -1.48815,1.33251 -1.48815,2.97628 0,3.28768 1.63476,5.95285 3.65136,5.95285 2.0166,0 3.65135,-2.66517 3.65135,-5.95285 0,-1.64377 -0.66626,-2.97628 -1.48815,-2.97628 -0.82188,0 -1.48812,1.33251 -1.48812,2.97628 0,3.28768 1.63473,5.95285 3.65133,5.95285 2.0166,0 3.65135,-2.66517 3.65135,-5.95285 0,-1.64377 -0.66625,-2.97628 -1.48814,-2.97628 -0.82187,0 -1.48813,1.33251 -1.48813,2.97628 0,3.28768 1.63475,5.95285 3.65135,5.95285 2.01661,0 3.65134,-2.66517 3.65134,-5.95285"
       style="fill:none;stroke:#000000;stroke-width:0.797;stroke-linecap:butt;stroke-linejoin:bevel;stroke-miterlimit:10;stroke-dasharray:none;stroke-opacity:1"
       transform="matrix(1.3333333,0,0,-1.3333333,39.670667,110.64533)" />
    <path
       id="path29"
       d="M 2.4011328,-6.5855703 C 2.3073828,-6.8082266 2.2839453,-6.8082266 2.0495703,-6.8082266 H 0.36207031 v 0.3164063 h 0.24609375 c 0.76171874,0 0.78515624,0.1054687 0.78515624,0.46875 v 4.9804687 c 0,0.26953129 0,0.73828129 -1.03124999,0.73828129 V 3.671875e-4 C 0.71363281,-0.01135156 1.2058203,-0.03478906 1.5339453,-0.03478906 c 0.328125,0 0.8203125,0.0234375 1.1601563,0.0351562475 V -0.30432031 c -1.0195313,0 -1.0195313,-0.46875 -1.0195313,-0.73828129 v -5.3671875 h 0.011719 l 2.4023437,6.18750004 c 0.046875,0.12890625 0.09375,0.2226562475 0.1992188,0.2226562475 0.1054687,0 0.1289062,-0.0820312475 0.1757812,-0.1874999975 L 6.9128516,-6.4918203 h 0.011719 v 5.71874999 c 0,0.3515625 -0.023437,0.46875 -0.7851562,0.46875 H 5.8933203 V 3.671875e-4 c 0.375,-0.0351562475 1.0429688,-0.0351562475 1.4414063,-0.0351562475 0.3867187,0 1.0546875,0 1.4179687,0.0351562475 V -0.30432031 h -0.234375 c -0.7734375,0 -0.7851562,-0.1171875 -0.7851562,-0.46875 V -6.0230703 c 0,-0.3632813 0.011719,-0.46875 0.7851562,-0.46875 h 0.234375 V -6.8082266 H 7.0769141 c -0.2695313,0 -0.2695313,0.011719 -0.3398438,0.1992188 l -2.1796875,5.6015625 z m 8.3964842,3.28125 v -1.1015625 l -1.3828123,0.1171875 v 0.3046875 c 0.6914063,0 0.7734373,0.070312 0.7734373,0.5625 v 2.66015624 c 0,0.45703125 -0.105469,0.45703125 -0.7734373,0.45703125 V 3.671875e-4 C 9.8015234,-0.01135156 10.270273,-0.03478906 10.551523,-0.03478906 c 0.398438,0 0.867188,0 1.265625,0.0351562475 V -0.30432031 h -0.210937 c -0.738281,0 -0.761719,-0.1171875 -0.761719,-0.46875 V -2.3082266 c 0,-0.984375 0.421875,-1.875 1.183594,-1.875 0.05859,0 0.08203,0 0.105469,0.011719 -0.03516,0.011719 -0.234375,0.1289062 -0.234375,0.3867187 0,0.28125 0.210937,0.4335938 0.433593,0.4335938 0.175782,0 0.421875,-0.1289063 0.421875,-0.4453125 0,-0.3164063 -0.304687,-0.609375 -0.726562,-0.609375 -0.738281,0 -1.089844,0.6679687 -1.230469,1.1015623 z m 5.554688,2.54296874 c 0.03516,0.3984375 0.304687,0.8203125 0.773437,0.8203125 0.210938,0 0.820313,-0.140625 0.820313,-0.94921875 V -1.4410391 h -0.246094 v 0.55078129 c 0,0.5859375 -0.246094,0.64453125 -0.363281,0.64453125 -0.328125,0 -0.363282,-0.45703125 -0.363282,-0.50390625 V -2.7418203 c 0,-0.4101563 0,-0.8085938 -0.363281,-1.171875 -0.386719,-0.3867188 -0.878906,-0.5507813 -1.359375,-0.5507813 -0.820312,0 -1.511719,0.46875 -1.511719,1.125 0,0.3046875 0.199219,0.46875 0.457032,0.46875 0.28125,0 0.46875,-0.1992187 0.46875,-0.4570312 0,-0.1171875 -0.05859,-0.4453125 -0.515625,-0.4570313 0.269531,-0.3515625 0.761718,-0.4570312 1.078125,-0.4570312 0.492187,0 1.054687,0.3867187 1.054687,1.2773437 v 0.3632813 c -0.503906,0.035156 -1.207031,0.058594 -1.828125,0.3632812 -0.75,0.3398438 -0.996094,0.8554688 -0.996094,1.28906254 0,0.80859375 0.960938,1.0546875 1.59375,1.0546875 0.65625,0 1.113282,-0.3984375 1.300782,-0.8671875 z m -0.07031,-1.62890624 v 0.9960937 c 0,0.94921879 -0.714844,1.28906254 -1.160156,1.28906254 -0.492188,0 -0.902344,-0.3515625 -0.902344,-0.85546875 0,-0.53906249 0.421875,-1.37109379 2.0625,-1.42968749 z m 5.519531,1.83984374 v 0.65625 L 23.266367,3.671875e-4 V -0.30432031 c -0.703125,0 -0.773437,-0.0703125 -0.773437,-0.5625 V -6.9136953 l -1.441407,0.1054687 v 0.3164063 c 0.703125,0 0.785157,0.070312 0.785157,0.5507812 v 2.15625 c -0.292969,-0.3632812 -0.726563,-0.6210937 -1.265625,-0.6210937 -1.171875,0 -2.214844,0.984375 -2.214844,2.2617187 0,1.26562504 0.972656,2.25000004 2.109375,2.25000004 0.644531,0 1.089844,-0.33984375 1.335937,-0.65625 z m 0,-2.67187504 v 2.0507813 c 0,0.17578124 0,0.19921874 -0.105468,0.36328124 -0.304688,0.48046875 -0.75,0.703125 -1.183594,0.703125 -0.445313,0 -0.796875,-0.2578125 -1.042969,-0.64453125 -0.257812,-0.41015629 -0.292969,-0.97265629 -0.292969,-1.38281249 0,-0.3632813 0.02344,-0.9609375 0.316407,-1.4179688 0.210937,-0.3046875 0.585937,-0.6328125 1.125,-0.6328125 0.351562,0 0.761718,0.1523438 1.078125,0.5976563 0.105468,0.1640625 0.105468,0.1875 0.105468,0.3632812 z m 0,0"
       style="fill:#000000;fill-opacity:1;fill-rule:nonzero;stroke:none"
       aria-label="Mrad"
       transform="matrix(1.3333333,0,0,1.3333333,477.51333,22.034667)" />
    <path
       id="path30"
       d="m 358.55174,56.69362 v -1.98425 l 4.21654,1.98425 -4.21654,1.98425 z"
       style="fill:#000000;fill-opacity:1;fill-rule:nonzero;stroke:#000000;stroke-width:0.3985;stroke-linecap:butt;stroke-linejoin:miter;stroke-miterlimit:10;stroke-dasharray:none;stroke-opacity:1"
       transform="matrix(1.3333333,0,0,-1.3333333,39.670667,110.64533)" />
    <path
       id="path31"
       d="M 3.2102266,-0.16505469 C 2.6711641,-0.36427344 1.5578828,-1.0908359 1.5578828,-3.3759922 c 0,-2.5898437 1.3945313,-3.3984375 2.3085938,-3.3984375 0.9609375,0 2.3203125,0.8554688 2.3203125,3.3984375 0,0.7734375 -0.1171875,2.1796875 -1.171875,2.95312501 -0.2226563,-0.55078125 -0.5390625,-1.05468751 -1.125,-1.05468751 -0.515625,0 -0.8203125,0.4335938 -0.8203125,0.84375001 0,0.26953125 0.1289062,0.45703125 0.140625,0.46875 z m 1.5351562,-0.09375 c -0.328125,0.1875 -0.65625,0.22265625 -0.8671875,0.22265625 -0.515625,0 -0.5859375,-0.45703125 -0.5859375,-0.59765625 0,-0.29296875 0.1992188,-0.62109371 0.5976563,-0.62109371 0.5273437,0 0.75,0.42187496 0.8554687,0.99609371 z m 0.4101563,0.1875 c 1.1835937,-0.52734375 2.0273437,-1.80468751 2.0273437,-3.30468751 0,-2.0390625 -1.5,-3.6445312 -3.3164062,-3.6445312 -1.78125,0 -3.30468754,1.59375 -3.30468754,3.6445312 0,2.015625 1.50000004,3.59765626 3.31640624,3.59765626 0.3046875,0 0.65625,-0.0585938 0.9375,-0.15234375 0.1523438,0.94921879 0.2929688,1.86328129 1.21875,1.86328129 1.0195313,0 1.2070313,-1.32421879 1.2070313,-1.82812504 0,-0.1054687475 0,-0.2109375 -0.1054688,-0.2109375 -0.09375,0 -0.1054687,0.0703125 -0.1171875,0.17578125 -0.058594,0.5390625 -0.4804687,0.83203125 -0.9023437,0.83203125 -0.46875,0 -0.7148438,-0.33984375 -0.9609375,-0.97265625 z M 9.8225312,-1.9345859 c 0.2226558,0.035156 1.0312498,0.1992187 1.0312498,0.9140625 0,0.51562496 -0.351562,0.91406246 -1.1249998,0.91406246 -0.8320312,0 -1.1953125,-0.57421875 -1.3828125,-1.41796876 -0.035156,-0.1289062 -0.035156,-0.1757812 -0.140625,-0.1757812 -0.1289062,0 -0.1289062,0.070312 -0.1289062,0.2578125 v 1.31249996 c 0,0.1640625 0,0.234375 0.1054687,0.234375 0.058594,0 0.070312,0 0.2578125,-0.19921875 0.011719,-0.01171875 0.011719,-0.03515625 0.1992188,-0.22265625 0.4335937,0.421875 0.8789062,0.421875 1.0898437,0.421875 1.1484378,0 1.6054688,-0.66796875 1.6054688,-1.38281246 0,-0.5273438 -0.292969,-0.8203125 -0.421875,-0.9492188 -0.328125,-0.3164062 -0.714844,-0.3984375 -1.1367188,-0.46875 -0.5507812,-0.1171875 -1.21875,-0.2460937 -1.21875,-0.8203125 0,-0.3515625 0.2578125,-0.7617187 1.1132813,-0.7617187 1.1015625,0 1.1484375,0.9023437 1.1718745,1.2070312 0,0.09375 0.09375,0.09375 0.117188,0.09375 0.128906,0 0.128906,-0.046875 0.128906,-0.2460937 v -0.9960938 c 0,-0.1757812 0,-0.2460937 -0.117187,-0.2460937 -0.04687,0 -0.07031,0 -0.199219,0.1171875 -0.02344,0.046875 -0.128906,0.1289062 -0.164063,0.1640625 -0.375,-0.28125 -0.7851558,-0.28125 -0.9374995,-0.28125 -1.21875,0 -1.59375,0.6679687 -1.59375,1.2304687 0,0.3398438 0.1640625,0.6210938 0.4335937,0.84375 0.3164063,0.2578125 0.5976563,0.3164063 1.3125,0.4570313 z m 0,0"
       style="fill:#000000;fill-opacity:1;fill-rule:nonzero;stroke:none"
       aria-label="Qs"
       transform="matrix(1.3333333,0,0,1.3333333,512.26267,27.778667)" />
    <path
       id="path32"
       d="m 380.58261,56.69362 3.07742,5.95285 5.35781,-11.90572 5.35782,11.90572 5.35781,-11.90572 5.35783,11.90572 5.35781,-11.90572 2.67891,5.95287"
       style="fill:none;stroke:#000000;stroke-width:0.797;stroke-linecap:butt;stroke-linejoin:bevel;stroke-miterlimit:10;stroke-dasharray:none;stroke-opacity:1"
       transform="matrix(1.3333333,0,0,-1.3333333,39.670667,110.64533)" />
    <path
       id="path33"
       d="m 426.78929,56.69362 c 0,0.87656 -0.71059,1.58714 -1.58716,1.58714 -0.87655,0 -1.58714,-0.71058 -1.58714,-1.58714 0,-0.87657 0.71059,-1.58716 1.58714,-1.58716 0.87657,0 1.58716,0.71059 1.58716,1.58716 z"
       style="fill:#ffffff;fill-opacity:1;fill-rule:nonzero;stroke:#000000;stroke-width:0.3985;stroke-linecap:butt;stroke-linejoin:miter;stroke-miterlimit:10;stroke-dasharray:none;stroke-opacity:1"
       transform="matrix(1.3333333,0,0,-1.3333333,39.670667,110.64533)" />
    <path
       id="path34"
       d="m 2.2251484,-3.5152578 v -2.578125 c 0,-0.234375 0,-0.3515625 0.2226563,-0.3867188 0.1054687,-0.011719 0.3867187,-0.011719 0.5859375,-0.011719 0.9023437,0 2.015625,0.035156 2.015625,1.4765625 0,0.6914062 -0.234375,1.5 -1.7109375,1.5 z m 2.109375,0.1289062 c 0.9609375,-0.234375 1.7460938,-0.84375 1.7460938,-1.6289062 0,-0.9492188 -1.1367188,-1.7929688 -2.6015625,-1.7929688 H 0.35014844 v 0.3164063 h 0.234375 c 0.77343746,0 0.78515626,0.1054687 0.78515626,0.46875 v 5.24999999 c 0,0.3515625 -0.011719,0.46875 -0.78515626,0.46875 h -0.234375 V 3.671875e-4 C 0.70171094,-0.03478906 1.4165547,-0.03478906 1.8032734,-0.03478906 c 0.3867188,0 1.0898438,0 1.453125,0.0351562475 V -0.30432031 h -0.234375 c -0.7734375,0 -0.796875,-0.1171875 -0.796875,-0.46875 V -3.2926016 h 1.1484375 c 0.1640625,0 0.5742188,0 0.9257813,0.3398438 0.3867187,0.3515625 0.3867187,0.65625 0.3867187,1.3242187 0,0.65625004 0,1.05468754 0.3984375,1.42968754 0.4101563,0.36328125 0.9609375,0.421875 1.2539063,0.421875 0.7851562,0 0.9492187,-0.8203125 0.9492187,-1.1015625 0,-0.0585938 0,-0.16406254 -0.1289062,-0.16406254 -0.1054688,0 -0.1054688,0.0820313 -0.1171875,0.15234379 -0.058594,0.71484375 -0.4101563,0.8906249975 -0.65625,0.8906249975 -0.4921875,0 -0.5742188,-0.5039062475 -0.703125,-1.4296874875 l -0.140625,-0.796875 C 5.3657734,-2.8707266 4.8853047,-3.1988516 4.3345234,-3.3863516 Z m 4.6640625,0.082031 v -1.1015625 l -1.3828125,0.1171875 v 0.3046875 c 0.6914063,0 0.7734375,0.070312 0.7734375,0.5625 v 2.66015624 c 0,0.45703125 -0.1054687,0.45703125 -0.7734375,0.45703125 V 3.671875e-4 C 8.0024922,-0.01135156 8.4712422,-0.03478906 8.7524922,-0.03478906 c 0.3984375,0 0.8671875,0 1.2656248,0.0351562475 V -0.30432031 H 9.8071797 c -0.7382813,0 -0.7617188,-0.1171875 -0.7617188,-0.46875 V -2.3082266 c 0,-0.984375 0.421875,-1.875 1.1835941,-1.875 0.05859,0 0.08203,0 0.105468,0.011719 -0.03516,0.011719 -0.234375,0.1289062 -0.234375,0.3867187 0,0.28125 0.210938,0.4335938 0.433594,0.4335938 0.175781,0 0.421875,-0.1289063 0.421875,-0.4453125 0,-0.3164063 -0.304687,-0.609375 -0.726562,-0.609375 -0.7382816,0 -1.0898441,0.6679687 -1.2304691,1.101562 z m 5.5546871,2.54296874 c 0.03516,0.3984375 0.304688,0.8203125 0.773438,0.8203125 0.210937,0 0.820312,-0.140625 0.820312,-0.94921875 V -1.4410391 H 15.90093 v 0.55078129 c 0,0.5859375 -0.246094,0.64453125 -0.363282,0.64453125 -0.328125,0 -0.363281,-0.45703125 -0.363281,-0.50390625 V -2.7418203 c 0,-0.4101563 0,-0.8085938 -0.363281,-1.171875 -0.386719,-0.3867188 -0.878906,-0.5507813 -1.359375,-0.5507813 -0.820313,0 -1.511719,0.46875 -1.511719,1.125 0,0.3046875 0.199219,0.46875 0.457031,0.46875 0.28125,0 0.46875,-0.1992187 0.46875,-0.4570312 0,-0.1171875 -0.05859,-0.4453125 -0.515625,-0.4570313 0.269532,-0.3515625 0.761719,-0.4570312 1.078125,-0.4570312 0.492188,0 1.054688,0.3867187 1.054688,1.2773437 v 0.3632813 c -0.503906,0.035156 -1.207031,0.058594 -1.828125,0.3632812 -0.75,0.3398438 -0.996094,0.8554688 -0.996094,1.28906254 0,0.80859375 0.960938,1.0546875 1.59375,1.0546875 0.65625,0 1.113281,-0.3984375 1.300781,-0.8671878 z m -0.07031,-1.62890624 v 0.9960937 c 0,0.94921879 -0.714844,1.28906254 -1.160156,1.28906254 -0.492188,0 -0.902344,-0.3515625 -0.902344,-0.85546875 0,-0.53906249 0.421875,-1.37109379 2.0625,-1.42968749 z m 5.519531,1.83984374 v 0.65625 L 21.467336,3.671875e-4 V -0.30432031 c -0.703125,0 -0.773438,-0.0703125 -0.773438,-0.5625 V -6.9136953 l -1.441406,0.1054687 v 0.3164063 c 0.703125,0 0.785156,0.070312 0.785156,0.5507812 v 2.15625 c -0.292968,-0.3632812 -0.726562,-0.6210937 -1.265625,-0.6210937 -1.171875,0 -2.214843,0.984375 -2.214843,2.2617187 0,1.26562504 0.972656,2.25000004 2.109375,2.25000004 0.644531,0 1.089843,-0.33984375 1.335937,-0.65625 z m 0,-2.67187504 v 2.0507813 c 0,0.17578124 0,0.19921874 -0.105469,0.36328124 -0.304687,0.48046875 -0.75,0.703125 -1.183593,0.703125 -0.445313,0 -0.796875,-0.2578125 -1.042969,-0.64453125 -0.257813,-0.41015629 -0.292969,-0.97265629 -0.292969,-1.38281249 0,-0.3632813 0.02344,-0.9609375 0.316406,-1.4179688 0.210938,-0.3046875 0.585938,-0.6328125 1.125,-0.6328125 0.351563,0 0.761719,0.1523438 1.078125,0.5976563 0.105469,0.1640625 0.105469,0.1875 0.105469,0.3632812 z m 0,0"
       style="fill:#000000;fill-opacity:1;fill-rule:nonzero;stroke:none"
       aria-label="Rrad"
       transform="matrix(1.3333333,0,0,1.3333333,554.30267,22.034667)" />
    <path
       id="path35"
       d="m 426.78929,0 c 0,0.87656 -0.71059,1.58714 -1.58716,1.58714 -0.87655,0 -1.58714,-0.71058 -1.58714,-1.58714 0,-0.87656 0.71059,-1.58714 1.58714,-1.58714 0.87657,0 1.58716,0.71058 1.58716,1.58714 z"
       style="fill:#ffffff;fill-opacity:1;fill-rule:nonzero;stroke:#000000;stroke-width:0.3985;stroke-linecap:butt;stroke-linejoin:miter;stroke-miterlimit:10;stroke-dasharray:none;stroke-opacity:1"
       transform="matrix(1.3333333,0,0,-1.3333333,39.670667,110.64533)" />
    <path
       id="path36"
       d="m 2.2142578,-3.6430703 v -2.4492188 c 0,-0.328125 0.011719,-0.3984375 0.4804688,-0.3984375 h 1.2421875 c 0.9609375,0 1.3125,0.84375 1.3125,1.3710938 0,0.6328125 -0.4921875,1.4765625 -1.59375,1.4765625 z m 2.34375,0.09375 c 0.9726563,-0.1992188 1.6523438,-0.8320313 1.6523438,-1.5703125 0,-0.8671875 -0.9140625,-1.6875 -2.203125,-1.6875 H 0.36269531 v 0.3164062 h 0.234375 c 0.76171879,0 0.78515629,0.1054688 0.78515629,0.46875 v 5.25000004 c 0,0.3515625 -0.023437,0.46875 -0.78515629,0.46875 h -0.234375 v 0.3046875 H 4.2650391 c 1.3242187,0 2.2148437,-0.890625 2.2148437,-1.82812504 0,-0.8671875 -0.8085937,-1.6054687 -1.921875,-1.7226562 z m -0.609375,3.24609374 H 2.6947266 c -0.46875,0 -0.4804688,-0.0703125 -0.4804688,-0.3984375 V -3.4204141 h 1.875 c 0.984375,0 1.3945313,0.9257813 1.3945313,1.59375 0,0.703125 -0.515625,1.52343754 -1.5351563,1.52343754 z m 4.866211,-6.60937504 -1.4296875,0.1054688 v 0.3164062 c 0.703125,0 0.7734375,0.070312 0.7734375,0.5507813 v 5.17968749 c 0,0.45703125 -0.1054688,0.45703125 -0.7734375,0.45703125 v 0.3046875 c 0.328125,-0.01171875 0.8554687,-0.03515625 1.1015625,-0.03515625 0.2578125,0 0.7382812,0.0234375 1.1132812,0.03515625 v -0.3046875 c -0.6679687,0 -0.7851562,0 -0.7851562,-0.45703125 z m 0,0"
       style="fill:#000000;fill-opacity:1;fill-rule:nonzero;stroke:none"
       aria-label="Bl"
       transform="matrix(1.3333333,0,0,1.3333333,203.2,30.361333)" />
    <path
       id="path37"
       d="M 3.4818906,-3.8657266 2.2045469,-4.1704141 c -0.6210938,-0.1523437 -1.0078125,-0.6914062 -1.0078125,-1.265625 0,-0.703125 0.5390625,-1.3007812 1.3125,-1.3007812 1.6640625,0 1.8867187,1.6289062 1.9453125,2.0742187 0.011719,0.058594 0.011719,0.1171875 0.1171875,0.1171875 0.1289062,0 0.1289062,-0.046875 0.1289062,-0.234375 v -2.0039062 c 0,-0.1640625 0,-0.234375 -0.1054687,-0.234375 -0.070312,0 -0.082031,0.011719 -0.1523438,0.1289062 l -0.3515625,0.5625 c -0.2929687,-0.28125 -0.703125,-0.6914062 -1.59375,-0.6914062 -1.1015625,0 -1.93359372,0.8789062 -1.93359372,1.9335937 0,0.8203125 0.52734372,1.546875 1.30078122,1.8164063 0.1054688,0.046875 0.6210938,0.1640625 1.3125,0.328125 0.2695313,0.070312 0.5742188,0.140625 0.84375,0.515625 0.2109375,0.2578125 0.3164063,0.5859375 0.3164063,0.9140625 0,0.70312499 -0.5039063,1.41796874 -1.3359375,1.41796874 -0.2929688,0 -1.0429688,-0.046875 -1.5703125,-0.5390625 C 0.84517188,-1.1586953 0.82173438,-1.8032266 0.81001563,-2.1547891 c -0.0117188,-0.1054687 -0.09375,-0.1054687 -0.1171875,-0.1054687 -0.12890625,0 -0.12890625,0.070312 -0.12890625,0.2460937 v 1.99218754 c 0,0.17578125 0,0.24609375 0.10546875,0.24609375 0.0703125,0 0.0820313,-0.0234375 0.15234375,-0.12890625 0,-0.01171875 0.0234375,-0.046875 0.35156252,-0.57421875 0.3164062,0.33984375 0.9492187,0.703125 1.8398437,0.703125 1.1601563,0 1.9570313,-0.984375 1.9570313,-2.07421879 0,-0.9960937 -0.65625,-1.8164062 -1.4882813,-2.015625 z m 5.8388672,3.31640629 v 0.65625 L 10.785602,0.00146094 v -0.3046875 c -0.703125,0 -0.773438,-0.0703125 -0.773438,-0.5625 V -6.9126016 l -1.4414062,0.1054688 v 0.3164062 c 0.703125,0 0.7851563,0.070312 0.7851563,0.5507813 v 2.15625 c -0.2929688,-0.3632813 -0.7265625,-0.6210938 -1.265625,-0.6210938 -1.171875,0 -2.2148438,0.984375 -2.2148438,2.2617188 0,1.26562499 0.9726563,2.24999999 2.109375,2.24999999 0.6445313,0 1.0898438,-0.33984375 1.3359375,-0.65625 z m 0,-2.67187499 v 2.0507812 c 0,0.17578129 0,0.19921879 -0.1054687,0.36328129 -0.3046875,0.48046875 -0.75,0.703125 -1.1835938,0.703125 -0.4453125,0 -0.796875,-0.2578125 -1.0429687,-0.64453125 C 6.7309141,-1.1586953 6.6957578,-1.7211953 6.6957578,-2.1313516 c 0,-0.3632812 0.023437,-0.9609375 0.3164063,-1.4179687 0.2109375,-0.3046875 0.5859375,-0.6328125 1.125,-0.6328125 0.3515625,0 0.7617187,0.1523437 1.078125,0.5976562 0.1054687,0.1640625 0.1054687,0.1875 0.1054687,0.3632813 z m 3.6591802,-0.5390625 c 0,-0.2929688 -0.234375,-0.5273438 -0.527344,-0.5273438 -0.28125,0 -0.527344,0.234375 -0.527344,0.5273438 0,0.28125 0.246094,0.5273437 0.527344,0.5273437 0.292969,0 0.527344,-0.2460937 0.527344,-0.5273437 z m 0,3.23437499 c 0,-0.29296875 -0.234375,-0.52734379 -0.527344,-0.52734379 -0.28125,0 -0.527344,0.23437504 -0.527344,0.52734379 0,0.29296875 0.246094,0.52734375 0.527344,0.52734375 0.292969,0 0.527344,-0.234375 0.527344,-0.52734375 z m 3.788085,-5.84765629 c 0,-0.234375 0,-0.2578125 -0.234375,-0.2578125 -0.609375,0.6328125 -1.488281,0.6328125 -1.804687,0.6328125 v 0.3164063 c 0.199219,0 0.785156,0 1.300781,-0.2578125 v 5.15624999 c 0,0.3515625 -0.03516,0.48046875 -0.925781,0.48046875 h -0.316406 v 0.3046875 c 0.351562,-0.03515625 1.207031,-0.03515625 1.605468,-0.03515625 0.398438,0 1.265625,0 1.617188,0.03515625 v -0.3046875 h -0.316406 c -0.902344,0 -0.925782,-0.1171875 -0.925782,-0.48046875 z m 0,0"
       style="fill:#000000;fill-opacity:1;fill-rule:nonzero;stroke:none"
       aria-label="Sd:1"
       transform="matrix(1.3333333,0,0,1.3333333,423.97467,30.361333)" />
  </g>
</svg>
