<?xml version="1.0" encoding="UTF-8" standalone="no"?>
<!-- Created with Inkscape (http://www.inkscape.org/) -->

<svg
   version="1.1"
   id="svg1"
   width="155.524"
   height="342.25601"
   viewBox="0 0 155.524 342.25601"
   sodipodi:docname="01_sealed_enclosure.svg"
   inkscape:version="1.4 (e7c3feb100, 2024-10-09)"
   xmlns:inkscape="http://www.inkscape.org/namespaces/inkscape"
   xmlns:sodipodi="http://sodipodi.sourceforge.net/DTD/sodipodi-0.dtd"
   xmlns="http://www.w3.org/2000/svg"
   xmlns:svg="http://www.w3.org/2000/svg">
  <defs
     id="defs1" />
  <sodipodi:namedview
     id="namedview1"
     pagecolor="#ffffff"
     bordercolor="#000000"
     borderopacity="0.25"
     inkscape:showpageshadow="2"
     inkscape:pageopacity="0.0"
     inkscape:pagecheckerboard="0"
     inkscape:deskcolor="#d1d1d1"
     inkscape:zoom="1.6128278"
     inkscape:cx="77.503626"
     inkscape:cy="171.12801"
     inkscape:window-width="1366"
     inkscape:window-height="761"
     inkscape:window-x="0"
     inkscape:window-y="0"
     inkscape:window-maximized="1"
     inkscape:current-layer="g1">
    <inkscape:page
       x="0"
       y="0"
       inkscape:label="1"
       id="page1"
       width="155.524"
       height="342.25601"
       margin="0"
       bleed="0" />
  </sodipodi:namedview>
  <g
     id="g1"
     inkscape:groupmode="layer"
     inkscape:label="1">
    <path
       id="path1"
       d="m 0,56.69362 h 28.3468 m 0,0 H 56.69362 V 44.221 m 0,-31.74839 V 0 m 8.50412,22.67752 c 1.13951,3.13069 1.13951,6.56461 0,9.6953 m 2.83443,-13.94759 c 2.27902,6.2614 2.27902,13.12926 0,19.39067 M 70.867,14.17339 c 3.41857,9.39211 3.41857,19.69389 0,29.08601 M 0,-56.69362 h 42.5202 m 0,0 h 42.52022 l -2e-5,-12.47261 m 0,-31.74838 2e-5,-12.47263 m -28.3468,56.69362 v -12.47261 m 0,-31.74838 v -12.47263 -24.37832 m 0,-7.93695 v -24.37835"
       style="fill:none;stroke:#000000;stroke-width:0.3985;stroke-linecap:butt;stroke-linejoin:miter;stroke-miterlimit:10;stroke-dasharray:none;stroke-opacity:1"
       transform="matrix(1.3333333,0,0,-1.3333333,9.5013333,93.788)" />
    <path
       id="path2"
       d="m 0.56184375,-3.4102266 c 0,2.0625 1.60546875,3.63281254 3.45703125,3.63281254 1.6289063,0 2.6015625,-1.38281254 2.6015625,-2.54296874 0,-0.1054688 0,-0.1757813 -0.1289062,-0.1757813 -0.1054688,0 -0.1054688,0.070312 -0.1171875,0.1640625 -0.082031,1.42968754 -1.1484375,2.23828129 -2.2265625,2.23828129 -0.609375,0 -2.5664063,-0.33984375 -2.5664063,-3.30468749 0,-2.9765625 1.9453125,-3.3164063 2.5546875,-3.3164063 1.078125,0 1.96875,0.9023438 2.1679688,2.3671875 0.023437,0.1289063 0.023437,0.1640625 0.1640625,0.1640625 0.1523437,0 0.1523437,-0.035156 0.1523437,-0.234375 v -2.3671875 c 0,-0.1640625 0,-0.234375 -0.1054687,-0.234375 -0.035156,0 -0.082031,0 -0.1640625,0.1171875 l -0.4921875,0.7382813 c -0.375,-0.3632813 -0.8789063,-0.8554688 -1.8398438,-0.8554688 -1.8632812,0 -3.45703125,1.5820313 -3.45703125,3.609375 z m 0,0"
       style="fill:#000000;fill-opacity:1;fill-rule:nonzero;stroke:none"
       aria-label="C"
       transform="matrix(1.3333333,0,0,1.3333333,4.704,13.504)" />
    <path
       id="path3"
       d="m 1.58714,56.69362 c 0,0.87656 -0.71058,1.58714 -1.58714,1.58714 -0.87656,0 -1.58714,-0.71058 -1.58714,-1.58714 0,-0.87657 0.71058,-1.58716 1.58714,-1.58716 0.87656,0 1.58714,0.71059 1.58714,1.58716 z"
       style="fill:#ffffff;fill-opacity:1;fill-rule:nonzero;stroke:#000000;stroke-width:0.3985;stroke-linecap:butt;stroke-linejoin:miter;stroke-miterlimit:10;stroke-dasharray:none;stroke-opacity:1"
       transform="matrix(1.3333333,0,0,-1.3333333,9.5013333,93.788)" />
    <path
       id="path4"
       d="M 50.74075,12.47261 V 44.221 H 62.64647 V 12.47261 Z"
       style="fill:none;stroke:#000000;stroke-width:0.797;stroke-linecap:butt;stroke-linejoin:miter;stroke-miterlimit:10;stroke-dasharray:none;stroke-opacity:1"
       transform="matrix(1.3333333,0,0,-1.3333333,9.5013333,93.788)" />
    <g
       id="g4"
       aria-label="Z&#10;rad"
       transform="matrix(1.3333333,0,0,1.3333333,48.924,58.852)">
      <path
         id="path5"
         d="m 5.4505547,-6.4573594 c 0.070312,-0.1054687 0.070312,-0.1171875 0.070312,-0.1875 0,-0.1640625 -0.058594,-0.1640625 -0.2578125,-0.1640625 H 0.79821094 l -0.10546875,2.25 h 0.24609375 c 0.0703125,-1.125 0.36328126,-1.9335937 2.00390626,-1.9335937 h 1.5585937 l -3.86718746,6.12890623 c -0.0703125,0.10546875 -0.0703125,0.1171875 -0.0703125,0.19921875 0,0.164062495 0.046875,0.164062495 0.2578125,0.164062495 H 5.4153984 L 5.5794609,-2.6604844 H 5.3333672 c -0.082031,1.3828125 -0.2695313,2.32031253 -2.109375,2.32031253 h -1.640625 z m 0,0"
         style="fill:#000000;fill-opacity:1;fill-rule:nonzero;stroke:none" />
      <path
         id="path6"
         d="m 7.7298516,0.0875625 c 0,-0.046875 0.1640625,-0.66796875 0.1757812,-0.703125 0.011719,-0.0585938 0.2226563,-0.4101562 0.4453125,-0.5742187 0.070312,-0.058594 0.2578125,-0.1992188 0.5625,-0.1992188 0.070312,0 0.2460938,0.011719 0.3867188,0.1054688 -0.2226563,0.058594 -0.3046875,0.2578125 -0.3046875,0.37499995 0,0.15234375 0.1171875,0.2578125 0.2695312,0.2578125 0.1640625,0 0.3984375,-0.12890625 0.3984375,-0.42187495 0,-0.3632813 -0.3867187,-0.5039063 -0.7382812,-0.5039063 -0.3632813,0 -0.6796875,0.140625 -0.984375,0.4921875 C 7.8118828,-1.5061875 7.3900078,-1.5765 7.2142266,-1.5765 c -0.2578125,0 -0.421875,0.1523438 -0.5390625,0.3515625 -0.1640625,0.26953125 -0.2578125,0.6796875 -0.2578125,0.71484375 0,0.0820313 0.09375,0.0820313 0.1171875,0.0820313 0.09375,0 0.1054687,-0.0117188 0.1523437,-0.19921875 C 6.7923516,-1.060875 6.9212578,-1.389 7.2025078,-1.389 c 0.1757813,0 0.2226563,0.1523438 0.2226563,0.3398438 0,0.14062495 -0.058594,0.39843745 -0.1054688,0.58593745 -0.046875,0.1875 -0.1171875,0.46875 -0.1523437,0.62109375 L 6.9446953,1.0602188 c -0.035156,0.082031 -0.070312,0.2578125 -0.070312,0.28125 0,0.1523437 0.1171875,0.2226562 0.234375,0.2226562 0.1054688,0 0.2460938,-0.058594 0.2929688,-0.1992187 0.023437,-0.046875 0.09375,-0.3515625 0.140625,-0.5273438 z M 12.944695,-1.1663437 C 12.80407,-1.4007187 12.557977,-1.5765 12.229852,-1.5765 c -0.890625,0 -1.804688,0.97265625 -1.804688,1.98046875 0,0.67968755 0.457031,1.16015625 1.054688,1.16015625 0.375,0 0.714843,-0.2109375 0.996093,-0.4921875 0.128907,0.421875 0.527344,0.4921875 0.714844,0.4921875 0.246094,0 0.421875,-0.1523437 0.550781,-0.375 0.152344,-0.26953125 0.246094,-0.66796875 0.246094,-0.69140625 0,-0.09375 -0.09375,-0.09375 -0.117187,-0.09375 -0.09375,0 -0.105469,0.0351563 -0.152344,0.22265625 -0.08203,0.328125 -0.210938,0.7382813 -0.503906,0.7382813 -0.1875,0 -0.234375,-0.1523438 -0.234375,-0.3398438 0,-0.1171875 0.05859,-0.36328125 0.105468,-0.55078125 0.04687,-0.1875 0.117188,-0.46875 0.152344,-0.62109375 l 0.140625,-0.5390625 c 0.04687,-0.17578125 0.128906,-0.5039062 0.128906,-0.5390625 0,-0.1523437 -0.128906,-0.2226562 -0.246093,-0.2226562 -0.117188,0 -0.269532,0.082031 -0.316407,0.28125 z M 12.499383,0.626625 c -0.04687,0.1875 -0.199219,0.328125 -0.351563,0.4570313 -0.07031,0.058594 -0.339843,0.28125 -0.644531,0.28125 -0.257812,0 -0.515625,-0.1757813 -0.515625,-0.6679688 0,-0.375 0.210938,-1.13671875 0.363281,-1.41796875 C 11.67907,-1.2835312 12.030633,-1.389 12.229852,-1.389 c 0.480468,0 0.621093,0.52734375 0.621093,0.609375 0,0.0234375 -0.01172,0.0820313 -0.02344,0.09375 z m 5.80957,-3.7617187 c 0,-0.011719 0.02344,-0.1054688 0.02344,-0.1171875 0,-0.035156 -0.02344,-0.09375 -0.105469,-0.09375 -0.140625,0 -0.726563,0.058594 -0.902344,0.070312 -0.04687,0.011719 -0.152344,0.011719 -0.152344,0.1640625 0,0.09375 0.105469,0.09375 0.1875,0.09375 0.328125,0 0.328125,0.046875 0.328125,0.1054687 0,0.046875 -0.01172,0.09375 -0.02344,0.1523438 l -0.398438,1.59375 C 17.125359,-1.4007187 16.879266,-1.5765 16.551141,-1.5765 c -0.890625,0 -1.804688,0.97265625 -1.804688,1.98046875 0,0.67968755 0.457031,1.16015625 1.054688,1.16015625 0.375,0 0.714843,-0.2109375 0.996093,-0.4921875 0.128907,0.421875 0.527344,0.4921875 0.714844,0.4921875 0.246094,0 0.421875,-0.1523437 0.550781,-0.375 0.152344,-0.26953125 0.246094,-0.66796875 0.246094,-0.69140625 0,-0.09375 -0.09375,-0.09375 -0.117187,-0.09375 -0.09375,0 -0.105469,0.0351563 -0.152344,0.22265625 -0.08203,0.328125 -0.210938,0.7382813 -0.503906,0.7382813 -0.1875,0 -0.234375,-0.1523438 -0.234375,-0.3398438 0,-0.12890625 0.01172,-0.19921875 0.03516,-0.28125 z M 16.820672,0.626625 c -0.04687,0.1875 -0.199219,0.328125 -0.351563,0.4570313 -0.07031,0.058594 -0.339843,0.28125 -0.644531,0.28125 -0.257812,0 -0.515625,-0.1757813 -0.515625,-0.6679688 0,-0.375 0.210938,-1.13671875 0.363281,-1.41796875 C 16.000359,-1.2835312 16.351922,-1.389 16.551141,-1.389 c 0.480468,0 0.621093,0.52734375 0.621093,0.609375 0,0.0234375 -0.01172,0.0820313 -0.02344,0.09375 z m 0,0"
         style="fill:#000000;fill-opacity:1;fill-rule:nonzero;stroke:none" />
    </g>
    <path
       id="path7"
       d="M 56.69362,0 V -11.90558"
       style="fill:none;stroke:#000000;stroke-width:0.3985;stroke-linecap:butt;stroke-linejoin:miter;stroke-miterlimit:10;stroke-dasharray:none;stroke-opacity:1"
       transform="matrix(1.3333333,0,0,-1.3333333,9.5013333,93.788)" />
    <path
       id="path8"
       d="m 50.74075,-11.90558 h 11.90572 m -9.92134,-1.98424 h 7.93697 m -6.44881,-1.98437 h 4.96064"
       style="fill:none;stroke:#000000;stroke-width:0.797;stroke-linecap:butt;stroke-linejoin:miter;stroke-miterlimit:10;stroke-dasharray:none;stroke-opacity:1"
       transform="matrix(1.3333333,0,0,-1.3333333,9.5013333,93.788)" />
    <path
       id="path9"
       d="m 0.35282813,-6.8098984 v 0.3164062 h 0.234375 c 0.77343747,0 0.78515627,0.1054688 0.78515627,0.46875 v 5.25000001 c 0,0.3515625 -0.011719,0.46875 -0.78515627,0.46875 h -0.234375 v 0.3046875 H 3.9973594 c 1.6757812,0 3.046875,-1.47656251 3.046875,-3.35156251 0,-1.8867187 -1.3476563,-3.4570312 -3.046875,-3.4570312 z m 2.36718747,6.50390621 c -0.46875,0 -0.4921875,-0.0703125 -0.4921875,-0.3984375 V -6.0950547 c 0,-0.328125 0.023437,-0.3984375 0.4921875,-0.3984375 h 0.9960938 c 0.6210937,0 1.3007812,0.2109375 1.8164062,0.9257813 0.421875,0.5859375 0.515625,1.4414062 0.515625,2.2148437 0,1.1132813 -0.1875,1.7109375 -0.5507812,2.1914063 -0.1992188,0.26953121 -0.7617188,0.85546871 -1.7695313,0.85546871 z m 0,0"
       style="fill:#000000;fill-opacity:1;fill-rule:nonzero;stroke:none"
       aria-label="D"
       transform="matrix(1.3333333,0,0,1.3333333,4.428,164.68533)" />
    <path
       id="path10"
       d="m 1.58714,-56.69362 c 0,0.87657 -0.71058,1.58716 -1.58714,1.58716 -0.87656,0 -1.58714,-0.71059 -1.58714,-1.58716 0,-0.87656 0.71058,-1.58714 1.58714,-1.58714 0.87656,0 1.58714,0.71058 1.58714,1.58714 z"
       style="fill:#ffffff;fill-opacity:1;fill-rule:nonzero;stroke:#000000;stroke-width:0.3985;stroke-linecap:butt;stroke-linejoin:miter;stroke-miterlimit:10;stroke-dasharray:none;stroke-opacity:1"
       transform="matrix(1.3333333,0,0,-1.3333333,9.5013333,93.788)" />
    <path
       id="path11"
       d="m 85.0404,-68.76772 5.95286,-3.07742 -11.90571,-5.35782 11.90571,-5.3578 -11.90571,-5.35782 11.90571,-5.35782 -11.90571,-5.35782 5.95285,-2.67891"
       style="fill:none;stroke:#000000;stroke-width:0.797;stroke-linecap:butt;stroke-linejoin:bevel;stroke-miterlimit:10;stroke-dasharray:none;stroke-opacity:1"
       transform="matrix(1.3333333,0,0,-1.3333333,9.5013333,93.788)" />
    <g
       id="g11"
       aria-label="R&#10;al"
       transform="matrix(1.3333333,0,0,1.3333333,133.76267,210.03333)">
      <path
         id="path12"
         d="m 2.2258516,-3.5142578 v -2.578125 c 0,-0.234375 0,-0.3515625 0.2226562,-0.3867188 0.1054688,-0.011719 0.3867188,-0.011719 0.5859375,-0.011719 0.9023438,0 2.015625,0.035156 2.015625,1.4765625 0,0.6914062 -0.234375,1.5 -1.7109375,1.5 z m 2.109375,0.1289062 c 0.9609375,-0.234375 1.7460937,-0.84375 1.7460937,-1.6289062 0,-0.9492188 -1.1367187,-1.7929688 -2.6015625,-1.7929688 H 0.35085156 v 0.3164063 h 0.234375 c 0.77343754,0 0.78515624,0.1054687 0.78515624,0.46875 v 5.24999999 c 0,0.3515625 -0.011719,0.46875 -0.78515624,0.46875 h -0.234375 v 0.3046875 c 0.3515625,-0.03515625 1.06640624,-0.03515625 1.45312504,-0.03515625 0.3867187,0 1.0898437,0 1.453125,0.03515625 v -0.3046875 h -0.234375 c -0.7734375,0 -0.796875,-0.1171875 -0.796875,-0.46875 V -3.2916016 h 1.1484375 c 0.1640625,0 0.5742187,0 0.9257812,0.3398438 0.3867188,0.3515625 0.3867188,0.65625 0.3867188,1.3242187 0,0.65625004 0,1.05468754 0.3984375,1.42968754 0.4101562,0.36328125 0.9609375,0.421875 1.2539062,0.421875 0.7851563,0 0.9492188,-0.8203125 0.9492188,-1.1015625 0,-0.0585938 0,-0.16406254 -0.1289063,-0.16406254 -0.1054687,0 -0.1054687,0.0820313 -0.1171875,0.15234379 -0.058594,0.71484375 -0.4101562,0.890625 -0.65625,0.890625 -0.4921875,0 -0.5742187,-0.50390625 -0.703125,-1.42968749 l -0.140625,-0.796875 C 5.3664766,-2.8697266 4.8860078,-3.1978516 4.3352266,-3.3853516 Z m 0,0"
         style="fill:#000000;fill-opacity:1;fill-rule:nonzero;stroke:none" />
      <path
         id="path13"
         d="m 10.273703,-1.1675781 c -0.140625,-0.234375 -0.3867186,-0.4101563 -0.7148436,-0.4101563 -0.890625,0 -1.8046875,0.97265628 -1.8046875,1.98046878 0,0.67968752 0.4570312,1.16015622 1.0546875,1.16015622 0.375,0 0.7148437,-0.2109375 0.9960937,-0.4921875 0.1289063,0.421875 0.5273439,0.4921875 0.7148439,0.4921875 0.246094,0 0.421875,-0.1523437 0.550781,-0.375 0.152344,-0.26953122 0.246094,-0.66796872 0.246094,-0.69140622 0,-0.09375 -0.09375,-0.09375 -0.117188,-0.09375 -0.09375,0 -0.105468,0.0351563 -0.152343,0.22265625 -0.08203,0.328125 -0.210938,0.73828127 -0.503907,0.73828127 -0.1875,0 -0.234375,-0.1523438 -0.234375,-0.3398438 0,-0.11718747 0.05859,-0.36328122 0.105469,-0.55078122 0.04687,-0.1875 0.117188,-0.46875 0.152344,-0.62109375 l 0.140625,-0.5390625 c 0.04687,-0.17578125 0.128906,-0.50390623 0.128906,-0.53906253 0,-0.1523437 -0.128906,-0.2226562 -0.246094,-0.2226562 -0.117187,0 -0.269531,0.082031 -0.316406,0.28125 z M 9.8283906,0.62539063 c -0.046875,0.1875 -0.1992187,0.328125 -0.3515625,0.45703127 -0.070312,0.058594 -0.3398437,0.28125 -0.6445312,0.28125 -0.2578125,0 -0.515625,-0.1757813 -0.515625,-0.66796877 0,-0.375 0.2109375,-1.13671875 0.3632812,-1.41796875 0.328125,-0.56249998 0.6796875,-0.66796878 0.8789063,-0.66796878 0.4804686,0 0.6210936,0.52734378 0.6210936,0.60937503 0,0.0234375 -0.01172,0.0820313 -0.02344,0.09375 z M 13.622336,-3.1363281 c 0,-0.011719 0.02344,-0.1054688 0.02344,-0.1171875 0,-0.035156 -0.02344,-0.09375 -0.105468,-0.09375 -0.140625,0 -0.726563,0.058594 -0.902344,0.070312 -0.04687,0.011719 -0.140625,0.011719 -0.140625,0.1640625 0,0.09375 0.09375,0.09375 0.175781,0.09375 0.328125,0 0.328125,0.046875 0.328125,0.1054687 0,0.046875 -0.01172,0.09375 -0.02344,0.1523438 l -0.867188,3.44531248 c -0.02344,0.0703125 -0.02344,0.140625 -0.02344,0.2109375 0,0.45703122 0.398437,0.66796872 0.726562,0.66796872 0.175781,0 0.375,-0.058594 0.5625,-0.375 0.140625,-0.25781247 0.246094,-0.66796872 0.246094,-0.69140622 0,-0.09375 -0.09375,-0.09375 -0.117188,-0.09375 -0.09375,0 -0.105468,0.046875 -0.140625,0.1640625 -0.08203,0.3515625 -0.222656,0.79687502 -0.515625,0.79687502 -0.1875,0 -0.234375,-0.1757813 -0.234375,-0.3398438 0,-0.0703125 0.01172,-0.21093747 0.03516,-0.28124997 z m 0,0"
         style="fill:#000000;fill-opacity:1;fill-rule:nonzero;stroke:none" />
    </g>
    <path
       id="path14"
       d="m 85.04042,-113.38724 v -11.90558"
       style="fill:none;stroke:#000000;stroke-width:0.3985;stroke-linecap:butt;stroke-linejoin:miter;stroke-miterlimit:10;stroke-dasharray:none;stroke-opacity:1"
       transform="matrix(1.3333333,0,0,-1.3333333,9.5013333,93.788)" />
    <path
       id="path15"
       d="m 79.08757,-125.29282 h 11.9057 m -9.92132,-1.98423 h 7.93695 m -6.4488,-1.98438 h 4.96065"
       style="fill:none;stroke:#000000;stroke-width:0.797;stroke-linecap:butt;stroke-linejoin:miter;stroke-miterlimit:10;stroke-dasharray:none;stroke-opacity:1"
       transform="matrix(1.3333333,0,0,-1.3333333,9.5013333,93.788)" />
    <path
       id="path16"
       d="m 56.69362,-68.76772 5.95285,-3.07742 -11.90572,-5.35782 11.90572,-5.3578 -11.90572,-5.35782 11.90572,-5.35782 -11.90572,-5.35782 5.95287,-2.67891"
       style="fill:none;stroke:#000000;stroke-width:0.797;stroke-linecap:butt;stroke-linejoin:bevel;stroke-miterlimit:10;stroke-dasharray:none;stroke-opacity:1"
       transform="matrix(1.3333333,0,0,-1.3333333,9.5013333,93.788)" />
    <path
       id="path17"
       d="m 58.28076,-56.69362 c 0,0.87657 -0.71058,1.58716 -1.58714,1.58716 -0.87657,0 -1.58716,-0.71059 -1.58716,-1.58716 0,-0.87656 0.71059,-1.58714 1.58716,-1.58714 0.87656,0 1.58714,0.71058 1.58714,1.58714 z"
       style="fill:#000000;fill-opacity:1;fill-rule:nonzero;stroke:#000000;stroke-width:0.3985;stroke-linecap:butt;stroke-linejoin:miter;stroke-miterlimit:10;stroke-dasharray:none;stroke-opacity:1"
       transform="matrix(1.3333333,0,0,-1.3333333,9.5013333,93.788)" />
    <path
       id="path18"
       d="m 58.28076,-113.38724 c 0,0.87657 -0.71058,1.58716 -1.58714,1.58716 -0.87657,0 -1.58716,-0.71059 -1.58716,-1.58716 0,-0.87656 0.71059,-1.58714 1.58716,-1.58714 0.87656,0 1.58714,0.71058 1.58714,1.58714 z"
       style="fill:#000000;fill-opacity:1;fill-rule:nonzero;stroke:#000000;stroke-width:0.3985;stroke-linecap:butt;stroke-linejoin:miter;stroke-miterlimit:10;stroke-dasharray:none;stroke-opacity:1"
       transform="matrix(1.3333333,0,0,-1.3333333,9.5013333,93.788)" />
    <g
       id="g18"
       aria-label="R&#10;ab"
       transform="matrix(1.3333333,0,0,1.3333333,53.34,210.03333)">
      <path
         id="path19"
         d="m 2.2264453,-3.5142578 v -2.578125 c 0,-0.234375 0,-0.3515625 0.2226563,-0.3867188 0.1054687,-0.011719 0.3867187,-0.011719 0.5859375,-0.011719 0.9023437,0 2.015625,0.035156 2.015625,1.4765625 0,0.6914062 -0.234375,1.5 -1.7109375,1.5 z m 2.109375,0.1289062 c 0.9609375,-0.234375 1.7460938,-0.84375 1.7460938,-1.6289062 0,-0.9492188 -1.1367188,-1.7929688 -2.6015625,-1.7929688 H 0.35144531 v 0.3164063 h 0.234375 c 0.77343749,0 0.78515629,0.1054687 0.78515629,0.46875 v 5.24999999 c 0,0.3515625 -0.011719,0.46875 -0.78515629,0.46875 h -0.234375 v 0.3046875 c 0.3515625,-0.03515625 1.06640629,-0.03515625 1.45312499,-0.03515625 0.3867188,0 1.0898438,0 1.453125,0.03515625 v -0.3046875 h -0.234375 c -0.7734375,0 -0.796875,-0.1171875 -0.796875,-0.46875 V -3.2916016 h 1.1484375 c 0.1640625,0 0.5742188,0 0.9257813,0.3398438 0.3867187,0.3515625 0.3867187,0.65625 0.3867187,1.3242187 0,0.65625004 0,1.05468754 0.3984375,1.42968754 0.4101563,0.36328125 0.9609375,0.421875 1.2539063,0.421875 0.7851562,0 0.9492187,-0.8203125 0.9492187,-1.1015625 0,-0.0585938 0,-0.16406254 -0.1289062,-0.16406254 -0.1054688,0 -0.1054688,0.0820313 -0.1171875,0.15234379 -0.058594,0.71484375 -0.4101563,0.890625 -0.65625,0.890625 -0.4921875,0 -0.5742188,-0.50390625 -0.703125,-1.42968749 l -0.140625,-0.796875 C 5.3670703,-2.8697266 4.8866016,-3.1978516 4.3358203,-3.3853516 Z m 0,0"
         style="fill:#000000;fill-opacity:1;fill-rule:nonzero;stroke:none" />
      <path
         id="path20"
         d="m 10.274297,-1.1675781 c -0.140625,-0.234375 -0.3867189,-0.4101563 -0.7148439,-0.4101563 -0.890625,0 -1.8046875,0.97265628 -1.8046875,1.98046878 0,0.67968752 0.4570313,1.16015622 1.0546875,1.16015622 0.375,0 0.7148438,-0.2109375 0.9960938,-0.4921875 0.1289062,0.421875 0.5273441,0.4921875 0.7148441,0.4921875 0.246093,0 0.421875,-0.1523437 0.550781,-0.375 0.152344,-0.26953122 0.246094,-0.66796872 0.246094,-0.69140622 0,-0.09375 -0.09375,-0.09375 -0.117188,-0.09375 -0.09375,0 -0.105469,0.0351563 -0.152344,0.22265625 -0.08203,0.328125 -0.210937,0.73828127 -0.503906,0.73828127 -0.1875,0 -0.234375,-0.1523438 -0.234375,-0.3398438 0,-0.11718747 0.05859,-0.36328122 0.105469,-0.55078122 0.04687,-0.1875 0.117187,-0.46875 0.152344,-0.62109375 l 0.140625,-0.5390625 c 0.04687,-0.17578125 0.128906,-0.50390623 0.128906,-0.53906253 0,-0.1523437 -0.128906,-0.2226562 -0.246094,-0.2226562 -0.117187,0 -0.269531,0.082031 -0.316406,0.28125 z M 9.8289844,0.62539063 c -0.046875,0.1875 -0.1992188,0.328125 -0.3515625,0.45703127 -0.070312,0.058594 -0.3398438,0.28125 -0.6445313,0.28125 -0.2578125,0 -0.515625,-0.1757813 -0.515625,-0.66796877 0,-0.375 0.2109375,-1.13671875 0.3632813,-1.41796875 0.328125,-0.56249998 0.6796875,-0.66796878 0.8789062,-0.66796878 0.4804689,0 0.6210939,0.52734378 0.6210939,0.60937503 0,0.0234375 -0.01172,0.0820313 -0.02344,0.09375 z M 13.496953,-3.1363281 c 0.01172,-0.011719 0.02344,-0.1054688 0.02344,-0.1171875 0,-0.035156 -0.02344,-0.09375 -0.105469,-0.09375 -0.140625,0 -0.714844,0.058594 -0.890625,0.070312 -0.05859,0.011719 -0.152344,0.011719 -0.152344,0.1640625 0,0.09375 0.09375,0.09375 0.175781,0.09375 0.339844,0 0.339844,0.046875 0.339844,0.1054687 0,0.046875 -0.07031,0.328125 -0.117187,0.4921875 l -0.152344,0.6328125 c -0.07031,0.2460938 -0.457031,1.76953128 -0.46875,1.86328128 -0.03516,0.1640625 -0.03516,0.2578125 -0.03516,0.33984375 0,0.70312497 0.445312,1.14843747 1.03125,1.14843747 0.867187,0 1.792968,-0.94921872 1.792968,-1.98046872 0,-0.82031248 -0.5625,-1.16015628 -1.042968,-1.16015628 -0.363282,0 -0.667969,0.1992188 -0.878907,0.375 z m -0.351562,4.5 c -0.339844,0 -0.527344,-0.2929688 -0.527344,-0.70312502 0,-0.2578125 0.05859,-0.50390625 0.257812,-1.2890625 0.03516,-0.12890625 0.03516,-0.140625 0.164063,-0.29296875 0.269531,-0.31640623 0.585937,-0.46875003 0.832031,-0.46875003 0.269531,0 0.515625,0.2109375 0.515625,0.67968753 0,0.28125 -0.152344,0.99609375 -0.363281,1.40625 C 13.848516,1.0355469 13.508672,1.3636719 13.145391,1.3636719 Z m 0,0"
         style="fill:#000000;fill-opacity:1;fill-rule:nonzero;stroke:none" />
    </g>
    <path
       id="path21"
       d="M 68.59933,-137.76556 H 44.78789 m 23.81144,-7.93695 H 44.78789"
       style="fill:none;stroke:#000000;stroke-width:0.797;stroke-linecap:butt;stroke-linejoin:miter;stroke-miterlimit:10;stroke-dasharray:none;stroke-opacity:1"
       transform="matrix(1.3333333,0,0,-1.3333333,9.5013333,93.788)" />
    <g
       id="g21"
       aria-label="C&#10;ab"
       transform="matrix(1.3333333,0,0,1.3333333,44.794667,285.624)">
      <path
         id="path22"
         d="m 0.56122656,-3.4094062 c 0,2.0625 1.60546874,3.63281245 3.45703124,3.63281245 1.6289063,0 2.6015625,-1.38281245 2.6015625,-2.54296875 0,-0.1054687 0,-0.1757812 -0.1289062,-0.1757812 -0.1054688,0 -0.1054688,0.070312 -0.1171875,0.1640625 C 6.2916953,-0.90159375 5.2252891,-0.093 4.1471641,-0.093 c -0.609375,0 -2.5664063,-0.33984375 -2.5664063,-3.3046875 0,-2.9765625 1.9453125,-3.3164062 2.5546875,-3.3164062 1.078125,0 1.96875,0.9023437 2.1679688,2.3671875 0.023437,0.1289062 0.023437,0.1640625 0.1640625,0.1640625 0.1523437,0 0.1523437,-0.035156 0.1523437,-0.234375 v -2.3671875 c 0,-0.1640625 0,-0.234375 -0.1054687,-0.234375 -0.035156,0 -0.082031,0 -0.1640625,0.1171875 l -0.4921875,0.7382812 c -0.375,-0.3632812 -0.8789063,-0.8554687 -1.8398438,-0.8554687 -1.8632812,0 -3.45703124,1.5820312 -3.45703124,3.609375 z m 0,0"
         style="fill:#000000;fill-opacity:1;fill-rule:nonzero;stroke:none" />
      <path
         id="path23"
         d="m 10.135445,-1.1652656 c -0.1406247,-0.234375 -0.3867184,-0.4101563 -0.7148434,-0.4101563 -0.890625,0 -1.8046875,0.97265628 -1.8046875,1.98046878 0,0.67968752 0.4570312,1.16015622 1.0546875,1.16015622 0.375,0 0.7148437,-0.2109375 0.9960937,-0.4921875 0.1289063,0.421875 0.5273437,0.4921875 0.7148437,0.4921875 0.246094,0 0.421875,-0.1523437 0.550781,-0.375 0.152344,-0.26953122 0.246094,-0.66796872 0.246094,-0.69140622 0,-0.09375 -0.09375,-0.09375 -0.117187,-0.09375 -0.09375,0 -0.105469,0.0351563 -0.152344,0.22265625 -0.08203,0.328125 -0.210938,0.73828127 -0.503906,0.73828127 -0.1875,0 -0.234375,-0.1523438 -0.234375,-0.3398438 0,-0.11718747 0.05859,-0.36328122 0.105468,-0.55078122 0.04687,-0.1875 0.117188,-0.46875 0.152344,-0.62109375 l 0.140625,-0.5390625 c 0.04687,-0.17578125 0.128906,-0.50390623 0.128906,-0.53906253 0,-0.1523437 -0.128906,-0.2226562 -0.246093,-0.2226562 -0.117188,0 -0.269532,0.082031 -0.316407,0.28125 z M 9.6901328,0.62770313 c -0.046875,0.1875 -0.1992187,0.328125 -0.3515625,0.45703127 -0.070312,0.058594 -0.3398437,0.28125 -0.6445312,0.28125 -0.2578125,0 -0.515625,-0.1757813 -0.515625,-0.66796877 0,-0.375 0.2109375,-1.13671875 0.3632812,-1.41796875 0.328125,-0.56249998 0.6796875,-0.66796878 0.8789063,-0.66796878 0.4804687,0 0.6210934,0.52734378 0.6210934,0.60937503 0,0.0234375 -0.01172,0.0820313 -0.02344,0.09375 z M 13.355172,-3.1340156 c 0.01172,-0.011719 0.02344,-0.1054688 0.02344,-0.1171875 0,-0.035156 -0.02344,-0.09375 -0.105468,-0.09375 -0.140625,0 -0.714844,0.058594 -0.890625,0.070312 -0.05859,0.011719 -0.152344,0.011719 -0.152344,0.1640625 0,0.09375 0.09375,0.09375 0.175781,0.09375 0.339844,0 0.339844,0.046875 0.339844,0.1054687 0,0.046875 -0.07031,0.328125 -0.117188,0.4921875 l -0.152343,0.6328125 c -0.07031,0.2460938 -0.457032,1.76953128 -0.46875,1.86328128 -0.03516,0.1640625 -0.03516,0.2578125 -0.03516,0.33984375 0,0.70312497 0.445313,1.14843747 1.03125,1.14843747 0.867188,0 1.792969,-0.94921872 1.792969,-1.98046872 0,-0.82031248 -0.5625,-1.16015628 -1.042969,-1.16015628 -0.363281,0 -0.667968,0.1992188 -0.878906,0.375 z m -0.351563,4.5 c -0.339843,0 -0.527343,-0.2929688 -0.527343,-0.70312502 0,-0.2578125 0.05859,-0.50390625 0.257812,-1.2890625 0.03516,-0.12890625 0.03516,-0.140625 0.164063,-0.29296875 0.269531,-0.31640623 0.585937,-0.46875003 0.832031,-0.46875003 0.269531,0 0.515625,0.2109375 0.515625,0.67968753 0,0.28125 -0.152344,0.99609375 -0.363281,1.40625 C 13.706734,1.0378594 13.366891,1.3659844 13.003609,1.3659844 Z m 0,0"
         style="fill:#000000;fill-opacity:1;fill-rule:nonzero;stroke:none" />
    </g>
    <path
       id="path24"
       d="m 56.69362,-170.08086 v -11.90557"
       style="fill:none;stroke:#000000;stroke-width:0.3985;stroke-linecap:butt;stroke-linejoin:miter;stroke-miterlimit:10;stroke-dasharray:none;stroke-opacity:1"
       transform="matrix(1.3333333,0,0,-1.3333333,9.5013333,93.788)" />
    <path
       id="path25"
       d="m 50.74075,-181.98643 h 11.90572 m -9.92134,-1.98424 h 7.93697 m -6.44881,-1.98438 h 4.96064"
       style="fill:none;stroke:#000000;stroke-width:0.797;stroke-linecap:butt;stroke-linejoin:miter;stroke-miterlimit:10;stroke-dasharray:none;stroke-opacity:1"
       transform="matrix(1.3333333,0,0,-1.3333333,9.5013333,93.788)" />
  </g>
</svg>
