<?xml version="1.0" encoding="UTF-8" standalone="no"?>
<!-- Created with Inkscape (http://www.inkscape.org/) -->

<svg
   version="1.1"
   id="svg1"
   width="299.15732"
   height="396.90799"
   viewBox="0 0 299.15732 396.90799"
   sodipodi:docname="07_bandpass6_abr.svg"
   inkscape:version="1.4 (e7c3feb100, 2024-10-09)"
   xmlns:inkscape="http://www.inkscape.org/namespaces/inkscape"
   xmlns:sodipodi="http://sodipodi.sourceforge.net/DTD/sodipodi-0.dtd"
   xmlns="http://www.w3.org/2000/svg"
   xmlns:svg="http://www.w3.org/2000/svg">
  <defs
     id="defs1" />
  <sodipodi:namedview
     id="namedview1"
     pagecolor="#ffffff"
     bordercolor="#000000"
     borderopacity="0.25"
     inkscape:showpageshadow="2"
     inkscape:pageopacity="0.0"
     inkscape:pagecheckerboard="0"
     inkscape:deskcolor="#d1d1d1"
     inkscape:zoom="1.3907505"
     inkscape:cx="84.846273"
     inkscape:cy="174.00676"
     inkscape:window-width="1280"
     inkscape:window-height="761"
     inkscape:window-x="0"
     inkscape:window-y="0"
     inkscape:window-maximized="1"
     inkscape:current-layer="g1">
    <inkscape:page
       x="0"
       y="0"
       inkscape:label="1"
       id="page1"
       width="299.15732"
       height="396.90799"
       margin="0"
       bleed="0" />
  </sodipodi:namedview>
  <g
     id="g1"
     inkscape:groupmode="layer"
     inkscape:label="1">
    <path
       id="path1"
       d="m 0,56.69362 h 28.3468 m 0,0 H 56.69362 V 44.221 m 0,-31.74839 V 0 M 28.3468,56.69362 28.34679,44.221 m 0,-31.74839 L 28.3468,0 l -1e-5,-24.37833 m 0,-7.93695 1e-5,-24.37834 M 56.69362,56.69362 H 73.1347 m 23.81144,0 h 16.4411 5.38591 m 31.74838,0 h 5.38591 17.29163 m 7.93695,0 h 17.29164 l -2e-5,-12.47262 m 0,-31.74839 L 198.42766,0 m 8.50412,22.67752 c 1.13951,3.13069 1.13951,6.56461 0,9.6953 m 2.83442,-13.94759 c 2.27904,6.2614 2.27904,13.12926 0,19.39067 m 2.83486,-23.64251 c 3.41856,9.39211 3.41856,19.69389 0,29.08601 M 0,-85.04042 l 28.3468,2e-5 m 0,0 28.34682,-2e-5 v -12.4726 m 0,-31.74839 v -12.47263 m -28.34682,56.69362 -1e-5,-12.4726 m 0,-31.74839 1e-5,-12.47263 -1e-5,-24.37833 m 0,-7.93695 1e-5,-24.37834 m 28.34682,113.38724 16.44108,2e-5 m 23.81144,0 16.4411,-2e-5 5.38591,2e-5 m 31.74838,0 5.38591,-2e-5 17.29163,2e-5 m 7.93695,0 17.29164,-2e-5 -2e-5,-12.4726 m 0,-31.74839 2e-5,-12.47263"
       style="fill:none;stroke:#000000;stroke-width:0.3985;stroke-linecap:butt;stroke-linejoin:miter;stroke-miterlimit:10;stroke-dasharray:none;stroke-opacity:1"
       transform="matrix(1.3333333,0,0,-1.3333333,10.869333,110.644)" />
    <path
       id="path2"
       d="m 0.56123437,-3.4086953 c 0,2.0625 1.60546873,3.63281249 3.45703123,3.63281249 1.6289063,0 2.6015625,-1.38281249 2.6015625,-2.54296879 0,-0.1054687 0,-0.1757812 -0.1289062,-0.1757812 -0.1054688,0 -0.1054688,0.070312 -0.1171875,0.1640625 -0.082031,1.42968749 -1.1484375,2.23828124 -2.2265625,2.23828124 -0.609375,0 -2.5664063,-0.33984375 -2.5664063,-3.30468754 0,-2.9765625 1.9453125,-3.3164062 2.5546875,-3.3164062 1.078125,0 1.96875,0.9023437 2.1679688,2.3671875 0.023437,0.1289062 0.023437,0.1640625 0.1640625,0.1640625 0.1523437,0 0.1523437,-0.035156 0.1523437,-0.234375 v -2.3671875 c 0,-0.1640625 0,-0.234375 -0.1054687,-0.234375 -0.035156,0 -0.082031,0 -0.1640625,0.1171875 l -0.4921875,0.7382812 c -0.375,-0.3632812 -0.8789063,-0.8554687 -1.8398438,-0.8554687 -1.8632812,0 -3.45703123,1.5820312 -3.45703123,3.609375 z m 0,0"
       style="fill:#000000;fill-opacity:1;fill-rule:nonzero;stroke:none"
       aria-label="C"
       transform="matrix(1.3333333,0,0,1.3333333,6.072,30.361333)" />
    <path
       id="path3"
       d="m 1.58714,56.69362 c 0,0.87656 -0.71058,1.58714 -1.58714,1.58714 -0.87656,0 -1.58714,-0.71058 -1.58714,-1.58714 0,-0.87657 0.71058,-1.58716 1.58714,-1.58716 0.87656,0 1.58714,0.71059 1.58714,1.58716 z"
       style="fill:#ffffff;fill-opacity:1;fill-rule:nonzero;stroke:#000000;stroke-width:0.3985;stroke-linecap:butt;stroke-linejoin:miter;stroke-miterlimit:10;stroke-dasharray:none;stroke-opacity:1"
       transform="matrix(1.3333333,0,0,-1.3333333,10.869333,110.644)" />
    <path
       id="path4"
       d="M 56.69362,44.6195 62.64647,41.54208 50.74075,36.18428 62.64647,30.82646 50.74075,25.46864 62.64647,20.11082 50.74075,14.753 56.69362,12.0741"
       style="fill:none;stroke:#000000;stroke-width:0.797;stroke-linecap:butt;stroke-linejoin:bevel;stroke-miterlimit:10;stroke-dasharray:none;stroke-opacity:1"
       transform="matrix(1.3333333,0,0,-1.3333333,10.869333,110.644)" />
    <g
       id="g4"
       aria-label="R&#10;alf"
       transform="matrix(1.3333333,0,0,1.3333333,97.334667,75.709333)">
      <path
         id="path5"
         d="m 2.2275156,-3.5144219 v -2.578125 c 0,-0.234375 0,-0.3515625 0.2226563,-0.3867187 0.1054687,-0.011719 0.3867187,-0.011719 0.5859375,-0.011719 0.9023437,0 2.015625,0.035156 2.015625,1.4765625 0,0.6914063 -0.234375,1.5 -1.7109375,1.5 z m 2.109375,0.1289063 c 0.9609375,-0.234375 1.7460938,-0.84375 1.7460938,-1.6289063 0,-0.9492187 -1.1367188,-1.7929687 -2.6015625,-1.7929687 H 0.35251562 v 0.3164062 h 0.234375 c 0.77343748,0 0.78515628,0.1054688 0.78515628,0.46875 v 5.25000003 c 0,0.3515625 -0.011719,0.46875 -0.78515628,0.46875 h -0.234375 v 0.3046875 c 0.3515625,-0.03515625 1.06640628,-0.03515625 1.45312498,-0.03515625 0.3867188,0 1.0898438,0 1.453125,0.03515625 v -0.3046875 h -0.234375 c -0.7734375,0 -0.796875,-0.1171875 -0.796875,-0.46875 V -3.2917656 h 1.1484375 c 0.1640625,0 0.5742188,0 0.9257813,0.3398437 0.3867187,0.3515625 0.3867187,0.65625 0.3867187,1.3242188 0,0.65624998 0,1.05468748 0.3984375,1.42968748 0.4101563,0.36328125 0.9609375,0.421875 1.2539063,0.421875 0.7851562,0 0.9492187,-0.8203125 0.9492187,-1.1015625 0,-0.0585938 0,-0.16406248 -0.1289062,-0.16406248 -0.1054688,0 -0.1054688,0.0820312 -0.1171875,0.15234373 -0.058594,0.71484375 -0.4101563,0.890625 -0.65625,0.890625 -0.4921875,0 -0.5742188,-0.50390625 -0.703125,-1.42968753 l -0.140625,-0.796875 C 5.3681406,-2.8698906 4.8876719,-3.1980156 4.3368906,-3.3855156 Z m 0,0"
         style="fill:#000000;fill-opacity:1;fill-rule:nonzero;stroke:none" />
      <path
         id="path6"
         d="m 10.275367,-1.1648125 c -0.140625,-0.234375 -0.3867186,-0.4101562 -0.7148436,-0.4101562 -0.890625,0 -1.8046875,0.9726562 -1.8046875,1.9804687 0,0.6796875 0.4570313,1.1601563 1.0546875,1.1601563 0.375,0 0.7148438,-0.2109375 0.9960938,-0.4921875 0.1289062,0.421875 0.5273438,0.4921875 0.7148438,0.4921875 0.246094,0 0.421875,-0.1523438 0.550781,-0.375 0.152344,-0.2695313 0.246094,-0.6679688 0.246094,-0.6914063 0,-0.09375 -0.09375,-0.09375 -0.117188,-0.09375 -0.09375,0 -0.105468,0.0351563 -0.152343,0.22265625 -0.08203,0.328125 -0.210938,0.73828125 -0.503907,0.73828125 -0.1875,0 -0.234375,-0.1523437 -0.234375,-0.3398437 0,-0.11718755 0.05859,-0.3632813 0.105469,-0.5507813 0.04687,-0.1875 0.117188,-0.46875 0.152344,-0.62109375 l 0.140625,-0.5390625 c 0.04687,-0.17578125 0.128906,-0.50390625 0.128906,-0.53906245 0,-0.1523438 -0.128906,-0.2226563 -0.246094,-0.2226563 -0.117187,0 -0.269531,0.082031 -0.316406,0.28125 z M 9.8300547,0.62815625 c -0.046875,0.1875 -0.1992188,0.328125 -0.3515625,0.45703125 -0.070312,0.058594 -0.3398438,0.28125 -0.6445313,0.28125 -0.2578125,0 -0.515625,-0.1757812 -0.515625,-0.66796875 0,-0.375 0.2109375,-1.13671875 0.3632813,-1.41796875 0.328125,-0.5625 0.6796875,-0.6679687 0.8789062,-0.6679687 0.4804686,0 0.6210936,0.5273437 0.6210936,0.60937495 0,0.0234375 -0.01172,0.0820313 -0.02344,0.09375 z M 13.624,-3.1335625 c 0,-0.011719 0.02344,-0.1054687 0.02344,-0.1171875 0,-0.035156 -0.02344,-0.09375 -0.105468,-0.09375 -0.140625,0 -0.726563,0.058594 -0.902344,0.070312 -0.04687,0.011719 -0.140625,0.011719 -0.140625,0.1640625 0,0.09375 0.09375,0.09375 0.175781,0.09375 0.328125,0 0.328125,0.046875 0.328125,0.1054688 0,0.046875 -0.01172,0.09375 -0.02344,0.1523437 L 12.112281,0.68675 c -0.02344,0.0703125 -0.02344,0.140625 -0.02344,0.2109375 0,0.4570313 0.398437,0.6679688 0.726562,0.6679688 0.175781,0 0.375,-0.058594 0.5625,-0.375 C 13.518531,0.93284375 13.624,0.5226875 13.624,0.49925 13.624,0.4055 13.53025,0.4055 13.506812,0.4055 c -0.09375,0 -0.105468,0.046875 -0.140625,0.1640625 -0.08203,0.3515625 -0.222656,0.796875 -0.515625,0.796875 -0.1875,0 -0.234375,-0.1757812 -0.234375,-0.3398437 0,-0.0703125 0.01172,-0.21093755 0.03516,-0.28125005 z m 3.427734,1.875 h 0.679688 c 0.140625,0 0.234375,0 0.234375,-0.1523437 0,-0.09375 -0.09375,-0.09375 -0.210938,-0.09375 h -0.65625 c 0.164063,-0.890625 0.222657,-1.2070313 0.28125,-1.4179688 0.03516,-0.1523437 0.1875,-0.2929687 0.351563,-0.2929687 0,0 0.199219,0 0.328125,0.082031 -0.292969,0.09375 -0.304688,0.3398438 -0.304688,0.3867188 0,0.1523437 0.117188,0.2578125 0.269532,0.2578125 0.199218,0 0.398437,-0.1640625 0.398437,-0.4335938 0,-0.3164062 -0.339844,-0.4921875 -0.691406,-0.4921875 -0.304688,0 -0.644531,0.1757813 -0.84375,0.5273438 -0.128906,0.2578125 -0.1875,0.5742187 -0.339844,1.3828125 h -0.550781 c -0.140625,0 -0.222656,0 -0.222656,0.1523437 0,0.09375 0.08203,0.09375 0.210937,0.09375 h 0.515625 c 0,0.046875 -0.445312,2.5546875 -0.609375,3.2929688 -0.03516,0.1640625 -0.152344,0.6914062 -0.492187,0.6914062 0,0 -0.175782,0 -0.304688,-0.082031 0.28125,-0.09375 0.304688,-0.3515625 0.304688,-0.3867188 0,-0.1523437 -0.117188,-0.2578125 -0.28125,-0.2578125 -0.1875,0 -0.398438,0.1640625 -0.398438,0.421875 0,0.3164063 0.328125,0.4921875 0.679688,0.4921875 0.445312,0 0.75,-0.4570312 0.84375,-0.609375 0.246093,-0.46875 0.410156,-1.32421875 0.421875,-1.40625 z m 0,0"
         style="fill:#000000;fill-opacity:1;fill-rule:nonzero;stroke:none" />
    </g>
    <path
       id="path7"
       d="M 56.69362,0 V -11.90558"
       style="fill:none;stroke:#000000;stroke-width:0.3985;stroke-linecap:butt;stroke-linejoin:miter;stroke-miterlimit:10;stroke-dasharray:none;stroke-opacity:1"
       transform="matrix(1.3333333,0,0,-1.3333333,10.869333,110.644)" />
    <path
       id="path8"
       d="m 50.74075,-11.90558 h 11.90572 m -9.92134,-1.98424 h 7.93697 m -6.44881,-1.98437 h 4.96064"
       style="fill:none;stroke:#000000;stroke-width:0.797;stroke-linecap:butt;stroke-linejoin:miter;stroke-miterlimit:10;stroke-dasharray:none;stroke-opacity:1"
       transform="matrix(1.3333333,0,0,-1.3333333,10.869333,110.644)" />
    <path
       id="path9"
       d="m 28.34679,44.6195 5.95285,-3.07742 -11.9057,-5.3578 11.9057,-5.35782 -11.9057,-5.35782 11.9057,-5.35782 -11.9057,-5.35782 5.95285,-2.6789"
       style="fill:none;stroke:#000000;stroke-width:0.797;stroke-linecap:butt;stroke-linejoin:bevel;stroke-miterlimit:10;stroke-dasharray:none;stroke-opacity:1"
       transform="matrix(1.3333333,0,0,-1.3333333,10.869333,110.644)" />
    <path
       id="path10"
       d="m 29.93394,56.69362 c 0,0.87656 -0.71058,1.58714 -1.58714,1.58714 -0.87655,0 -1.58714,-0.71058 -1.58714,-1.58714 0,-0.87657 0.71059,-1.58716 1.58714,-1.58716 0.87656,0 1.58714,0.71059 1.58714,1.58716 z"
       style="fill:#000000;fill-opacity:1;fill-rule:nonzero;stroke:#000000;stroke-width:0.3985;stroke-linecap:butt;stroke-linejoin:miter;stroke-miterlimit:10;stroke-dasharray:none;stroke-opacity:1"
       transform="matrix(1.3333333,0,0,-1.3333333,10.869333,110.644)" />
    <path
       id="path11"
       d="m 29.93394,0 c 0,0.87656 -0.71058,1.58714 -1.58714,1.58714 -0.87655,0 -1.58714,-0.71058 -1.58714,-1.58714 0,-0.87656 0.71059,-1.58714 1.58714,-1.58714 0.87656,0 1.58714,0.71058 1.58714,1.58714 z"
       style="fill:#000000;fill-opacity:1;fill-rule:nonzero;stroke:#000000;stroke-width:0.3985;stroke-linecap:butt;stroke-linejoin:miter;stroke-miterlimit:10;stroke-dasharray:none;stroke-opacity:1"
       transform="matrix(1.3333333,0,0,-1.3333333,10.869333,110.644)" />
    <g
       id="g11"
       aria-label="R&#10;abf"
       transform="matrix(1.3333333,0,0,1.3333333,10.690667,75.709333)">
      <path
         id="path12"
         d="m 2.2271172,-3.5144219 v -2.578125 c 0,-0.234375 0,-0.3515625 0.2226562,-0.3867187 0.1054688,-0.011719 0.3867188,-0.011719 0.5859375,-0.011719 0.9023438,0 2.015625,0.035156 2.015625,1.4765625 0,0.6914063 -0.234375,1.5 -1.7109375,1.5 z m 2.109375,0.1289063 c 0.9609375,-0.234375 1.7460937,-0.84375 1.7460937,-1.6289063 0,-0.9492187 -1.1367187,-1.7929687 -2.6015625,-1.7929687 H 0.35211719 v 0.3164062 h 0.234375 c 0.77343751,0 0.78515621,0.1054688 0.78515621,0.46875 v 5.25000003 c 0,0.3515625 -0.011719,0.46875 -0.78515621,0.46875 h -0.234375 v 0.3046875 c 0.3515625,-0.03515625 1.06640621,-0.03515625 1.45312501,-0.03515625 0.3867187,0 1.0898437,0 1.453125,0.03515625 v -0.3046875 h -0.234375 c -0.7734375,0 -0.796875,-0.1171875 -0.796875,-0.46875 V -3.2917656 h 1.1484375 c 0.1640625,0 0.5742187,0 0.9257812,0.3398437 0.3867188,0.3515625 0.3867188,0.65625 0.3867188,1.3242188 0,0.65624998 0,1.05468748 0.3984375,1.42968748 0.4101562,0.36328125 0.9609375,0.421875 1.2539062,0.421875 0.7851563,0 0.9492188,-0.8203125 0.9492188,-1.1015625 0,-0.0585938 0,-0.16406248 -0.1289063,-0.16406248 -0.1054687,0 -0.1054687,0.0820312 -0.1171875,0.15234373 -0.058594,0.71484375 -0.4101562,0.890625 -0.65625,0.890625 -0.4921875,0 -0.5742187,-0.50390625 -0.703125,-1.42968753 l -0.140625,-0.796875 C 5.3677422,-2.8698906 4.8872734,-3.1980156 4.3364922,-3.3855156 Z m 0,0"
         style="fill:#000000;fill-opacity:1;fill-rule:nonzero;stroke:none" />
      <path
         id="path13"
         d="m 10.274969,-1.1648125 c -0.140625,-0.234375 -0.386719,-0.4101562 -0.714844,-0.4101562 -0.890625,0 -1.8046875,0.9726562 -1.8046875,1.9804687 0,0.6796875 0.4570312,1.1601563 1.0546875,1.1601563 0.375,0 0.7148437,-0.2109375 0.9960937,-0.4921875 0.1289063,0.421875 0.5273433,0.4921875 0.7148433,0.4921875 0.246094,0 0.421875,-0.1523438 0.550782,-0.375 0.152343,-0.2695313 0.246093,-0.6679688 0.246093,-0.6914063 0,-0.09375 -0.09375,-0.09375 -0.117187,-0.09375 -0.09375,0 -0.105469,0.0351563 -0.152344,0.22265625 -0.08203,0.328125 -0.210937,0.73828125 -0.503906,0.73828125 -0.1875,0 -0.234375,-0.1523437 -0.234375,-0.3398437 0,-0.11718755 0.05859,-0.3632813 0.105469,-0.5507813 0.04687,-0.1875 0.117187,-0.46875 0.152343,-0.62109375 l 0.140625,-0.5390625 c 0.04687,-0.17578125 0.128907,-0.50390625 0.128907,-0.53906245 0,-0.1523438 -0.128907,-0.2226563 -0.246094,-0.2226563 -0.117188,0 -0.269531,0.082031 -0.316406,0.28125 z M 9.8296562,0.62815625 c -0.046875,0.1875 -0.1992187,0.328125 -0.3515625,0.45703125 -0.070312,0.058594 -0.3398437,0.28125 -0.6445312,0.28125 -0.2578125,0 -0.515625,-0.1757812 -0.515625,-0.66796875 0,-0.375 0.2109375,-1.13671875 0.3632812,-1.41796875 0.328125,-0.5625 0.6796875,-0.6679687 0.8789063,-0.6679687 0.480469,0 0.621094,0.5273437 0.621094,0.60937495 0,0.0234375 -0.01172,0.0820313 -0.02344,0.09375 z M 13.494695,-3.1335625 c 0.01172,-0.011719 0.02344,-0.1054687 0.02344,-0.1171875 0,-0.035156 -0.02344,-0.09375 -0.105469,-0.09375 -0.140625,0 -0.714844,0.058594 -0.890625,0.070312 -0.05859,0.011719 -0.152344,0.011719 -0.152344,0.1640625 0,0.09375 0.09375,0.09375 0.175782,0.09375 0.339843,0 0.339843,0.046875 0.339843,0.1054688 0,0.046875 -0.07031,0.328125 -0.117187,0.4921875 l -0.152344,0.6328125 c -0.07031,0.2460937 -0.457031,1.7695312 -0.46875,1.8632812 -0.03516,0.1640625 -0.03516,0.2578125 -0.03516,0.33984375 0,0.70312505 0.445312,1.14843755 1.03125,1.14843755 0.867187,0 1.792969,-0.9492188 1.792969,-1.9804688 0,-0.8203125 -0.5625,-1.1601562 -1.042969,-1.1601562 -0.363281,0 -0.667969,0.1992187 -0.878906,0.375 z m -0.351562,4.5 c -0.339844,0 -0.527344,-0.2929687 -0.527344,-0.703125 0,-0.2578125 0.05859,-0.50390625 0.257813,-1.2890625 0.03516,-0.12890625 0.03516,-0.140625 0.164062,-0.29296875 0.269531,-0.31640625 0.585938,-0.46874995 0.832031,-0.46874995 0.269532,0 0.515625,0.2109375 0.515625,0.67968745 0,0.28125 -0.152343,0.99609375 -0.363281,1.40625 C 13.846258,1.0383125 13.506414,1.3664375 13.143133,1.3664375 Z m 4.851562,-2.625 h 0.679688 c 0.140625,0 0.234375,0 0.234375,-0.1523437 0,-0.09375 -0.09375,-0.09375 -0.210938,-0.09375 h -0.65625 c 0.164063,-0.890625 0.222657,-1.2070313 0.28125,-1.4179688 0.03516,-0.1523437 0.1875,-0.2929687 0.351563,-0.2929687 0,0 0.199219,0 0.328125,0.082031 -0.292969,0.09375 -0.304688,0.3398438 -0.304688,0.3867188 0,0.1523437 0.117188,0.2578125 0.269532,0.2578125 0.199218,0 0.398437,-0.1640625 0.398437,-0.4335938 0,-0.3164062 -0.339844,-0.4921875 -0.691406,-0.4921875 -0.304688,0 -0.644531,0.1757813 -0.84375,0.5273438 -0.128906,0.2578125 -0.1875,0.5742187 -0.339844,1.3828125 h -0.550781 c -0.140625,0 -0.222656,0 -0.222656,0.1523437 0,0.09375 0.08203,0.09375 0.210937,0.09375 h 0.515625 c 0,0.046875 -0.445312,2.5546875 -0.609375,3.2929688 -0.03516,0.1640625 -0.152344,0.6914062 -0.492187,0.6914062 0,0 -0.175782,0 -0.304688,-0.082031 0.28125,-0.09375 0.304688,-0.3515625 0.304688,-0.3867188 0,-0.1523437 -0.117188,-0.2578125 -0.28125,-0.2578125 -0.1875,0 -0.398438,0.1640625 -0.398438,0.421875 0,0.3164063 0.328125,0.4921875 0.679688,0.4921875 0.445312,0 0.75,-0.4570312 0.84375,-0.609375 0.246093,-0.46875 0.410156,-1.32421875 0.421875,-1.40625 z m 0,0"
         style="fill:#000000;fill-opacity:1;fill-rule:nonzero;stroke:none" />
    </g>
    <path
       id="path14"
       d="M 40.2525,-24.37833 H 16.44107 M 40.2525,-32.31528 H 16.44107"
       style="fill:none;stroke:#000000;stroke-width:0.797;stroke-linecap:butt;stroke-linejoin:miter;stroke-miterlimit:10;stroke-dasharray:none;stroke-opacity:1"
       transform="matrix(1.3333333,0,0,-1.3333333,10.869333,110.644)" />
    <g
       id="g14"
       aria-label="C&#10;abf"
       transform="matrix(1.3333333,0,0,1.3333333,2.1453333,151.3)">
      <path
         id="path15"
         d="m 0.56189844,-3.4095703 c 0,2.0625 1.60546876,3.63281249 3.45703126,3.63281249 1.6289062,0 2.6015625,-1.38281249 2.6015625,-2.54296879 0,-0.1054687 0,-0.1757812 -0.1289063,-0.1757812 -0.1054687,0 -0.1054687,0.070312 -0.1171875,0.1640625 -0.082031,1.42968749 -1.1484375,2.23828124 -2.2265625,2.23828124 -0.609375,0 -2.5664062,-0.33984375 -2.5664062,-3.30468754 0,-2.9765625 1.9453125,-3.3164062 2.5546875,-3.3164062 1.078125,0 1.96875,0.9023437 2.1679687,2.3671875 0.023437,0.1289062 0.023437,0.1640625 0.1640625,0.1640625 0.1523438,0 0.1523438,-0.035156 0.1523438,-0.234375 v -2.3671875 c 0,-0.1640625 0,-0.234375 -0.1054688,-0.234375 -0.035156,0 -0.082031,0 -0.1640625,0.1171875 l -0.4921875,0.7382812 c -0.375,-0.3632812 -0.8789062,-0.8554687 -1.8398437,-0.8554687 -1.8632813,0 -3.45703126,1.5820312 -3.45703126,3.609375 z m 0,0"
         style="fill:#000000;fill-opacity:1;fill-rule:nonzero;stroke:none" />
      <path
         id="path16"
         d="m 10.136117,-1.1654297 c -0.1406248,-0.234375 -0.3867186,-0.4101562 -0.7148436,-0.4101562 -0.890625,0 -1.8046875,0.97265621 -1.8046875,1.98046871 0,0.67968749 0.4570313,1.16015629 1.0546875,1.16015629 0.375,0 0.7148438,-0.2109375 0.9960938,-0.4921875 0.1289062,0.421875 0.5273438,0.4921875 0.7148438,0.4921875 0.246094,0 0.421875,-0.1523438 0.550781,-0.375 0.152344,-0.26953129 0.246094,-0.66796879 0.246094,-0.69140629 0,-0.09375 -0.09375,-0.09375 -0.117188,-0.09375 -0.09375,0 -0.105468,0.0351563 -0.152343,0.22265625 -0.08203,0.328125 -0.210938,0.73828124 -0.503907,0.73828124 -0.1875,0 -0.234375,-0.1523437 -0.234375,-0.3398437 0,-0.11718754 0.05859,-0.36328129 0.105469,-0.55078129 0.04687,-0.1875 0.117188,-0.46875 0.152344,-0.62109375 l 0.140625,-0.5390625 c 0.04687,-0.17578125 0.128906,-0.50390626 0.128906,-0.53906246 0,-0.1523438 -0.128906,-0.2226563 -0.246094,-0.2226563 -0.117187,0 -0.269531,0.082031 -0.316406,0.28125 z M 9.6908047,0.62753906 c -0.046875,0.1875 -0.1992188,0.328125 -0.3515625,0.45703124 -0.070312,0.058594 -0.3398438,0.28125 -0.6445313,0.28125 -0.2578125,0 -0.515625,-0.1757812 -0.515625,-0.66796874 0,-0.375 0.2109375,-1.13671875 0.3632813,-1.41796875 0.328125,-0.56250001 0.6796875,-0.66796871 0.8789062,-0.66796871 0.4804688,0 0.6210936,0.52734371 0.6210936,0.60937496 0,0.0234375 -0.01172,0.0820313 -0.02344,0.09375 z M 13.355844,-3.1341797 c 0.01172,-0.011719 0.02344,-0.1054687 0.02344,-0.1171875 0,-0.035156 -0.02344,-0.09375 -0.105468,-0.09375 -0.140625,0 -0.714844,0.058594 -0.890625,0.070312 -0.05859,0.011719 -0.152344,0.011719 -0.152344,0.1640625 0,0.09375 0.09375,0.09375 0.175781,0.09375 0.339844,0 0.339844,0.046875 0.339844,0.1054688 0,0.046875 -0.07031,0.328125 -0.117188,0.4921875 l -0.152343,0.6328125 c -0.07031,0.2460937 -0.457032,1.76953121 -0.46875,1.86328121 -0.03516,0.1640625 -0.03516,0.2578125 -0.03516,0.33984375 0,0.70312504 0.445313,1.14843754 1.03125,1.14843754 0.867188,0 1.792969,-0.94921879 1.792969,-1.98046879 0,-0.82031251 -0.5625,-1.16015621 -1.042969,-1.16015621 -0.363281,0 -0.667968,0.1992187 -0.878906,0.375 z m -0.351563,4.5 c -0.339843,0 -0.527343,-0.2929687 -0.527343,-0.70312499 0,-0.2578125 0.05859,-0.50390625 0.257812,-1.2890625 0.03516,-0.12890625 0.03516,-0.140625 0.164063,-0.29296875 0.269531,-0.31640626 0.585937,-0.46874996 0.832031,-0.46874996 0.269531,0 0.515625,0.2109375 0.515625,0.67968746 0,0.28125 -0.152344,0.99609375 -0.363281,1.40625 C 13.707406,1.0376953 13.367563,1.3658203 13.004281,1.3658203 Z m 4.851563,-2.625 h 0.679687 c 0.140625,0 0.234375,0 0.234375,-0.1523437 0,-0.09375 -0.09375,-0.09375 -0.210937,-0.09375 h -0.65625 c 0.164062,-0.890625 0.222656,-1.2070313 0.28125,-1.4179688 0.03516,-0.1523437 0.1875,-0.2929687 0.351562,-0.2929687 0,0 0.199219,0 0.328125,0.082031 -0.292969,0.09375 -0.304687,0.3398438 -0.304687,0.3867188 0,0.1523437 0.117187,0.2578125 0.269531,0.2578125 0.199219,0 0.398437,-0.1640625 0.398437,-0.4335938 0,-0.3164062 -0.339843,-0.4921875 -0.691406,-0.4921875 -0.304687,0 -0.644531,0.1757813 -0.84375,0.5273438 -0.128906,0.2578125 -0.1875,0.5742187 -0.339844,1.3828125 h -0.550781 c -0.140625,0 -0.222656,0 -0.222656,0.1523437 0,0.09375 0.08203,0.09375 0.210937,0.09375 h 0.515625 c 0,0.046875 -0.445312,2.5546875 -0.609375,3.2929688 -0.03516,0.1640625 -0.152343,0.6914062 -0.492187,0.6914062 0,0 -0.175781,0 -0.304687,-0.082031 0.281249,-0.09375 0.304687,-0.3515625 0.304687,-0.3867188 0,-0.1523437 -0.117188,-0.2578125 -0.28125,-0.2578125 -0.1875,0 -0.398437,0.1640625 -0.398437,0.421875 0,0.3164063 0.328125,0.4921875 0.679687,0.4921875 0.445312,0 0.75,-0.4570312 0.84375,-0.609375 0.246094,-0.46875 0.410156,-1.32421874 0.421875,-1.40624999 z m 0,0"
         style="fill:#000000;fill-opacity:1;fill-rule:nonzero;stroke:none" />
    </g>
    <path
       id="path17"
       d="M 28.3468,-56.69362 V -68.5992"
       style="fill:none;stroke:#000000;stroke-width:0.3985;stroke-linecap:butt;stroke-linejoin:miter;stroke-miterlimit:10;stroke-dasharray:none;stroke-opacity:1"
       transform="matrix(1.3333333,0,0,-1.3333333,10.869333,110.644)" />
    <path
       id="path18"
       d="m 22.39395,-68.5992 h 11.9057 m -9.92132,-1.98424 h 7.93695 m -6.44881,-1.98437 h 4.96066"
       style="fill:none;stroke:#000000;stroke-width:0.797;stroke-linecap:butt;stroke-linejoin:miter;stroke-miterlimit:10;stroke-dasharray:none;stroke-opacity:1"
       transform="matrix(1.3333333,0,0,-1.3333333,10.869333,110.644)" />
    <path
       id="path19"
       d="m 72.7362,56.53423 c 0,3.28768 1.63474,5.95285 3.65134,5.95285 2.0166,0 3.65136,-2.66517 3.65136,-5.95285 0,-1.64377 -0.66627,-2.97628 -1.48815,-2.97628 -0.82187,0 -1.48813,1.33251 -1.48813,2.97628 0,3.28768 1.63475,5.95285 3.65135,5.95285 2.01661,0 3.65134,-2.66517 3.65134,-5.95285 0,-1.64377 -0.66624,-2.97628 -1.48813,-2.97628 -0.82188,0 -1.48814,1.33251 -1.48814,2.97628 0,3.28768 1.63475,5.95285 3.65135,5.95285 2.0166,0 3.65135,-2.66517 3.65135,-5.95285 0,-1.64377 -0.66626,-2.97628 -1.48814,-2.97628 -0.82187,0 -1.48813,1.33251 -1.48813,2.97628 0,3.28768 1.63473,5.95285 3.65135,5.95285 2.0166,0 3.65134,-2.66517 3.65134,-5.95285 0,-1.64377 -0.66626,-2.97628 -1.48813,-2.97628 -0.82188,0 -1.48814,1.33251 -1.48814,2.97628 0,3.28768 1.63475,5.95285 3.65135,5.95285 2.0166,0 3.65135,-2.66517 3.65135,-5.95285"
       style="fill:none;stroke:#000000;stroke-width:0.797;stroke-linecap:butt;stroke-linejoin:bevel;stroke-miterlimit:10;stroke-dasharray:none;stroke-opacity:1"
       transform="matrix(1.3333333,0,0,-1.3333333,10.869333,110.644)" />
    <path
       id="path20"
       d="m 58.28076,56.69362 c 0,0.87656 -0.71058,1.58714 -1.58714,1.58714 -0.87657,0 -1.58716,-0.71058 -1.58716,-1.58714 0,-0.87657 0.71059,-1.58716 1.58716,-1.58716 0.87656,0 1.58714,0.71059 1.58714,1.58716 z"
       style="fill:#000000;fill-opacity:1;fill-rule:nonzero;stroke:#000000;stroke-width:0.3985;stroke-linecap:butt;stroke-linejoin:miter;stroke-miterlimit:10;stroke-dasharray:none;stroke-opacity:1"
       transform="matrix(1.3333333,0,0,-1.3333333,10.869333,110.644)" />
    <path
       id="path21"
       d="M 2.4037187,-6.5845703 C 2.3099687,-6.8072266 2.2865312,-6.8072266 2.0521562,-6.8072266 H 0.36465625 v 0.3164063 H 0.61075 c 0.7617187,0 0.7851562,0.1054687 0.7851562,0.46875 v 4.9804687 c 0,0.26953129 0,0.73828129 -1.03124995,0.73828129 v 0.3046875 c 0.3515625,-0.01171875 0.84374995,-0.03515625 1.17187495,-0.03515625 0.328125,0 0.8203125,0.0234375 1.1601563,0.03515625 v -0.3046875 c -1.0195313,0 -1.0195313,-0.46875 -1.0195313,-0.73828129 v -5.3671875 h 0.011719 l 2.4023437,6.18750004 c 0.046875,0.12890625 0.09375,0.22265625 0.1992188,0.22265625 0.1054687,0 0.1289062,-0.08203125 0.1757812,-0.1875 L 6.9154375,-6.4908203 h 0.011719 v 5.71874999 c 0,0.3515625 -0.023437,0.46875 -0.7851562,0.46875 H 5.8959062 v 0.3046875 c 0.375,-0.03515625 1.0429688,-0.03515625 1.4414063,-0.03515625 0.3867187,0 1.0546875,0 1.4179687,0.03515625 v -0.3046875 h -0.234375 c -0.7734375,0 -0.7851562,-0.1171875 -0.7851562,-0.46875 V -6.0220703 c 0,-0.3632813 0.011719,-0.46875 0.7851562,-0.46875 h 0.234375 V -6.8072266 H 7.0795 c -0.2695313,0 -0.2695313,0.011719 -0.3398438,0.1992188 l -2.1796875,5.6015625 z m 7.8310543,3.1640625 v 2.66015624 c 0,0.45703125 -0.117187,0.45703125 -0.7851558,0.45703125 v 0.3046875 c 0.3515625,-0.01171875 0.8554688,-0.03515625 1.1249998,-0.03515625 0.257813,0 0.785156,0.0234375 1.113281,0.03515625 v -0.3046875 c -0.65625,0 -0.773437,0 -0.773437,-0.45703125 V -2.5884766 c 0,-1.03125 0.714844,-1.59375 1.347656,-1.59375 0.621094,0 0.738281,0.5390625 0.738281,1.1015625 v 2.32031254 c 0,0.45703125 -0.117187,0.45703125 -0.773437,0.45703125 v 0.3046875 c 0.339844,-0.01171875 0.855469,-0.03515625 1.125,-0.03515625 0.257812,0 0.773437,0.0234375 1.113281,0.03515625 v -0.3046875 c -0.667969,0 -0.785156,0 -0.785156,-0.45703125 V -2.5884766 c 0,-1.03125 0.714844,-1.59375 1.347656,-1.59375 0.632813,0 0.738281,0.5390625 0.738281,1.1015625 v 2.32031254 c 0,0.45703125 -0.105468,0.45703125 -0.773437,0.45703125 v 0.3046875 c 0.351562,-0.01171875 0.855469,-0.03515625 1.125,-0.03515625 0.257812,0 0.773437,0.0234375 1.113281,0.03515625 v -0.3046875 c -0.515625,0 -0.761719,0 -0.773437,-0.3046875 V -2.5064453 c 0,-0.8554688 0,-1.171875 -0.316407,-1.5234375 -0.128906,-0.1757813 -0.46875,-0.375 -1.042968,-0.375 -0.832032,0 -1.277344,0.5976562 -1.441407,0.984375 -0.140625,-0.8671875 -0.878906,-0.984375 -1.324218,-0.984375 -0.726563,0 -1.195313,0.4335937 -1.476563,1.0546875 v -1.0546875 l -1.4062498,0.1171875 v 0.3046875 c 0.7031248,0 0.7851558,0.070312 0.7851558,0.5625 z m 10.517579,2.66015624 c 0.03516,0.3984375 0.304687,0.8203125 0.773437,0.8203125 0.210938,0 0.820313,-0.140625 0.820313,-0.94921875 V -1.4400391 h -0.246094 v 0.55078129 c 0,0.5859375 -0.246094,0.64453125 -0.363281,0.64453125 -0.328125,0 -0.363282,-0.45703125 -0.363282,-0.50390625 V -2.7408203 c 0,-0.4101563 0,-0.8085938 -0.363281,-1.171875 -0.386719,-0.3867188 -0.878906,-0.5507813 -1.359375,-0.5507813 -0.820312,0 -1.511719,0.46875 -1.511719,1.125 0,0.3046875 0.199219,0.46875 0.457032,0.46875 0.28125,0 0.46875,-0.1992187 0.46875,-0.4570312 0,-0.1171875 -0.05859,-0.4453125 -0.515625,-0.4570313 0.269531,-0.3515625 0.761718,-0.4570312 1.078125,-0.4570312 0.492187,0 1.054687,0.3867187 1.054687,1.2773437 v 0.3632813 c -0.503906,0.035156 -1.207031,0.058594 -1.828125,0.3632812 -0.75,0.3398438 -0.996094,0.8554688 -0.996094,1.28906254 0,0.80859375 0.960938,1.0546875 1.59375,1.0546875 0.65625,0 1.113282,-0.3984375 1.300782,-0.8671875 z m -0.07031,-1.62890624 v 0.9960937 c 0,0.94921879 -0.714844,1.28906254 -1.160156,1.28906254 -0.492188,0 -0.902344,-0.3515625 -0.902344,-0.85546875 0,-0.53906249 0.421875,-1.37109379 2.0625,-1.42968749 z m 0,0"
       style="fill:#000000;fill-opacity:1;fill-rule:nonzero;stroke:none"
       aria-label="Mma"
       transform="matrix(1.3333333,0,0,1.3333333,109.31067,22.033333)" />
    <path
       id="path22"
       d="m 118.37463,56.69362 3.07741,5.95285 5.35782,-11.90572 5.35782,11.90572 5.35782,-11.90572 5.35782,11.90572 5.3578,-11.90572 2.67891,5.95287"
       style="fill:none;stroke:#000000;stroke-width:0.797;stroke-linecap:butt;stroke-linejoin:bevel;stroke-miterlimit:10;stroke-dasharray:none;stroke-opacity:1"
       transform="matrix(1.3333333,0,0,-1.3333333,10.869333,110.644)" />
    <path
       id="path23"
       d="m 2.2268203,-3.5142578 v -2.578125 c 0,-0.234375 0,-0.3515625 0.2226563,-0.3867188 0.1054687,-0.011719 0.3867187,-0.011719 0.5859375,-0.011719 0.9023437,0 2.015625,0.035156 2.015625,1.4765625 0,0.6914062 -0.234375,1.5 -1.7109375,1.5 z m 2.109375,0.1289062 c 0.9609375,-0.234375 1.7460938,-0.84375 1.7460938,-1.6289062 0,-0.9492188 -1.1367188,-1.7929688 -2.6015625,-1.7929688 H 0.35182031 v 0.3164063 h 0.234375 c 0.77343749,0 0.78515629,0.1054687 0.78515629,0.46875 v 5.24999999 c 0,0.3515625 -0.011719,0.46875 -0.78515629,0.46875 h -0.234375 v 0.3046875 c 0.3515625,-0.03515625 1.06640629,-0.03515625 1.45312499,-0.03515625 0.3867188,0 1.0898438,0 1.453125,0.03515625 v -0.3046875 h -0.234375 c -0.7734375,0 -0.796875,-0.1171875 -0.796875,-0.46875 V -3.2916016 h 1.1484375 c 0.1640625,0 0.5742188,0 0.9257813,0.3398438 0.3867187,0.3515625 0.3867187,0.65625 0.3867187,1.3242187 0,0.65625004 0,1.05468754 0.3984375,1.42968754 0.4101563,0.36328125 0.9609375,0.421875 1.2539063,0.421875 0.7851562,0 0.9492187,-0.8203125 0.9492187,-1.1015625 0,-0.0585938 0,-0.16406254 -0.1289062,-0.16406254 -0.1054688,0 -0.1054688,0.0820313 -0.1171875,0.15234379 -0.058594,0.71484375 -0.4101563,0.890625 -0.65625,0.890625 -0.4921875,0 -0.5742188,-0.50390625 -0.703125,-1.42968749 l -0.140625,-0.796875 C 5.3674453,-2.8697266 4.8869766,-3.1978516 4.3361953,-3.3853516 Z m 4.0986328,-0.035156 v 2.66015624 c 0,0.45703125 -0.1171875,0.45703125 -0.7851562,0.45703125 v 0.3046875 c 0.3515625,-0.01171875 0.8554687,-0.03515625 1.125,-0.03515625 0.2578125,0 0.7851562,0.0234375 1.1132812,0.03515625 v -0.3046875 c -0.65625,0 -0.7734375,0 -0.7734375,-0.45703125 V -2.5884766 c 0,-1.03125 0.7148438,-1.59375 1.3476564,-1.59375 0.621094,0 0.738281,0.5390625 0.738281,1.1015625 v 2.32031254 c 0,0.45703125 -0.117187,0.45703125 -0.773437,0.45703125 v 0.3046875 c 0.339843,-0.01171875 0.855468,-0.03515625 1.125,-0.03515625 0.257812,0 0.773437,0.0234375 1.113281,0.03515625 v -0.3046875 c -0.667969,0 -0.785156,0 -0.785156,-0.45703125 V -2.5884766 c 0,-1.03125 0.714843,-1.59375 1.347656,-1.59375 0.632812,0 0.738281,0.5390625 0.738281,1.1015625 v 2.32031254 c 0,0.45703125 -0.105469,0.45703125 -0.773437,0.45703125 v 0.3046875 c 0.351562,-0.01171875 0.855468,-0.03515625 1.125,-0.03515625 0.257812,0 0.773437,0.0234375 1.113281,0.03515625 v -0.3046875 c -0.515625,0 -0.761719,0 -0.773438,-0.3046875 V -2.5064453 c 0,-0.8554688 0,-1.171875 -0.316406,-1.5234375 -0.128906,-0.1757813 -0.46875,-0.375 -1.042969,-0.375 -0.832031,0 -1.277343,0.5976562 -1.441406,0.984375 -0.140625,-0.8671875 -0.878906,-0.984375 -1.324219,-0.984375 -0.7265621,0 -1.1953121,0.4335937 -1.4765621,1.0546875 v -1.0546875 l -1.40625,0.1171875 v 0.3046875 c 0.703125,0 0.7851562,0.070312 0.7851562,0.5625002 z m 10.5175779,2.66015624 c 0.03516,0.3984375 0.304688,0.8203125 0.773438,0.8203125 0.210937,0 0.820312,-0.140625 0.820312,-0.94921875 V -1.4400391 h -0.246094 v 0.55078129 c 0,0.5859375 -0.246093,0.64453125 -0.363281,0.64453125 -0.328125,0 -0.363281,-0.45703125 -0.363281,-0.50390625 V -2.7408203 c 0,-0.4101563 0,-0.8085938 -0.363281,-1.171875 -0.386719,-0.3867188 -0.878907,-0.5507813 -1.359375,-0.5507813 -0.820313,0 -1.511719,0.46875 -1.511719,1.125 0,0.3046875 0.199219,0.46875 0.457031,0.46875 0.28125,0 0.46875,-0.1992187 0.46875,-0.4570312 0,-0.1171875 -0.05859,-0.4453125 -0.515625,-0.4570313 0.269531,-0.3515625 0.761719,-0.4570312 1.078125,-0.4570312 0.492188,0 1.054688,0.3867187 1.054688,1.2773437 v 0.3632813 c -0.503907,0.035156 -1.207032,0.058594 -1.828125,0.3632812 -0.75,0.3398438 -0.996094,0.8554688 -0.996094,1.28906254 0,0.80859375 0.960937,1.0546875 1.59375,1.0546875 0.65625,0 1.113281,-0.3984375 1.300781,-0.8671873 z m -0.07031,-1.62890624 v 0.9960937 c 0,0.94921879 -0.714844,1.28906254 -1.160157,1.28906254 -0.492187,0 -0.902343,-0.3515625 -0.902343,-0.85546875 0,-0.53906249 0.421875,-1.37109379 2.0625,-1.42968749 z m 0,0"
       style="fill:#000000;fill-opacity:1;fill-rule:nonzero;stroke:none"
       aria-label="Rma"
       transform="matrix(1.3333333,0,0,1.3333333,176.652,22.033333)" />
    <path
       id="path24"
       d="M 173.19907,68.59933 V 44.78789 m 7.93695,23.81144 V 44.78789"
       style="fill:none;stroke:#000000;stroke-width:0.797;stroke-linecap:butt;stroke-linejoin:miter;stroke-miterlimit:10;stroke-dasharray:none;stroke-opacity:1"
       transform="matrix(1.3333333,0,0,-1.3333333,10.869333,110.644)" />
    <path
       id="path25"
       d="m 200.01482,56.69362 c 0,0.87656 -0.71059,1.58714 -1.58716,1.58714 -0.87656,0 -1.58714,-0.71058 -1.58714,-1.58714 0,-0.87657 0.71058,-1.58716 1.58714,-1.58716 0.87657,0 1.58716,0.71059 1.58716,1.58716 z"
       style="fill:#000000;fill-opacity:1;fill-rule:nonzero;stroke:#000000;stroke-width:0.3985;stroke-linecap:butt;stroke-linejoin:miter;stroke-miterlimit:10;stroke-dasharray:none;stroke-opacity:1"
       transform="matrix(1.3333333,0,0,-1.3333333,10.869333,110.644)" />
    <path
       id="path26"
       d="m 0.562625,-3.4115703 c 0,2.0625 1.6054687,3.63281249 3.4570312,3.63281249 1.6289063,0 2.6015625,-1.38281249 2.6015625,-2.54296879 0,-0.1054687 0,-0.1757812 -0.1289062,-0.1757812 -0.1054688,0 -0.1054688,0.070312 -0.1171875,0.1640625 -0.082031,1.42968749 -1.1484375,2.23828124 -2.2265625,2.23828124 -0.609375,0 -2.5664063,-0.33984375 -2.5664063,-3.30468754 0,-2.9765625 1.9453125,-3.3164062 2.5546875,-3.3164062 1.078125,0 1.96875,0.9023437 2.1679688,2.3671875 0.023437,0.1289062 0.023437,0.1640625 0.1640625,0.1640625 0.1523437,0 0.1523437,-0.035156 0.1523437,-0.234375 v -2.3671875 c 0,-0.1640625 0,-0.234375 -0.1054687,-0.234375 -0.035156,0 -0.082031,0 -0.1640625,0.1171875 L 5.8595,-6.1654766 c -0.375,-0.3632812 -0.8789063,-0.8554687 -1.8398438,-0.8554687 -1.8632812,0 -3.4570312,1.5820312 -3.4570312,3.609375 z M 8.297,-3.4232891 v 2.66015629 c 0,0.45703125 -0.1171875,0.45703125 -0.7851563,0.45703125 v 0.3046875 c 0.3515625,-0.01171875 0.8554688,-0.03515625 1.125,-0.03515625 0.2578125,0 0.7851563,0.0234375 1.1132813,0.03515625 v -0.3046875 c -0.65625,0 -0.7734375,0 -0.7734375,-0.45703125 V -2.5912578 c 0,-1.03125 0.7148437,-1.59375 1.3476565,-1.59375 0.621093,0 0.738281,0.5390625 0.738281,1.1015625 v 2.32031249 c 0,0.45703125 -0.117188,0.45703125 -0.773438,0.45703125 v 0.3046875 c 0.339844,-0.01171875 0.855469,-0.03515625 1.125,-0.03515625 0.257813,0 0.773438,0.0234375 1.113282,0.03515625 v -0.3046875 c -0.667969,0 -0.785157,0 -0.785157,-0.45703125 V -2.5912578 c 0,-1.03125 0.714844,-1.59375 1.347657,-1.59375 0.632812,0 0.738281,0.5390625 0.738281,1.1015625 v 2.32031249 c 0,0.45703125 -0.105469,0.45703125 -0.773438,0.45703125 v 0.3046875 c 0.351563,-0.01171875 0.855469,-0.03515625 1.125,-0.03515625 0.257813,0 0.773438,0.0234375 1.113282,0.03515625 v -0.3046875 c -0.515625,0 -0.761719,0 -0.773438,-0.3046875 V -2.5092266 c 0,-0.8554687 0,-1.171875 -0.316406,-1.5234375 -0.128906,-0.1757812 -0.46875,-0.375 -1.042969,-0.375 -0.832031,0 -1.277344,0.5976563 -1.441406,0.984375 -0.140625,-0.8671875 -0.878906,-0.984375 -1.324219,-0.984375 -0.7265623,0 -1.1953123,0.4335938 -1.4765623,1.0546875 v -1.0546875 l -1.40625,0.1171875 v 0.3046875 c 0.703125,0 0.7851563,0.070312 0.7851563,0.5625 z m 10.517578,2.66015629 c 0.03516,0.3984375 0.304688,0.8203125 0.773438,0.8203125 0.210937,0 0.820312,-0.140625 0.820312,-0.94921875 V -1.4428203 h -0.246094 v 0.55078124 c 0,0.5859375 -0.246093,0.64453125 -0.363281,0.64453125 -0.328125,0 -0.363281,-0.45703125 -0.363281,-0.50390625 V -2.7436016 c 0,-0.4101562 0,-0.8085937 -0.363281,-1.171875 -0.386719,-0.3867187 -0.878907,-0.5507812 -1.359375,-0.5507812 -0.820313,0 -1.511719,0.46875 -1.511719,1.125 0,0.3046875 0.199219,0.46875 0.457031,0.46875 0.28125,0 0.46875,-0.1992188 0.46875,-0.4570313 0,-0.1171875 -0.05859,-0.4453125 -0.515625,-0.4570312 0.269531,-0.3515625 0.761719,-0.4570313 1.078125,-0.4570313 0.492188,0 1.054688,0.3867188 1.054688,1.2773438 v 0.3632812 c -0.503907,0.035156 -1.207032,0.058594 -1.828125,0.3632813 -0.75,0.3398437 -0.996094,0.8554687 -0.996094,1.28906249 0,0.80859375 0.960937,1.0546875 1.59375,1.0546875 0.65625,0 1.113281,-0.3984375 1.300781,-0.8671875 z m -0.07031,-1.62890629 v 0.9960938 c 0,0.94921874 -0.714844,1.28906249 -1.160157,1.28906249 -0.492187,0 -0.902343,-0.3515625 -0.902343,-0.85546875 0,-0.53906254 0.421875,-1.37109374 2.0625,-1.42968754 z m 0,0"
       style="fill:#000000;fill-opacity:1;fill-rule:nonzero;stroke:none"
       aria-label="Cma"
       transform="matrix(1.3333333,0,0,1.3333333,233.43733,13.302667)" />
    <path
       id="path27"
       d="M 192.4748,12.47261 V 44.221 h 11.9057 V 12.47261 Z"
       style="fill:none;stroke:#000000;stroke-width:0.797;stroke-linecap:butt;stroke-linejoin:miter;stroke-miterlimit:10;stroke-dasharray:none;stroke-opacity:1"
       transform="matrix(1.3333333,0,0,-1.3333333,10.869333,110.644)" />
    <g
       id="g27"
       aria-label="Z&#10;radd"
       transform="matrix(1.3333333,0,0,1.3333333,233.73867,75.709333)">
      <path
         id="path28"
         d="m 5.4489297,-6.4558281 c 0.070312,-0.1054688 0.070312,-0.1171875 0.070312,-0.1875 0,-0.1640625 -0.058594,-0.1640625 -0.2578125,-0.1640625 H 0.79658594 l -0.10546875,2.25 h 0.24609375 c 0.0703125,-1.125 0.36328126,-1.9335938 2.00390626,-1.9335938 h 1.5585937 l -3.86718746,6.12890628 c -0.0703125,0.10546875 -0.0703125,0.1171875 -0.0703125,0.19921875 0,0.1640625 0.046875,0.1640625 0.2578125,0.1640625 H 5.4137734 L 5.5778359,-2.6589531 H 5.3317422 c -0.082031,1.3828125 -0.2695313,2.32031248 -2.109375,2.32031248 h -1.640625 z m 0,0"
         style="fill:#000000;fill-opacity:1;fill-rule:nonzero;stroke:none" />
      <path
         id="path29"
         d="m 7.7282266,0.08909375 c 0,-0.046875 0.1640625,-0.66796875 0.1757812,-0.703125 0.011719,-0.0585938 0.2226563,-0.41015625 0.4453125,-0.57421875 0.070312,-0.058594 0.2578125,-0.1992187 0.5625,-0.1992187 0.070312,0 0.2460938,0.011719 0.3867188,0.1054687 -0.2226563,0.058594 -0.3046875,0.2578125 -0.3046875,0.375 0,0.15234375 0.1171875,0.2578125 0.2695312,0.2578125 0.1640625,0 0.3984375,-0.12890625 0.3984375,-0.421875 0,-0.3632812 -0.3867187,-0.5039062 -0.7382812,-0.5039062 -0.3632813,0 -0.6796875,0.140625 -0.984375,0.4921875 -0.1289063,-0.421875 -0.5507813,-0.4921875 -0.7265625,-0.4921875 -0.2578125,0 -0.421875,0.1523437 -0.5390625,0.3515625 -0.1640625,0.2695312 -0.2578125,0.67968745 -0.2578125,0.7148437 0,0.0820313 0.09375,0.0820313 0.1171875,0.0820313 0.09375,0 0.1054687,-0.0117188 0.1523437,-0.19921875 0.1054688,-0.43359365 0.234375,-0.76171865 0.515625,-0.76171865 0.1757813,0 0.2226563,0.1523437 0.2226563,0.3398437 0,0.14062495 -0.058594,0.39843745 -0.1054688,0.58593745 -0.046875,0.1875 -0.1171875,0.46875 -0.1523437,0.62109375 L 6.9430703,1.06175 c -0.035156,0.082031 -0.070312,0.2578125 -0.070312,0.28125 0,0.1523438 0.1171875,0.2226563 0.234375,0.2226563 0.1054688,0 0.2460938,-0.058594 0.2929688,-0.1992188 0.023437,-0.046875 0.09375,-0.3515625 0.140625,-0.52734375 z M 12.94307,-1.1648125 c -0.140625,-0.234375 -0.386718,-0.4101562 -0.714843,-0.4101562 -0.890625,0 -1.804688,0.9726562 -1.804688,1.9804687 0,0.6796875 0.457031,1.1601563 1.054688,1.1601563 0.375,0 0.714843,-0.2109375 0.996093,-0.4921875 0.128907,0.421875 0.527344,0.4921875 0.714844,0.4921875 0.246094,0 0.421875,-0.1523438 0.550781,-0.375 0.152344,-0.2695313 0.246094,-0.6679688 0.246094,-0.6914063 0,-0.09375 -0.09375,-0.09375 -0.117187,-0.09375 -0.09375,0 -0.105469,0.0351563 -0.152344,0.22265625 -0.08203,0.328125 -0.210938,0.73828125 -0.503906,0.73828125 -0.1875,0 -0.234375,-0.1523437 -0.234375,-0.3398437 0,-0.11718755 0.05859,-0.3632813 0.105468,-0.5507813 0.04687,-0.1875 0.117188,-0.46875 0.152344,-0.62109375 l 0.140625,-0.5390625 C 13.423539,-0.860125 13.50557,-1.18825 13.50557,-1.2234062 c 0,-0.1523438 -0.128906,-0.2226563 -0.246093,-0.2226563 -0.117188,0 -0.269532,0.082031 -0.316407,0.28125 z m -0.445312,1.79296875 c -0.04687,0.1875 -0.199219,0.328125 -0.351563,0.45703125 -0.07031,0.058594 -0.339843,0.28125 -0.644531,0.28125 -0.257812,0 -0.515625,-0.1757812 -0.515625,-0.66796875 0,-0.375 0.210938,-1.13671875 0.363281,-1.41796875 0.328125,-0.5625 0.679688,-0.6679687 0.878907,-0.6679687 0.480468,0 0.621093,0.5273437 0.621093,0.60937495 0,0.0234375 -0.01172,0.0820313 -0.02344,0.09375 z m 5.8125,-3.76171875 c 0,-0.011719 0.02344,-0.1054687 0.02344,-0.1171875 0,-0.035156 -0.02344,-0.09375 -0.105468,-0.09375 -0.140625,0 -0.726563,0.058594 -0.902344,0.070312 -0.04687,0.011719 -0.152344,0.011719 -0.152344,0.1640625 0,0.09375 0.105469,0.09375 0.1875,0.09375 0.328125,0 0.328125,0.046875 0.328125,0.1054688 0,0.046875 -0.01172,0.09375 -0.02344,0.1523437 l -0.398438,1.59375 c -0.140625,-0.234375 -0.386719,-0.4101562 -0.714844,-0.4101562 -0.890625,0 -1.804687,0.9726562 -1.804687,1.9804687 0,0.6796875 0.457031,1.1601563 1.054687,1.1601563 0.375,0 0.714844,-0.2109375 0.996094,-0.4921875 0.128906,0.421875 0.527344,0.4921875 0.714844,0.4921875 0.246094,0 0.421875,-0.1523438 0.550781,-0.375 0.152344,-0.2695313 0.246094,-0.6679688 0.246094,-0.6914063 0,-0.09375 -0.09375,-0.09375 -0.117188,-0.09375 -0.09375,0 -0.105468,0.0351563 -0.152343,0.22265625 -0.08203,0.328125 -0.210938,0.73828125 -0.503907,0.73828125 -0.1875,0 -0.234375,-0.1523437 -0.234375,-0.3398437 0,-0.1289063 0.01172,-0.1992188 0.03516,-0.28125005 z m -1.488281,3.76171875 c -0.04687,0.1875 -0.199219,0.328125 -0.351563,0.45703125 -0.07031,0.058594 -0.339844,0.28125 -0.644531,0.28125 -0.257813,0 -0.515625,-0.1757812 -0.515625,-0.66796875 0,-0.375 0.210937,-1.13671875 0.363281,-1.41796875 0.328125,-0.5625 0.679688,-0.6679687 0.878906,-0.6679687 0.480469,0 0.621094,0.5273437 0.621094,0.60937495 0,0.0234375 -0.01172,0.0820313 -0.02344,0.09375 z m 5.633789,-3.76171875 c 0,-0.011719 0.02344,-0.1054687 0.02344,-0.1171875 0,-0.035156 -0.02344,-0.09375 -0.105469,-0.09375 -0.140625,0 -0.726562,0.058594 -0.902343,0.070312 -0.04687,0.011719 -0.152344,0.011719 -0.152344,0.1640625 0,0.09375 0.105469,0.09375 0.1875,0.09375 0.328125,0 0.328125,0.046875 0.328125,0.1054688 0,0.046875 -0.01172,0.09375 -0.02344,0.1523437 l -0.398437,1.59375 c -0.140625,-0.234375 -0.386719,-0.4101562 -0.714844,-0.4101562 -0.890625,0 -1.804687,0.9726562 -1.804687,1.9804687 0,0.6796875 0.457031,1.1601563 1.054687,1.1601563 0.375,0 0.714844,-0.2109375 0.996094,-0.4921875 0.128906,0.421875 0.527344,0.4921875 0.714844,0.4921875 0.246093,0 0.421875,-0.1523438 0.550781,-0.375 0.152344,-0.2695313 0.246094,-0.6679688 0.246094,-0.6914063 0,-0.09375 -0.09375,-0.09375 -0.117188,-0.09375 -0.09375,0 -0.105469,0.0351563 -0.152344,0.22265625 -0.08203,0.328125 -0.210937,0.73828125 -0.503906,0.73828125 -0.1875,0 -0.234375,-0.1523437 -0.234375,-0.3398437 0,-0.1289063 0.01172,-0.1992188 0.03516,-0.28125005 z m -1.488282,3.76171875 c -0.04687,0.1875 -0.199218,0.328125 -0.351562,0.45703125 -0.07031,0.058594 -0.339844,0.28125 -0.644531,0.28125 -0.257813,0 -0.515625,-0.1757812 -0.515625,-0.66796875 0,-0.375 0.210937,-1.13671875 0.363281,-1.41796875 0.328125,-0.5625 0.679687,-0.6679687 0.878906,-0.6679687 0.480469,0 0.621094,0.5273437 0.621094,0.60937495 0,0.0234375 -0.01172,0.0820313 -0.02344,0.09375 z m 0,0"
         style="fill:#000000;fill-opacity:1;fill-rule:nonzero;stroke:none" />
    </g>
    <path
       id="path30"
       d="M 198.42766,0 V -11.90558"
       style="fill:none;stroke:#000000;stroke-width:0.3985;stroke-linecap:butt;stroke-linejoin:miter;stroke-miterlimit:10;stroke-dasharray:none;stroke-opacity:1"
       transform="matrix(1.3333333,0,0,-1.3333333,10.869333,110.644)" />
    <path
       id="path31"
       d="m 192.47481,-11.90558 h 11.9057 m -9.92133,-1.98424 h 7.93695 m -6.44879,-1.98437 h 4.96065"
       style="fill:none;stroke:#000000;stroke-width:0.797;stroke-linecap:butt;stroke-linejoin:miter;stroke-miterlimit:10;stroke-dasharray:none;stroke-opacity:1"
       transform="matrix(1.3333333,0,0,-1.3333333,10.869333,110.644)" />
    <path
       id="path32"
       d="m 0.35221875,-6.8096406 v 0.3164062 h 0.234375 c 0.77343745,0 0.78515625,0.1054688 0.78515625,0.46875 v 5.25000003 c 0,0.3515625 -0.011719,0.46875 -0.78515625,0.46875 h -0.234375 v 0.3046875 H 3.99675 c 1.6757812,0 3.046875,-1.47656253 3.046875,-3.35156253 0,-1.8867187 -1.3476563,-3.4570312 -3.046875,-3.4570312 z m 2.36718745,6.50390623 c -0.46875,0 -0.4921875,-0.0703125 -0.4921875,-0.3984375 V -6.0947969 c 0,-0.328125 0.023437,-0.3984375 0.4921875,-0.3984375 H 3.7155 c 0.6210937,0 1.3007812,0.2109375 1.8164062,0.9257813 0.421875,0.5859375 0.515625,1.4414062 0.515625,2.2148437 0,1.1132813 -0.1875,1.7109375 -0.5507812,2.1914063 -0.1992188,0.26953123 -0.7617188,0.85546873 -1.7695313,0.85546873 z m 0,0"
       style="fill:#000000;fill-opacity:1;fill-rule:nonzero;stroke:none"
       aria-label="D"
       transform="matrix(1.3333333,0,0,1.3333333,5.796,219.33733)" />
    <path
       id="path33"
       d="m 1.58714,-85.04042 c 0,0.87656 -0.71058,1.58714 -1.58714,1.58714 -0.87656,0 -1.58714,-0.71058 -1.58714,-1.58714 0,-0.87656 0.71058,-1.58714 1.58714,-1.58714 0.87656,0 1.58714,0.71058 1.58714,1.58714 z"
       style="fill:#ffffff;fill-opacity:1;fill-rule:nonzero;stroke:#000000;stroke-width:0.3985;stroke-linecap:butt;stroke-linejoin:miter;stroke-miterlimit:10;stroke-dasharray:none;stroke-opacity:1"
       transform="matrix(1.3333333,0,0,-1.3333333,10.869333,110.644)" />
    <path
       id="path34"
       d="m 56.69362,-97.11452 5.95285,-3.07741 -11.90572,-5.35781 11.90572,-5.35782 -11.90572,-5.35782 11.90572,-5.35782 -11.90572,-5.3578 5.95287,-2.67891"
       style="fill:none;stroke:#000000;stroke-width:0.797;stroke-linecap:butt;stroke-linejoin:bevel;stroke-miterlimit:10;stroke-dasharray:none;stroke-opacity:1"
       transform="matrix(1.3333333,0,0,-1.3333333,10.869333,110.644)" />
    <g
       id="g34"
       aria-label="R&#10;al"
       transform="matrix(1.3333333,0,0,1.3333333,97.334667,264.68533)">
      <path
         id="path35"
         d="m 2.2275156,-3.5169297 v -2.578125 c 0,-0.234375 0,-0.3515625 0.2226563,-0.3867187 0.1054687,-0.011719 0.3867187,-0.011719 0.5859375,-0.011719 0.9023437,0 2.015625,0.035156 2.015625,1.4765625 0,0.6914063 -0.234375,1.5 -1.7109375,1.5 z m 2.109375,0.1289063 c 0.9609375,-0.234375 1.7460938,-0.84375 1.7460938,-1.6289063 0,-0.9492187 -1.1367188,-1.7929687 -2.6015625,-1.7929687 H 0.35251562 v 0.3164062 h 0.234375 c 0.77343748,0 0.78515628,0.1054688 0.78515628,0.46875 v 5.25000001 c 0,0.3515625 -0.011719,0.46875 -0.78515628,0.46875 h -0.234375 v 0.3046875 c 0.3515625,-0.03515625 1.06640628,-0.03515625 1.45312498,-0.03515625 0.3867188,0 1.0898438,0 1.453125,0.03515625 v -0.3046875 h -0.234375 c -0.7734375,0 -0.796875,-0.1171875 -0.796875,-0.46875 V -3.2942734 h 1.1484375 c 0.1640625,0 0.5742188,0 0.9257813,0.3398437 0.3867187,0.3515625 0.3867187,0.65625 0.3867187,1.3242188 0,0.65624996 0,1.05468746 0.3984375,1.42968746 0.4101563,0.36328125 0.9609375,0.421875 1.2539063,0.421875 0.7851562,0 0.9492187,-0.8203125 0.9492187,-1.1015625 0,-0.0585938 0,-0.16406246 -0.1289062,-0.16406246 -0.1054688,0 -0.1054688,0.0820312 -0.1171875,0.15234371 -0.058594,0.71484375 -0.4101563,0.890625 -0.65625,0.890625 -0.4921875,0 -0.5742188,-0.50390625 -0.703125,-1.42968751 l -0.140625,-0.796875 C 5.3681406,-2.8723984 4.8876719,-3.2005234 4.3368906,-3.3880234 Z m 0,0"
         style="fill:#000000;fill-opacity:1;fill-rule:nonzero;stroke:none" />
      <path
         id="path36"
         d="m 10.275367,-1.1673203 c -0.140625,-0.234375 -0.3867186,-0.4101563 -0.7148436,-0.4101563 -0.890625,0 -1.8046875,0.97265629 -1.8046875,1.98046879 0,0.67968751 0.4570313,1.16015621 1.0546875,1.16015621 0.375,0 0.7148438,-0.2109375 0.9960938,-0.4921875 0.1289062,0.421875 0.5273438,0.4921875 0.7148438,0.4921875 0.246094,0 0.421875,-0.1523437 0.550781,-0.375 0.152344,-0.26953121 0.246094,-0.66796871 0.246094,-0.69140621 0,-0.09375 -0.09375,-0.09375 -0.117188,-0.09375 -0.09375,0 -0.105468,0.0351563 -0.152343,0.22265625 -0.08203,0.328125 -0.210938,0.73828126 -0.503907,0.73828126 -0.1875,0 -0.234375,-0.1523438 -0.234375,-0.3398438 0,-0.11718746 0.05859,-0.36328121 0.105469,-0.55078121 0.04687,-0.1875 0.117188,-0.46875 0.152344,-0.62109375 l 0.140625,-0.5390625 c 0.04687,-0.17578125 0.128906,-0.50390624 0.128906,-0.53906254 0,-0.1523437 -0.128906,-0.2226562 -0.246094,-0.2226562 -0.117187,0 -0.269531,0.082031 -0.316406,0.28125 z M 9.8300547,0.62564844 c -0.046875,0.1875 -0.1992188,0.328125 -0.3515625,0.45703126 -0.070312,0.058594 -0.3398438,0.28125 -0.6445313,0.28125 -0.2578125,0 -0.515625,-0.1757813 -0.515625,-0.66796876 0,-0.375 0.2109375,-1.13671875 0.3632813,-1.41796875 0.328125,-0.56249999 0.6796875,-0.66796879 0.8789062,-0.66796879 0.4804686,0 0.6210936,0.52734379 0.6210936,0.60937504 0,0.0234375 -0.01172,0.0820313 -0.02344,0.09375 z M 13.624,-3.1360703 c 0,-0.011719 0.02344,-0.1054688 0.02344,-0.1171875 0,-0.035156 -0.02344,-0.09375 -0.105468,-0.09375 -0.140625,0 -0.726563,0.058594 -0.902344,0.070312 -0.04687,0.011719 -0.140625,0.011719 -0.140625,0.1640625 0,0.09375 0.09375,0.09375 0.175781,0.09375 0.328125,0 0.328125,0.046875 0.328125,0.1054687 0,0.046875 -0.01172,0.09375 -0.02344,0.1523438 l -0.867188,3.44531249 c -0.02344,0.0703125 -0.02344,0.140625 -0.02344,0.2109375 0,0.45703121 0.398437,0.66796871 0.726562,0.66796871 0.175781,0 0.375,-0.058594 0.5625,-0.375 C 13.518531,0.93033594 13.624,0.52017969 13.624,0.49674219 c 0,-0.09375 -0.09375,-0.09375 -0.117188,-0.09375 -0.09375,0 -0.105468,0.046875 -0.140625,0.1640625 -0.08203,0.3515625 -0.222656,0.79687501 -0.515625,0.79687501 -0.1875,0 -0.234375,-0.1757813 -0.234375,-0.3398438 0,-0.0703125 0.01172,-0.21093746 0.03516,-0.28124996 z m 0,0"
         style="fill:#000000;fill-opacity:1;fill-rule:nonzero;stroke:none" />
    </g>
    <path
       id="path37"
       d="m 56.69362,-141.73404 v -11.90558"
       style="fill:none;stroke:#000000;stroke-width:0.3985;stroke-linecap:butt;stroke-linejoin:miter;stroke-miterlimit:10;stroke-dasharray:none;stroke-opacity:1"
       transform="matrix(1.3333333,0,0,-1.3333333,10.869333,110.644)" />
    <path
       id="path38"
       d="m 50.74075,-153.63962 h 11.90572 m -9.92134,-1.98424 h 7.93697 m -6.44881,-1.98437 h 4.96064"
       style="fill:none;stroke:#000000;stroke-width:0.797;stroke-linecap:butt;stroke-linejoin:miter;stroke-miterlimit:10;stroke-dasharray:none;stroke-opacity:1"
       transform="matrix(1.3333333,0,0,-1.3333333,10.869333,110.644)" />
    <path
       id="path39"
       d="m 28.34679,-97.11452 5.95285,-3.07741 -11.9057,-5.35781 11.9057,-5.35782 -11.9057,-5.35782 11.9057,-5.35782 -11.9057,-5.3578 5.95285,-2.67891"
       style="fill:none;stroke:#000000;stroke-width:0.797;stroke-linecap:butt;stroke-linejoin:bevel;stroke-miterlimit:10;stroke-dasharray:none;stroke-opacity:1"
       transform="matrix(1.3333333,0,0,-1.3333333,10.869333,110.644)" />
    <path
       id="path40"
       d="m 29.93394,-85.04042 c 0,0.87656 -0.71058,1.58714 -1.58714,1.58714 -0.87655,0 -1.58714,-0.71058 -1.58714,-1.58714 0,-0.87656 0.71059,-1.58714 1.58714,-1.58714 0.87656,0 1.58714,0.71058 1.58714,1.58714 z"
       style="fill:#000000;fill-opacity:1;fill-rule:nonzero;stroke:#000000;stroke-width:0.3985;stroke-linecap:butt;stroke-linejoin:miter;stroke-miterlimit:10;stroke-dasharray:none;stroke-opacity:1"
       transform="matrix(1.3333333,0,0,-1.3333333,10.869333,110.644)" />
    <path
       id="path41"
       d="m 29.93394,-141.73404 c 0,0.87656 -0.71058,1.58714 -1.58714,1.58714 -0.87655,0 -1.58714,-0.71058 -1.58714,-1.58714 0,-0.87656 0.71059,-1.58714 1.58714,-1.58714 0.87656,0 1.58714,0.71058 1.58714,1.58714 z"
       style="fill:#000000;fill-opacity:1;fill-rule:nonzero;stroke:#000000;stroke-width:0.3985;stroke-linecap:butt;stroke-linejoin:miter;stroke-miterlimit:10;stroke-dasharray:none;stroke-opacity:1"
       transform="matrix(1.3333333,0,0,-1.3333333,10.869333,110.644)" />
    <g
       id="g41"
       aria-label="R&#10;ab"
       transform="matrix(1.3333333,0,0,1.3333333,16.913333,264.68533)">
      <path
         id="path42"
         d="m 2.2271094,-3.5169297 v -2.578125 c 0,-0.234375 0,-0.3515625 0.2226562,-0.3867187 0.1054688,-0.011719 0.3867188,-0.011719 0.5859375,-0.011719 0.9023438,0 2.015625,0.035156 2.015625,1.4765625 0,0.6914063 -0.234375,1.5 -1.7109375,1.5 z m 2.109375,0.1289063 c 0.9609375,-0.234375 1.7460937,-0.84375 1.7460937,-1.6289063 0,-0.9492187 -1.1367187,-1.7929687 -2.6015625,-1.7929687 H 0.35210937 v 0.3164062 h 0.234375 c 0.77343753,0 0.78515623,0.1054688 0.78515623,0.46875 v 5.25000001 c 0,0.3515625 -0.011719,0.46875 -0.78515623,0.46875 h -0.234375 v 0.3046875 c 0.3515625,-0.03515625 1.06640623,-0.03515625 1.45312503,-0.03515625 0.3867187,0 1.0898437,0 1.453125,0.03515625 v -0.3046875 h -0.234375 c -0.7734375,0 -0.796875,-0.1171875 -0.796875,-0.46875 V -3.2942734 h 1.1484375 c 0.1640625,0 0.5742187,0 0.9257812,0.3398437 0.3867188,0.3515625 0.3867188,0.65625 0.3867188,1.3242188 0,0.65624996 0,1.05468746 0.3984375,1.42968746 0.4101562,0.36328125 0.9609375,0.421875 1.2539062,0.421875 0.7851563,0 0.9492188,-0.8203125 0.9492188,-1.1015625 0,-0.0585938 0,-0.16406246 -0.1289063,-0.16406246 -0.1054687,0 -0.1054687,0.0820312 -0.1171875,0.15234371 -0.058594,0.71484375 -0.4101562,0.890625 -0.65625,0.890625 -0.4921875,0 -0.5742187,-0.50390625 -0.703125,-1.42968751 l -0.140625,-0.796875 C 5.3677344,-2.8723984 4.8872656,-3.2005234 4.3364844,-3.3880234 Z m 0,0"
         style="fill:#000000;fill-opacity:1;fill-rule:nonzero;stroke:none" />
      <path
         id="path43"
         d="m 10.274961,-1.1673203 c -0.140625,-0.234375 -0.3867188,-0.4101563 -0.7148438,-0.4101563 -0.890625,0 -1.8046875,0.97265629 -1.8046875,1.98046879 0,0.67968751 0.4570312,1.16015621 1.0546875,1.16015621 0.375,0 0.7148437,-0.2109375 0.9960937,-0.4921875 0.1289063,0.421875 0.5273441,0.4921875 0.7148441,0.4921875 0.246093,0 0.421875,-0.1523437 0.550781,-0.375 0.152344,-0.26953121 0.246094,-0.66796871 0.246094,-0.69140621 0,-0.09375 -0.09375,-0.09375 -0.117188,-0.09375 -0.09375,0 -0.105469,0.0351563 -0.152344,0.22265625 -0.08203,0.328125 -0.210937,0.73828126 -0.503906,0.73828126 -0.1875,0 -0.234375,-0.1523438 -0.234375,-0.3398438 0,-0.11718746 0.05859,-0.36328121 0.105469,-0.55078121 0.04687,-0.1875 0.117187,-0.46875 0.152344,-0.62109375 l 0.140625,-0.5390625 c 0.04687,-0.17578125 0.128906,-0.50390624 0.128906,-0.53906254 0,-0.1523437 -0.128906,-0.2226562 -0.246094,-0.2226562 -0.117187,0 -0.269531,0.082031 -0.316406,0.28125 z M 9.8296484,0.62564844 c -0.046875,0.1875 -0.1992187,0.328125 -0.3515625,0.45703126 -0.070312,0.058594 -0.3398437,0.28125 -0.6445312,0.28125 -0.2578125,0 -0.515625,-0.1757813 -0.515625,-0.66796876 0,-0.375 0.2109375,-1.13671875 0.3632812,-1.41796875 0.328125,-0.56249999 0.6796875,-0.66796879 0.8789063,-0.66796879 0.4804688,0 0.6210938,0.52734379 0.6210938,0.60937504 0,0.0234375 -0.01172,0.0820313 -0.02344,0.09375 z M 13.494688,-3.1360703 c 0.01172,-0.011719 0.02344,-0.1054688 0.02344,-0.1171875 0,-0.035156 -0.02344,-0.09375 -0.105469,-0.09375 -0.140625,0 -0.714843,0.058594 -0.890625,0.070312 -0.05859,0.011719 -0.152343,0.011719 -0.152343,0.1640625 0,0.09375 0.09375,0.09375 0.175781,0.09375 0.339844,0 0.339844,0.046875 0.339844,0.1054687 0,0.046875 -0.07031,0.328125 -0.117188,0.4921875 l -0.152344,0.6328125 c -0.07031,0.2460938 -0.457031,1.76953129 -0.46875,1.86328129 -0.03516,0.1640625 -0.03516,0.2578125 -0.03516,0.33984375 0,0.70312496 0.445313,1.14843746 1.03125,1.14843746 0.867188,0 1.792969,-0.94921871 1.792969,-1.98046871 0,-0.82031249 -0.5625,-1.16015629 -1.042969,-1.16015629 -0.363281,0 -0.667969,0.1992188 -0.878906,0.375 z m -0.351563,4.5 c -0.339844,0 -0.527344,-0.2929688 -0.527344,-0.70312501 0,-0.2578125 0.05859,-0.50390625 0.257813,-1.2890625 0.03516,-0.12890625 0.03516,-0.140625 0.164062,-0.29296875 0.269532,-0.31640624 0.585938,-0.46875004 0.832032,-0.46875004 0.269531,0 0.515625,0.2109375 0.515625,0.67968754 0,0.28125 -0.152344,0.99609375 -0.363282,1.40625 C 13.84625,1.0358047 13.506406,1.3639297 13.143125,1.3639297 Z m 0,0"
         style="fill:#000000;fill-opacity:1;fill-rule:nonzero;stroke:none" />
    </g>
    <path
       id="path44"
       d="M 40.2525,-166.11237 H 16.44107 m 23.81143,-7.93695 H 16.44107"
       style="fill:none;stroke:#000000;stroke-width:0.797;stroke-linecap:butt;stroke-linejoin:miter;stroke-miterlimit:10;stroke-dasharray:none;stroke-opacity:1"
       transform="matrix(1.3333333,0,0,-1.3333333,10.869333,110.644)" />
    <g
       id="g44"
       aria-label="C&#10;ab"
       transform="matrix(1.3333333,0,0,1.3333333,8.3666667,340.276)">
      <path
         id="path45"
         d="m 0.56289062,-3.4091484 c 0,2.0625 1.60546878,3.63281246 3.45703128,3.63281246 1.6289062,0 2.6015625,-1.38281246 2.6015625,-2.54296876 0,-0.1054687 0,-0.1757812 -0.1289063,-0.1757812 -0.1054687,0 -0.1054687,0.070312 -0.1171875,0.1640625 -0.082031,1.42968746 -1.1484375,2.23828121 -2.2265625,2.23828121 -0.609375,0 -2.5664062,-0.33984375 -2.5664062,-3.30468751 0,-2.9765625 1.9453125,-3.3164062 2.5546875,-3.3164062 1.078125,0 1.96875,0.9023437 2.1679687,2.3671875 0.023437,0.1289062 0.023437,0.1640625 0.1640625,0.1640625 0.1523438,0 0.1523438,-0.035156 0.1523438,-0.234375 v -2.3671875 c 0,-0.1640625 0,-0.234375 -0.1054688,-0.234375 -0.035156,0 -0.082031,0 -0.1640625,0.1171875 l -0.4921875,0.7382812 c -0.375,-0.3632812 -0.8789062,-0.8554687 -1.8398437,-0.8554687 -1.8632813,0 -3.45703128,1.5820312 -3.45703128,3.609375 z m 0,0"
         style="fill:#000000;fill-opacity:1;fill-rule:nonzero;stroke:none" />
      <path
         id="path46"
         d="m 10.137109,-1.1650078 c -0.1406246,-0.234375 -0.3867184,-0.4101563 -0.7148434,-0.4101563 -0.890625,0 -1.8046875,0.97265629 -1.8046875,1.98046879 0,0.67968751 0.4570313,1.16015621 1.0546875,1.16015621 0.375,0 0.7148438,-0.2109375 0.9960938,-0.4921875 0.1289062,0.421875 0.5273436,0.4921875 0.7148436,0.4921875 0.246094,0 0.421875,-0.1523437 0.550781,-0.375 0.152344,-0.26953121 0.246094,-0.66796871 0.246094,-0.69140621 0,-0.09375 -0.09375,-0.09375 -0.117187,-0.09375 -0.09375,0 -0.105469,0.0351563 -0.152344,0.22265625 -0.08203,0.328125 -0.210938,0.73828126 -0.503906,0.73828126 -0.1875,0 -0.234375,-0.1523438 -0.234375,-0.3398438 0,-0.11718746 0.05859,-0.36328121 0.105468,-0.55078121 0.04687,-0.1875 0.117188,-0.46875 0.152344,-0.62109375 l 0.140625,-0.5390625 c 0.04687,-0.17578125 0.128906,-0.50390624 0.128906,-0.53906254 0,-0.1523437 -0.128906,-0.2226562 -0.246093,-0.2226562 -0.117188,0 -0.269532,0.082031 -0.316407,0.28125 z M 9.6917969,0.62796094 c -0.046875,0.1875 -0.1992188,0.328125 -0.3515625,0.45703126 -0.070312,0.058594 -0.3398438,0.28125 -0.6445313,0.28125 -0.2578125,0 -0.515625,-0.1757813 -0.515625,-0.66796876 0,-0.375 0.2109375,-1.13671875 0.3632813,-1.41796875 0.328125,-0.56249999 0.6796875,-0.66796879 0.8789062,-0.66796879 0.4804688,0 0.6210934,0.52734379 0.6210934,0.60937504 0,0.0234375 -0.01172,0.0820313 -0.02344,0.09375 z M 13.356836,-3.1337578 c 0.01172,-0.011719 0.02344,-0.1054688 0.02344,-0.1171875 0,-0.035156 -0.02344,-0.09375 -0.105468,-0.09375 -0.140625,0 -0.714844,0.058594 -0.890625,0.070312 -0.05859,0.011719 -0.152344,0.011719 -0.152344,0.1640625 0,0.09375 0.09375,0.09375 0.175781,0.09375 0.339844,0 0.339844,0.046875 0.339844,0.1054687 0,0.046875 -0.07031,0.328125 -0.117188,0.4921875 l -0.152343,0.6328125 c -0.07031,0.2460938 -0.457032,1.76953129 -0.46875,1.86328129 -0.03516,0.1640625 -0.03516,0.2578125 -0.03516,0.33984375 0,0.70312496 0.445313,1.14843746 1.03125,1.14843746 0.867188,0 1.792969,-0.94921871 1.792969,-1.98046871 0,-0.82031249 -0.5625,-1.16015629 -1.042969,-1.16015629 -0.363281,0 -0.667968,0.1992188 -0.878906,0.375 z m -0.351563,4.5 c -0.339843,0 -0.527343,-0.2929688 -0.527343,-0.70312501 0,-0.2578125 0.05859,-0.50390625 0.257812,-1.2890625 0.03516,-0.12890625 0.03516,-0.140625 0.164063,-0.29296875 0.269531,-0.31640624 0.585937,-0.46875004 0.832031,-0.46875004 0.269531,0 0.515625,0.2109375 0.515625,0.67968754 0,0.28125 -0.152344,0.99609375 -0.363281,1.40625 C 13.708398,1.0381172 13.368555,1.3662422 13.005273,1.3662422 Z m 0,0"
         style="fill:#000000;fill-opacity:1;fill-rule:nonzero;stroke:none" />
    </g>
    <path
       id="path47"
       d="m 28.3468,-198.42766 v -11.90558"
       style="fill:none;stroke:#000000;stroke-width:0.3985;stroke-linecap:butt;stroke-linejoin:miter;stroke-miterlimit:10;stroke-dasharray:none;stroke-opacity:1"
       transform="matrix(1.3333333,0,0,-1.3333333,10.869333,110.644)" />
    <path
       id="path48"
       d="m 22.39395,-210.33324 h 11.9057 m -9.92132,-1.98423 h 7.93695 m -6.44881,-1.98438 h 4.96066"
       style="fill:none;stroke:#000000;stroke-width:0.797;stroke-linecap:butt;stroke-linejoin:miter;stroke-miterlimit:10;stroke-dasharray:none;stroke-opacity:1"
       transform="matrix(1.3333333,0,0,-1.3333333,10.869333,110.644)" />
    <path
       id="path49"
       d="m 72.7362,-85.1998 c 0,3.2877 1.63474,5.95285 3.65134,5.95285 2.0166,0 3.65136,-2.66515 3.65136,-5.95285 0,-1.64375 -0.66627,-2.97627 -1.48815,-2.97627 -0.82187,0 -1.48813,1.33252 -1.48813,2.97627 0,3.2877 1.63475,5.95285 3.65135,5.95285 2.01661,0 3.65134,-2.66515 3.65134,-5.95285 0,-1.64375 -0.66624,-2.97627 -1.48813,-2.97627 -0.82188,0 -1.48814,1.33252 -1.48814,2.97627 0,3.2877 1.63475,5.95285 3.65135,5.95285 2.0166,0 3.65135,-2.66515 3.65135,-5.95285 0,-1.64375 -0.66626,-2.97627 -1.48814,-2.97627 -0.82187,0 -1.48813,1.33252 -1.48813,2.97627 0,3.2877 1.63473,5.95285 3.65135,5.95285 2.0166,0 3.65134,-2.66515 3.65134,-5.95285 0,-1.64375 -0.66626,-2.97627 -1.48813,-2.97627 -0.82188,0 -1.48814,1.33252 -1.48814,2.97627 0,3.2877 1.63475,5.95285 3.65135,5.95285 2.0166,0 3.65135,-2.66515 3.65135,-5.95285"
       style="fill:none;stroke:#000000;stroke-width:0.797;stroke-linecap:butt;stroke-linejoin:bevel;stroke-miterlimit:10;stroke-dasharray:none;stroke-opacity:1"
       transform="matrix(1.3333333,0,0,-1.3333333,10.869333,110.644)" />
    <path
       id="path50"
       d="m 58.28076,-85.04042 c 0,0.87656 -0.71058,1.58714 -1.58714,1.58714 -0.87657,0 -1.58716,-0.71058 -1.58716,-1.58714 0,-0.87656 0.71059,-1.58714 1.58716,-1.58714 0.87656,0 1.58714,0.71058 1.58714,1.58714 z"
       style="fill:#000000;fill-opacity:1;fill-rule:nonzero;stroke:#000000;stroke-width:0.3985;stroke-linecap:butt;stroke-linejoin:miter;stroke-miterlimit:10;stroke-dasharray:none;stroke-opacity:1"
       transform="matrix(1.3333333,0,0,-1.3333333,10.869333,110.644)" />
    <path
       id="path51"
       d="M 2.4034844,-6.5870781 C 2.3097344,-6.8097344 2.2862969,-6.8097344 2.0519219,-6.8097344 H 0.36442188 v 0.3164063 h 0.24609375 c 0.76171877,0 0.78515627,0.1054687 0.78515627,0.46875 v 4.9804687 c 0,0.26953128 0,0.73828128 -1.03125002,0.73828128 v 0.3046875 c 0.3515625,-0.01171875 0.84375002,-0.03515625 1.17187502,-0.03515625 0.328125,0 0.8203125,0.0234375 1.1601562,0.03515625 v -0.3046875 c -1.0195312,0 -1.0195312,-0.46875 -1.0195312,-0.73828128 v -5.3671875 h 0.011719 l 2.4023438,6.18750003 c 0.046875,0.12890625 0.09375,0.22265625 0.1992187,0.22265625 0.1054688,0 0.1289063,-0.08203125 0.1757813,-0.1875 L 6.9152031,-6.4933281 h 0.011719 v 5.71874998 c 0,0.3515625 -0.023437,0.46875 -0.7851563,0.46875 H 5.8956719 v 0.3046875 c 0.375,-0.03515625 1.0429687,-0.03515625 1.4414062,-0.03515625 0.3867188,0 1.0546875,0 1.4179688,0.03515625 v -0.3046875 h -0.234375 c -0.7734375,0 -0.7851563,-0.1171875 -0.7851563,-0.46875 V -6.0245781 c 0,-0.3632813 0.011719,-0.46875 0.7851563,-0.46875 h 0.234375 V -6.8097344 H 7.0792656 c -0.2695312,0 -0.2695312,0.011719 -0.3398437,0.1992188 l -2.1796875,5.6015625 z m 7.8310546,3.1640625 v 2.66015623 c 0,0.45703125 -0.117187,0.45703125 -0.7851562,0.45703125 v 0.3046875 c 0.3515625,-0.01171875 0.8554692,-0.03515625 1.1250002,-0.03515625 0.257812,0 0.785156,0.0234375 1.113281,0.03515625 v -0.3046875 c -0.65625,0 -0.773437,0 -0.773437,-0.45703125 V -2.5909844 c 0,-1.03125 0.714843,-1.59375 1.347656,-1.59375 0.621094,0 0.738281,0.5390625 0.738281,1.1015625 v 2.32031253 c 0,0.45703125 -0.117187,0.45703125 -0.773437,0.45703125 v 0.3046875 c 0.339843,-0.01171875 0.855468,-0.03515625 1.125,-0.03515625 0.257812,0 0.773437,0.0234375 1.113281,0.03515625 v -0.3046875 c -0.667969,0 -0.785156,0 -0.785156,-0.45703125 V -2.5909844 c 0,-1.03125 0.714843,-1.59375 1.347656,-1.59375 0.632812,0 0.738281,0.5390625 0.738281,1.1015625 v 2.32031253 c 0,0.45703125 -0.105469,0.45703125 -0.773437,0.45703125 v 0.3046875 c 0.351562,-0.01171875 0.855468,-0.03515625 1.125,-0.03515625 0.257812,0 0.773437,0.0234375 1.113281,0.03515625 v -0.3046875 c -0.515625,0 -0.761719,0 -0.773438,-0.3046875 V -2.5089531 c 0,-0.8554688 0,-1.171875 -0.316406,-1.5234375 -0.128906,-0.1757813 -0.46875,-0.375 -1.042969,-0.375 -0.832031,0 -1.277343,0.5976562 -1.441406,0.984375 -0.140625,-0.8671875 -0.878906,-0.984375 -1.324219,-0.984375 -0.726562,0 -1.195312,0.4335937 -1.476562,1.0546875 v -1.0546875 l -1.4062502,0.1171875 v 0.3046875 c 0.7031252,0 0.7851562,0.070312 0.7851562,0.5625 z m 10.517578,2.66015623 c 0.03516,0.3984375 0.304688,0.8203125 0.773438,0.8203125 0.210937,0 0.820312,-0.140625 0.820312,-0.94921875 V -1.4425469 h -0.246094 v 0.55078128 c 0,0.5859375 -0.246093,0.64453125 -0.363281,0.64453125 -0.328125,0 -0.363281,-0.45703125 -0.363281,-0.50390625 V -2.7433281 c 0,-0.4101563 0,-0.8085938 -0.363281,-1.171875 -0.386719,-0.3867188 -0.878907,-0.5507813 -1.359375,-0.5507813 -0.820313,0 -1.511719,0.46875 -1.511719,1.125 0,0.3046875 0.199219,0.46875 0.457031,0.46875 0.28125,0 0.46875,-0.1992187 0.46875,-0.4570312 0,-0.1171875 -0.05859,-0.4453125 -0.515625,-0.4570313 0.269531,-0.3515625 0.761719,-0.4570312 1.078125,-0.4570312 0.492188,0 1.054688,0.3867187 1.054688,1.2773437 v 0.3632813 c -0.503907,0.035156 -1.207032,0.058594 -1.828125,0.3632812 -0.75,0.3398438 -0.996094,0.8554688 -0.996094,1.28906253 0,0.80859375 0.960937,1.0546875 1.59375,1.0546875 0.65625,0 1.113281,-0.3984375 1.300781,-0.8671875 z m -0.07031,-1.62890623 v 0.9960937 c 0,0.94921878 -0.714844,1.28906253 -1.160157,1.28906253 -0.492187,0 -0.902343,-0.3515625 -0.902343,-0.85546875 0,-0.53906248 0.421875,-1.37109378 2.0625,-1.42968748 z m 3,1.62890623 1.054687,-1.03125003 c 1.558594,-1.3710937 2.15625,-1.9101562 2.15625,-2.90625 0,-1.1367187 -0.902344,-1.9335937 -2.121094,-1.9335937 -1.125,0 -1.851562,0.9140625 -1.851562,1.8046875 0,0.5507812 0.492187,0.5507812 0.527344,0.5507812 0.164062,0 0.515625,-0.1171875 0.515625,-0.5273437 0,-0.2578125 -0.1875,-0.515625 -0.527344,-0.515625 -0.08203,0 -0.105469,0 -0.128906,0.011719 0.222656,-0.6445312 0.761718,-1.0195312 1.335937,-1.0195312 0.914063,0 1.335938,0.8085937 1.335938,1.6289062 0,0.796875 -0.492188,1.5820313 -1.042969,2.203125 l -1.910156,2.13281253 c -0.105469,0.10546875 -0.105469,0.12890625 -0.105469,0.36328125 h 3.691406 l 0.28125,-1.73437498 H 26.63493 c -0.04687,0.3046875 -0.117188,0.73828123 -0.210938,0.89062498 -0.07031,0.0820313 -0.726562,0.0820313 -0.949219,0.0820313 z m 0,0"
       style="fill:#000000;fill-opacity:1;fill-rule:nonzero;stroke:none"
       aria-label="Mma2"
       transform="matrix(1.3333333,0,0,1.3333333,105.99067,211.00933)" />
    <path
       id="path52"
       d="m 118.37463,-85.0404 3.07741,5.95285 5.35782,-11.90571 5.35782,11.90571 5.35782,-11.90571 5.35782,11.90571 5.3578,-11.90571 2.67891,5.95286"
       style="fill:none;stroke:#000000;stroke-width:0.797;stroke-linecap:butt;stroke-linejoin:bevel;stroke-miterlimit:10;stroke-dasharray:none;stroke-opacity:1"
       transform="matrix(1.3333333,0,0,-1.3333333,10.869333,110.644)" />
    <path
       id="path53"
       d="m 2.2275859,-3.5167656 v -2.578125 c 0,-0.234375 0,-0.3515625 0.2226563,-0.3867188 0.1054687,-0.011719 0.3867187,-0.011719 0.5859375,-0.011719 0.9023437,0 2.015625,0.035156 2.015625,1.4765625 0,0.6914062 -0.234375,1.5 -1.7109375,1.5 z m 2.109375,0.1289062 c 0.9609375,-0.234375 1.7460938,-0.84375 1.7460938,-1.6289062 0,-0.9492188 -1.1367188,-1.7929688 -2.6015625,-1.7929688 H 0.35258594 v 0.3164063 h 0.234375 c 0.77343746,0 0.78515626,0.1054687 0.78515626,0.46875 v 5.24999998 c 0,0.3515625 -0.011719,0.46875 -0.78515626,0.46875 h -0.234375 v 0.3046875 c 0.3515625,-0.03515625 1.06640626,-0.03515625 1.45312496,-0.03515625 0.3867188,0 1.0898438,0 1.453125,0.03515625 v -0.3046875 h -0.234375 c -0.7734375,0 -0.796875,-0.1171875 -0.796875,-0.46875 V -3.2941094 h 1.1484375 c 0.1640625,0 0.5742188,0 0.9257813,0.3398438 0.3867187,0.3515625 0.3867187,0.65625 0.3867187,1.3242187 0,0.65625003 0,1.05468753 0.3984375,1.42968753 0.4101563,0.36328125 0.9609375,0.421875 1.2539063,0.421875 0.7851562,0 0.9492187,-0.8203125 0.9492187,-1.1015625 0,-0.0585938 0,-0.16406253 -0.1289062,-0.16406253 -0.1054688,0 -0.1054688,0.0820313 -0.1171875,0.15234378 -0.058594,0.71484375 -0.4101563,0.890625 -0.65625,0.890625 -0.4921875,0 -0.5742188,-0.50390625 -0.703125,-1.42968748 l -0.140625,-0.796875 C 5.3682109,-2.8722344 4.8877422,-3.2003594 4.3369609,-3.3878594 Z m 4.0986329,-0.035156 v 2.66015623 c 0,0.45703125 -0.1171875,0.45703125 -0.7851563,0.45703125 v 0.3046875 c 0.3515625,-0.01171875 0.8554688,-0.03515625 1.125,-0.03515625 0.2578125,0 0.7851563,0.0234375 1.1132813,0.03515625 v -0.3046875 c -0.65625,0 -0.7734375,0 -0.7734375,-0.45703125 V -2.5909844 c 0,-1.03125 0.7148437,-1.59375 1.3476567,-1.59375 0.621093,0 0.738281,0.5390625 0.738281,1.1015625 v 2.32031253 c 0,0.45703125 -0.117188,0.45703125 -0.773438,0.45703125 v 0.3046875 c 0.339844,-0.01171875 0.855469,-0.03515625 1.125,-0.03515625 0.257813,0 0.773438,0.0234375 1.113282,0.03515625 v -0.3046875 c -0.667969,0 -0.785157,0 -0.785157,-0.45703125 V -2.5909844 c 0,-1.03125 0.714844,-1.59375 1.347657,-1.59375 0.632812,0 0.738281,0.5390625 0.738281,1.1015625 v 2.32031253 c 0,0.45703125 -0.105469,0.45703125 -0.773438,0.45703125 v 0.3046875 c 0.351563,-0.01171875 0.855469,-0.03515625 1.125,-0.03515625 0.257813,0 0.773438,0.0234375 1.113282,0.03515625 v -0.3046875 c -0.515625,0 -0.761719,0 -0.773438,-0.3046875 V -2.5089531 c 0,-0.8554688 0,-1.171875 -0.316406,-1.5234375 -0.128906,-0.1757813 -0.46875,-0.375 -1.042969,-0.375 -0.832031,0 -1.277344,0.5976562 -1.441406,0.984375 -0.140625,-0.8671875 -0.878906,-0.984375 -1.324219,-0.984375 -0.7265625,0 -1.1953125,0.4335937 -1.4765625,1.0546875 v -1.0546875 l -1.40625,0.1171875 v 0.3046875 c 0.703125,0 0.7851563,0.070312 0.7851563,0.5625002 z m 10.5175782,2.66015623 c 0.03516,0.3984375 0.304687,0.8203125 0.773437,0.8203125 0.210938,0 0.820313,-0.140625 0.820313,-0.94921875 V -1.4425469 h -0.246094 v 0.55078128 c 0,0.5859375 -0.246094,0.64453125 -0.363281,0.64453125 -0.328125,0 -0.363281,-0.45703125 -0.363281,-0.50390625 V -2.7433281 c 0,-0.4101563 0,-0.8085938 -0.363282,-1.171875 -0.386718,-0.3867188 -0.878906,-0.5507813 -1.359375,-0.5507813 -0.820312,0 -1.511718,0.46875 -1.511718,1.125 0,0.3046875 0.199218,0.46875 0.457031,0.46875 0.28125,0 0.46875,-0.1992187 0.46875,-0.4570312 0,-0.1171875 -0.05859,-0.4453125 -0.515625,-0.4570313 0.269531,-0.3515625 0.761719,-0.4570312 1.078125,-0.4570312 0.492187,0 1.054687,0.3867187 1.054687,1.2773437 v 0.3632813 c -0.503906,0.035156 -1.207031,0.058594 -1.828125,0.3632812 -0.75,0.3398438 -0.996093,0.8554688 -0.996093,1.28906253 0,0.80859375 0.960937,1.0546875 1.59375,1.0546875 0.65625,0 1.113281,-0.3984375 1.300781,-0.8671873 z m -0.07031,-1.62890623 v 0.9960937 c 0,0.94921878 -0.714843,1.28906253 -1.160156,1.28906253 -0.492187,0 -0.902344,-0.3515625 -0.902344,-0.85546875 0,-0.53906248 0.421875,-1.37109378 2.0625,-1.42968748 z m 3,1.62890623 1.054688,-1.03125003 c 1.558594,-1.3710937 2.15625,-1.9101562 2.15625,-2.90625 0,-1.1367187 -0.902344,-1.9335937 -2.121094,-1.9335937 -1.125,0 -1.851562,0.9140625 -1.851562,1.8046875 0,0.5507812 0.492187,0.5507812 0.527343,0.5507812 0.164063,0 0.515625,-0.1171875 0.515625,-0.5273437 0,-0.2578125 -0.1875,-0.515625 -0.527343,-0.515625 -0.08203,0 -0.105469,0 -0.128907,0.011719 0.222657,-0.6445312 0.761719,-1.0195312 1.335938,-1.0195312 0.914062,0 1.335937,0.8085937 1.335937,1.6289062 0,0.796875 -0.492187,1.5820313 -1.042968,2.203125 l -1.910157,2.13281253 c -0.105468,0.10546875 -0.105468,0.12890625 -0.105468,0.36328125 H 24.81255 L 25.0938,-1.7355151 h -0.257813 c -0.04687,0.3046875 -0.117187,0.73828123 -0.210937,0.89062498 -0.07031,0.0820313 -0.726563,0.0820313 -0.949219,0.0820313 z m 0,0"
       style="fill:#000000;fill-opacity:1;fill-rule:nonzero;stroke:none"
       aria-label="Rma2"
       transform="matrix(1.3333333,0,0,1.3333333,173.33067,211.00933)" />
    <path
       id="path54"
       d="m 173.19907,-73.13469 v -23.81143 m 7.93695,23.81143 v -23.81143"
       style="fill:none;stroke:#000000;stroke-width:0.797;stroke-linecap:butt;stroke-linejoin:miter;stroke-miterlimit:10;stroke-dasharray:none;stroke-opacity:1"
       transform="matrix(1.3333333,0,0,-1.3333333,10.869333,110.644)" />
    <path
       id="path55"
       d="m 200.01482,-85.04042 c 0,0.87656 -0.71059,1.58714 -1.58716,1.58714 -0.87656,0 -1.58714,-0.71058 -1.58714,-1.58714 0,-0.87656 0.71058,-1.58714 1.58714,-1.58714 0.87657,0 1.58716,0.71058 1.58716,1.58714 z"
       style="fill:#000000;fill-opacity:1;fill-rule:nonzero;stroke:#000000;stroke-width:0.3985;stroke-linecap:butt;stroke-linejoin:miter;stroke-miterlimit:10;stroke-dasharray:none;stroke-opacity:1"
       transform="matrix(1.3333333,0,0,-1.3333333,10.869333,110.644)" />
    <path
       id="path56"
       d="m 0.56339062,-3.4111484 c 0,2.0625 1.60546878,3.63281246 3.45703128,3.63281246 1.6289062,0 2.6015625,-1.38281246 2.6015625,-2.54296876 0,-0.1054687 0,-0.1757812 -0.1289063,-0.1757812 -0.1054687,0 -0.1054687,0.070312 -0.1171875,0.1640625 -0.082031,1.42968746 -1.1484375,2.23828121 -2.2265625,2.23828121 -0.609375,0 -2.5664062,-0.33984375 -2.5664062,-3.30468751 0,-2.9765625 1.9453125,-3.3164062 2.5546875,-3.3164062 1.078125,0 1.96875,0.9023437 2.1679687,2.3671875 0.023437,0.1289062 0.023437,0.1640625 0.1640625,0.1640625 0.1523438,0 0.1523438,-0.035156 0.1523438,-0.234375 v -2.3671875 c 0,-0.1640625 0,-0.234375 -0.1054688,-0.234375 -0.035156,0 -0.082031,0 -0.1640625,0.1171875 l -0.4921875,0.7382812 c -0.375,-0.3632812 -0.8789062,-0.8554687 -1.8398437,-0.8554687 -1.8632813,0 -3.45703128,1.5820312 -3.45703128,3.609375 z m 7.73437498,-0.011719 v 2.66015626 c 0,0.45703125 -0.1171875,0.45703125 -0.7851562,0.45703125 v 0.3046875025 c 0.3515625,-0.0117187525 0.8554687,-0.0351562525 1.125,-0.0351562525 0.2578125,0 0.7851562,0.0234375 1.1132812,0.0351562525 V -0.30567969 c -0.65625,0 -0.7734375,0 -0.7734375,-0.45703125 V -2.5908359 c 0,-1.03125 0.7148438,-1.59375 1.3476559,-1.59375 0.621094,0 0.738282,0.5390625 0.738282,1.1015625 v 2.32031246 c 0,0.45703125 -0.117188,0.45703125 -0.773438,0.45703125 v 0.3046875025 c 0.339844,-0.0117187525 0.855469,-0.0351562525 1.125,-0.0351562525 0.257813,0 0.773438,0.0234375 1.113281,0.0351562525 V -0.30567969 c -0.667968,0 -0.785156,0 -0.785156,-0.45703125 V -2.5908359 c 0,-1.03125 0.714844,-1.59375 1.347656,-1.59375 0.632813,0 0.738282,0.5390625 0.738282,1.1015625 v 2.32031246 c 0,0.45703125 -0.105469,0.45703125 -0.773438,0.45703125 v 0.3046875025 c 0.351563,-0.0117187525 0.855469,-0.0351562525 1.125,-0.0351562525 0.257813,0 0.773438,0.0234375 1.113281,0.0351562525 V -0.30567969 c -0.515625,0 -0.761718,0 -0.773437,-0.3046875 V -2.5088047 c 0,-0.8554687 0,-1.171875 -0.316406,-1.5234375 -0.128907,-0.1757812 -0.46875,-0.375 -1.042969,-0.375 -0.832031,0 -1.277344,0.5976563 -1.441406,0.984375 -0.140625,-0.8671875 -0.878907,-0.984375 -1.324219,-0.984375 -0.7265626,0 -1.1953126,0.4335938 -1.4765626,1.0546875 v -1.0546875 l -1.40625,0.1171875 v 0.3046875 c 0.703125,0 0.7851562,0.070312 0.7851562,0.5624998 z m 10.5146484,2.66015626 c 0.03516,0.3984375 0.304688,0.8203125 0.773438,0.8203125 0.210937,0 0.820312,-0.140625 0.820312,-0.94921875 V -1.4423984 H 20.16007 v 0.55078121 c 0,0.5859375 -0.246093,0.64453125 -0.363281,0.64453125 -0.328125,0 -0.363281,-0.45703125 -0.363281,-0.50390625 V -2.7431797 c 0,-0.4101562 0,-0.8085937 -0.363281,-1.171875 -0.386719,-0.3867187 -0.878907,-0.5507812 -1.359375,-0.5507812 -0.820313,0 -1.511719,0.46875 -1.511719,1.125 0,0.3046875 0.199219,0.46875 0.457031,0.46875 0.28125,0 0.46875,-0.1992188 0.46875,-0.4570313 0,-0.1171875 -0.05859,-0.4453125 -0.515625,-0.4570312 0.269531,-0.3515625 0.761719,-0.4570313 1.078125,-0.4570313 0.492188,0 1.054688,0.3867188 1.054688,1.2773438 v 0.3632812 c -0.503907,0.035156 -1.207032,0.058594 -1.828125,0.3632813 -0.75,0.3398437 -0.996094,0.8554687 -0.996094,1.28906246 0,0.80859375 0.960937,1.0546875 1.59375,1.0546875 0.65625,0 1.113281,-0.3984375 1.300781,-0.8671877 z m -0.07031,-1.62890626 v 0.9960938 c 0,0.94921871 -0.714844,1.28906246 -1.160157,1.28906246 -0.492187,0 -0.902343,-0.3515625 -0.902343,-0.85546875 0,-0.53906251 0.421875,-1.37109371 2.0625,-1.42968751 z m 3.002929,1.62890626 1.054688,-1.03124996 c 1.558593,-1.3710938 2.15625,-1.9101563 2.15625,-2.90625 0,-1.1367188 -0.902344,-1.9335938 -2.121094,-1.9335938 -1.125,0 -1.851563,0.9140625 -1.851563,1.8046875 0,0.5507813 0.492188,0.5507813 0.527344,0.5507813 0.164063,0 0.515625,-0.1171875 0.515625,-0.5273438 0,-0.2578125 -0.1875,-0.515625 -0.527344,-0.515625 -0.08203,0 -0.105468,0 -0.128906,0.011719 0.222656,-0.6445313 0.761719,-1.0195313 1.335938,-1.0195313 0.914062,0 1.335937,0.8085938 1.335937,1.6289063 0,0.796875 -0.492187,1.5820312 -1.042969,2.203125 l -1.910156,2.13281246 c -0.105469,0.10546875 -0.105469,0.12890625 -0.105469,0.3632812525 h 3.691407 L 24.955969,-1.7353672 h -0.257813 c -0.04687,0.3046875 -0.117187,0.73828126 -0.210937,0.89062501 -0.07031,0.0820313 -0.726563,0.0820313 -0.949219,0.0820313 z m 0,0"
       style="fill:#000000;fill-opacity:1;fill-rule:nonzero;stroke:none"
       aria-label="Cma2"
       transform="matrix(1.3333333,0,0,1.3333333,230.116,202.27867)" />
    <path
       id="path57"
       d="m 192.4748,-129.26141 v 31.74839 h 11.9057 v -31.74839 z"
       style="fill:none;stroke:#000000;stroke-width:0.797;stroke-linecap:butt;stroke-linejoin:miter;stroke-miterlimit:10;stroke-dasharray:none;stroke-opacity:1"
       transform="matrix(1.3333333,0,0,-1.3333333,10.869333,110.644)" />
    <g
       id="g57"
       aria-label="Z&#10;radd2"
       transform="matrix(1.3333333,0,0,1.3333333,228.444,264.68533)">
      <path
         id="path58"
         d="m 5.4502031,-6.4583359 c 0.070312,-0.1054688 0.070312,-0.1171875 0.070312,-0.1875 0,-0.1640625 -0.058594,-0.1640625 -0.2578125,-0.1640625 H 0.79785937 l -0.10546875,2.25 h 0.24609375 c 0.0703125,-1.125 0.36328123,-1.9335938 2.00390623,-1.9335938 h 1.5585938 l -3.86718753,6.12890626 c -0.0703125,0.10546875 -0.0703125,0.1171875 -0.0703125,0.19921875 0,0.1640625 0.046875,0.1640625 0.2578125,0.1640625 H 5.4150469 L 5.5791094,-2.6614609 H 5.3330156 c -0.082031,1.3828125 -0.2695312,2.32031246 -2.109375,2.32031246 h -1.640625 z m 0,0"
         style="fill:#000000;fill-opacity:1;fill-rule:nonzero;stroke:none" />
      <path
         id="path59"
         d="m 7.7295,0.08658594 c 0,-0.046875 0.1640625,-0.66796875 0.1757812,-0.703125 0.011719,-0.0585938 0.2226563,-0.41015624 0.4453125,-0.57421874 0.070312,-0.058594 0.2578125,-0.1992188 0.5625,-0.1992188 0.070312,0 0.2460938,0.011719 0.3867188,0.1054688 -0.2226563,0.058594 -0.3046875,0.2578125 -0.3046875,0.37499999 0,0.15234375 0.1171875,0.2578125 0.2695312,0.2578125 0.1640625,0 0.3984375,-0.12890625 0.3984375,-0.42187499 0,-0.3632813 -0.3867187,-0.5039063 -0.7382812,-0.5039063 -0.3632813,0 -0.6796875,0.140625 -0.984375,0.4921875 -0.1289063,-0.421875 -0.5507813,-0.4921875 -0.7265625,-0.4921875 -0.2578125,0 -0.421875,0.1523438 -0.5390625,0.3515625 C 6.51075,-0.95638281 6.417,-0.54622656 6.417,-0.51107031 c 0,0.0820313 0.09375,0.0820313 0.1171875,0.0820313 0.09375,0 0.1054687,-0.0117188 0.1523437,-0.19921875 C 6.792,-1.0618516 6.9209062,-1.3899766 7.2021562,-1.3899766 c 0.1757813,0 0.2226563,0.1523438 0.2226563,0.3398438 0,0.14062499 -0.058594,0.39843749 -0.1054688,0.58593749 -0.046875,0.1875 -0.1171875,0.46875 -0.1523437,0.62109375 L 6.9443437,1.0592422 c -0.035156,0.082031 -0.070312,0.2578125 -0.070312,0.28125 0,0.1523437 0.1171875,0.2226562 0.234375,0.2226562 0.1054688,0 0.2460938,-0.058594 0.2929688,-0.1992187 C 7.4248125,1.3170547 7.495125,1.0123672 7.542,0.83658594 Z m 5.214844,-1.25390624 c -0.140625,-0.234375 -0.386719,-0.4101563 -0.714844,-0.4101563 -0.890625,0 -1.804688,0.97265629 -1.804688,1.98046879 0,0.67968751 0.457032,1.16015621 1.054688,1.16015621 0.375,0 0.714844,-0.2109375 0.996094,-0.4921875 0.128906,0.421875 0.527343,0.4921875 0.714843,0.4921875 0.246094,0 0.421875,-0.1523437 0.550782,-0.375 0.152343,-0.26953121 0.246093,-0.66796871 0.246093,-0.69140621 0,-0.09375 -0.09375,-0.09375 -0.117187,-0.09375 -0.09375,0 -0.105469,0.0351563 -0.152344,0.22265625 -0.08203,0.328125 -0.210937,0.73828126 -0.503906,0.73828126 -0.1875,0 -0.234375,-0.1523438 -0.234375,-0.3398438 0,-0.11718746 0.05859,-0.36328121 0.105469,-0.55078121 0.04687,-0.1875 0.117187,-0.46875 0.152343,-0.62109375 l 0.140625,-0.5390625 c 0.04687,-0.17578125 0.128907,-0.50390624 0.128907,-0.53906254 0,-0.1523437 -0.128907,-0.2226562 -0.246094,-0.2226562 -0.117188,0 -0.269531,0.082031 -0.316406,0.28125 z m -0.445313,1.79296874 c -0.04687,0.1875 -0.199219,0.328125 -0.351562,0.45703126 -0.07031,0.058594 -0.339844,0.28125 -0.644532,0.28125 -0.257812,0 -0.515625,-0.1757813 -0.515625,-0.66796876 0,-0.375 0.210938,-1.13671875 0.363282,-1.41796875 0.328125,-0.56249999 0.679687,-0.66796879 0.878906,-0.66796879 0.480469,0 0.621094,0.52734379 0.621094,0.60937504 0,0.0234375 -0.01172,0.0820313 -0.02344,0.09375 z m 5.809571,-3.76171874 c 0,-0.011719 0.02344,-0.1054688 0.02344,-0.1171875 0,-0.035156 -0.02344,-0.09375 -0.105469,-0.09375 -0.140625,0 -0.726562,0.058594 -0.902343,0.070312 -0.04687,0.011719 -0.152344,0.011719 -0.152344,0.1640625 0,0.09375 0.105469,0.09375 0.1875,0.09375 0.328125,0 0.328125,0.046875 0.328125,0.1054687 0,0.046875 -0.01172,0.09375 -0.02344,0.1523438 l -0.398437,1.59375 c -0.140625,-0.234375 -0.386719,-0.4101563 -0.714844,-0.4101563 -0.890625,0 -1.804687,0.97265629 -1.804687,1.98046879 0,0.67968751 0.457031,1.16015621 1.054687,1.16015621 0.375,0 0.714844,-0.2109375 0.996094,-0.4921875 0.128906,0.421875 0.527344,0.4921875 0.714844,0.4921875 0.246093,0 0.421875,-0.1523437 0.550781,-0.375 0.152344,-0.26953121 0.246094,-0.66796871 0.246094,-0.69140621 0,-0.09375 -0.09375,-0.09375 -0.117188,-0.09375 -0.09375,0 -0.105469,0.0351563 -0.152344,0.22265625 -0.08203,0.328125 -0.210937,0.73828126 -0.503906,0.73828126 -0.1875,0 -0.234375,-0.1523438 -0.234375,-0.3398438 0,-0.12890621 0.01172,-0.19921871 0.03516,-0.28124996 z M 16.82032,0.62564844 c -0.04687,0.1875 -0.199218,0.328125 -0.351562,0.45703126 -0.07031,0.058594 -0.339844,0.28125 -0.644531,0.28125 -0.257813,0 -0.515625,-0.1757813 -0.515625,-0.66796876 0,-0.375 0.210937,-1.13671875 0.363281,-1.41796875 0.328125,-0.56249999 0.679687,-0.66796879 0.878906,-0.66796879 0.480469,0 0.621094,0.52734379 0.621094,0.60937504 0,0.0234375 -0.01172,0.0820313 -0.02344,0.09375 z m 5.636719,-3.76171874 c 0,-0.011719 0.02344,-0.1054688 0.02344,-0.1171875 0,-0.035156 -0.02344,-0.09375 -0.105469,-0.09375 -0.140625,0 -0.726563,0.058594 -0.902344,0.070312 -0.04687,0.011719 -0.152344,0.011719 -0.152344,0.1640625 0,0.09375 0.105469,0.09375 0.1875,0.09375 0.328125,0 0.328125,0.046875 0.328125,0.1054687 0,0.046875 -0.01172,0.09375 -0.02344,0.1523438 l -0.398438,1.59375 c -0.140625,-0.234375 -0.386718,-0.4101563 -0.714843,-0.4101563 -0.890625,0 -1.804688,0.97265629 -1.804688,1.98046879 0,0.67968751 0.457031,1.16015621 1.054688,1.16015621 0.375,0 0.714843,-0.2109375 0.996093,-0.4921875 0.128907,0.421875 0.527344,0.4921875 0.714844,0.4921875 0.246094,0 0.421875,-0.1523437 0.550781,-0.375 0.152344,-0.26953121 0.246094,-0.66796871 0.246094,-0.69140621 0,-0.09375 -0.09375,-0.09375 -0.117187,-0.09375 -0.09375,0 -0.105469,0.0351563 -0.152344,0.22265625 -0.08203,0.328125 -0.210938,0.73828126 -0.503906,0.73828126 -0.1875,0 -0.234375,-0.1523438 -0.234375,-0.3398438 0,-0.12890621 0.01172,-0.19921871 0.03516,-0.28124996 z m -1.488281,3.76171874 c -0.04687,0.1875 -0.199219,0.328125 -0.351563,0.45703126 -0.07031,0.058594 -0.339843,0.28125 -0.644531,0.28125 -0.257812,0 -0.515625,-0.1757813 -0.515625,-0.66796876 0,-0.375 0.210938,-1.13671875 0.363281,-1.41796875 0.328125,-0.56249999 0.679688,-0.66796879 0.878907,-0.66796879 0.480468,0 0.621093,0.52734379 0.621093,0.60937504 0,0.0234375 -0.01172,0.0820313 -0.02344,0.09375 z m 0,0"
         style="fill:#000000;fill-opacity:1;fill-rule:nonzero;stroke:none" />
      <path
         id="path60"
         d="m 26.133797,0.22721094 h -0.234375 c -0.02344,0.15234375 -0.08203,0.5625 -0.175781,0.6328125 -0.05859,0.0351563 -0.597657,0.0351563 -0.691407,0.0351563 h -1.289062 c 0.738281,-0.64453125 0.984375,-0.84375 1.394531,-1.171875 0.515625,-0.41015625 0.996094,-0.84374994 0.996094,-1.49999994 0,-0.8437501 -0.738281,-1.3593751 -1.628906,-1.3593751 -0.867188,0 -1.453125,0.609375 -1.453125,1.2421876 0,0.3632812 0.304687,0.3984375 0.375,0.3984375 0.164062,0 0.375,-0.1171875 0.375,-0.375 0,-0.1289063 -0.05859,-0.3632814 -0.421875,-0.3632814 0.222656,-0.5039062 0.691406,-0.65625 1.019531,-0.65625 0.703125,0 1.066406,0.5507813 1.066406,1.1132813 0,0.609375 -0.433594,1.08984379 -0.65625,1.33593754 l -1.6875,1.66406246 c -0.07031,0.058594 -0.07031,0.070312 -0.07031,0.2695312 h 2.882812 z m 0,0"
         style="fill:#000000;fill-opacity:1;fill-rule:nonzero;stroke:none" />
    </g>
    <path
       id="path61"
       d="m 198.42766,-141.73404 v -11.90558"
       style="fill:none;stroke:#000000;stroke-width:0.3985;stroke-linecap:butt;stroke-linejoin:miter;stroke-miterlimit:10;stroke-dasharray:none;stroke-opacity:1"
       transform="matrix(1.3333333,0,0,-1.3333333,10.869333,110.644)" />
    <path
       id="path62"
       d="m 192.47481,-153.63962 h 11.9057 m -9.92133,-1.98424 h 7.93695 m -6.44879,-1.98437 h 4.96065"
       style="fill:none;stroke:#000000;stroke-width:0.797;stroke-linecap:butt;stroke-linejoin:miter;stroke-miterlimit:10;stroke-dasharray:none;stroke-opacity:1"
       transform="matrix(1.3333333,0,0,-1.3333333,10.869333,110.644)" />
  </g>
</svg>
