<?xml version="1.0" encoding="utf-8" standalone="no"?>
<!DOCTYPE svg PUBLIC "-//W3C//DTD SVG 1.1//EN"
  "http://www.w3.org/Graphics/SVG/1.1/DTD/svg11.dtd">
<svg xmlns:xlink="http://www.w3.org/1999/xlink" width="432pt" height="216pt" viewBox="0 0 432 216" xmlns="http://www.w3.org/2000/svg" version="1.1">
 <metadata>
  <rdf:RDF xmlns:dc="http://purl.org/dc/elements/1.1/" xmlns:cc="http://creativecommons.org/ns#" xmlns:rdf="http://www.w3.org/1999/02/22-rdf-syntax-ns#">
   <cc:Work>
    <dc:type rdf:resource="http://purl.org/dc/dcmitype/StillImage"/>
    <dc:date>2024-12-14T16:08:30.985691</dc:date>
    <dc:format>image/svg+xml</dc:format>
    <dc:creator>
     <cc:Agent>
      <dc:title>Matplotlib v3.9.2, https://matplotlib.org/</dc:title>
     </cc:Agent>
    </dc:creator>
   </cc:Work>
  </rdf:RDF>
 </metadata>
 <defs>
  <style type="text/css">*{stroke-linejoin: round; stroke-linecap: butt}</style>
 </defs>
 <g id="figure_1">
  <g id="patch_1">
   <path d="M 0 216 
L 432 216 
L 432 0 
L 0 0 
z
" style="fill: #ffffff"/>
  </g>
  <g id="axes_1">
   <g id="patch_2">
    <path d="M 52.94 170.728 
L 412.071158 170.728 
L 412.071158 14.76 
L 52.94 14.76 
z
" style="fill: #ffffff"/>
   </g>
   <g id="matplotlib.axis_1">
    <g id="xtick_1">
     <g id="line2d_1">
      <path d="M 52.94 170.728 
L 52.94 14.76 
" clip-path="url(#p621b174dd1)" style="fill: none; stroke-dasharray: 0.8,1.32; stroke-dashoffset: 0; stroke: #b0b0b0; stroke-width: 0.8"/>
     </g>
     <g id="line2d_2">
      <defs>
       <path id="m904222320f" d="M 0 0 
L 0 3.5 
" style="stroke: #000000; stroke-width: 0.8"/>
      </defs>
      <g>
       <use xlink:href="#m904222320f" x="52.94" y="170.728" style="stroke: #000000; stroke-width: 0.8"/>
      </g>
     </g>
     <g id="text_1">
      <!-- $\mathdefault{10^{1}}$ -->
      <g transform="translate(44.14 185.326437) scale(0.1 -0.1)">
       <defs>
        <path id="DejaVuSans-31" d="M 794 531 
L 1825 531 
L 1825 4091 
L 703 3866 
L 703 4441 
L 1819 4666 
L 2450 4666 
L 2450 531 
L 3481 531 
L 3481 0 
L 794 0 
L 794 531 
z
" transform="scale(0.015625)"/>
        <path id="DejaVuSans-30" d="M 2034 4250 
Q 1547 4250 1301 3770 
Q 1056 3291 1056 2328 
Q 1056 1369 1301 889 
Q 1547 409 2034 409 
Q 2525 409 2770 889 
Q 3016 1369 3016 2328 
Q 3016 3291 2770 3770 
Q 2525 4250 2034 4250 
z
M 2034 4750 
Q 2819 4750 3233 4129 
Q 3647 3509 3647 2328 
Q 3647 1150 3233 529 
Q 2819 -91 2034 -91 
Q 1250 -91 836 529 
Q 422 1150 422 2328 
Q 422 3509 836 4129 
Q 1250 4750 2034 4750 
z
" transform="scale(0.015625)"/>
       </defs>
       <use xlink:href="#DejaVuSans-31" transform="translate(0 0.684375)"/>
       <use xlink:href="#DejaVuSans-30" transform="translate(63.623047 0.684375)"/>
       <use xlink:href="#DejaVuSans-31" transform="translate(128.203125 38.965625) scale(0.7)"/>
      </g>
     </g>
    </g>
    <g id="xtick_2">
     <g id="line2d_3">
      <path d="M 172.650386 170.728 
L 172.650386 14.76 
" clip-path="url(#p621b174dd1)" style="fill: none; stroke-dasharray: 0.8,1.32; stroke-dashoffset: 0; stroke: #b0b0b0; stroke-width: 0.8"/>
     </g>
     <g id="line2d_4">
      <g>
       <use xlink:href="#m904222320f" x="172.650386" y="170.728" style="stroke: #000000; stroke-width: 0.8"/>
      </g>
     </g>
     <g id="text_2">
      <!-- $\mathdefault{10^{2}}$ -->
      <g transform="translate(163.850386 185.326437) scale(0.1 -0.1)">
       <defs>
        <path id="DejaVuSans-32" d="M 1228 531 
L 3431 531 
L 3431 0 
L 469 0 
L 469 531 
Q 828 903 1448 1529 
Q 2069 2156 2228 2338 
Q 2531 2678 2651 2914 
Q 2772 3150 2772 3378 
Q 2772 3750 2511 3984 
Q 2250 4219 1831 4219 
Q 1534 4219 1204 4116 
Q 875 4013 500 3803 
L 500 4441 
Q 881 4594 1212 4672 
Q 1544 4750 1819 4750 
Q 2544 4750 2975 4387 
Q 3406 4025 3406 3419 
Q 3406 3131 3298 2873 
Q 3191 2616 2906 2266 
Q 2828 2175 2409 1742 
Q 1991 1309 1228 531 
z
" transform="scale(0.015625)"/>
       </defs>
       <use xlink:href="#DejaVuSans-31" transform="translate(0 0.765625)"/>
       <use xlink:href="#DejaVuSans-30" transform="translate(63.623047 0.765625)"/>
       <use xlink:href="#DejaVuSans-32" transform="translate(128.203125 39.046875) scale(0.7)"/>
      </g>
     </g>
    </g>
    <g id="xtick_3">
     <g id="line2d_5">
      <path d="M 292.360772 170.728 
L 292.360772 14.76 
" clip-path="url(#p621b174dd1)" style="fill: none; stroke-dasharray: 0.8,1.32; stroke-dashoffset: 0; stroke: #b0b0b0; stroke-width: 0.8"/>
     </g>
     <g id="line2d_6">
      <g>
       <use xlink:href="#m904222320f" x="292.360772" y="170.728" style="stroke: #000000; stroke-width: 0.8"/>
      </g>
     </g>
     <g id="text_3">
      <!-- $\mathdefault{10^{3}}$ -->
      <g transform="translate(283.560772 185.326437) scale(0.1 -0.1)">
       <defs>
        <path id="DejaVuSans-33" d="M 2597 2516 
Q 3050 2419 3304 2112 
Q 3559 1806 3559 1356 
Q 3559 666 3084 287 
Q 2609 -91 1734 -91 
Q 1441 -91 1130 -33 
Q 819 25 488 141 
L 488 750 
Q 750 597 1062 519 
Q 1375 441 1716 441 
Q 2309 441 2620 675 
Q 2931 909 2931 1356 
Q 2931 1769 2642 2001 
Q 2353 2234 1838 2234 
L 1294 2234 
L 1294 2753 
L 1863 2753 
Q 2328 2753 2575 2939 
Q 2822 3125 2822 3475 
Q 2822 3834 2567 4026 
Q 2313 4219 1838 4219 
Q 1578 4219 1281 4162 
Q 984 4106 628 3988 
L 628 4550 
Q 988 4650 1302 4700 
Q 1616 4750 1894 4750 
Q 2613 4750 3031 4423 
Q 3450 4097 3450 3541 
Q 3450 3153 3228 2886 
Q 3006 2619 2597 2516 
z
" transform="scale(0.015625)"/>
       </defs>
       <use xlink:href="#DejaVuSans-31" transform="translate(0 0.765625)"/>
       <use xlink:href="#DejaVuSans-30" transform="translate(63.623047 0.765625)"/>
       <use xlink:href="#DejaVuSans-33" transform="translate(128.203125 39.046875) scale(0.7)"/>
      </g>
     </g>
    </g>
    <g id="xtick_4">
     <g id="line2d_7">
      <path d="M 412.071158 170.728 
L 412.071158 14.76 
" clip-path="url(#p621b174dd1)" style="fill: none; stroke-dasharray: 0.8,1.32; stroke-dashoffset: 0; stroke: #b0b0b0; stroke-width: 0.8"/>
     </g>
     <g id="line2d_8">
      <g>
       <use xlink:href="#m904222320f" x="412.071158" y="170.728" style="stroke: #000000; stroke-width: 0.8"/>
      </g>
     </g>
     <g id="text_4">
      <!-- $\mathdefault{10^{4}}$ -->
      <g transform="translate(403.271158 185.326437) scale(0.1 -0.1)">
       <defs>
        <path id="DejaVuSans-34" d="M 2419 4116 
L 825 1625 
L 2419 1625 
L 2419 4116 
z
M 2253 4666 
L 3047 4666 
L 3047 1625 
L 3713 1625 
L 3713 1100 
L 3047 1100 
L 3047 0 
L 2419 0 
L 2419 1100 
L 313 1100 
L 313 1709 
L 2253 4666 
z
" transform="scale(0.015625)"/>
       </defs>
       <use xlink:href="#DejaVuSans-31" transform="translate(0 0.684375)"/>
       <use xlink:href="#DejaVuSans-30" transform="translate(63.623047 0.684375)"/>
       <use xlink:href="#DejaVuSans-34" transform="translate(128.203125 38.965625) scale(0.7)"/>
      </g>
     </g>
    </g>
    <g id="xtick_5">
     <g id="line2d_9">
      <path d="M 88.976417 170.728 
L 88.976417 14.76 
" clip-path="url(#p621b174dd1)" style="fill: none; stroke-dasharray: 0.8,1.32; stroke-dashoffset: 0; stroke: #b0b0b0; stroke-width: 0.8"/>
     </g>
     <g id="line2d_10">
      <defs>
       <path id="m0e4bbc9288" d="M 0 0 
L 0 2 
" style="stroke: #000000; stroke-width: 0.6"/>
      </defs>
      <g>
       <use xlink:href="#m0e4bbc9288" x="88.976417" y="170.728" style="stroke: #000000; stroke-width: 0.6"/>
      </g>
     </g>
    </g>
    <g id="xtick_6">
     <g id="line2d_11">
      <path d="M 110.05637 170.728 
L 110.05637 14.76 
" clip-path="url(#p621b174dd1)" style="fill: none; stroke-dasharray: 0.8,1.32; stroke-dashoffset: 0; stroke: #b0b0b0; stroke-width: 0.8"/>
     </g>
     <g id="line2d_12">
      <g>
       <use xlink:href="#m0e4bbc9288" x="110.05637" y="170.728" style="stroke: #000000; stroke-width: 0.6"/>
      </g>
     </g>
    </g>
    <g id="xtick_7">
     <g id="line2d_13">
      <path d="M 125.012834 170.728 
L 125.012834 14.76 
" clip-path="url(#p621b174dd1)" style="fill: none; stroke-dasharray: 0.8,1.32; stroke-dashoffset: 0; stroke: #b0b0b0; stroke-width: 0.8"/>
     </g>
     <g id="line2d_14">
      <g>
       <use xlink:href="#m0e4bbc9288" x="125.012834" y="170.728" style="stroke: #000000; stroke-width: 0.6"/>
      </g>
     </g>
    </g>
    <g id="xtick_8">
     <g id="line2d_15">
      <path d="M 136.613969 170.728 
L 136.613969 14.76 
" clip-path="url(#p621b174dd1)" style="fill: none; stroke-dasharray: 0.8,1.32; stroke-dashoffset: 0; stroke: #b0b0b0; stroke-width: 0.8"/>
     </g>
     <g id="line2d_16">
      <g>
       <use xlink:href="#m0e4bbc9288" x="136.613969" y="170.728" style="stroke: #000000; stroke-width: 0.6"/>
      </g>
     </g>
    </g>
    <g id="xtick_9">
     <g id="line2d_17">
      <path d="M 146.092786 170.728 
L 146.092786 14.76 
" clip-path="url(#p621b174dd1)" style="fill: none; stroke-dasharray: 0.8,1.32; stroke-dashoffset: 0; stroke: #b0b0b0; stroke-width: 0.8"/>
     </g>
     <g id="line2d_18">
      <g>
       <use xlink:href="#m0e4bbc9288" x="146.092786" y="170.728" style="stroke: #000000; stroke-width: 0.6"/>
      </g>
     </g>
    </g>
    <g id="xtick_10">
     <g id="line2d_19">
      <path d="M 154.107012 170.728 
L 154.107012 14.76 
" clip-path="url(#p621b174dd1)" style="fill: none; stroke-dasharray: 0.8,1.32; stroke-dashoffset: 0; stroke: #b0b0b0; stroke-width: 0.8"/>
     </g>
     <g id="line2d_20">
      <g>
       <use xlink:href="#m0e4bbc9288" x="154.107012" y="170.728" style="stroke: #000000; stroke-width: 0.6"/>
      </g>
     </g>
    </g>
    <g id="xtick_11">
     <g id="line2d_21">
      <path d="M 161.049251 170.728 
L 161.049251 14.76 
" clip-path="url(#p621b174dd1)" style="fill: none; stroke-dasharray: 0.8,1.32; stroke-dashoffset: 0; stroke: #b0b0b0; stroke-width: 0.8"/>
     </g>
     <g id="line2d_22">
      <g>
       <use xlink:href="#m0e4bbc9288" x="161.049251" y="170.728" style="stroke: #000000; stroke-width: 0.6"/>
      </g>
     </g>
    </g>
    <g id="xtick_12">
     <g id="line2d_23">
      <path d="M 167.172739 170.728 
L 167.172739 14.76 
" clip-path="url(#p621b174dd1)" style="fill: none; stroke-dasharray: 0.8,1.32; stroke-dashoffset: 0; stroke: #b0b0b0; stroke-width: 0.8"/>
     </g>
     <g id="line2d_24">
      <g>
       <use xlink:href="#m0e4bbc9288" x="167.172739" y="170.728" style="stroke: #000000; stroke-width: 0.6"/>
      </g>
     </g>
    </g>
    <g id="xtick_13">
     <g id="line2d_25">
      <path d="M 208.686803 170.728 
L 208.686803 14.76 
" clip-path="url(#p621b174dd1)" style="fill: none; stroke-dasharray: 0.8,1.32; stroke-dashoffset: 0; stroke: #b0b0b0; stroke-width: 0.8"/>
     </g>
     <g id="line2d_26">
      <g>
       <use xlink:href="#m0e4bbc9288" x="208.686803" y="170.728" style="stroke: #000000; stroke-width: 0.6"/>
      </g>
     </g>
    </g>
    <g id="xtick_14">
     <g id="line2d_27">
      <path d="M 229.766755 170.728 
L 229.766755 14.76 
" clip-path="url(#p621b174dd1)" style="fill: none; stroke-dasharray: 0.8,1.32; stroke-dashoffset: 0; stroke: #b0b0b0; stroke-width: 0.8"/>
     </g>
     <g id="line2d_28">
      <g>
       <use xlink:href="#m0e4bbc9288" x="229.766755" y="170.728" style="stroke: #000000; stroke-width: 0.6"/>
      </g>
     </g>
    </g>
    <g id="xtick_15">
     <g id="line2d_29">
      <path d="M 244.72322 170.728 
L 244.72322 14.76 
" clip-path="url(#p621b174dd1)" style="fill: none; stroke-dasharray: 0.8,1.32; stroke-dashoffset: 0; stroke: #b0b0b0; stroke-width: 0.8"/>
     </g>
     <g id="line2d_30">
      <g>
       <use xlink:href="#m0e4bbc9288" x="244.72322" y="170.728" style="stroke: #000000; stroke-width: 0.6"/>
      </g>
     </g>
    </g>
    <g id="xtick_16">
     <g id="line2d_31">
      <path d="M 256.324355 170.728 
L 256.324355 14.76 
" clip-path="url(#p621b174dd1)" style="fill: none; stroke-dasharray: 0.8,1.32; stroke-dashoffset: 0; stroke: #b0b0b0; stroke-width: 0.8"/>
     </g>
     <g id="line2d_32">
      <g>
       <use xlink:href="#m0e4bbc9288" x="256.324355" y="170.728" style="stroke: #000000; stroke-width: 0.6"/>
      </g>
     </g>
    </g>
    <g id="xtick_17">
     <g id="line2d_33">
      <path d="M 265.803172 170.728 
L 265.803172 14.76 
" clip-path="url(#p621b174dd1)" style="fill: none; stroke-dasharray: 0.8,1.32; stroke-dashoffset: 0; stroke: #b0b0b0; stroke-width: 0.8"/>
     </g>
     <g id="line2d_34">
      <g>
       <use xlink:href="#m0e4bbc9288" x="265.803172" y="170.728" style="stroke: #000000; stroke-width: 0.6"/>
      </g>
     </g>
    </g>
    <g id="xtick_18">
     <g id="line2d_35">
      <path d="M 273.817398 170.728 
L 273.817398 14.76 
" clip-path="url(#p621b174dd1)" style="fill: none; stroke-dasharray: 0.8,1.32; stroke-dashoffset: 0; stroke: #b0b0b0; stroke-width: 0.8"/>
     </g>
     <g id="line2d_36">
      <g>
       <use xlink:href="#m0e4bbc9288" x="273.817398" y="170.728" style="stroke: #000000; stroke-width: 0.6"/>
      </g>
     </g>
    </g>
    <g id="xtick_19">
     <g id="line2d_37">
      <path d="M 280.759637 170.728 
L 280.759637 14.76 
" clip-path="url(#p621b174dd1)" style="fill: none; stroke-dasharray: 0.8,1.32; stroke-dashoffset: 0; stroke: #b0b0b0; stroke-width: 0.8"/>
     </g>
     <g id="line2d_38">
      <g>
       <use xlink:href="#m0e4bbc9288" x="280.759637" y="170.728" style="stroke: #000000; stroke-width: 0.6"/>
      </g>
     </g>
    </g>
    <g id="xtick_20">
     <g id="line2d_39">
      <path d="M 286.883125 170.728 
L 286.883125 14.76 
" clip-path="url(#p621b174dd1)" style="fill: none; stroke-dasharray: 0.8,1.32; stroke-dashoffset: 0; stroke: #b0b0b0; stroke-width: 0.8"/>
     </g>
     <g id="line2d_40">
      <g>
       <use xlink:href="#m0e4bbc9288" x="286.883125" y="170.728" style="stroke: #000000; stroke-width: 0.6"/>
      </g>
     </g>
    </g>
    <g id="xtick_21">
     <g id="line2d_41">
      <path d="M 328.397189 170.728 
L 328.397189 14.76 
" clip-path="url(#p621b174dd1)" style="fill: none; stroke-dasharray: 0.8,1.32; stroke-dashoffset: 0; stroke: #b0b0b0; stroke-width: 0.8"/>
     </g>
     <g id="line2d_42">
      <g>
       <use xlink:href="#m0e4bbc9288" x="328.397189" y="170.728" style="stroke: #000000; stroke-width: 0.6"/>
      </g>
     </g>
    </g>
    <g id="xtick_22">
     <g id="line2d_43">
      <path d="M 349.477141 170.728 
L 349.477141 14.76 
" clip-path="url(#p621b174dd1)" style="fill: none; stroke-dasharray: 0.8,1.32; stroke-dashoffset: 0; stroke: #b0b0b0; stroke-width: 0.8"/>
     </g>
     <g id="line2d_44">
      <g>
       <use xlink:href="#m0e4bbc9288" x="349.477141" y="170.728" style="stroke: #000000; stroke-width: 0.6"/>
      </g>
     </g>
    </g>
    <g id="xtick_23">
     <g id="line2d_45">
      <path d="M 364.433606 170.728 
L 364.433606 14.76 
" clip-path="url(#p621b174dd1)" style="fill: none; stroke-dasharray: 0.8,1.32; stroke-dashoffset: 0; stroke: #b0b0b0; stroke-width: 0.8"/>
     </g>
     <g id="line2d_46">
      <g>
       <use xlink:href="#m0e4bbc9288" x="364.433606" y="170.728" style="stroke: #000000; stroke-width: 0.6"/>
      </g>
     </g>
    </g>
    <g id="xtick_24">
     <g id="line2d_47">
      <path d="M 376.034741 170.728 
L 376.034741 14.76 
" clip-path="url(#p621b174dd1)" style="fill: none; stroke-dasharray: 0.8,1.32; stroke-dashoffset: 0; stroke: #b0b0b0; stroke-width: 0.8"/>
     </g>
     <g id="line2d_48">
      <g>
       <use xlink:href="#m0e4bbc9288" x="376.034741" y="170.728" style="stroke: #000000; stroke-width: 0.6"/>
      </g>
     </g>
    </g>
    <g id="xtick_25">
     <g id="line2d_49">
      <path d="M 385.513558 170.728 
L 385.513558 14.76 
" clip-path="url(#p621b174dd1)" style="fill: none; stroke-dasharray: 0.8,1.32; stroke-dashoffset: 0; stroke: #b0b0b0; stroke-width: 0.8"/>
     </g>
     <g id="line2d_50">
      <g>
       <use xlink:href="#m0e4bbc9288" x="385.513558" y="170.728" style="stroke: #000000; stroke-width: 0.6"/>
      </g>
     </g>
    </g>
    <g id="xtick_26">
     <g id="line2d_51">
      <path d="M 393.527784 170.728 
L 393.527784 14.76 
" clip-path="url(#p621b174dd1)" style="fill: none; stroke-dasharray: 0.8,1.32; stroke-dashoffset: 0; stroke: #b0b0b0; stroke-width: 0.8"/>
     </g>
     <g id="line2d_52">
      <g>
       <use xlink:href="#m0e4bbc9288" x="393.527784" y="170.728" style="stroke: #000000; stroke-width: 0.6"/>
      </g>
     </g>
    </g>
    <g id="xtick_27">
     <g id="line2d_53">
      <path d="M 400.470023 170.728 
L 400.470023 14.76 
" clip-path="url(#p621b174dd1)" style="fill: none; stroke-dasharray: 0.8,1.32; stroke-dashoffset: 0; stroke: #b0b0b0; stroke-width: 0.8"/>
     </g>
     <g id="line2d_54">
      <g>
       <use xlink:href="#m0e4bbc9288" x="400.470023" y="170.728" style="stroke: #000000; stroke-width: 0.6"/>
      </g>
     </g>
    </g>
    <g id="xtick_28">
     <g id="line2d_55">
      <path d="M 406.593511 170.728 
L 406.593511 14.76 
" clip-path="url(#p621b174dd1)" style="fill: none; stroke-dasharray: 0.8,1.32; stroke-dashoffset: 0; stroke: #b0b0b0; stroke-width: 0.8"/>
     </g>
     <g id="line2d_56">
      <g>
       <use xlink:href="#m0e4bbc9288" x="406.593511" y="170.728" style="stroke: #000000; stroke-width: 0.6"/>
      </g>
     </g>
    </g>
    <g id="text_5">
     <!-- Frequency [Hz] -->
     <g transform="translate(194.800891 199.004562) scale(0.1 -0.1)">
      <defs>
       <path id="DejaVuSans-46" d="M 628 4666 
L 3309 4666 
L 3309 4134 
L 1259 4134 
L 1259 2759 
L 3109 2759 
L 3109 2228 
L 1259 2228 
L 1259 0 
L 628 0 
L 628 4666 
z
" transform="scale(0.015625)"/>
       <path id="DejaVuSans-72" d="M 2631 2963 
Q 2534 3019 2420 3045 
Q 2306 3072 2169 3072 
Q 1681 3072 1420 2755 
Q 1159 2438 1159 1844 
L 1159 0 
L 581 0 
L 581 3500 
L 1159 3500 
L 1159 2956 
Q 1341 3275 1631 3429 
Q 1922 3584 2338 3584 
Q 2397 3584 2469 3576 
Q 2541 3569 2628 3553 
L 2631 2963 
z
" transform="scale(0.015625)"/>
       <path id="DejaVuSans-65" d="M 3597 1894 
L 3597 1613 
L 953 1613 
Q 991 1019 1311 708 
Q 1631 397 2203 397 
Q 2534 397 2845 478 
Q 3156 559 3463 722 
L 3463 178 
Q 3153 47 2828 -22 
Q 2503 -91 2169 -91 
Q 1331 -91 842 396 
Q 353 884 353 1716 
Q 353 2575 817 3079 
Q 1281 3584 2069 3584 
Q 2775 3584 3186 3129 
Q 3597 2675 3597 1894 
z
M 3022 2063 
Q 3016 2534 2758 2815 
Q 2500 3097 2075 3097 
Q 1594 3097 1305 2825 
Q 1016 2553 972 2059 
L 3022 2063 
z
" transform="scale(0.015625)"/>
       <path id="DejaVuSans-71" d="M 947 1747 
Q 947 1113 1208 752 
Q 1469 391 1925 391 
Q 2381 391 2643 752 
Q 2906 1113 2906 1747 
Q 2906 2381 2643 2742 
Q 2381 3103 1925 3103 
Q 1469 3103 1208 2742 
Q 947 2381 947 1747 
z
M 2906 525 
Q 2725 213 2448 61 
Q 2172 -91 1784 -91 
Q 1150 -91 751 415 
Q 353 922 353 1747 
Q 353 2572 751 3078 
Q 1150 3584 1784 3584 
Q 2172 3584 2448 3432 
Q 2725 3281 2906 2969 
L 2906 3500 
L 3481 3500 
L 3481 -1331 
L 2906 -1331 
L 2906 525 
z
" transform="scale(0.015625)"/>
       <path id="DejaVuSans-75" d="M 544 1381 
L 544 3500 
L 1119 3500 
L 1119 1403 
Q 1119 906 1312 657 
Q 1506 409 1894 409 
Q 2359 409 2629 706 
Q 2900 1003 2900 1516 
L 2900 3500 
L 3475 3500 
L 3475 0 
L 2900 0 
L 2900 538 
Q 2691 219 2414 64 
Q 2138 -91 1772 -91 
Q 1169 -91 856 284 
Q 544 659 544 1381 
z
M 1991 3584 
L 1991 3584 
z
" transform="scale(0.015625)"/>
       <path id="DejaVuSans-6e" d="M 3513 2113 
L 3513 0 
L 2938 0 
L 2938 2094 
Q 2938 2591 2744 2837 
Q 2550 3084 2163 3084 
Q 1697 3084 1428 2787 
Q 1159 2491 1159 1978 
L 1159 0 
L 581 0 
L 581 3500 
L 1159 3500 
L 1159 2956 
Q 1366 3272 1645 3428 
Q 1925 3584 2291 3584 
Q 2894 3584 3203 3211 
Q 3513 2838 3513 2113 
z
" transform="scale(0.015625)"/>
       <path id="DejaVuSans-63" d="M 3122 3366 
L 3122 2828 
Q 2878 2963 2633 3030 
Q 2388 3097 2138 3097 
Q 1578 3097 1268 2742 
Q 959 2388 959 1747 
Q 959 1106 1268 751 
Q 1578 397 2138 397 
Q 2388 397 2633 464 
Q 2878 531 3122 666 
L 3122 134 
Q 2881 22 2623 -34 
Q 2366 -91 2075 -91 
Q 1284 -91 818 406 
Q 353 903 353 1747 
Q 353 2603 823 3093 
Q 1294 3584 2113 3584 
Q 2378 3584 2631 3529 
Q 2884 3475 3122 3366 
z
" transform="scale(0.015625)"/>
       <path id="DejaVuSans-79" d="M 2059 -325 
Q 1816 -950 1584 -1140 
Q 1353 -1331 966 -1331 
L 506 -1331 
L 506 -850 
L 844 -850 
Q 1081 -850 1212 -737 
Q 1344 -625 1503 -206 
L 1606 56 
L 191 3500 
L 800 3500 
L 1894 763 
L 2988 3500 
L 3597 3500 
L 2059 -325 
z
" transform="scale(0.015625)"/>
       <path id="DejaVuSans-20" transform="scale(0.015625)"/>
       <path id="DejaVuSans-5b" d="M 550 4863 
L 1875 4863 
L 1875 4416 
L 1125 4416 
L 1125 -397 
L 1875 -397 
L 1875 -844 
L 550 -844 
L 550 4863 
z
" transform="scale(0.015625)"/>
       <path id="DejaVuSans-48" d="M 628 4666 
L 1259 4666 
L 1259 2753 
L 3553 2753 
L 3553 4666 
L 4184 4666 
L 4184 0 
L 3553 0 
L 3553 2222 
L 1259 2222 
L 1259 0 
L 628 0 
L 628 4666 
z
" transform="scale(0.015625)"/>
       <path id="DejaVuSans-7a" d="M 353 3500 
L 3084 3500 
L 3084 2975 
L 922 459 
L 3084 459 
L 3084 0 
L 275 0 
L 275 525 
L 2438 3041 
L 353 3041 
L 353 3500 
z
" transform="scale(0.015625)"/>
       <path id="DejaVuSans-5d" d="M 1947 4863 
L 1947 -844 
L 622 -844 
L 622 -397 
L 1369 -397 
L 1369 4416 
L 622 4416 
L 622 4863 
L 1947 4863 
z
" transform="scale(0.015625)"/>
      </defs>
      <use xlink:href="#DejaVuSans-46"/>
      <use xlink:href="#DejaVuSans-72" x="50.269531"/>
      <use xlink:href="#DejaVuSans-65" x="89.132812"/>
      <use xlink:href="#DejaVuSans-71" x="150.65625"/>
      <use xlink:href="#DejaVuSans-75" x="214.132812"/>
      <use xlink:href="#DejaVuSans-65" x="277.511719"/>
      <use xlink:href="#DejaVuSans-6e" x="339.035156"/>
      <use xlink:href="#DejaVuSans-63" x="402.414062"/>
      <use xlink:href="#DejaVuSans-79" x="457.394531"/>
      <use xlink:href="#DejaVuSans-20" x="516.574219"/>
      <use xlink:href="#DejaVuSans-5b" x="548.361328"/>
      <use xlink:href="#DejaVuSans-48" x="587.375"/>
      <use xlink:href="#DejaVuSans-7a" x="662.570312"/>
      <use xlink:href="#DejaVuSans-5d" x="715.060547"/>
     </g>
    </g>
   </g>
   <g id="matplotlib.axis_2">
    <g id="ytick_1">
     <g id="line2d_57">
      <path d="M 52.94 170.728 
L 412.071158 170.728 
" clip-path="url(#p621b174dd1)" style="fill: none; stroke-dasharray: 0.8,1.32; stroke-dashoffset: 0; stroke: #b0b0b0; stroke-width: 0.8"/>
     </g>
     <g id="line2d_58">
      <defs>
       <path id="macc0abd18a" d="M 0 0 
L -3.5 0 
" style="stroke: #000000; stroke-width: 0.8"/>
      </defs>
      <g>
       <use xlink:href="#macc0abd18a" x="52.94" y="170.728" style="stroke: #000000; stroke-width: 0.8"/>
      </g>
     </g>
     <g id="text_6">
      <!-- −20 -->
      <g transform="translate(24.835313 174.527219) scale(0.1 -0.1)">
       <defs>
        <path id="DejaVuSans-2212" d="M 678 2272 
L 4684 2272 
L 4684 1741 
L 678 1741 
L 678 2272 
z
" transform="scale(0.015625)"/>
       </defs>
       <use xlink:href="#DejaVuSans-2212"/>
       <use xlink:href="#DejaVuSans-32" x="83.789062"/>
       <use xlink:href="#DejaVuSans-30" x="147.412109"/>
      </g>
     </g>
    </g>
    <g id="ytick_2">
     <g id="line2d_59">
      <path d="M 52.94 144.733333 
L 412.071158 144.733333 
" clip-path="url(#p621b174dd1)" style="fill: none; stroke-dasharray: 0.8,1.32; stroke-dashoffset: 0; stroke: #b0b0b0; stroke-width: 0.8"/>
     </g>
     <g id="line2d_60">
      <g>
       <use xlink:href="#macc0abd18a" x="52.94" y="144.733333" style="stroke: #000000; stroke-width: 0.8"/>
      </g>
     </g>
     <g id="text_7">
      <!-- −15 -->
      <g transform="translate(24.835313 148.532552) scale(0.1 -0.1)">
       <defs>
        <path id="DejaVuSans-35" d="M 691 4666 
L 3169 4666 
L 3169 4134 
L 1269 4134 
L 1269 2991 
Q 1406 3038 1543 3061 
Q 1681 3084 1819 3084 
Q 2600 3084 3056 2656 
Q 3513 2228 3513 1497 
Q 3513 744 3044 326 
Q 2575 -91 1722 -91 
Q 1428 -91 1123 -41 
Q 819 9 494 109 
L 494 744 
Q 775 591 1075 516 
Q 1375 441 1709 441 
Q 2250 441 2565 725 
Q 2881 1009 2881 1497 
Q 2881 1984 2565 2268 
Q 2250 2553 1709 2553 
Q 1456 2553 1204 2497 
Q 953 2441 691 2322 
L 691 4666 
z
" transform="scale(0.015625)"/>
       </defs>
       <use xlink:href="#DejaVuSans-2212"/>
       <use xlink:href="#DejaVuSans-31" x="83.789062"/>
       <use xlink:href="#DejaVuSans-35" x="147.412109"/>
      </g>
     </g>
    </g>
    <g id="ytick_3">
     <g id="line2d_61">
      <path d="M 52.94 118.738667 
L 412.071158 118.738667 
" clip-path="url(#p621b174dd1)" style="fill: none; stroke-dasharray: 0.8,1.32; stroke-dashoffset: 0; stroke: #b0b0b0; stroke-width: 0.8"/>
     </g>
     <g id="line2d_62">
      <g>
       <use xlink:href="#macc0abd18a" x="52.94" y="118.738667" style="stroke: #000000; stroke-width: 0.8"/>
      </g>
     </g>
     <g id="text_8">
      <!-- −10 -->
      <g transform="translate(24.835313 122.537885) scale(0.1 -0.1)">
       <use xlink:href="#DejaVuSans-2212"/>
       <use xlink:href="#DejaVuSans-31" x="83.789062"/>
       <use xlink:href="#DejaVuSans-30" x="147.412109"/>
      </g>
     </g>
    </g>
    <g id="ytick_4">
     <g id="line2d_63">
      <path d="M 52.94 92.744 
L 412.071158 92.744 
" clip-path="url(#p621b174dd1)" style="fill: none; stroke-dasharray: 0.8,1.32; stroke-dashoffset: 0; stroke: #b0b0b0; stroke-width: 0.8"/>
     </g>
     <g id="line2d_64">
      <g>
       <use xlink:href="#macc0abd18a" x="52.94" y="92.744" style="stroke: #000000; stroke-width: 0.8"/>
      </g>
     </g>
     <g id="text_9">
      <!-- −5 -->
      <g transform="translate(31.197813 96.543219) scale(0.1 -0.1)">
       <use xlink:href="#DejaVuSans-2212"/>
       <use xlink:href="#DejaVuSans-35" x="83.789062"/>
      </g>
     </g>
    </g>
    <g id="ytick_5">
     <g id="line2d_65">
      <path d="M 52.94 66.749333 
L 412.071158 66.749333 
" clip-path="url(#p621b174dd1)" style="fill: none; stroke-dasharray: 0.8,1.32; stroke-dashoffset: 0; stroke: #b0b0b0; stroke-width: 0.8"/>
     </g>
     <g id="line2d_66">
      <g>
       <use xlink:href="#macc0abd18a" x="52.94" y="66.749333" style="stroke: #000000; stroke-width: 0.8"/>
      </g>
     </g>
     <g id="text_10">
      <!-- 0 -->
      <g transform="translate(39.5775 70.548552) scale(0.1 -0.1)">
       <use xlink:href="#DejaVuSans-30"/>
      </g>
     </g>
    </g>
    <g id="ytick_6">
     <g id="line2d_67">
      <path d="M 52.94 40.754667 
L 412.071158 40.754667 
" clip-path="url(#p621b174dd1)" style="fill: none; stroke-dasharray: 0.8,1.32; stroke-dashoffset: 0; stroke: #b0b0b0; stroke-width: 0.8"/>
     </g>
     <g id="line2d_68">
      <g>
       <use xlink:href="#macc0abd18a" x="52.94" y="40.754667" style="stroke: #000000; stroke-width: 0.8"/>
      </g>
     </g>
     <g id="text_11">
      <!-- 5 -->
      <g transform="translate(39.5775 44.553885) scale(0.1 -0.1)">
       <use xlink:href="#DejaVuSans-35"/>
      </g>
     </g>
    </g>
    <g id="ytick_7">
     <g id="line2d_69">
      <path d="M 52.94 14.76 
L 412.071158 14.76 
" clip-path="url(#p621b174dd1)" style="fill: none; stroke-dasharray: 0.8,1.32; stroke-dashoffset: 0; stroke: #b0b0b0; stroke-width: 0.8"/>
     </g>
     <g id="line2d_70">
      <g>
       <use xlink:href="#macc0abd18a" x="52.94" y="14.76" style="stroke: #000000; stroke-width: 0.8"/>
      </g>
     </g>
     <g id="text_12">
      <!-- 10 -->
      <g transform="translate(33.215 18.559219) scale(0.1 -0.1)">
       <use xlink:href="#DejaVuSans-31"/>
       <use xlink:href="#DejaVuSans-30" x="63.623047"/>
      </g>
     </g>
    </g>
    <g id="text_13">
     <!-- H [dB] -->
     <g transform="translate(18.755625 108.599469) rotate(-90) scale(0.1 -0.1)">
      <defs>
       <path id="DejaVuSans-64" d="M 2906 2969 
L 2906 4863 
L 3481 4863 
L 3481 0 
L 2906 0 
L 2906 525 
Q 2725 213 2448 61 
Q 2172 -91 1784 -91 
Q 1150 -91 751 415 
Q 353 922 353 1747 
Q 353 2572 751 3078 
Q 1150 3584 1784 3584 
Q 2172 3584 2448 3432 
Q 2725 3281 2906 2969 
z
M 947 1747 
Q 947 1113 1208 752 
Q 1469 391 1925 391 
Q 2381 391 2643 752 
Q 2906 1113 2906 1747 
Q 2906 2381 2643 2742 
Q 2381 3103 1925 3103 
Q 1469 3103 1208 2742 
Q 947 2381 947 1747 
z
" transform="scale(0.015625)"/>
       <path id="DejaVuSans-42" d="M 1259 2228 
L 1259 519 
L 2272 519 
Q 2781 519 3026 730 
Q 3272 941 3272 1375 
Q 3272 1813 3026 2020 
Q 2781 2228 2272 2228 
L 1259 2228 
z
M 1259 4147 
L 1259 2741 
L 2194 2741 
Q 2656 2741 2882 2914 
Q 3109 3088 3109 3444 
Q 3109 3797 2882 3972 
Q 2656 4147 2194 4147 
L 1259 4147 
z
M 628 4666 
L 2241 4666 
Q 2963 4666 3353 4366 
Q 3744 4066 3744 3513 
Q 3744 3084 3544 2831 
Q 3344 2578 2956 2516 
Q 3422 2416 3680 2098 
Q 3938 1781 3938 1306 
Q 3938 681 3513 340 
Q 3088 0 2303 0 
L 628 0 
L 628 4666 
z
" transform="scale(0.015625)"/>
      </defs>
      <use xlink:href="#DejaVuSans-48"/>
      <use xlink:href="#DejaVuSans-20" x="75.195312"/>
      <use xlink:href="#DejaVuSans-5b" x="106.982422"/>
      <use xlink:href="#DejaVuSans-64" x="145.996094"/>
      <use xlink:href="#DejaVuSans-42" x="209.472656"/>
      <use xlink:href="#DejaVuSans-5d" x="278.076172"/>
     </g>
    </g>
   </g>
   <g id="line2d_71">
    <path d="M 52.94 67.062397 
L 55.822026 67.006555 
L 58.738987 66.937237 
L 61.633066 66.854884 
L 64.541135 66.757805 
L 67.413323 66.647349 
L 70.321518 66.52056 
L 73.216604 66.379603 
L 76.125631 66.223883 
L 79.006586 66.057139 
L 81.915209 65.878437 
L 84.810699 65.693612 
L 87.68681 65.507945 
L 90.588824 65.325065 
L 93.4806 65.155953 
L 96.378027 65.010819 
L 99.271954 64.904035 
L 102.174836 64.851995 
L 105.076968 64.87427 
L 107.970143 64.990741 
L 110.864558 65.220752 
L 113.767904 65.580325 
L 116.655212 66.071037 
L 119.549627 66.685856 
L 122.455455 67.395331 
L 125.349672 68.138627 
L 128.238027 68.84096 
L 131.136322 69.418175 
L 134.034741 69.782854 
L 136.935309 69.869845 
L 139.829388 69.646472 
L 142.718969 69.116738 
L 145.622762 68.308534 
L 148.513705 67.282041 
L 151.409015 66.094312 
L 154.307158 64.808589 
L 157.206407 63.484688 
L 160.098296 62.179427 
L 162.994503 60.933867 
L 165.892014 59.789875 
L 168.787946 58.783548 
L 171.684868 57.943921 
L 174.579359 57.296839 
L 177.477753 56.860879 
L 180.37564 56.651387 
L 183.269051 56.676491 
L 186.166465 56.938659 
L 189.062776 57.434458 
L 191.957054 58.154804 
L 194.854926 59.088347 
L 197.750761 60.217209 
L 200.645709 61.523151 
L 203.543125 62.988337 
L 206.439778 64.591627 
L 209.335211 66.313588 
L 212.231063 68.137229 
L 215.128186 70.046694 
L 218.024624 72.025843 
L 220.920427 74.061434 
L 223.817141 76.142919 
L 226.713703 78.259384 
L 229.608814 80.401033 
L 232.505946 82.56281 
L 235.401174 84.735215 
L 238.298295 86.915437 
L 241.194302 89.096371 
L 244.090309 91.274721 
L 246.986757 93.447324 
L 249.882367 95.610312 
L 252.779021 97.762719 
L 255.675654 99.901885 
L 258.571962 102.026225 
L 261.468199 104.135047 
L 264.364124 106.227772 
L 267.259941 108.304616 
L 270.156165 110.366472 
L 273.052755 112.414273 
L 275.948509 114.448564 
L 278.845402 116.472512 
L 281.74136 118.486792 
L 284.637306 120.494466 
L 287.53353 122.498381 
L 290.429813 124.501189 
L 293.32604 126.505696 
L 296.222636 128.515091 
L 299.118575 130.531485 
L 302.014759 132.558189 
L 304.911046 134.59759 
L 307.807261 136.651794 
L 310.703547 138.722841 
L 313.599569 140.81211 
L 316.495924 142.921315 
L 319.392016 145.050976 
L 322.288385 147.202118 
L 325.184462 149.374636 
L 328.080912 151.569072 
L 330.977074 153.784718 
L 333.873146 156.021298 
L 336.769501 158.278502 
L 339.665777 160.555306 
L 342.561831 162.850737 
L 345.458041 165.164159 
L 348.354258 167.494462 
L 351.250585 169.840709 
L 354.146811 172.201696 
L 357.042923 174.576382 
L 359.93917 176.963965 
L 362.835437 179.363374 
L 365.731691 181.773643 
L 368.627814 184.193784 
L 371.524063 186.623167 
L 374.420299 189.060885 
L 377.316571 191.506242 
L 380.21276 193.958447 
L 383.108956 196.416943 
L 386.005214 198.881188 
L 388.901371 201.350507 
L 391.797619 203.824569 
L 394.693808 206.302793 
L 397.590055 208.784871 
L 400.486267 211.270347 
L 403.382473 213.758906 
L 406.278716 216.250277 
L 407.149403 217 
" clip-path="url(#p621b174dd1)" style="fill: none; stroke: #1f77b4; stroke-width: 1.5; stroke-linecap: square"/>
   </g>
   <g id="line2d_72">
    <path d="M 148.896998 217 
L 151.409015 213.369139 
L 154.307158 209.253851 
L 157.206407 205.160113 
L 160.098296 201.042214 
L 162.994503 196.829296 
L 165.892014 192.488425 
L 168.787946 188.019194 
L 171.684868 183.456893 
L 174.579359 178.891353 
L 177.477753 174.426693 
L 180.37564 170.180368 
L 183.269051 166.225527 
L 186.166465 162.552817 
L 189.062776 159.111088 
L 191.957054 155.810316 
L 194.854926 152.551681 
L 197.750761 149.268142 
L 200.645709 145.911418 
L 203.543125 142.455099 
L 206.439778 138.899555 
L 209.335211 135.255221 
L 212.231063 131.538285 
L 215.128186 127.770951 
L 218.024624 123.982165 
L 220.920427 120.200086 
L 223.817141 116.451982 
L 226.713703 112.769106 
L 229.608814 109.18299 
L 232.505946 105.718857 
L 235.401174 102.409661 
L 238.298295 99.277181 
L 241.194302 96.347612 
L 244.090309 93.638251 
L 246.986757 91.16198 
L 249.882367 88.927139 
L 252.779021 86.933427 
L 255.675654 85.176934 
L 258.571962 83.64787 
L 261.468199 82.332042 
L 264.364124 81.212698 
L 267.259941 80.271375 
L 270.156165 79.489235 
L 273.052755 78.848262 
L 275.948509 78.33194 
L 278.845402 77.925022 
L 281.74136 77.615037 
L 284.637306 77.391354 
L 287.53353 77.245808 
L 290.429813 77.172584 
L 293.32604 77.168118 
L 296.222636 77.231068 
L 299.118575 77.362223 
L 302.014759 77.564567 
L 304.911046 77.843166 
L 307.807261 78.205139 
L 310.703547 78.659644 
L 313.599569 79.217653 
L 316.495924 79.892013 
L 319.392016 80.696698 
L 322.288385 81.646882 
L 325.184462 82.75769 
L 328.080912 84.044202 
L 330.977074 85.519544 
L 333.873146 87.194815 
L 336.769501 89.077993 
L 339.665777 91.172551 
L 342.561831 93.477494 
L 345.458041 95.987573 
L 348.354258 98.69268 
L 351.250585 101.579052 
L 354.146811 104.629555 
L 357.042923 107.825154 
L 359.93917 111.146035 
L 362.835437 114.571826 
L 365.731691 118.082872 
L 368.627814 121.660683 
L 371.524063 125.28897 
L 374.420299 128.953017 
L 377.316571 132.6406 
L 380.21276 136.341641 
L 383.108956 140.048725 
L 386.005214 143.756754 
L 388.901371 147.46265 
L 391.797619 151.165967 
L 394.693808 154.867852 
L 397.590055 158.57163 
L 400.486267 162.28195 
L 403.382473 166.004931 
L 406.278716 169.747689 
L 409.174963 173.51787 
L 412.071158 177.323313 
" clip-path="url(#p621b174dd1)" style="fill: none; stroke: #ff7f0e; stroke-width: 1.5; stroke-linecap: square"/>
   </g>
   <g id="line2d_73">
    <path d="M 201.299051 217 
L 203.543125 215.187778 
L 206.439778 212.862808 
L 209.335211 210.553455 
L 212.231063 208.258654 
L 215.128186 205.977787 
L 218.024624 203.712211 
L 220.920427 201.4614 
L 223.817141 199.223356 
L 226.713703 196.997737 
L 229.608814 194.783957 
L 232.505946 192.577354 
L 235.401174 190.378451 
L 238.298295 188.181432 
L 241.194302 185.985196 
L 244.090309 183.785103 
L 246.986757 181.576656 
L 249.882367 179.356403 
L 252.779021 177.118308 
L 255.675654 174.858576 
L 258.571962 172.572984 
L 261.468199 170.257202 
L 264.364124 167.907816 
L 267.259941 165.521759 
L 270.156165 163.09657 
L 273.052755 160.631257 
L 275.948509 158.126964 
L 278.845402 155.583259 
L 281.74136 153.004413 
L 284.637306 150.393188 
L 287.53353 147.753889 
L 290.429813 145.09215 
L 293.32604 142.414204 
L 296.222636 139.726288 
L 299.118575 137.036308 
L 302.014759 134.350526 
L 304.911046 131.676157 
L 307.807261 129.020307 
L 310.703547 126.389541 
L 313.599569 123.790532 
L 316.495924 121.228746 
L 319.392016 118.710306 
L 322.288385 116.239923 
L 325.184462 113.822854 
L 328.080912 111.462911 
L 330.977074 109.164616 
L 333.873146 106.931407 
L 336.769501 104.766254 
L 339.665777 102.672335 
L 342.561831 100.6523 
L 345.458041 98.708095 
L 348.354258 96.841685 
L 351.250585 95.054503 
L 354.146811 93.347797 
L 357.042923 91.722293 
L 359.93917 90.178172 
L 362.835437 88.715407 
L 365.731691 87.333502 
L 368.627814 86.031573 
L 371.524063 84.808161 
L 374.420299 83.661596 
L 377.316571 82.589758 
L 380.21276 81.590256 
L 383.108956 80.660324 
L 386.005214 79.796968 
L 388.901371 78.997049 
L 391.797619 78.257171 
L 394.693808 77.573925 
L 397.590055 76.943771 
L 400.486267 76.363206 
L 403.382473 75.828717 
L 406.278716 75.336856 
L 409.174963 74.88428 
L 412.071158 74.467767 
" clip-path="url(#p621b174dd1)" style="fill: none; stroke: #2ca02c; stroke-width: 1.5; stroke-linecap: square"/>
   </g>
   <g id="line2d_74">
    <path d="M 52.94 67.021296 
L 55.822026 66.960594 
L 58.738987 66.885803 
L 61.633066 66.797413 
L 64.541135 66.693599 
L 67.413323 66.57577 
L 70.321518 66.440713 
L 73.216604 66.290647 
L 76.125631 66.124804 
L 79.006586 65.946984 
L 81.915209 65.755931 
L 84.810699 65.557524 
L 87.68681 65.356951 
L 90.588824 65.157434 
L 93.4806 64.969941 
L 96.378027 64.804324 
L 99.271954 64.674686 
L 102.174836 64.596889 
L 105.076968 64.590021 
L 107.970143 64.673351 
L 110.864558 64.86522 
L 113.767904 65.180414 
L 116.655212 65.619643 
L 119.549627 66.174166 
L 122.455455 66.813198 
L 125.349672 67.475876 
L 128.238027 68.087808 
L 131.136322 68.56624 
L 134.034741 68.827495 
L 136.935309 68.810836 
L 139.829388 68.488388 
L 142.718969 67.867379 
L 145.622762 66.97646 
L 148.513705 65.875587 
L 151.409015 64.61828 
L 154.307158 63.263299 
L 157.206407 61.86517 
L 160.098296 60.475501 
L 162.994503 59.130043 
L 165.892014 57.866727 
L 168.787946 56.719328 
L 171.684868 55.716389 
L 174.579359 54.88588 
L 177.477753 54.249543 
L 180.37564 53.826345 
L 183.269051 53.625158 
L 186.166465 53.643379 
L 189.062776 53.868932 
L 191.957054 54.281137 
L 194.854926 54.855744 
L 197.750761 55.564036 
L 200.645709 56.377337 
L 203.543125 57.267831 
L 206.439778 58.206508 
L 209.335211 59.166696 
L 212.231063 60.12492 
L 215.128186 61.060802 
L 218.024624 61.957305 
L 220.920427 62.80316 
L 223.817141 63.593234 
L 226.713703 64.327755 
L 229.608814 65.013086 
L 232.505946 65.6623 
L 235.401174 66.291346 
L 238.298295 66.920943 
L 241.194302 67.571444 
L 244.090309 68.263125 
L 246.986757 69.013155 
L 249.882367 69.833569 
L 252.779021 70.731475 
L 255.675654 71.706819 
L 258.571962 72.753507 
L 261.468199 73.860053 
L 264.364124 75.010175 
L 267.259941 76.184291 
L 270.156165 77.360618 
L 273.052755 78.51586 
L 275.948509 79.625927 
L 278.845402 80.668412 
L 281.74136 81.620604 
L 284.637306 82.462745 
L 287.53353 83.177281 
L 290.429813 83.749593 
L 293.32604 84.168767 
L 296.222636 84.428084 
L 299.118575 84.525224 
L 302.014759 84.462702 
L 304.911046 84.247645 
L 307.807261 83.891693 
L 310.703547 83.410506 
L 313.599569 82.823257 
L 316.495924 82.151573 
L 319.392016 81.419088 
L 322.288385 80.64992 
L 325.184462 79.868172 
L 328.080912 79.09624 
L 330.977074 78.354445 
L 333.873146 77.659488 
L 336.769501 77.02389 
L 339.665777 76.455703 
L 342.561831 75.958141 
L 345.458041 75.529832 
L 348.354258 75.165648 
L 351.250585 74.8575 
L 354.146811 74.595517 
L 357.042923 74.3691 
L 359.93917 74.167933 
L 362.835437 73.982806 
L 365.731691 73.806096 
L 368.627814 73.632026 
L 371.524063 73.45666 
L 374.420299 73.277793 
L 377.316571 73.094655 
L 380.21276 72.907615 
L 383.108956 72.717843 
L 386.005214 72.527025 
L 388.901371 72.33713 
L 391.797619 72.150171 
L 394.693808 71.968097 
L 397.590055 71.792654 
L 400.486267 71.625336 
L 403.382473 71.467329 
L 406.278716 71.319493 
L 409.174963 71.18236 
L 412.071158 71.056136 
" clip-path="url(#p621b174dd1)" style="fill: none; stroke: #d62728; stroke-width: 1.5; stroke-linecap: square"/>
   </g>
   <g id="patch_3">
    <path d="M 52.94 170.728 
L 52.94 14.76 
" style="fill: none; stroke: #000000; stroke-width: 0.8; stroke-linejoin: miter; stroke-linecap: square"/>
   </g>
   <g id="patch_4">
    <path d="M 412.071158 170.728 
L 412.071158 14.76 
" style="fill: none; stroke: #000000; stroke-width: 0.8; stroke-linejoin: miter; stroke-linecap: square"/>
   </g>
   <g id="patch_5">
    <path d="M 52.94 170.728 
L 412.071158 170.728 
" style="fill: none; stroke: #000000; stroke-width: 0.8; stroke-linejoin: miter; stroke-linecap: square"/>
   </g>
   <g id="patch_6">
    <path d="M 52.94 14.76 
L 412.071158 14.76 
" style="fill: none; stroke: #000000; stroke-width: 0.8; stroke-linejoin: miter; stroke-linecap: square"/>
   </g>
   <g id="legend_1">
    <g id="patch_7">
     <path d="M 59.94 165.728 
L 114.805625 165.728 
Q 116.805625 165.728 116.805625 163.728 
L 116.805625 106.0155 
Q 116.805625 104.0155 114.805625 104.0155 
L 59.94 104.0155 
Q 57.94 104.0155 57.94 106.0155 
L 57.94 163.728 
Q 57.94 165.728 59.94 165.728 
z
" style="fill: #ffffff; opacity: 0.8; stroke: #cccccc; stroke-linejoin: miter"/>
    </g>
    <g id="line2d_75">
     <path d="M 61.94 112.113937 
L 71.94 112.113937 
L 81.94 112.113937 
" style="fill: none; stroke: #1f77b4; stroke-width: 1.5; stroke-linecap: square"/>
    </g>
    <g id="text_14">
     <!-- LF -->
     <g transform="translate(89.94 115.613937) scale(0.1 -0.1)">
      <defs>
       <path id="DejaVuSans-4c" d="M 628 4666 
L 1259 4666 
L 1259 531 
L 3531 531 
L 3531 0 
L 628 0 
L 628 4666 
z
" transform="scale(0.015625)"/>
      </defs>
      <use xlink:href="#DejaVuSans-4c"/>
      <use xlink:href="#DejaVuSans-46" x="55.712891"/>
     </g>
    </g>
    <g id="line2d_76">
     <path d="M 61.94 126.792062 
L 71.94 126.792062 
L 81.94 126.792062 
" style="fill: none; stroke: #ff7f0e; stroke-width: 1.5; stroke-linecap: square"/>
    </g>
    <g id="text_15">
     <!-- MF -->
     <g transform="translate(89.94 130.292062) scale(0.1 -0.1)">
      <defs>
       <path id="DejaVuSans-4d" d="M 628 4666 
L 1569 4666 
L 2759 1491 
L 3956 4666 
L 4897 4666 
L 4897 0 
L 4281 0 
L 4281 4097 
L 3078 897 
L 2444 897 
L 1241 4097 
L 1241 0 
L 628 0 
L 628 4666 
z
" transform="scale(0.015625)"/>
      </defs>
      <use xlink:href="#DejaVuSans-4d"/>
      <use xlink:href="#DejaVuSans-46" x="86.279297"/>
     </g>
    </g>
    <g id="line2d_77">
     <path d="M 61.94 141.470188 
L 71.94 141.470188 
L 81.94 141.470188 
" style="fill: none; stroke: #2ca02c; stroke-width: 1.5; stroke-linecap: square"/>
    </g>
    <g id="text_16">
     <!-- HF -->
     <g transform="translate(89.94 144.970188) scale(0.1 -0.1)">
      <use xlink:href="#DejaVuSans-48"/>
      <use xlink:href="#DejaVuSans-46" x="75.195312"/>
     </g>
    </g>
    <g id="line2d_78">
     <path d="M 61.94 156.148313 
L 71.94 156.148313 
L 81.94 156.148313 
" style="fill: none; stroke: #d62728; stroke-width: 1.5; stroke-linecap: square"/>
    </g>
    <g id="text_17">
     <!-- total -->
     <g transform="translate(89.94 159.648313) scale(0.1 -0.1)">
      <defs>
       <path id="DejaVuSans-74" d="M 1172 4494 
L 1172 3500 
L 2356 3500 
L 2356 3053 
L 1172 3053 
L 1172 1153 
Q 1172 725 1289 603 
Q 1406 481 1766 481 
L 2356 481 
L 2356 0 
L 1766 0 
Q 1100 0 847 248 
Q 594 497 594 1153 
L 594 3053 
L 172 3053 
L 172 3500 
L 594 3500 
L 594 4494 
L 1172 4494 
z
" transform="scale(0.015625)"/>
       <path id="DejaVuSans-6f" d="M 1959 3097 
Q 1497 3097 1228 2736 
Q 959 2375 959 1747 
Q 959 1119 1226 758 
Q 1494 397 1959 397 
Q 2419 397 2687 759 
Q 2956 1122 2956 1747 
Q 2956 2369 2687 2733 
Q 2419 3097 1959 3097 
z
M 1959 3584 
Q 2709 3584 3137 3096 
Q 3566 2609 3566 1747 
Q 3566 888 3137 398 
Q 2709 -91 1959 -91 
Q 1206 -91 779 398 
Q 353 888 353 1747 
Q 353 2609 779 3096 
Q 1206 3584 1959 3584 
z
" transform="scale(0.015625)"/>
       <path id="DejaVuSans-61" d="M 2194 1759 
Q 1497 1759 1228 1600 
Q 959 1441 959 1056 
Q 959 750 1161 570 
Q 1363 391 1709 391 
Q 2188 391 2477 730 
Q 2766 1069 2766 1631 
L 2766 1759 
L 2194 1759 
z
M 3341 1997 
L 3341 0 
L 2766 0 
L 2766 531 
Q 2569 213 2275 61 
Q 1981 -91 1556 -91 
Q 1019 -91 701 211 
Q 384 513 384 1019 
Q 384 1609 779 1909 
Q 1175 2209 1959 2209 
L 2766 2209 
L 2766 2266 
Q 2766 2663 2505 2880 
Q 2244 3097 1772 3097 
Q 1472 3097 1187 3025 
Q 903 2953 641 2809 
L 641 3341 
Q 956 3463 1253 3523 
Q 1550 3584 1831 3584 
Q 2591 3584 2966 3190 
Q 3341 2797 3341 1997 
z
" transform="scale(0.015625)"/>
       <path id="DejaVuSans-6c" d="M 603 4863 
L 1178 4863 
L 1178 0 
L 603 0 
L 603 4863 
z
" transform="scale(0.015625)"/>
      </defs>
      <use xlink:href="#DejaVuSans-74"/>
      <use xlink:href="#DejaVuSans-6f" x="39.208984"/>
      <use xlink:href="#DejaVuSans-74" x="100.390625"/>
      <use xlink:href="#DejaVuSans-61" x="139.599609"/>
      <use xlink:href="#DejaVuSans-6c" x="200.878906"/>
     </g>
    </g>
   </g>
  </g>
 </g>
 <defs>
  <clipPath id="p621b174dd1">
   <rect x="52.94" y="14.76" width="359.131158" height="155.968"/>
  </clipPath>
 </defs>
</svg>
